<svg width="26" height="25" viewBox="0 0 26 25" fill="none" xmlns="http://www.w3.org/2000/svg">
<path d="M23.3948 13.0264C23.4681 18.5703 18.8316 23.4315 12.9727 23.4068C7.11381 23.3821 2.57501 18.7266 2.57501 12.9688C2.57501 7.21101 7.27678 2.60479 13.0297 2.58834C18.7827 2.57189 23.5007 7.41664 23.3948 13.0264Z" fill="#F44336"/>
<path d="M19.9877 4.02034C20.9818 4.3 22.0085 4.41516 22.9375 4.85933C24.5183 5.63251 25.2924 7.31872 24.9013 9.07073C24.722 9.88504 24.4776 10.6747 24.2331 11.4808C23.7523 8.45382 22.3263 5.97798 19.9877 4.02034Z" fill="black"/>
<path d="M21.9916 19.9439C21.6167 21.1037 21.5679 22.3539 20.8671 23.3821C20.4438 24.0047 19.8432 24.4829 19.1447 24.7531C18.4462 25.0234 17.6828 25.0731 16.9557 24.8956C16.206 24.7064 15.4482 24.509 14.6986 24.2787C17.6565 23.7276 20.0848 22.2964 21.9916 19.9439Z" fill="black"/>
<path d="M11.2109 1.70836C8.37518 2.20188 6.02294 3.53988 4.15418 5.72235C4.0401 5.6072 4.13788 5.50027 4.16233 5.39334C4.18626 5.27317 4.21895 5.15496 4.26011 5.03965C4.42309 4.44742 4.53717 3.83874 4.76533 3.27119C5.08456 2.50202 5.65175 1.86422 6.37498 1.46113C7.09821 1.05804 7.9351 0.913283 8.75002 1.05033C9.58933 1.18194 10.3879 1.4616 11.2109 1.70836Z" fill="black"/>
<path d="M5.76767 21.9103C4.6676 21.5484 3.4779 21.5319 2.52451 20.7999C1.31036 19.8704 0.821439 18.6366 1.05775 17.1313C1.15553 16.5227 1.3511 15.9386 1.51407 15.3464C1.53852 15.2724 1.53037 15.1243 1.64445 15.1243C1.75853 15.1243 1.76668 15.2806 1.78298 15.3711C2.14458 17.0539 2.88017 18.6317 3.93422 19.9855C4.48374 20.6842 5.09764 21.3286 5.76767 21.9103Z" fill="black"/>
<path d="M18.9276 17.6579C18.9255 18.0482 18.847 18.4342 18.6965 18.7937C18.5461 19.1532 18.3268 19.4792 18.0511 19.7528C17.7755 20.0265 17.449 20.2424 17.0904 20.3883C16.7317 20.5341 16.3481 20.607 15.9615 20.6026C14.3318 20.5944 12.9791 19.2372 13.0036 17.6332C13.0464 16.8675 13.3787 16.1475 13.932 15.6218C14.4853 15.0961 15.2174 14.8048 15.9772 14.808C16.737 14.8111 17.4667 15.1085 18.0156 15.6388C18.5646 16.1691 18.8911 16.8918 18.9276 17.6579Z" fill="#FEFEFE"/>
<path d="M12.9875 8.34638C12.9478 9.1101 12.6192 9.8293 12.0696 10.3557C11.52 10.8821 10.7913 11.1755 10.0336 11.1755C9.27599 11.1755 8.54724 10.8821 7.99764 10.3557C7.44804 9.8293 7.11949 9.1101 7.07974 8.34638C7.11949 7.58267 7.44804 6.86347 7.99764 6.33707C8.54724 5.81068 9.27599 5.51723 10.0336 5.51723C10.7913 5.51723 11.52 5.81068 12.0696 6.33707C12.6192 6.86347 12.9478 7.58267 12.9875 8.34638Z" fill="#FEFEFE"/>
<path d="M17.4785 12.7384C17.0887 12.7406 16.7025 12.6645 16.3421 12.5148C15.9817 12.365 15.6544 12.1444 15.3792 11.8658C15.1039 11.5872 14.8863 11.2562 14.7389 10.892C14.5915 10.5279 14.5173 10.1377 14.5205 9.74432C14.5287 8.15682 15.8651 6.81608 17.4785 6.82431C19.0919 6.83253 20.4364 8.15682 20.4527 9.81012C20.469 11.4634 19.1082 12.7466 17.4785 12.7384Z" fill="#FEFEFE"/>
<path d="M11.4559 16.2099C11.5374 17.6329 10.307 19.1711 8.51428 19.1711C6.87641 19.1628 5.54818 17.8385 5.55633 16.2099C5.56447 14.5813 6.86826 13.2735 8.51428 13.2652C10.3314 13.2406 11.5537 14.8527 11.4559 16.2099Z" fill="#FEFEFE"/>
<path d="M12.9559 11.7847C13.1245 11.7814 13.2922 11.8119 13.4492 11.8743C13.6062 11.9367 13.7494 12.0298 13.8706 12.1483C13.9917 12.2668 14.0885 12.4084 14.1553 12.5648C14.2221 12.7212 14.2575 12.8893 14.2596 13.0596C14.2586 13.2335 14.2236 13.4055 14.1567 13.5658C14.0897 13.7261 13.9922 13.8714 13.8696 13.9937C13.747 14.1159 13.6018 14.2125 13.4422 14.278C13.2827 14.3436 13.1118 14.3768 12.9396 14.3757C12.7705 14.3768 12.6029 14.3442 12.4462 14.2799C12.2896 14.2156 12.1471 14.1208 12.0268 14.0009C11.9065 13.881 11.8107 13.7383 11.745 13.581C11.6794 13.4238 11.645 13.255 11.6439 13.0843C11.6358 12.3358 12.1899 11.7765 12.9559 11.7847Z" fill="#FEFEFE"/>
</svg>
