<svg width="307" height="45" viewBox="0 0 307 45" fill="none" xmlns="http://www.w3.org/2000/svg">
<path d="M0.751953 19.717C1.30662 19.5263 1.80929 19.275 2.25995 18.963C2.71062 18.651 3.06162 18.3173 3.31295 17.962C3.57295 17.6067 3.70295 17.273 3.70295 16.961C3.70295 16.519 3.48195 15.4357 3.03995 13.711L4.04095 13.334C4.23162 13.9493 4.38762 14.5993 4.50895 15.284C4.63895 15.9687 4.70395 16.5277 4.70395 16.961C4.70395 17.4723 4.55229 17.9707 4.24895 18.456C3.94562 18.95 3.52529 19.392 2.98795 19.782C2.45929 20.1807 1.86129 20.497 1.19395 20.731L0.751953 19.717ZM7.1707 7.952C7.24004 8.394 7.29204 9.16967 7.3267 10.279C7.37004 11.3797 7.3917 12.3807 7.3917 13.282V13.828L7.3787 14.283C7.3787 14.6903 7.41337 15.0023 7.4827 15.219C7.55204 15.427 7.68204 15.583 7.8727 15.687C8.07204 15.7823 8.3667 15.83 8.7567 15.83H8.8217L8.8867 16.415L8.8217 17H8.7567C8.14137 17 7.66037 16.9003 7.3137 16.701C6.96704 16.493 6.72004 16.1853 6.5727 15.778C6.43404 15.3707 6.3647 14.8333 6.3647 14.166C6.3647 13.178 6.34304 12.06 6.2997 10.812C6.26504 9.55533 6.2087 8.67567 6.1307 8.173L7.1707 7.952ZM8.6977 15.83H9.2177C10.145 15.83 10.7994 15.7433 11.1807 15.57C11.562 15.388 11.7527 15.0933 11.7527 14.686C11.744 14.4173 11.653 14.01 11.4797 13.464C11.315 12.9093 11.172 12.5107 11.0507 12.268L11.9867 11.774C12.16 12.112 12.329 12.5713 12.4937 13.152C12.667 13.724 12.7537 14.2223 12.7537 14.647C12.7537 15.4183 12.472 16.0033 11.9087 16.402C11.3454 16.8007 10.496 17 9.3607 17H8.6977V15.83ZM8.2557 18.833L8.8407 18.248L9.7117 19.119L8.8407 20.003L7.9697 19.119L8.2557 18.833ZM10.5697 18.833L11.1547 18.248L12.0257 19.119L11.1547 20.003L10.2837 19.119L10.5697 18.833ZM13.6722 19.691C15.0589 19.3877 16.0859 18.976 16.7532 18.456C17.4206 17.9447 17.7542 17.299 17.7542 16.519C17.7456 16.0077 17.6762 15.5007 17.5462 14.998C17.4162 14.4953 17.2256 14.075 16.9742 13.737C16.7229 13.3903 16.4239 13.204 16.0772 13.178C15.8866 13.1693 15.7002 13.2473 15.5182 13.412C15.3362 13.5767 15.1889 13.789 15.0762 14.049C14.9636 14.309 14.9072 14.556 14.9072 14.79C14.9072 14.9807 14.9462 15.141 15.0242 15.271C15.1629 15.479 15.3969 15.635 15.7262 15.739C16.0642 15.843 16.4499 15.895 16.8832 15.895C17.2992 15.895 17.6806 15.856 18.0272 15.778V16.883C17.6546 16.987 17.2212 17.039 16.7272 17.039C16.1552 17.039 15.6396 16.9523 15.1802 16.779C14.7209 16.597 14.3916 16.311 14.1922 15.921C14.0536 15.6437 13.9842 15.3187 13.9842 14.946C13.9842 14.4953 14.0796 14.0447 14.2702 13.594C14.4696 13.1433 14.7296 12.7707 15.0502 12.476C15.3796 12.1813 15.7306 12.034 16.1032 12.034C16.6146 12.034 17.0652 12.2593 17.4552 12.71C17.8452 13.1607 18.1442 13.7283 18.3522 14.413C18.5602 15.089 18.6642 15.7563 18.6642 16.415C18.6642 17.4897 18.2526 18.404 17.4292 19.158C16.6146 19.912 15.4749 20.4363 14.0102 20.731L13.6722 19.691ZM23.615 17C23.0777 17 22.6617 16.8137 22.367 16.441C22.0723 16.0683 21.8253 15.531 21.626 14.829L22.354 14.387C22.484 14.9157 22.64 15.2883 22.822 15.505C23.0127 15.7217 23.277 15.83 23.615 15.83H23.706L23.771 16.415L23.706 17H23.615ZM18.792 19.717C19.3467 19.5263 19.8493 19.275 20.3 18.963C20.7507 18.651 21.1017 18.3173 21.353 17.962C21.613 17.6067 21.743 17.273 21.743 16.961C21.743 16.519 21.522 15.4357 21.08 13.711L22.081 13.334C22.2717 13.9493 22.4277 14.5993 22.549 15.284C22.679 15.9687 22.744 16.5277 22.744 16.961C22.744 17.4723 22.5923 17.9707 22.289 18.456C21.9857 18.95 21.5653 19.392 21.028 19.782C20.4993 20.1807 19.9013 20.497 19.234 20.731L18.792 19.717ZM23.5766 15.83H23.9016C24.7596 15.83 25.4313 15.7607 25.9166 15.622C26.4106 15.4833 26.7399 15.2623 26.9046 14.959C26.9653 14.8637 26.9956 14.7423 26.9956 14.595C26.9956 14.179 26.7443 13.659 26.2416 13.035C25.7476 12.411 25.0759 11.7697 24.2266 11.111L24.3566 9.993L29.1146 7.952L29.4526 8.901L25.3836 10.669C26.0769 11.2497 26.6706 11.8953 27.1646 12.606C27.6673 13.3167 27.9186 13.9883 27.9186 14.621C27.9186 14.855 27.8796 15.076 27.8016 15.284C27.3856 16.428 26.0856 17 23.9016 17H23.5766V15.83ZM24.4996 8.472L28.6206 6.717L28.8156 7.211L24.4346 9.083L24.4996 8.472ZM30.5091 16.922C30.5697 16.402 30.6001 15.5223 30.6001 14.283C30.6001 13.1043 30.5741 11.8867 30.5221 10.63C30.4787 9.36467 30.4267 8.54567 30.3661 8.173L31.4061 7.952C31.4581 8.35067 31.5101 9.22167 31.5621 10.565C31.6227 11.8997 31.6531 13.1693 31.6531 14.374C31.6531 15.5873 31.6227 16.48 31.5621 17.052L30.5091 16.922ZM43.8323 16.168C44.1443 16.0987 44.6773 16.025 45.4313 15.947C46.194 15.869 46.766 15.83 47.1473 15.83L47.2123 16.415L47.1473 17C46.3673 17 45.6177 16.961 44.8983 16.883C44.179 16.805 43.6893 16.7053 43.4293 16.584L43.8323 16.168ZM37.7223 15.219C38.1817 15.4357 38.7363 15.6133 39.3863 15.752C40.0363 15.882 40.7297 15.947 41.4663 15.947C42.2637 15.947 42.97 15.8517 43.5853 15.661C44.2007 15.4617 44.6773 15.206 45.0153 14.894C45.3533 14.5733 45.5223 14.2397 45.5223 13.893C45.5223 13.581 45.3967 13.3253 45.1453 13.126C44.9027 12.918 44.569 12.814 44.1443 12.814C43.4423 12.814 42.7273 13.139 41.9993 13.789C41.2713 14.4303 40.5823 15.3403 39.9323 16.519L39.1133 16.012C39.824 14.6687 40.617 13.6157 41.4923 12.853C42.3763 12.0817 43.2387 11.6917 44.0793 11.683C44.53 11.683 44.9373 11.7783 45.3013 11.969C45.674 12.1597 45.9643 12.4197 46.1723 12.749C46.3803 13.0783 46.4843 13.451 46.4843 13.867C46.4843 14.5083 46.2677 15.076 45.8343 15.57C45.401 16.064 44.803 16.4453 44.0403 16.714C43.2863 16.9827 42.4327 17.117 41.4793 17.117C40.708 17.117 39.9627 17.0433 39.2433 16.896C38.5327 16.74 37.9087 16.5363 37.3713 16.285L37.7223 15.219ZM40.0883 14.556C40.123 14.244 40.1403 13.8237 40.1403 13.295C40.1403 12.4197 40.097 11.449 40.0103 10.383C39.9323 9.30833 39.8587 8.576 39.7893 8.186L40.8293 7.952C40.8987 8.33333 40.9637 8.953 41.0243 9.811C41.0937 10.6603 41.1283 11.4967 41.1283 12.32C41.1283 13.126 41.0937 13.802 41.0243 14.348L40.0883 14.556ZM54.2795 15.83C54.9295 15.83 55.2545 15.4703 55.2545 14.751C55.2545 14.4563 55.1678 14.0447 54.9945 13.516C54.8298 12.9787 54.6825 12.5713 54.5525 12.294L55.4755 11.787C55.6488 12.151 55.8221 12.6277 55.9955 13.217C56.1688 13.7977 56.2555 14.309 56.2555 14.751C56.2555 15.1757 56.1688 15.5613 55.9955 15.908C55.8308 16.246 55.5968 16.5147 55.2935 16.714C54.9988 16.9047 54.6608 17 54.2795 17H54.2535V15.83H54.2795ZM50.7435 17V15.83H50.7825C51.2678 15.83 51.6838 15.5267 52.0305 14.92C52.1431 14.712 52.2298 14.465 52.2905 14.179C52.3598 13.893 52.4248 13.5767 52.4855 13.23L53.4475 13.282C53.4388 13.3167 53.4085 13.477 53.3565 13.763C53.3045 14.049 53.2785 14.3263 53.2785 14.595C53.2785 15.011 53.3565 15.323 53.5125 15.531C53.6771 15.7303 53.9328 15.83 54.2795 15.83H54.3055L54.3705 16.415L54.3055 17H54.2795C53.7768 17 53.3738 16.8527 53.0705 16.558C52.7758 16.2547 52.5981 15.8343 52.5375 15.297L52.7455 15.284C52.5635 15.778 52.2948 16.1897 51.9395 16.519C51.5928 16.8397 51.2028 17 50.7695 17H50.7435ZM47.0255 17L46.9605 16.415L47.0255 15.83H47.0905C47.4111 15.83 47.7145 15.7563 48.0005 15.609C48.2865 15.4617 48.5075 15.2667 48.6635 15.024C48.8281 14.79 48.9538 14.543 49.0405 14.283C49.1358 14.023 49.2311 13.7153 49.3265 13.36L50.3015 13.464C50.2841 13.516 50.2495 13.646 50.1975 13.854C50.1455 14.062 50.1021 14.257 50.0675 14.439C50.0415 14.621 50.0285 14.7857 50.0285 14.933C50.0285 15.531 50.2711 15.83 50.7565 15.83H50.7825L50.8475 16.415L50.7825 17H50.7435C50.3448 17 50.0111 16.883 49.7425 16.649C49.4825 16.4063 49.3265 16.0813 49.2745 15.674C49.0058 16.1073 48.6851 16.4367 48.3125 16.662C47.9398 16.8873 47.5281 17 47.0775 17H47.0255ZM57.0902 19.691C58.4769 19.3877 59.5039 18.976 60.1712 18.456C60.8385 17.9447 61.1722 17.299 61.1722 16.519C61.1722 16.0163 61.1072 15.5137 60.9772 15.011C60.8472 14.4997 60.6522 14.075 60.3922 13.737C60.1409 13.3903 59.8419 13.204 59.4952 13.178C59.3045 13.1693 59.1182 13.2473 58.9362 13.412C58.7542 13.5767 58.6069 13.789 58.4942 14.049C58.3815 14.309 58.3252 14.556 58.3252 14.79C58.3252 14.9807 58.3642 15.141 58.4422 15.271C58.5809 15.4963 58.9059 15.648 59.4172 15.726C59.9285 15.7953 60.5872 15.83 61.3932 15.83H62.5372L62.6022 16.415L62.5372 17L60.9642 17.013C60.0802 17.013 59.3565 16.9393 58.7932 16.792C58.2299 16.6447 57.8355 16.3543 57.6102 15.921C57.4715 15.6437 57.4022 15.3187 57.4022 14.946C57.4022 14.4953 57.4975 14.0447 57.6882 13.594C57.8875 13.1433 58.1475 12.7707 58.4682 12.476C58.7975 12.1813 59.1485 12.034 59.5212 12.034C60.0325 12.034 60.4832 12.2593 60.8732 12.71C61.2632 13.1607 61.5622 13.7283 61.7702 14.413C61.9782 15.089 62.0822 15.7563 62.0822 16.415C62.0822 17.4897 61.6705 18.404 60.8472 19.158C60.0325 19.912 58.8929 20.4363 57.4282 20.731L57.0902 19.691ZM62.3735 15.83H62.8935C63.8208 15.83 64.4751 15.7433 64.8565 15.57C65.2378 15.388 65.4285 15.0933 65.4285 14.686C65.4198 14.4173 65.3288 14.01 65.1555 13.464C64.9908 12.9093 64.8478 12.5107 64.7265 12.268L65.6625 11.774C65.8358 12.112 66.0048 12.5713 66.1695 13.152C66.3428 13.724 66.4295 14.2223 66.4295 14.647C66.4295 15.4183 66.1478 16.0033 65.5845 16.402C65.0211 16.8007 64.1718 17 63.0365 17H62.3735V15.83ZM63.0235 9.798L63.6085 9.213L64.4795 10.084L63.6085 10.968L62.7375 10.084L63.0235 9.798ZM65.3375 9.798L65.9225 9.213L66.7935 10.084L65.9225 10.968L65.0515 10.084L65.3375 9.798ZM75.8579 20.627C75.1126 20.627 74.4496 20.4797 73.8689 20.185C73.2969 19.899 72.8463 19.4873 72.5169 18.95C72.1876 18.4127 72.0229 17.7843 72.0229 17.065C72.0229 16.5363 72.1096 15.9773 72.2829 15.388C72.4563 14.7987 72.6556 14.2787 72.8809 13.828L73.7649 14.244C73.2796 15.2667 73.0369 16.1593 73.0369 16.922C73.0369 17.7453 73.2796 18.3737 73.7649 18.807C74.2503 19.2403 74.9479 19.457 75.8579 19.457C76.3866 19.457 76.8849 19.3877 77.3529 19.249C77.8296 19.1103 78.2196 18.937 78.5229 18.729C78.8263 18.5297 78.9996 18.352 79.0429 18.196C78.9996 18.1007 78.8479 17.949 78.5879 17.741C78.3366 17.5417 78.0203 17.3293 77.6389 17.104C77.2576 16.8787 76.8633 16.6837 76.4559 16.519L76.7029 15.414C78.0463 15.6913 79.1643 15.83 80.0569 15.83H80.3689L80.4339 16.415L80.3689 17H80.0569C79.4763 17 78.9173 16.961 78.3799 16.883C77.8426 16.7963 77.2056 16.675 76.4689 16.519L76.7289 15.765L76.9889 15.882C77.8556 16.2633 78.5793 16.6403 79.1599 17.013C79.7493 17.3943 80.0439 17.7973 80.0439 18.222C80.0439 18.6207 79.8489 19.002 79.4589 19.366C79.0776 19.7387 78.5619 20.042 77.9119 20.276C77.2706 20.51 76.5859 20.627 75.8579 20.627ZM80.1342 15.83H80.8102C81.5036 15.83 82.0019 15.739 82.3052 15.557C82.6172 15.375 82.7732 15.0933 82.7732 14.712C82.7732 14.4433 82.6866 14.0317 82.5132 13.477C82.3399 12.9223 82.1969 12.5193 82.0842 12.268L83.0202 11.774C83.1849 12.138 83.3539 12.619 83.5272 13.217C83.7006 13.8063 83.7872 14.309 83.7872 14.725C83.7786 15.4703 83.5186 16.038 83.0072 16.428C82.4959 16.8093 81.7636 17 80.8102 17H80.1342V15.83ZM81.2522 10.032L81.5642 9.72C81.9716 9.31267 82.1752 9.109 82.1752 9.109C82.1752 9.109 82.3789 9.31267 82.7862 9.72L83.0982 10.032L82.1752 10.955L81.2522 10.032ZM86.2752 7.952C86.3445 8.394 86.3965 9.16967 86.4312 10.279C86.4745 11.3797 86.4962 12.3807 86.4962 13.282V13.828L86.4832 14.283C86.4832 14.6903 86.5179 15.0023 86.5872 15.219C86.6565 15.427 86.7865 15.583 86.9772 15.687C87.1765 15.7823 87.4712 15.83 87.8612 15.83H87.9262L87.9912 16.415L87.9262 17H87.8612C87.2459 17 86.7649 16.9003 86.4182 16.701C86.0715 16.493 85.8245 16.1853 85.6772 15.778C85.5385 15.3707 85.4692 14.8333 85.4692 14.166C85.4692 13.178 85.4475 12.06 85.4042 10.812C85.3695 9.55533 85.3132 8.67567 85.2352 8.173L86.2752 7.952ZM87.8022 15.83H87.9062C88.5302 15.83 89.0069 15.765 89.3362 15.635C89.6655 15.4963 89.8865 15.2797 89.9992 14.985C90.0425 14.8637 90.0642 14.6947 90.0642 14.478C90.0642 14.2613 90.0295 13.893 89.9602 13.373L89.9082 12.996L90.8572 12.814C90.9699 13.36 91.0262 14.0533 91.0262 14.894C91.0869 15.1973 91.2212 15.4313 91.4292 15.596C91.6372 15.752 91.8972 15.83 92.2092 15.83H92.3132L92.3782 16.415L92.3132 17H92.2092C91.7759 17 91.3945 16.8743 91.0652 16.623C90.7445 16.363 90.5192 16.0337 90.3892 15.635L90.6622 15.687C90.4975 16.1637 90.1899 16.5017 89.7392 16.701C89.2972 16.9003 88.6862 17 87.9062 17H87.8022V15.83ZM87.6982 19.132L88.0102 18.82C88.4175 18.4127 88.6212 18.209 88.6212 18.209C88.6212 18.209 88.8249 18.4127 89.2322 18.82L89.5442 19.132L88.6212 20.055L87.6982 19.132ZM92.1821 15.83H92.2991C92.9664 15.83 93.4864 15.804 93.8591 15.752C94.2317 15.6913 94.5047 15.6003 94.6781 15.479C94.8514 15.3577 94.9771 15.193 95.0551 14.985C95.1071 14.829 95.1331 14.6427 95.1331 14.426C95.1331 14.1487 95.0811 13.672 94.9771 12.996L95.9391 12.814C96.0431 13.36 96.0994 14.0533 96.1081 14.894C96.2294 15.518 96.6237 15.83 97.2911 15.83H97.3821L97.4471 16.415L97.3821 17H97.2911C96.8577 17 96.4764 16.8743 96.1471 16.623C95.8264 16.363 95.6011 16.0337 95.4711 15.635L95.7311 15.687C95.6184 16.0163 95.4321 16.2763 95.1721 16.467C94.9121 16.6577 94.5524 16.7963 94.0931 16.883C93.6424 16.961 93.0444 17 92.2991 17H92.1821V15.83ZM91.8311 18.807L92.4161 18.222L93.2871 19.093L92.4161 19.977L91.5451 19.093L91.8311 18.807ZM94.1451 18.807L94.7301 18.222L95.6011 19.093L94.7301 19.977L93.8591 19.093L94.1451 18.807ZM102.487 15.83L102.552 16.415L102.487 17H102.422C101.919 17 101.486 16.8743 101.122 16.623C100.766 16.3717 100.519 15.999 100.381 15.505C100.329 15.3317 100.22 14.8507 100.056 14.062L99.8345 13.074L100.758 12.788C101.009 13.9147 101.178 14.6253 101.265 14.92C101.36 15.232 101.499 15.4617 101.681 15.609C101.871 15.7563 102.118 15.83 102.422 15.83H102.487ZM101.134 14.842C101.022 15.596 100.671 16.1463 100.082 16.493C99.4922 16.831 98.5735 17 97.3255 17H97.2475V15.83H97.3255C98.3135 15.83 99.0502 15.739 99.5355 15.557C100.021 15.3663 100.29 15.076 100.342 14.686L101.134 14.842ZM98.2225 10.539L98.8075 9.954L99.6785 10.825L98.8075 11.709L97.9365 10.825L98.2225 10.539ZM100.537 10.539L101.122 9.954L101.993 10.825L101.122 11.709L100.251 10.825L100.537 10.539ZM109.605 15.83H109.631C109.952 15.83 110.242 15.739 110.502 15.557C110.771 15.375 110.918 15.167 110.944 14.933L111.659 15.063C111.624 15.427 111.507 15.7563 111.308 16.051C111.117 16.3457 110.875 16.5797 110.58 16.753C110.285 16.9177 109.969 17 109.631 17H109.605V15.83ZM112.946 15.83L113.011 16.415L112.946 17H112.881C112.404 17 111.984 16.8657 111.62 16.597C111.256 16.3283 110.992 15.9427 110.827 15.44C110.74 15.1887 110.58 14.452 110.346 13.23L111.295 12.983C111.486 14.0577 111.633 14.7423 111.737 15.037C111.824 15.3057 111.958 15.505 112.14 15.635C112.331 15.765 112.578 15.83 112.881 15.83H112.946ZM106.095 17V15.83H106.134C106.619 15.83 107.035 15.5267 107.382 14.92C107.495 14.712 107.581 14.465 107.642 14.179C107.711 13.893 107.776 13.5767 107.837 13.23L108.799 13.282C108.79 13.3167 108.76 13.477 108.708 13.763C108.656 14.049 108.63 14.3263 108.63 14.595C108.63 15.011 108.708 15.323 108.864 15.531C109.029 15.7303 109.284 15.83 109.631 15.83H109.657L109.722 16.415L109.657 17H109.631C109.128 17 108.725 16.8527 108.422 16.558C108.127 16.2547 107.95 15.8343 107.889 15.297L108.097 15.284C107.915 15.778 107.646 16.1897 107.291 16.519C106.944 16.8397 106.554 17 106.121 17H106.095ZM102.377 17L102.312 16.415L102.377 15.83H102.442C102.763 15.83 103.066 15.7563 103.352 15.609C103.638 15.4617 103.859 15.2667 104.015 15.024C104.18 14.79 104.305 14.543 104.392 14.283C104.487 14.023 104.583 13.7153 104.678 13.36L105.653 13.464C105.636 13.516 105.601 13.646 105.549 13.854C105.497 14.062 105.454 14.257 105.419 14.439C105.393 14.621 105.38 14.7857 105.38 14.933C105.38 15.531 105.623 15.83 106.108 15.83H106.134L106.199 16.415L106.134 17H106.095C105.696 17 105.363 16.883 105.094 16.649C104.834 16.4063 104.678 16.0813 104.626 15.674C104.357 16.1073 104.037 16.4367 103.664 16.662C103.291 16.8873 102.88 17 102.429 17H102.377ZM108.474 8.745L109.254 9.538L108.474 10.318L107.694 9.538L108.474 8.745ZM109.67 10.071L110.554 10.955L109.67 11.826C109.384 11.5313 109.094 11.241 108.799 10.955L109.67 10.071ZM107.278 10.071L108.162 10.955L107.278 11.826C106.992 11.5313 106.702 11.241 106.407 10.955L107.278 10.071ZM112.799 15.83H113.319C114.247 15.83 114.901 15.7433 115.282 15.57C115.664 15.388 115.854 15.0933 115.854 14.686C115.846 14.4173 115.755 14.01 115.581 13.464C115.417 12.9093 115.274 12.5107 115.152 12.268L116.088 11.774C116.262 12.112 116.431 12.5713 116.595 13.152C116.769 13.724 116.855 14.2223 116.855 14.647C116.855 15.4183 116.574 16.0033 116.01 16.402C115.447 16.8007 114.598 17 113.462 17H112.799V15.83ZM115.295 17.871L116.179 18.755L115.295 19.626C115.009 19.3313 114.719 19.041 114.424 18.755L115.295 17.871ZM112.903 17.871L113.787 18.755L112.903 19.626C112.617 19.3313 112.327 19.041 112.032 18.755L112.903 17.871ZM114.099 19.353L114.879 20.146L114.099 20.926L113.319 20.146L114.099 19.353ZM122.319 19.691C123.705 19.3877 124.732 18.976 125.4 18.456C126.067 17.9447 126.401 17.299 126.401 16.519C126.392 16.0077 126.323 15.5007 126.193 14.998C126.063 14.4953 125.872 14.075 125.621 13.737C125.369 13.3903 125.07 13.204 124.724 13.178C124.533 13.1693 124.347 13.2473 124.165 13.412C123.983 13.5767 123.835 13.789 123.723 14.049C123.61 14.309 123.554 14.556 123.554 14.79C123.554 14.9807 123.593 15.141 123.671 15.271C123.809 15.479 124.043 15.635 124.373 15.739C124.711 15.843 125.096 15.895 125.53 15.895C125.946 15.895 126.327 15.856 126.674 15.778V16.883C126.301 16.987 125.868 17.039 125.374 17.039C124.802 17.039 124.286 16.9523 123.827 16.779C123.367 16.597 123.038 16.311 122.839 15.921C122.7 15.6437 122.631 15.3187 122.631 14.946C122.631 14.4953 122.726 14.0447 122.917 13.594C123.116 13.1433 123.376 12.7707 123.697 12.476C124.026 12.1813 124.377 12.034 124.75 12.034C125.261 12.034 125.712 12.2593 126.102 12.71C126.492 13.1607 126.791 13.7283 126.999 14.413C127.207 15.089 127.311 15.7563 127.311 16.415C127.311 17.4897 126.899 18.404 126.076 19.158C125.261 19.912 124.121 20.4363 122.657 20.731L122.319 19.691ZM136.732 20.627C135.987 20.627 135.324 20.4797 134.743 20.185C134.171 19.899 133.72 19.4873 133.391 18.95C133.062 18.4127 132.897 17.7843 132.897 17.065C132.897 16.5363 132.984 15.9773 133.157 15.388C133.33 14.7987 133.53 14.2787 133.755 13.828L134.639 14.244C134.154 15.2667 133.911 16.1593 133.911 16.922C133.911 17.7453 134.154 18.3737 134.639 18.807C135.124 19.2403 135.822 19.457 136.732 19.457C137.261 19.457 137.759 19.3877 138.227 19.249C138.704 19.1103 139.094 18.937 139.397 18.729C139.7 18.5297 139.874 18.352 139.917 18.196C139.874 18.1007 139.722 17.949 139.462 17.741C139.211 17.5417 138.894 17.3293 138.513 17.104C138.132 16.8787 137.737 16.6837 137.33 16.519L137.577 15.414C138.92 15.6913 140.038 15.83 140.931 15.83H141.243L141.308 16.415L141.243 17H140.931C140.35 17 139.791 16.961 139.254 16.883C138.717 16.7963 138.08 16.675 137.343 16.519L137.603 15.765L137.863 15.882C138.73 16.2633 139.453 16.6403 140.034 17.013C140.623 17.3943 140.918 17.7973 140.918 18.222C140.918 18.6207 140.723 19.002 140.333 19.366C139.952 19.7387 139.436 20.042 138.786 20.276C138.145 20.51 137.46 20.627 136.732 20.627ZM140.995 15.83H142.191C143.275 15.83 144.284 15.7 145.22 15.44C146.165 15.1713 147.11 14.7857 148.054 14.283C148.583 13.997 149.103 13.7803 149.614 13.633L149.653 14.101C149.159 14.101 148.687 14.0447 148.236 13.932C147.794 13.8193 147.335 13.6417 146.858 13.399C146.442 13.1823 146.07 13.0177 145.74 12.905C145.411 12.7923 145.086 12.736 144.765 12.736C144.401 12.736 144.072 12.8443 143.777 13.061C143.483 13.2777 143.262 13.5333 143.114 13.828L142.412 13.347C142.69 12.7837 143.032 12.359 143.439 12.073C143.847 11.7783 144.302 11.631 144.804 11.631C145.168 11.631 145.506 11.6917 145.818 11.813C146.139 11.9343 146.611 12.151 147.235 12.463C147.816 12.7577 148.271 12.9787 148.6 13.126C148.938 13.2647 149.32 13.3773 149.744 13.464L149.783 14.491C149.61 14.543 149.428 14.6123 149.237 14.699C149.055 14.7857 148.791 14.9243 148.444 15.115C147.274 15.7303 146.213 16.1983 145.259 16.519C144.315 16.8397 143.292 17 142.191 17H140.995V15.83ZM151.229 16.922C151.289 16.402 151.32 15.5223 151.32 14.283C151.32 13.1043 151.294 11.8867 151.242 10.63C151.198 9.36467 151.146 8.54567 151.086 8.173L152.126 7.952C152.178 8.35067 152.23 9.22167 152.282 10.565C152.342 11.8997 152.373 13.1693 152.373 14.374C152.373 15.5873 152.342 16.48 152.282 17.052L151.229 16.922ZM157.195 17C156.658 17 156.242 16.8137 155.947 16.441C155.652 16.0683 155.405 15.531 155.206 14.829L155.934 14.387C156.064 14.9157 156.22 15.2883 156.402 15.505C156.593 15.7217 156.857 15.83 157.195 15.83H157.286L157.351 16.415L157.286 17H157.195ZM152.372 19.717C152.927 19.5263 153.429 19.275 153.88 18.963C154.331 18.651 154.682 18.3173 154.933 17.962C155.193 17.6067 155.323 17.273 155.323 16.961C155.323 16.519 155.102 15.4357 154.66 13.711L155.661 13.334C155.852 13.9493 156.008 14.5993 156.129 15.284C156.259 15.9687 156.324 16.5277 156.324 16.961C156.324 17.4723 156.172 17.9707 155.869 18.456C155.566 18.95 155.145 19.392 154.608 19.782C154.079 20.1807 153.481 20.497 152.814 20.731L152.372 19.717ZM160.55 15.83C161.364 15.83 162.092 15.739 162.734 15.557C163.375 15.3663 163.869 15.115 164.216 14.803C164.571 14.491 164.749 14.153 164.749 13.789C164.749 13.477 164.627 13.2213 164.385 13.022C164.151 12.814 163.826 12.71 163.41 12.71C162.69 12.71 161.949 13.0523 161.187 13.737C160.433 14.413 159.726 15.3447 159.068 16.532L158.262 16.038C158.99 14.634 159.796 13.542 160.68 12.762C161.572 11.982 162.448 11.5877 163.306 11.579C163.756 11.579 164.164 11.6743 164.528 11.865C164.9 12.0557 165.191 12.32 165.399 12.658C165.607 12.9873 165.711 13.3643 165.711 13.789C165.711 14.4217 165.494 14.985 165.061 15.479C164.627 15.9643 164.029 16.3413 163.267 16.61C162.504 16.87 161.65 17 160.706 17H157.157V15.83H160.55ZM159.289 14.556C159.315 14.218 159.328 13.8107 159.328 13.334C159.328 12.45 159.289 11.4707 159.211 10.396C159.133 9.31267 159.059 8.576 158.99 8.186L160.03 7.952C160.099 8.33333 160.164 8.953 160.225 9.811C160.294 10.6603 160.329 11.4967 160.329 12.32C160.329 13.126 160.294 13.802 160.225 14.348L159.289 14.556ZM175.863 17.13C175.031 17.13 174.269 16.9177 173.575 16.493C172.891 16.0597 172.349 15.479 171.95 14.751C171.552 14.023 171.352 13.23 171.352 12.372C171.352 11.4967 171.552 10.6993 171.95 9.98C172.349 9.252 172.891 8.68 173.575 8.264C174.269 7.83933 175.031 7.627 175.863 7.627C176.695 7.627 177.454 7.83933 178.138 8.264C178.832 8.68 179.373 9.252 179.763 9.98C180.162 10.6993 180.361 11.4967 180.361 12.372C180.361 13.23 180.162 14.023 179.763 14.751C179.373 15.479 178.832 16.0597 178.138 16.493C177.454 16.9177 176.695 17.13 175.863 17.13ZM175.785 15.206C175.109 15.206 174.572 14.985 174.173 14.543C173.783 14.0923 173.588 13.4813 173.588 12.71V12.008C173.588 11.2627 173.788 10.669 174.186 10.227C174.594 9.77633 175.127 9.551 175.785 9.551C176.461 9.551 176.981 9.72433 177.345 10.071C177.709 10.4177 177.891 10.9073 177.891 11.54H176.968C176.968 11.1327 176.869 10.838 176.669 10.656C176.47 10.4653 176.175 10.37 175.785 10.37C175.387 10.37 175.07 10.5173 174.836 10.812C174.611 11.1067 174.498 11.514 174.498 12.034V12.749C174.498 13.2517 174.611 13.6503 174.836 13.945C175.07 14.2397 175.387 14.387 175.785 14.387C176.184 14.387 176.479 14.296 176.669 14.114C176.86 13.932 176.955 13.6287 176.955 13.204H177.878C177.878 13.854 177.696 14.3523 177.332 14.699C176.977 15.037 176.461 15.206 175.785 15.206ZM175.863 16.376C176.557 16.376 177.189 16.1983 177.761 15.843C178.342 15.479 178.797 14.9937 179.126 14.387C179.464 13.7717 179.633 13.1 179.633 12.372C179.633 11.6353 179.464 10.9637 179.126 10.357C178.797 9.75033 178.342 9.27367 177.761 8.927C177.189 8.57167 176.557 8.394 175.863 8.394C175.17 8.394 174.533 8.56733 173.952 8.914C173.38 9.26067 172.925 9.73733 172.587 10.344C172.258 10.9507 172.093 11.6267 172.093 12.372C172.093 13.1 172.258 13.7717 172.587 14.387C172.925 14.9937 173.38 15.479 173.952 15.843C174.533 16.1983 175.17 16.376 175.863 16.376Z" fill="#808080"/>
<path d="M7.05 37.74C6.96333 38.4933 6.68667 39.0767 6.22 39.49C5.75333 39.8967 5.13333 40.1 4.36 40.1C3.80667 40.1 3.32 39.9633 2.9 39.69C2.48 39.4167 2.15333 39.03 1.92 38.53C1.69333 38.03 1.58 37.4467 1.58 36.78V36.09C1.58 35.4167 1.7 34.8333 1.94 34.34C2.18667 33.84 2.52333 33.4567 2.95 33.19C3.38333 32.9233 3.88 32.79 4.44 32.79C5.19333 32.79 5.79667 33 6.25 33.42C6.71 33.84 6.97667 34.4267 7.05 35.18H6.11C6.03 34.62 5.85333 34.21 5.58 33.95C5.30667 33.69 4.92667 33.56 4.44 33.56C3.83333 33.56 3.36 33.7833 3.02 34.23C2.68667 34.6767 2.52 35.3067 2.52 36.12V36.81C2.52 37.5833 2.68333 38.1967 3.01 38.65C3.33667 39.1033 3.78667 39.33 4.36 39.33C4.89333 39.33 5.29667 39.21 5.57 38.97C5.84333 38.7233 6.02333 38.3133 6.11 37.74H7.05ZM8.25367 37.31C8.25367 36.8033 8.35034 36.3467 8.54367 35.94C8.74367 35.5267 9.02367 35.2033 9.38367 34.97C9.75034 34.7367 10.1737 34.62 10.6537 34.62C11.127 34.62 11.547 34.7333 11.9137 34.96C12.2803 35.1867 12.5637 35.5067 12.7637 35.92C12.9637 36.3267 13.0637 36.8033 13.0637 37.35V37.42C13.0637 37.9533 12.9603 38.4233 12.7537 38.83C12.547 39.23 12.2603 39.5433 11.8937 39.77C11.5337 39.99 11.1237 40.1 10.6637 40.1C10.1903 40.1 9.77034 39.9867 9.40367 39.76C9.04367 39.5333 8.76034 39.2133 8.55367 38.8C8.35367 38.3867 8.25367 37.91 8.25367 37.37V37.31ZM9.16367 37.42C9.15701 38.0067 9.29034 38.4767 9.56367 38.83C9.84367 39.1833 10.2103 39.36 10.6637 39.36C11.117 39.36 11.477 39.1867 11.7437 38.84C12.017 38.4933 12.157 38.01 12.1637 37.39V37.31C12.1703 36.73 12.0337 36.26 11.7537 35.9C11.4803 35.54 11.1137 35.36 10.6537 35.36C10.2137 35.36 9.85701 35.5333 9.58367 35.88C9.31034 36.2267 9.17034 36.7133 9.16367 37.34V37.42ZM18.9668 37.42C18.9668 37.9467 18.8835 38.4133 18.7168 38.82C18.5501 39.2267 18.3101 39.5433 17.9968 39.77C17.6901 39.99 17.3301 40.1 16.9168 40.1C16.2768 40.1 15.7735 39.8967 15.4068 39.49V42.03H14.4968V34.72H15.3268L15.3668 35.3C15.7401 34.8467 16.2535 34.62 16.9068 34.62C17.5468 34.62 18.0501 34.86 18.4168 35.34C18.7835 35.8133 18.9668 36.4767 18.9668 37.33V37.42ZM18.0568 37.31C18.0635 36.7167 17.9368 36.25 17.6768 35.91C17.4235 35.5633 17.0768 35.39 16.6368 35.39C16.0901 35.39 15.6801 35.63 15.4068 36.11V38.64C15.6801 39.12 16.0935 39.36 16.6468 39.36C17.0801 39.36 17.4201 39.1933 17.6668 38.86C17.9201 38.52 18.0501 38.0267 18.0568 37.38V37.31ZM22.0834 38.68L22.1634 38.43L23.3134 34.72H24.2834L22.1634 40.82L22.0734 41.04C21.9201 41.4067 21.7168 41.68 21.4634 41.86C21.2168 42.04 20.9268 42.13 20.5934 42.13L20.0834 42.06V41.32L20.3234 41.34C20.6234 41.3667 20.8601 41.31 21.0334 41.17C21.2134 41.0367 21.3568 40.8067 21.4634 40.48L21.6634 39.94L19.7834 34.72H20.7634L22.0834 38.68ZM27.94 35.53C27.8333 35.5033 27.6833 35.49 27.49 35.49C26.8967 35.49 26.4967 35.7433 26.29 36.25V40H25.38V34.72H26.26L26.28 35.33C26.5733 34.8567 26.9933 34.62 27.54 34.62C27.72 34.62 27.8533 34.6433 27.94 34.69V35.53ZM30.0489 40H29.1389V34.72H30.0489V40ZM29.0689 33.32C29.0689 33.1667 29.1156 33.04 29.2089 32.94C29.3022 32.84 29.4322 32.79 29.5989 32.79C29.7656 32.79 29.8956 32.84 29.9889 32.94C30.0889 33.04 30.1389 33.1667 30.1389 33.32C30.1389 33.4667 30.0922 33.59 29.9989 33.69C29.9056 33.7833 29.7722 33.83 29.5989 33.83C29.4322 33.83 29.3022 33.7833 29.2089 33.69C29.1156 33.5967 29.0689 33.4733 29.0689 33.32ZM31.5805 37.25C31.5805 36.7167 31.6672 36.2533 31.8405 35.86C32.0205 35.46 32.2639 35.1533 32.5705 34.94C32.8839 34.7267 33.2472 34.62 33.6605 34.62C34.3072 34.62 34.8105 34.8467 35.1705 35.3L35.2205 34.72H36.0405V39.87C36.0405 40.55 35.8372 41.0867 35.4305 41.48C35.0305 41.88 34.4872 42.08 33.8005 42.08C33.4139 42.08 33.0405 41.9967 32.6805 41.83C32.3205 41.6633 32.0439 41.4433 31.8505 41.17L32.3205 40.63C32.7139 41.1033 33.1872 41.34 33.7405 41.34C34.1805 41.34 34.5205 41.2167 34.7605 40.97C35.0072 40.7233 35.1305 40.3767 35.1305 39.93V39.47C34.7705 39.89 34.2772 40.1 33.6505 40.1C33.2439 40.1 32.8839 39.9867 32.5705 39.76C32.2572 39.5333 32.0139 39.21 31.8405 38.79C31.6672 38.37 31.5805 37.8767 31.5805 37.31V37.25ZM32.4905 37.42C32.4905 38.02 32.6105 38.49 32.8505 38.83C33.0972 39.1633 33.4405 39.33 33.8805 39.33C34.4472 39.33 34.8639 39.07 35.1305 38.55V36.14C34.8639 35.64 34.4505 35.39 33.8905 35.39C33.4439 35.39 33.0972 35.5633 32.8505 35.91C32.6105 36.25 32.4905 36.7533 32.4905 37.42ZM38.606 35.36C39.006 34.8667 39.526 34.62 40.166 34.62C41.286 34.62 41.8493 35.25 41.856 36.51V40H40.956V36.5C40.9493 36.12 40.8593 35.84 40.686 35.66C40.5193 35.48 40.256 35.39 39.896 35.39C39.6027 35.39 39.3427 35.4667 39.116 35.62C38.896 35.7667 38.726 35.9733 38.606 36.24V40H37.696V32.5H38.606V35.36ZM44.7338 33.44V34.72H45.7238V35.42H44.7338V38.69C44.7338 38.91 44.7772 39.0733 44.8638 39.18C44.9572 39.28 45.1072 39.33 45.3138 39.33C45.4205 39.33 45.5638 39.31 45.7438 39.27V40C45.5172 40.0667 45.2872 40.1 45.0538 40.1C44.6538 40.1 44.3505 39.98 44.1438 39.74C43.9372 39.5 43.8338 39.15 43.8338 38.69V35.42H42.8638V34.72H43.8338V33.44H44.7338ZM54.1014 40.1C53.4614 40.1 52.8747 39.9367 52.3414 39.61C51.8147 39.2767 51.3981 38.83 51.0914 38.27C50.7847 37.71 50.6314 37.1 50.6314 36.44C50.6314 35.7667 50.7847 35.1533 51.0914 34.6C51.3981 34.04 51.8147 33.6 52.3414 33.28C52.8747 32.9533 53.4614 32.79 54.1014 32.79C54.7414 32.79 55.3247 32.9533 55.8514 33.28C56.3847 33.6 56.8014 34.04 57.1014 34.6C57.4081 35.1533 57.5614 35.7667 57.5614 36.44C57.5614 37.1 57.4081 37.71 57.1014 38.27C56.8014 38.83 56.3847 39.2767 55.8514 39.61C55.3247 39.9367 54.7414 40.1 54.1014 40.1ZM54.0414 38.62C53.5214 38.62 53.1081 38.45 52.8014 38.11C52.5014 37.7633 52.3514 37.2933 52.3514 36.7V36.16C52.3514 35.5867 52.5047 35.13 52.8114 34.79C53.1247 34.4433 53.5347 34.27 54.0414 34.27C54.5614 34.27 54.9614 34.4033 55.2414 34.67C55.5214 34.9367 55.6614 35.3133 55.6614 35.8H54.9514C54.9514 35.4867 54.8747 35.26 54.7214 35.12C54.5681 34.9733 54.3414 34.9 54.0414 34.9C53.7347 34.9 53.4914 35.0133 53.3114 35.24C53.1381 35.4667 53.0514 35.78 53.0514 36.18V36.73C53.0514 37.1167 53.1381 37.4233 53.3114 37.65C53.4914 37.8767 53.7347 37.99 54.0414 37.99C54.3481 37.99 54.5747 37.92 54.7214 37.78C54.8681 37.64 54.9414 37.4067 54.9414 37.08H55.6514C55.6514 37.58 55.5114 37.9633 55.2314 38.23C54.9581 38.49 54.5614 38.62 54.0414 38.62ZM54.1014 39.52C54.6347 39.52 55.1214 39.3833 55.5614 39.11C56.0081 38.83 56.3581 38.4567 56.6114 37.99C56.8714 37.5167 57.0014 37 57.0014 36.44C57.0014 35.8733 56.8714 35.3567 56.6114 34.89C56.3581 34.4233 56.0081 34.0567 55.5614 33.79C55.1214 33.5167 54.6347 33.38 54.1014 33.38C53.5681 33.38 53.0781 33.5133 52.6314 33.78C52.1914 34.0467 51.8414 34.4133 51.5814 34.88C51.3281 35.3467 51.2014 35.8667 51.2014 36.44C51.2014 37 51.3281 37.5167 51.5814 37.99C51.8414 38.4567 52.1914 38.83 52.6314 39.11C53.0781 39.3833 53.5681 39.52 54.1014 39.52ZM67.3988 40H62.7388V39.35L65.1988 36.62C65.5655 36.2067 65.8155 35.87 65.9488 35.61C66.0888 35.35 66.1588 35.08 66.1588 34.8C66.1588 34.4333 66.0455 34.1333 65.8188 33.9C65.5988 33.66 65.3022 33.54 64.9288 33.54C64.4755 33.54 64.1255 33.6667 63.8788 33.92C63.6322 34.1733 63.5088 34.53 63.5088 34.99H62.5988C62.5988 34.5567 62.6955 34.1733 62.8888 33.84C63.0822 33.5067 63.3522 33.25 63.6988 33.07C64.0522 32.8833 64.4622 32.79 64.9288 32.79C65.5888 32.79 66.1088 32.9633 66.4888 33.31C66.8755 33.6567 67.0688 34.12 67.0688 34.7C67.0688 35.3933 66.6222 36.2267 65.7288 37.2L63.8288 39.26H67.3988V40ZM73.1141 36.97C73.1141 38.03 72.9307 38.8167 72.5641 39.33C72.1974 39.8433 71.6341 40.1 70.8741 40.1C70.1207 40.1 69.5607 39.85 69.1941 39.35C68.8274 38.85 68.6374 38.0967 68.6241 37.09V35.88C68.6241 34.8333 68.8074 34.0567 69.1741 33.55C69.5407 33.0433 70.1041 32.79 70.8641 32.79C71.6241 32.79 72.1841 33.0367 72.5441 33.53C72.9107 34.0167 73.1007 34.7733 73.1141 35.8V36.97ZM72.2141 35.73C72.2141 34.97 72.1041 34.4167 71.8841 34.07C71.6707 33.7167 71.3307 33.54 70.8641 33.54C70.4041 33.54 70.0674 33.7133 69.8541 34.06C69.6407 34.4 69.5307 34.9333 69.5241 35.66V37.11C69.5241 37.87 69.6341 38.4367 69.8541 38.81C70.0807 39.1767 70.4207 39.36 70.8741 39.36C71.3207 39.36 71.6507 39.1867 71.8641 38.84C72.0841 38.4933 72.2007 37.95 72.2141 37.21V35.73ZM79.2293 40H74.5693V39.35L77.0293 36.62C77.396 36.2067 77.646 35.87 77.7793 35.61C77.9193 35.35 77.9893 35.08 77.9893 34.8C77.9893 34.4333 77.876 34.1333 77.6493 33.9C77.4293 33.66 77.1326 33.54 76.7593 33.54C76.306 33.54 75.956 33.6667 75.7093 33.92C75.4626 34.1733 75.3393 34.53 75.3393 34.99H74.4293C74.4293 34.5567 74.526 34.1733 74.7193 33.84C74.9126 33.5067 75.1826 33.25 75.5293 33.07C75.8826 32.8833 76.2926 32.79 76.7593 32.79C77.4193 32.79 77.9393 32.9633 78.3193 33.31C78.706 33.6567 78.8993 34.12 78.8993 34.7C78.8993 35.3933 78.4526 36.2267 77.5593 37.2L75.6593 39.26H79.2293V40ZM81.7945 36.01H82.4745C82.9012 36.0033 83.2379 35.89 83.4845 35.67C83.7312 35.45 83.8545 35.1567 83.8545 34.79C83.8545 33.9567 83.4379 33.54 82.6045 33.54C82.2112 33.54 81.8979 33.65 81.6645 33.87C81.4379 34.09 81.3245 34.3867 81.3245 34.76H80.4145C80.4145 34.3867 80.5079 34.05 80.6945 33.75C80.8812 33.45 81.1412 33.2167 81.4745 33.05C81.8079 32.8767 82.1845 32.79 82.6045 32.79C83.2779 32.79 83.8045 32.97 84.1845 33.33C84.5645 33.6833 84.7545 34.1733 84.7545 34.8C84.7545 35.12 84.6512 35.4233 84.4445 35.71C84.2445 35.9967 83.9745 36.21 83.6345 36.35C84.0279 36.4767 84.3312 36.6833 84.5445 36.97C84.7579 37.2567 84.8645 37.6067 84.8645 38.02C84.8645 38.44 84.7712 38.8067 84.5845 39.12C84.3979 39.4333 84.1345 39.6767 83.7945 39.85C83.4545 40.0167 83.0612 40.1 82.6145 40.1C82.1745 40.1 81.7812 40.02 81.4345 39.86C81.0945 39.6933 80.8279 39.46 80.6345 39.16C80.4479 38.86 80.3545 38.5133 80.3545 38.12H81.2645C81.2645 38.5 81.3845 38.8033 81.6245 39.03C81.8712 39.25 82.1979 39.36 82.6045 39.36C83.0445 39.36 83.3779 39.2467 83.6045 39.02C83.8379 38.7933 83.9545 38.4667 83.9545 38.04C83.9545 37.6267 83.8279 37.31 83.5745 37.09C83.3212 36.8633 82.9545 36.7467 82.4745 36.74H81.7945V36.01ZM94.3559 38.14H91.3759L90.7059 40H89.7459L92.4559 32.89H93.2759L95.9959 40H95.0359L94.3559 38.14ZM91.6659 37.37H94.0759L92.8659 34.05L91.6659 37.37ZM96.8993 37.25C96.8993 36.7167 96.986 36.2533 97.1593 35.86C97.3393 35.46 97.5826 35.1533 97.8893 34.94C98.2026 34.7267 98.566 34.62 98.9793 34.62C99.626 34.62 100.129 34.8467 100.489 35.3L100.539 34.72H101.359V39.87C101.359 40.55 101.156 41.0867 100.749 41.48C100.349 41.88 99.806 42.08 99.1193 42.08C98.7326 42.08 98.3593 41.9967 97.9993 41.83C97.6393 41.6633 97.3626 41.4433 97.1693 41.17L97.6393 40.63C98.0326 41.1033 98.506 41.34 99.0593 41.34C99.4993 41.34 99.8393 41.2167 100.079 40.97C100.326 40.7233 100.449 40.3767 100.449 39.93V39.47C100.089 39.89 99.596 40.1 98.9693 40.1C98.5626 40.1 98.2026 39.9867 97.8893 39.76C97.576 39.5333 97.3326 39.21 97.1593 38.79C96.986 38.37 96.8993 37.8767 96.8993 37.31V37.25ZM97.8093 37.42C97.8093 38.02 97.9293 38.49 98.1693 38.83C98.416 39.1633 98.7593 39.33 99.1993 39.33C99.766 39.33 100.183 39.07 100.449 38.55V36.14C100.183 35.64 99.7693 35.39 99.2093 35.39C98.7626 35.39 98.416 35.5633 98.1693 35.91C97.9293 36.25 97.8093 36.7533 97.8093 37.42ZM105.575 35.53C105.468 35.5033 105.318 35.49 105.125 35.49C104.531 35.49 104.131 35.7433 103.925 36.25V40H103.015V34.72H103.895L103.915 35.33C104.208 34.8567 104.628 34.62 105.175 34.62C105.355 34.62 105.488 34.6433 105.575 34.69V35.53ZM106.327 37.31C106.327 36.8033 106.423 36.3467 106.617 35.94C106.817 35.5267 107.097 35.2033 107.457 34.97C107.823 34.7367 108.247 34.62 108.727 34.62C109.2 34.62 109.62 34.7333 109.987 34.96C110.353 35.1867 110.637 35.5067 110.837 35.92C111.037 36.3267 111.137 36.8033 111.137 37.35V37.42C111.137 37.9533 111.033 38.4233 110.827 38.83C110.62 39.23 110.333 39.5433 109.967 39.77C109.607 39.99 109.197 40.1 108.737 40.1C108.263 40.1 107.843 39.9867 107.477 39.76C107.117 39.5333 106.833 39.2133 106.627 38.8C106.427 38.3867 106.327 37.91 106.327 37.37V37.31ZM107.237 37.42C107.23 38.0067 107.363 38.4767 107.637 38.83C107.917 39.1833 108.283 39.36 108.737 39.36C109.19 39.36 109.55 39.1867 109.817 38.84C110.09 38.4933 110.23 38.01 110.237 37.39V37.31C110.243 36.73 110.107 36.26 109.827 35.9C109.553 35.54 109.187 35.36 108.727 35.36C108.287 35.36 107.93 35.5333 107.657 35.88C107.383 36.2267 107.243 36.7133 107.237 37.34V37.42ZM114.231 38.68L114.311 38.43L115.461 34.72H116.431L114.311 40.82L114.221 41.04C114.068 41.4067 113.865 41.68 113.611 41.86C113.365 42.04 113.075 42.13 112.741 42.13L112.231 42.06V41.32L112.471 41.34C112.771 41.3667 113.008 41.31 113.181 41.17C113.361 41.0367 113.505 40.8067 113.611 40.48L113.811 39.94L111.931 34.72H112.911L114.231 38.68ZM120.73 40C120.67 39.8667 120.626 39.68 120.6 39.44C120.18 39.88 119.676 40.1 119.09 40.1C118.75 40.1 118.443 40.0333 118.17 39.9C117.903 39.76 117.693 39.5733 117.54 39.34C117.386 39.1 117.31 38.8333 117.31 38.54C117.31 37.9867 117.516 37.56 117.93 37.26C118.35 36.9533 118.94 36.8 119.7 36.8H120.58V36.38C120.58 36.06 120.483 35.81 120.29 35.63C120.103 35.4433 119.83 35.35 119.47 35.35C119.143 35.35 118.87 35.43 118.65 35.59C118.436 35.75 118.33 35.9467 118.33 36.18H117.42C117.42 35.92 117.51 35.67 117.69 35.43C117.876 35.19 118.13 34.9967 118.45 34.85C118.77 34.6967 119.126 34.62 119.52 34.62C120.126 34.62 120.603 34.7733 120.95 35.08C121.296 35.38 121.476 35.7967 121.49 36.33V38.76C121.49 39.24 121.55 39.6267 121.67 39.92V40H120.73ZM119.23 39.31C119.51 39.31 119.776 39.2367 120.03 39.09C120.283 38.9433 120.466 38.7533 120.58 38.52V37.44H119.88C118.773 37.44 118.22 37.7633 118.22 38.41C118.22 38.69 118.31 38.91 118.49 39.07C118.676 39.23 118.923 39.31 119.23 39.31ZM126.469 40C126.409 39.8667 126.366 39.68 126.339 39.44C125.919 39.88 125.416 40.1 124.829 40.1C124.489 40.1 124.182 40.0333 123.909 39.9C123.642 39.76 123.432 39.5733 123.279 39.34C123.126 39.1 123.049 38.8333 123.049 38.54C123.049 37.9867 123.256 37.56 123.669 37.26C124.089 36.9533 124.679 36.8 125.439 36.8H126.319V36.38C126.319 36.06 126.222 35.81 126.029 35.63C125.842 35.4433 125.569 35.35 125.209 35.35C124.882 35.35 124.609 35.43 124.389 35.59C124.176 35.75 124.069 35.9467 124.069 36.18H123.159C123.159 35.92 123.249 35.67 123.429 35.43C123.616 35.19 123.869 34.9967 124.189 34.85C124.509 34.6967 124.866 34.62 125.259 34.62C125.866 34.62 126.342 34.7733 126.689 35.08C127.036 35.38 127.216 35.7967 127.229 36.33V38.76C127.229 39.24 127.289 39.6267 127.409 39.92V40H126.469ZM124.969 39.31C125.249 39.31 125.516 39.2367 125.769 39.09C126.022 38.9433 126.206 38.7533 126.319 38.52V37.44H125.619C124.512 37.44 123.959 37.7633 123.959 38.41C123.959 38.69 124.049 38.91 124.229 39.07C124.416 39.23 124.662 39.31 124.969 39.31ZM131.499 35.53C131.392 35.5033 131.242 35.49 131.049 35.49C130.455 35.49 130.055 35.7433 129.849 36.25V40H128.939V34.72H129.819L129.839 35.33C130.132 34.8567 130.552 34.62 131.099 34.62C131.279 34.62 131.412 34.6433 131.499 34.69V35.53ZM141.784 37.74C141.697 38.4933 141.42 39.0767 140.954 39.49C140.487 39.8967 139.867 40.1 139.094 40.1C138.54 40.1 138.054 39.9633 137.634 39.69C137.214 39.4167 136.887 39.03 136.654 38.53C136.427 38.03 136.314 37.4467 136.314 36.78V36.09C136.314 35.4167 136.434 34.8333 136.674 34.34C136.92 33.84 137.257 33.4567 137.684 33.19C138.117 32.9233 138.614 32.79 139.174 32.79C139.927 32.79 140.53 33 140.984 33.42C141.444 33.84 141.71 34.4267 141.784 35.18H140.844C140.764 34.62 140.587 34.21 140.314 33.95C140.04 33.69 139.66 33.56 139.174 33.56C138.567 33.56 138.094 33.7833 137.754 34.23C137.42 34.6767 137.254 35.3067 137.254 36.12V36.81C137.254 37.5833 137.417 38.1967 137.744 38.65C138.07 39.1033 138.52 39.33 139.094 39.33C139.627 39.33 140.03 39.21 140.304 38.97C140.577 38.7233 140.757 38.3133 140.844 37.74H141.784ZM142.987 37.31C142.987 36.8033 143.084 36.3467 143.277 35.94C143.477 35.5267 143.757 35.2033 144.117 34.97C144.484 34.7367 144.907 34.62 145.387 34.62C145.861 34.62 146.281 34.7333 146.647 34.96C147.014 35.1867 147.297 35.5067 147.497 35.92C147.697 36.3267 147.797 36.8033 147.797 37.35V37.42C147.797 37.9533 147.694 38.4233 147.487 38.83C147.281 39.23 146.994 39.5433 146.627 39.77C146.267 39.99 145.857 40.1 145.397 40.1C144.924 40.1 144.504 39.9867 144.137 39.76C143.777 39.5333 143.494 39.2133 143.287 38.8C143.087 38.3867 142.987 37.91 142.987 37.37V37.31ZM143.897 37.42C143.891 38.0067 144.024 38.4767 144.297 38.83C144.577 39.1833 144.944 39.36 145.397 39.36C145.851 39.36 146.211 39.1867 146.477 38.84C146.751 38.4933 146.891 38.01 146.897 37.39V37.31C146.904 36.73 146.767 36.26 146.487 35.9C146.214 35.54 145.847 35.36 145.387 35.36C144.947 35.36 144.591 35.5333 144.317 35.88C144.044 36.2267 143.904 36.7133 143.897 37.34V37.42ZM150.08 34.72L150.11 35.3C150.504 34.8467 151.027 34.62 151.68 34.62C152.414 34.62 152.914 34.9033 153.18 35.47C153.367 35.2033 153.6 34.9967 153.88 34.85C154.167 34.6967 154.497 34.62 154.87 34.62C155.45 34.62 155.89 34.7733 156.19 35.08C156.49 35.3867 156.64 35.8467 156.64 36.46V40H155.73V36.51C155.73 36.1233 155.644 35.84 155.47 35.66C155.297 35.48 155.007 35.39 154.6 35.39C154.294 35.39 154.037 35.4733 153.83 35.64C153.57 35.84 153.42 36.1233 153.38 36.49V36.57V40H152.48V36.54C152.48 35.7733 152.104 35.39 151.35 35.39C151.044 35.39 150.794 35.4533 150.6 35.58C150.394 35.7067 150.237 35.8933 150.13 36.14V40H149.23V34.72H150.08ZM162.76 37.42C162.76 37.9467 162.677 38.4133 162.51 38.82C162.343 39.2267 162.103 39.5433 161.79 39.77C161.483 39.99 161.123 40.1 160.71 40.1C160.07 40.1 159.567 39.8967 159.2 39.49V42.03H158.29V34.72H159.12L159.16 35.3C159.533 34.8467 160.047 34.62 160.7 34.62C161.34 34.62 161.843 34.86 162.21 35.34C162.577 35.8133 162.76 36.4767 162.76 37.33V37.42ZM161.85 37.31C161.857 36.7167 161.73 36.25 161.47 35.91C161.217 35.5633 160.87 35.39 160.43 35.39C159.883 35.39 159.473 35.63 159.2 36.11V38.64C159.473 39.12 159.887 39.36 160.44 39.36C160.873 39.36 161.213 39.1933 161.46 38.86C161.713 38.52 161.843 38.0267 161.85 37.38V37.31ZM167.466 40C167.406 39.8667 167.362 39.68 167.336 39.44C166.916 39.88 166.412 40.1 165.826 40.1C165.486 40.1 165.179 40.0333 164.906 39.9C164.639 39.76 164.429 39.5733 164.276 39.34C164.122 39.1 164.046 38.8333 164.046 38.54C164.046 37.9867 164.252 37.56 164.666 37.26C165.086 36.9533 165.676 36.8 166.436 36.8H167.316V36.38C167.316 36.06 167.219 35.81 167.026 35.63C166.839 35.4433 166.566 35.35 166.206 35.35C165.879 35.35 165.606 35.43 165.386 35.59C165.172 35.75 165.066 35.9467 165.066 36.18H164.156C164.156 35.92 164.246 35.67 164.426 35.43C164.612 35.19 164.866 34.9967 165.186 34.85C165.506 34.6967 165.862 34.62 166.256 34.62C166.862 34.62 167.339 34.7733 167.686 35.08C168.032 35.38 168.212 35.7967 168.226 36.33V38.76C168.226 39.24 168.286 39.6267 168.406 39.92V40H167.466ZM165.966 39.31C166.246 39.31 166.512 39.2367 166.766 39.09C167.019 38.9433 167.202 38.7533 167.316 38.52V37.44H166.616C165.509 37.44 164.956 37.7633 164.956 38.41C164.956 38.69 165.046 38.91 165.226 39.07C165.412 39.23 165.659 39.31 165.966 39.31ZM170.795 34.72L170.825 35.38C171.225 34.8733 171.752 34.62 172.405 34.62C173.525 34.62 174.088 35.25 174.095 36.51V40H173.195V36.5C173.188 36.12 173.098 35.84 172.925 35.66C172.758 35.48 172.495 35.39 172.135 35.39C171.842 35.39 171.582 35.4667 171.355 35.62C171.135 35.7667 170.965 35.9733 170.845 36.24V40H169.935V34.72H170.795ZM177.483 38.68L177.563 38.43L178.713 34.72H179.683L177.563 40.82L177.473 41.04C177.319 41.4067 177.116 41.68 176.863 41.86C176.616 42.04 176.326 42.13 175.993 42.13L175.483 42.06V41.32L175.723 41.34C176.023 41.3667 176.259 41.31 176.433 41.17C176.613 41.0367 176.756 40.8067 176.863 40.48L177.063 39.94L175.183 34.72H176.163L177.483 38.68Z" fill="#808080"/>
<path d="M192.527 21.0703L191.637 24H188.707L193.688 7.59375H197.203L202.184 24H199.254L198.363 21.0703H192.527ZM197.473 18.1406L195.445 11.4492L193.418 18.1406H197.473ZM216.539 24H205.406C204.234 24 203.648 23.4141 203.648 22.2422V9.33984C203.648 8.17578 204.234 7.59375 205.406 7.59375H216.539V10.5352L207.152 10.5234C206.77 10.5234 206.578 10.7188 206.578 11.1094V20.4844C206.578 20.875 206.773 21.0703 207.164 21.0703H213.609V16.9688H208.336V14.0391H216.539V24ZM227.672 17.5547H221.227V24H218.297V12.2812H221.227V14.625H227.672C228.062 14.625 228.258 14.4297 228.258 14.0391V11.1094C228.258 10.7188 228.066 10.5234 227.684 10.5234H218.297V7.59375H229.43C230.602 7.59375 231.188 8.17578 231.188 9.33984V14.332C231.188 15.5039 230.797 16.1875 230.016 16.3828C230.797 16.5781 231.188 17.1641 231.188 18.1406V24H228.258V18.1406C228.258 17.75 228.062 17.5547 227.672 17.5547ZM234.703 24C233.531 24 232.945 23.4141 232.945 22.2422V9.33984C232.945 8.17578 233.531 7.59375 234.703 7.59375H244.078C245.25 7.59375 245.836 8.17578 245.836 9.33984V22.2422C245.836 23.4141 245.25 24 244.078 24H234.703ZM236.449 10.5234C236.066 10.5234 235.875 10.7188 235.875 11.1094V20.4844C235.875 20.875 236.07 21.0703 236.461 21.0703H242.32C242.711 21.0703 242.906 20.875 242.906 20.4844V11.1094C242.906 10.7188 242.715 10.5234 242.332 10.5234H236.449ZM252.574 16.2539L247.008 7.59375H250.523L254.039 13.0664L257.555 7.59375H261.07L255.504 16.2539V24H252.574V16.2539ZM265.77 21.0703L264.879 24H261.949L266.93 7.59375H270.445L275.426 24H272.496L271.605 21.0703H265.77ZM270.715 18.1406L268.688 11.4492L266.66 18.1406H270.715ZM280.418 21.0703L279.527 24H276.598L281.578 7.59375H285.094L290.074 24H287.145L286.254 21.0703H280.418ZM285.363 18.1406L283.336 11.4492L281.309 18.1406H285.363ZM300.914 17.5547H294.469V24H291.539V12.2812H294.469V14.625H300.914C301.305 14.625 301.5 14.4297 301.5 14.0391V11.1094C301.5 10.7188 301.309 10.5234 300.926 10.5234H291.539V7.59375H302.672C303.844 7.59375 304.43 8.17578 304.43 9.33984V14.332C304.43 15.5039 304.039 16.1875 303.258 16.3828C304.039 16.5781 304.43 17.1641 304.43 18.1406V24H301.5V18.1406C301.5 17.75 301.305 17.5547 300.914 17.5547Z" fill="#00753A" fill-opacity="0.8"/>
<path d="M191.63 36.27C191.45 36.6767 191.314 37.0233 191.22 37.31C191.134 37.59 191.09 37.8833 191.09 38.19C191.09 39.2233 191.747 39.74 193.06 39.74C193.56 39.74 194.02 39.66 194.44 39.5C194.867 39.3467 195.18 39.14 195.38 38.88L195.18 38.83C194.734 38.7233 194.42 38.6433 194.24 38.59C193.707 38.43 193.327 38.24 193.1 38.02C192.88 37.7933 192.77 37.4667 192.77 37.04C192.77 36.4867 192.91 35.9567 193.19 35.45C193.47 34.9367 193.84 34.5233 194.3 34.21C194.76 33.8967 195.247 33.74 195.76 33.74C195.967 33.74 196.177 33.77 196.39 33.83C196.604 33.89 196.747 33.9633 196.82 34.05L196.35 35.51C196.29 35.4833 196.197 35.4633 196.07 35.45C195.944 35.43 195.83 35.42 195.73 35.42C195.344 35.42 194.984 35.53 194.65 35.75C194.324 35.9633 194.114 36.23 194.02 36.55C194.007 36.59 194 36.62 194 36.64C194 36.7467 194.084 36.84 194.25 36.92C194.417 37 194.714 37.0867 195.14 37.18C195.76 37.3133 196.177 37.4967 196.39 37.73C196.604 37.9567 196.71 38.22 196.71 38.52C196.71 39.0267 196.547 39.5033 196.22 39.95C195.9 40.3967 195.46 40.7533 194.9 41.02C194.34 41.2867 193.727 41.42 193.06 41.42C192.454 41.42 191.907 41.3067 191.42 41.08C190.94 40.8533 190.56 40.5133 190.28 40.06C190 39.6133 189.86 39.07 189.86 38.43C189.86 38.29 189.864 38.1833 189.87 38.11C189.924 37.45 190.157 36.6767 190.57 35.79L191.63 36.27ZM196.96 40.52C197.4 40.3333 197.807 40.12 198.18 39.88C198.553 39.6467 198.847 39.4167 199.06 39.19C199.28 38.97 199.39 38.79 199.39 38.65C199.39 38.43 199.213 37.7133 198.86 36.5L198.79 36.25L200.03 35.76C200.19 36.22 200.317 36.71 200.41 37.23C200.503 37.75 200.55 38.2233 200.55 38.65C200.55 39.3233 200.29 39.94 199.77 40.5C199.25 41.0667 198.547 41.5433 197.66 41.93L196.96 40.52ZM198.23 33.88C198.23 33.88 198.45 33.66 198.89 33.22L199.23 32.88L200.22 33.88L199.23 34.87L198.23 33.88ZM200.72 40.52C201.16 40.3333 201.566 40.12 201.94 39.88C202.313 39.6467 202.606 39.4167 202.82 39.19C203.04 38.97 203.15 38.79 203.15 38.65C203.15 38.43 202.973 37.7133 202.62 36.5L202.55 36.25L203.79 35.76C203.95 36.22 204.076 36.71 204.17 37.23C204.263 37.75 204.31 38.2233 204.31 38.65C204.31 39.3233 204.05 39.94 203.53 40.5C203.01 41.0667 202.306 41.5433 201.42 41.93L200.72 40.52ZM205.064 40.48C205.844 40.3133 206.47 40.1333 206.944 39.94C207.424 39.7467 207.777 39.52 208.004 39.26C208.23 39 208.344 38.69 208.344 38.33C208.344 37.93 208.287 37.5433 208.174 37.17C208.067 36.7967 207.92 36.4967 207.734 36.27C207.547 36.0367 207.344 35.92 207.124 35.92C206.997 35.92 206.877 35.9667 206.764 36.06C206.65 36.1467 206.56 36.2567 206.494 36.39C206.434 36.5233 206.404 36.6467 206.404 36.76C206.404 36.86 206.427 36.9367 206.474 36.99C206.58 37.11 206.767 37.2067 207.034 37.28C207.3 37.3467 207.6 37.38 207.934 37.38C208.18 37.38 208.424 37.36 208.664 37.32V38.89C208.337 38.9767 207.99 39.02 207.624 39.02C207.124 39.02 206.68 38.93 206.294 38.75C205.907 38.57 205.63 38.3033 205.464 37.95C205.344 37.6767 205.284 37.3767 205.284 37.05C205.284 36.6367 205.37 36.23 205.544 35.83C205.717 35.4233 205.954 35.09 206.254 34.83C206.56 34.57 206.897 34.44 207.264 34.44C207.67 34.44 208.04 34.6133 208.374 34.96C208.714 35.3067 208.98 35.7667 209.174 36.34C209.367 36.9067 209.464 37.5133 209.464 38.16C209.464 38.8 209.307 39.3767 208.994 39.89C208.68 40.41 208.234 40.8433 207.654 41.19C207.074 41.5367 206.384 41.7833 205.584 41.93L205.064 40.48ZM211.445 31.45C211.525 32.03 211.585 32.79 211.625 33.73C211.671 34.6633 211.695 35.5233 211.695 36.31C211.695 36.5767 211.718 36.7833 211.765 36.93C211.811 37.07 211.891 37.17 212.005 37.23C212.118 37.29 212.285 37.32 212.505 37.32H212.545L212.635 38.16L212.545 39H212.505C211.758 39 211.215 38.7833 210.875 38.35C210.535 37.91 210.361 37.2533 210.355 36.38C210.328 34.44 210.231 32.9 210.065 31.76L211.445 31.45ZM218.017 37.32H218.037C218.257 37.32 218.454 37.27 218.627 37.17C218.807 37.0633 218.9 36.94 218.907 36.8L219.927 36.91C219.9 37.29 219.8 37.64 219.627 37.96C219.454 38.2733 219.227 38.5267 218.947 38.72C218.667 38.9067 218.364 39 218.037 39H218.017V37.32ZM220.757 37.32L220.837 38.16L220.747 39H220.697C220.277 39 219.917 38.8667 219.617 38.6C219.317 38.3333 219.08 37.95 218.907 37.45C218.854 37.29 218.737 36.7267 218.557 35.76L219.687 35.45C219.76 35.87 219.82 36.1867 219.867 36.4C219.914 36.6067 219.957 36.7767 219.997 36.91C220.044 37.0433 220.12 37.1467 220.227 37.22C220.34 37.2867 220.497 37.32 220.697 37.32H220.757ZM215.337 39V37.32H215.397C215.724 37.32 215.967 37.1533 216.127 36.82C216.247 36.58 216.33 36.34 216.377 36.1C216.43 35.8533 216.46 35.7167 216.467 35.69L217.597 35.74C217.524 36.1533 217.487 36.46 217.487 36.66C217.487 36.8667 217.534 37.03 217.627 37.15C217.72 37.2633 217.86 37.32 218.047 37.32H218.067L218.157 38.16L218.067 39H218.047C217.694 39 217.39 38.91 217.137 38.73C216.89 38.5433 216.707 38.2833 216.587 37.95L216.877 37.94C216.657 38.2933 216.427 38.56 216.187 38.74C215.947 38.9133 215.674 39 215.367 39H215.337ZM212.487 39L212.397 38.16L212.487 37.32H212.537C212.724 37.32 212.914 37.28 213.107 37.2C213.3 37.1133 213.447 37.0133 213.547 36.9C213.76 36.66 213.934 36.2733 214.067 35.74L215.207 35.86L215.157 36.06C215.057 36.46 215.007 36.7333 215.007 36.88C215.007 37.1733 215.127 37.32 215.367 37.32H215.397L215.487 38.16L215.397 39H215.337C215.057 39 214.807 38.93 214.587 38.79C214.367 38.65 214.21 38.46 214.117 38.22C213.904 38.4733 213.66 38.6667 213.387 38.8C213.114 38.9333 212.824 39 212.517 39H212.487ZM217.137 31.94C217.39 32.18 217.637 32.4267 217.877 32.68L217.137 33.41C216.977 33.2433 216.73 33 216.397 32.68L217.137 31.94ZM218.097 33.05L218.937 33.89L218.097 34.73L217.257 33.89L218.097 33.05ZM216.197 33.05L217.037 33.89L216.197 34.73L215.357 33.89L216.197 33.05ZM225.35 32.78L222.54 33.97C222.914 34.31 223.304 34.7533 223.71 35.3C224.117 35.84 224.32 36.39 224.32 36.95C224.32 37.0833 224.307 37.2033 224.28 37.31C224.16 37.8767 223.807 38.3 223.22 38.58C222.634 38.86 221.9 39 221.02 39H220.65V37.32H221.02C221.554 37.32 222 37.28 222.36 37.2C222.727 37.12 222.977 37.0167 223.11 36.89C222.83 36.17 222.134 35.3533 221.02 34.44L221.16 33L224.89 31.44L225.35 32.78ZM230.947 39.13C230.934 38.7833 230.927 38.53 230.927 38.37C230.927 38.1633 230.934 37.8533 230.947 37.44C231.56 37.44 232.077 37.4133 232.497 37.36C232.924 37.3 233.244 37.2333 233.457 37.16C233.677 37.0867 233.79 37.0333 233.797 37C233.737 36.6667 233.637 36.31 233.497 35.93C233.364 35.55 233.254 35.26 233.167 35.06L234.337 34.42C234.524 34.84 234.674 35.2833 234.787 35.75C234.907 36.2167 234.957 36.6333 234.937 37C234.904 37.7133 234.524 38.2467 233.797 38.6C233.07 38.9533 232.12 39.13 230.947 39.13ZM228.547 35.38C228.38 35.92 228.297 36.32 228.297 36.58C228.297 36.7267 228.404 36.8667 228.617 37C228.837 37.1333 229.154 37.24 229.567 37.32C229.987 37.4 230.484 37.44 231.057 37.44C231.077 37.7467 231.087 38.0467 231.087 38.34C231.087 38.6067 231.077 38.87 231.057 39.13C229.85 39.1367 228.9 38.95 228.207 38.57C227.514 38.19 227.137 37.66 227.077 36.98C227.07 36.9267 227.067 36.8467 227.067 36.74C227.067 36.4467 227.107 36.13 227.187 35.79C227.267 35.45 227.367 35.1467 227.487 34.88L228.547 35.38ZM230.127 33.84L231.007 34.73L230.127 35.62L229.827 35.32C229.434 34.9267 229.237 34.73 229.237 34.73L230.127 33.84ZM231.867 33.84L232.747 34.73L231.867 35.62L231.567 35.32C231.174 34.9267 230.977 34.73 230.977 34.73L231.867 33.84ZM237.109 31.45C237.189 32.03 237.249 32.79 237.289 33.73C237.335 34.6633 237.359 35.5233 237.359 36.31C237.359 36.5767 237.382 36.7833 237.429 36.93C237.475 37.07 237.555 37.17 237.669 37.23C237.782 37.29 237.949 37.32 238.169 37.32H238.209L238.299 38.16L238.209 39H238.169C237.422 39 236.879 38.7833 236.539 38.35C236.199 37.91 236.025 37.2533 236.019 36.38C235.992 34.44 235.895 32.9 235.729 31.76L237.109 31.45ZM240.191 36.6C240.604 36.8867 240.981 37.1133 241.321 37.28C241.661 37.4467 241.908 37.53 242.061 37.53C242.108 37.53 242.144 37.52 242.171 37.5C242.224 37.46 242.264 37.4033 242.291 37.33C242.324 37.25 242.341 37.16 242.341 37.06C242.341 36.8067 242.268 36.5733 242.121 36.36C241.981 36.14 241.798 36.03 241.571 36.03C241.204 36.03 240.804 36.55 240.371 37.59C240.178 38.0633 239.901 38.4167 239.541 38.65C239.181 38.8833 238.771 39 238.311 39H238.121L238.151 37.32H238.341C238.834 37.32 239.254 37.0033 239.601 36.37C239.941 35.7433 240.264 35.28 240.571 34.98C240.884 34.68 241.231 34.53 241.611 34.53C241.984 34.53 242.311 34.65 242.591 34.89C242.871 35.1233 243.084 35.4333 243.231 35.82C243.378 36.2 243.451 36.5967 243.451 37.01C243.451 37.4167 243.378 37.79 243.231 38.13C243.091 38.4633 242.878 38.72 242.591 38.9C242.438 39 242.241 39.05 242.001 39.05C241.401 39.05 240.588 38.7 239.561 38L240.191 36.6ZM247.344 33.45L248.714 36.69C248.821 36.9367 248.938 37.1033 249.064 37.19C249.191 37.2767 249.381 37.32 249.634 37.32H249.754L249.844 38.16L249.754 39H249.634C249.174 39 248.791 38.87 248.484 38.61C248.178 38.3433 247.901 37.9233 247.654 37.35L246.214 34.06L247.344 33.45ZM244.674 37.05C245.194 37.3233 245.728 37.46 246.274 37.46C246.714 37.46 247.064 37.3967 247.324 37.27C247.591 37.1367 247.778 37.0033 247.884 36.87L248.634 37.85C248.521 38.0233 248.391 38.19 248.244 38.35C248.098 38.51 247.868 38.67 247.554 38.83C247.248 38.9833 246.878 39.06 246.444 39.06C245.624 39.06 244.838 38.7833 244.084 38.23L244.674 37.05ZM249.644 37.32H250.334C251.114 37.32 251.841 37.24 252.514 37.08C253.187 36.9133 253.927 36.6167 254.734 36.19C255.321 35.8767 255.721 35.69 255.934 35.63L255.984 36.9C255.637 36.84 255.304 36.7567 254.984 36.65C254.664 36.5367 254.274 36.3633 253.814 36.13C253.547 35.9967 253.277 35.8933 253.004 35.82C252.737 35.74 252.497 35.7 252.284 35.7C252.044 35.7 251.831 35.7633 251.644 35.89C251.464 36.0167 251.321 36.1567 251.214 36.31L250.284 35.62C250.804 34.5867 251.491 34.07 252.344 34.07C252.631 34.07 252.904 34.1167 253.164 34.21C253.431 34.3033 253.817 34.48 254.324 34.74C254.704 34.94 255.027 35.09 255.294 35.19C255.567 35.29 255.867 35.3733 256.194 35.44L256.244 36.96C256.071 37.0067 255.751 37.1633 255.284 37.43L254.904 37.63C254.211 37.99 253.621 38.2667 253.134 38.46C252.647 38.6533 252.157 38.79 251.664 38.87C251.171 38.95 250.594 38.9933 249.934 39H249.644V37.32ZM251.544 32.43C251.544 32.43 251.764 32.21 252.204 31.77L252.544 31.43L253.534 32.43L252.544 33.42L251.544 32.43ZM264.526 37.32L264.616 38.16L264.526 39H264.326C263.586 39 262.92 38.8767 262.326 38.63C261.733 38.3767 261.193 38.0267 260.706 37.58C260.22 37.1333 259.71 36.5633 259.176 35.87L259.226 34.76C259.54 34.4533 259.926 34.22 260.386 34.06C260.846 33.9 261.323 33.82 261.816 33.82C262.41 33.82 262.933 33.93 263.386 34.15C263.84 34.37 264.116 34.6767 264.216 35.07C264.243 35.17 264.256 35.28 264.256 35.4C264.256 35.7133 264.156 36.0367 263.956 36.37C263.763 36.6967 263.486 37.0033 263.126 37.29C262.773 37.5767 262.366 37.8133 261.906 38C261.353 38.2267 260.896 38.46 260.536 38.7C260.176 38.9333 259.986 39.19 259.966 39.47C259.96 39.4967 259.956 39.5333 259.956 39.58C259.956 39.78 260.03 39.9633 260.176 40.13C260.33 40.3033 260.546 40.44 260.826 40.54C261.113 40.6467 261.446 40.7 261.826 40.7C262.56 40.7 263.186 40.5767 263.706 40.33L264.326 41.61C264.04 41.8367 263.666 42.0233 263.206 42.17C262.753 42.3167 262.293 42.39 261.826 42.39C261.266 42.39 260.753 42.2733 260.286 42.04C259.826 41.8067 259.46 41.4867 259.186 41.08C258.913 40.68 258.776 40.23 258.776 39.73C258.776 39.55 258.79 39.39 258.816 39.25C258.903 38.7567 259.073 38.3467 259.326 38.02C259.58 37.6867 259.866 37.4267 260.186 37.24C260.506 37.0467 260.873 36.87 261.286 36.71C261.813 36.51 262.21 36.31 262.476 36.11C262.75 35.91 262.906 35.73 262.946 35.57C262.886 35.47 262.766 35.3933 262.586 35.34C262.406 35.28 262.2 35.25 261.966 35.25C261.733 35.25 261.503 35.2767 261.276 35.33C261.056 35.3833 260.866 35.46 260.706 35.56C261.193 36.1533 261.713 36.5967 262.266 36.89C262.826 37.1767 263.513 37.32 264.326 37.32H264.526ZM266.509 36.6C266.923 36.8867 267.299 37.1133 267.639 37.28C267.979 37.4467 268.226 37.53 268.379 37.53C268.426 37.53 268.463 37.52 268.489 37.5C268.543 37.46 268.583 37.4033 268.609 37.33C268.643 37.25 268.659 37.16 268.659 37.06C268.659 36.8067 268.586 36.5733 268.439 36.36C268.299 36.14 268.116 36.03 267.889 36.03C267.523 36.03 267.123 36.55 266.689 37.59C266.496 38.0633 266.219 38.4167 265.859 38.65C265.499 38.8833 265.089 39 264.629 39H264.439L264.469 37.32H264.659C265.153 37.32 265.573 37.0033 265.919 36.37C266.259 35.7433 266.583 35.28 266.889 34.98C267.203 34.68 267.549 34.53 267.929 34.53C268.303 34.53 268.629 34.65 268.909 34.89C269.189 35.1233 269.403 35.4333 269.549 35.82C269.696 36.2 269.769 36.5967 269.769 37.01C269.769 37.4167 269.696 37.79 269.549 38.13C269.409 38.4633 269.196 38.72 268.909 38.9C268.756 39 268.559 39.05 268.319 39.05C267.719 39.05 266.906 38.7 265.879 38L266.509 36.6ZM271.943 31.45C272.023 32.03 272.083 32.79 272.123 33.73C272.169 34.6633 272.193 35.5233 272.193 36.31C272.193 36.5767 272.216 36.7833 272.263 36.93C272.309 37.07 272.389 37.17 272.503 37.23C272.616 37.29 272.783 37.32 273.003 37.32H273.043L273.133 38.16L273.043 39H273.003C272.256 39 271.713 38.7833 271.373 38.35C271.033 37.91 270.859 37.2533 270.853 36.38C270.826 34.44 270.729 32.9 270.563 31.76L271.943 31.45ZM272.945 37.32H273.635C274.415 37.32 275.142 37.24 275.815 37.08C276.488 36.9133 277.228 36.6167 278.035 36.19C278.622 35.8767 279.022 35.69 279.235 35.63L279.285 36.9C278.938 36.84 278.605 36.7567 278.285 36.65C277.965 36.5367 277.575 36.3633 277.115 36.13C276.848 35.9967 276.578 35.8933 276.305 35.82C276.038 35.74 275.798 35.7 275.585 35.7C275.345 35.7 275.132 35.7633 274.945 35.89C274.765 36.0167 274.622 36.1567 274.515 36.31L273.585 35.62C274.105 34.5867 274.792 34.07 275.645 34.07C275.932 34.07 276.205 34.1167 276.465 34.21C276.732 34.3033 277.118 34.48 277.625 34.74C278.005 34.94 278.328 35.09 278.595 35.19C278.868 35.29 279.168 35.3733 279.495 35.44L279.545 36.96C279.372 37.0067 279.052 37.1633 278.585 37.43L278.205 37.63C277.512 37.99 276.922 38.2667 276.435 38.46C275.948 38.6533 275.458 38.79 274.965 38.87C274.472 38.95 273.895 38.9933 273.235 39H272.945V37.32ZM275.365 40.72C275.365 40.72 275.585 40.5 276.025 40.06L276.365 39.72L277.355 40.72L276.365 41.71L275.365 40.72ZM282.037 37.76C282.051 37.3467 282.184 37.01 282.437 36.75C282.691 36.4833 283.007 36.35 283.387 36.35C283.441 36.35 283.514 36.3567 283.607 36.37C283.867 35.7833 284.177 35.33 284.537 35.01C284.897 34.69 285.274 34.53 285.667 34.53C286.041 34.53 286.367 34.65 286.647 34.89C286.934 35.13 287.151 35.44 287.297 35.82C287.444 36.2 287.517 36.5967 287.517 37.01C287.517 37.4167 287.444 37.79 287.297 38.13C287.157 38.4633 286.944 38.72 286.657 38.9C286.497 39 286.307 39.05 286.087 39.05C285.814 39.05 285.467 38.9733 285.047 38.82C284.627 38.66 284.091 38.4067 283.437 38.06C283.397 38.0467 283.377 38.06 283.377 38.1C283.364 39.0133 283.411 39.9967 283.517 41.05C283.624 42.1033 283.681 42.6533 283.687 42.7L282.287 43.02C282.247 42.66 282.194 41.9933 282.127 41.02C282.061 40.0533 282.027 39.1767 282.027 38.39C282.027 38.1033 282.031 37.8933 282.037 37.76ZM284.747 36.92C285.421 37.3267 285.884 37.53 286.137 37.53C286.184 37.53 286.221 37.52 286.247 37.5C286.347 37.42 286.397 37.2767 286.397 37.07C286.397 36.8167 286.327 36.58 286.187 36.36C286.047 36.14 285.864 36.03 285.637 36.03C285.371 36.03 285.074 36.3267 284.747 36.92ZM291.041 39C290.568 39 290.181 38.8267 289.881 38.48C289.588 38.1333 289.341 37.6467 289.141 37.02L290.161 36.4C290.255 36.74 290.365 36.98 290.491 37.12C290.625 37.2533 290.808 37.32 291.041 37.32H291.141L291.231 38.16L291.141 39H291.041ZM286.901 40.52C287.341 40.3333 287.748 40.12 288.121 39.88C288.495 39.6467 288.788 39.4167 289.001 39.19C289.221 38.97 289.331 38.79 289.331 38.65C289.331 38.43 289.155 37.7133 288.801 36.5L288.731 36.25L289.971 35.76C290.131 36.22 290.258 36.71 290.351 37.23C290.445 37.75 290.491 38.2233 290.491 38.65C290.491 39.3233 290.231 39.94 289.711 40.5C289.191 41.0667 288.488 41.5433 287.601 41.93L286.901 40.52ZM291.031 37.32H291.271C291.897 37.32 292.394 37.3 292.761 37.26C293.127 37.2133 293.421 37.1333 293.641 37.02C293.867 36.9 294.037 36.7233 294.151 36.49C294.157 36.31 294.107 36.13 294.001 35.95C293.894 35.77 293.751 35.6667 293.571 35.64C293.544 35.6333 293.507 35.63 293.461 35.63C293.261 35.63 293.091 35.7067 292.951 35.86C292.811 36.0067 292.731 36.17 292.711 36.35C292.731 36.5033 292.814 36.6533 292.961 36.8C293.114 36.9467 293.327 37.07 293.601 37.17C293.881 37.27 294.207 37.32 294.581 37.32H295.831L295.921 38.16L295.831 39H295.231C294.531 39 293.901 38.8867 293.341 38.66C292.781 38.4267 292.341 38.12 292.021 37.74C291.707 37.3533 291.551 36.9367 291.551 36.49C291.551 36.4233 291.557 36.33 291.571 36.21C291.631 35.8033 291.757 35.43 291.951 35.09C292.144 34.7433 292.381 34.47 292.661 34.27C292.941 34.07 293.237 33.97 293.551 33.97C293.904 33.97 294.214 34.0833 294.481 34.31C294.747 34.5367 294.951 34.8267 295.091 35.18C295.237 35.5267 295.311 35.8833 295.311 36.25C295.311 36.41 295.304 36.5267 295.291 36.6C295.171 37.4267 294.781 38.0333 294.121 38.42C293.461 38.8067 292.511 39 291.271 39H291.031V37.32ZM292.451 32.43C292.451 32.43 292.671 32.21 293.111 31.77L293.451 31.43L294.441 32.43L293.451 33.42L292.451 32.43ZM295.709 37.32H295.759C296.286 37.32 296.692 37.2967 296.979 37.25C297.266 37.2033 297.466 37.13 297.579 37.03C297.699 36.93 297.766 36.7933 297.779 36.62C297.799 36.3467 297.766 35.9833 297.679 35.53L298.819 35.31C298.912 35.81 298.959 36.3633 298.959 36.97C298.972 37.05 299.032 37.13 299.139 37.21C299.252 37.2833 299.422 37.32 299.649 37.32H299.699L299.789 38.16L299.699 39H299.649C299.342 39 299.059 38.9233 298.799 38.77C298.546 38.61 298.332 38.4033 298.159 38.15L298.429 38.21C298.222 38.49 297.919 38.6933 297.519 38.82C297.119 38.94 296.532 39 295.759 39H295.709V37.32ZM296.429 32.85L297.309 33.74L296.429 34.63L296.129 34.33C295.736 33.9367 295.539 33.74 295.539 33.74L296.429 32.85ZM298.169 32.85L299.049 33.74L298.169 34.63L297.869 34.33C297.476 33.9367 297.279 33.74 297.279 33.74L298.169 32.85ZM302.736 37.32L302.826 38.16L302.736 39H302.636C302.302 39 301.986 38.8933 301.686 38.68C301.392 38.46 301.152 38.1667 300.966 37.8C300.786 37.4267 300.692 37.0167 300.686 36.57C300.666 36.1033 300.622 35.3233 300.556 34.23C300.496 33.13 300.439 32.3133 300.386 31.78L301.786 31.46C301.839 32.0733 301.896 33.2467 301.956 34.98C301.996 35.98 302.019 36.5133 302.026 36.58C302.039 36.8467 302.096 37.0367 302.196 37.15C302.302 37.2633 302.449 37.32 302.636 37.32H302.736ZM299.596 37.32H299.786C300.112 37.32 300.346 37.2667 300.486 37.16C300.626 37.0467 300.692 36.85 300.686 36.57L301.676 36.69C301.676 37.1233 301.602 37.5167 301.456 37.87C301.309 38.2167 301.092 38.4933 300.806 38.7C300.526 38.9 300.196 39 299.816 39H299.596V37.32ZM302.642 37.32H303.142C303.782 37.32 304.236 37.2667 304.502 37.16C304.776 37.0533 304.912 36.8967 304.912 36.69C304.912 36.5633 304.839 36.3 304.692 35.9C304.546 35.4933 304.436 35.2133 304.362 35.06L305.522 34.42C305.656 34.7 305.789 35.0733 305.922 35.54C306.062 36.0067 306.132 36.42 306.132 36.78C306.132 37.4933 305.902 38.0433 305.442 38.43C304.982 38.81 304.306 39 303.412 39H302.642V37.32ZM304.762 39.69L305.602 40.53L304.762 41.37L303.922 40.53L304.762 39.69ZM302.852 39.69L303.692 40.53L302.852 41.37L302.012 40.53L302.852 39.69ZM303.802 41.01C304.056 41.25 304.302 41.4967 304.542 41.75L303.802 42.48C303.642 42.3133 303.396 42.07 303.062 41.75L303.802 41.01Z" fill="#00753A" fill-opacity="0.8"/>
</svg>
