<svg width="25" height="25" viewBox="0 0 25 25" fill="none" xmlns="http://www.w3.org/2000/svg">
<path d="M25 19.5115V4.79425C25 3.68687 23.701 2.99902 21.7867 2.99902L12.5114 10.0691L3.21331 2.99902C0.911577 2.99901 0 3.95278 0 4.79425V19.5115C0 20.5975 0.706472 21.3281 3.21331 21.3281V6.98842L12.5114 14.0807L22.0374 6.98842V21.3281C24.3391 21.3281 25 20.5975 25 19.5115Z" fill="#F44336"/>
<path d="M12.5114 10.0691L21.7867 2.99902H3.21331L12.5114 10.0691Z" fill="#ECEFF1"/>
<path fill-rule="evenodd" clip-rule="evenodd" d="M3.21331 21.3281V6.98842L12.5114 14.0807L22.0374 21.3281H3.21331Z" fill="#ECEFF1"/>
<path d="M22.0374 6.98842L12.5114 14.0807L22.0374 21.3281V6.98842Z" fill="#CFD8DC"/>
</svg>
