<svg width="25" height="25" viewBox="0 0 25 25" fill="none" xmlns="http://www.w3.org/2000/svg">
<path fill-rule="evenodd" clip-rule="evenodd" d="M13 1C9.741 1 9.33234 1.01381 8.05242 1.07221C6.77516 1.13047 5.90283 1.33334 5.13954 1.63001C4.35044 1.93663 3.68123 2.34695 3.01406 3.01406C2.34695 3.68123 1.93663 4.35044 1.63001 5.13954C1.33334 5.90283 1.13047 6.77516 1.07221 8.05242C1.01381 9.33234 1 9.741 1 13C1 16.259 1.01381 16.6677 1.07221 17.9476C1.13047 19.2248 1.33334 20.0972 1.63001 20.8605C1.93663 21.6496 2.34695 22.3188 3.01406 22.9859C3.68123 23.6531 4.35044 24.0634 5.13954 24.37C5.90283 24.6667 6.77516 24.8695 8.05242 24.9278C9.33234 24.9862 9.741 25 13 25C16.259 25 16.6677 24.9862 17.9476 24.9278C19.2248 24.8695 20.0972 24.6667 20.8605 24.37C21.6496 24.0634 22.3188 23.6531 22.9859 22.9859C23.6531 22.3188 24.0634 21.6496 24.37 20.8605C24.6667 20.0972 24.8695 19.2248 24.9278 17.9476C24.9862 16.6677 25 16.259 25 13C25 9.741 24.9862 9.33234 24.9278 8.05242C24.8695 6.77516 24.6667 5.90283 24.37 5.13954C24.0634 4.35044 23.6531 3.68123 22.9859 3.01406C22.3188 2.34695 21.6496 1.93663 20.8605 1.63001C20.0972 1.33334 19.2248 1.13047 17.9476 1.07221C16.6677 1.01381 16.259 1 13 1ZM13 3.16216C16.2041 3.16216 16.5836 3.1744 17.849 3.23213C19.019 3.28548 19.6543 3.48097 20.0772 3.64531C20.6373 3.863 21.0371 4.12303 21.457 4.54297C21.8769 4.96287 22.1369 5.36261 22.3546 5.92274C22.519 6.34559 22.7145 6.98098 22.7678 8.15097C22.8255 9.41632 22.8378 9.79587 22.8378 13C22.8378 16.2041 22.8255 16.5837 22.7678 17.849C22.7145 19.019 22.519 19.6544 22.3546 20.0773C22.1369 20.6374 21.8769 21.0371 21.457 21.457C21.0371 21.877 20.6373 22.137 20.0772 22.3547C19.6543 22.519 19.019 22.7145 17.849 22.7679C16.5838 22.8256 16.2043 22.8378 13 22.8378C9.79557 22.8378 9.41611 22.8256 8.15091 22.7679C6.98092 22.7145 6.34553 22.519 5.92268 22.3547C5.36255 22.137 4.9628 21.877 4.54291 21.457C4.12302 21.0371 3.86293 20.6374 3.64525 20.0773C3.48091 19.6544 3.28542 19.019 3.23207 17.849C3.17434 16.5837 3.16209 16.2041 3.16209 13C3.16209 9.79587 3.17434 9.41632 3.23207 8.15097C3.28542 6.98098 3.48091 6.34559 3.64525 5.92274C3.86293 5.36261 4.12297 4.96287 4.54291 4.54297C4.9628 4.12303 5.36255 3.863 5.92268 3.64531C6.34553 3.48097 6.98092 3.28548 8.15091 3.23213C9.41626 3.1744 9.79581 3.16216 13 3.16216Z" fill="url(#paint0_linear_10078_23156)"/>
<path fill-rule="evenodd" clip-rule="evenodd" d="M12.9982 16.9991C10.789 16.9991 8.99819 15.2082 8.99819 12.9991C8.99819 10.7899 10.789 8.99908 12.9982 8.99908C15.2073 8.99908 16.9982 10.7899 16.9982 12.9991C16.9982 15.2082 15.2073 16.9991 12.9982 16.9991ZM12.9981 6.83691C9.59481 6.83691 6.83594 9.59578 6.83594 12.9991C6.83594 16.4024 9.59481 19.1612 12.9981 19.1612C16.4014 19.1612 19.1603 16.4024 19.1603 12.9991C19.1603 9.59578 16.4014 6.83691 12.9981 6.83691Z" fill="#D40064"/>
<path fill-rule="evenodd" clip-rule="evenodd" d="M20.8448 6.59335C20.8448 7.38864 20.2001 8.03332 19.4048 8.03332C18.6096 8.03332 17.9648 7.38864 17.9648 6.59335C17.9648 5.79805 18.6096 5.15332 19.4048 5.15332C20.2001 5.15332 20.8448 5.79805 20.8448 6.59335Z" fill="#EA0021"/>
<defs>
<linearGradient id="paint0_linear_10078_23156" x1="24.7372" y1="0.572264" x2="0.737164" y2="24.5723" gradientUnits="userSpaceOnUse">
<stop stop-color="#CA1496"/>
<stop offset="0.520114" stop-color="#F0000E"/>
<stop offset="1" stop-color="#FB9E1C"/>
</linearGradient>
</defs>
</svg>
