<svg width="26" height="25" viewBox="0 0 26 25" fill="none" xmlns="http://www.w3.org/2000/svg">
<path d="M24.0032 23.9978H19.2411V16.5271C19.2411 14.7457 19.2093 12.4524 16.7644 12.4524C14.284 12.4524 13.9045 14.3933 13.9045 16.3974V23.9973H9.14258V8.63452H13.7141V10.734H13.7782C14.709 9.13969 16.4461 8.18393 18.2887 8.25248C23.1152 8.25248 24.0052 11.4327 24.0052 15.5701L24.0032 23.9978Z" fill="url(#paint0_linear_10078_23162)"/>
<path d="M3.76408 6.53656C3.76379 6.53656 3.76365 6.53656 3.76351 6.53656C2.24749 6.53656 1 5.28703 1 3.76835C1 2.24967 2.24749 1 3.76351 1C5.27938 1 6.52672 2.24939 6.52701 3.76777C6.52701 3.76792 6.52701 3.76806 6.52701 3.76835C6.52701 5.28674 5.27981 6.53641 3.76408 6.53656" fill="url(#paint1_linear_10078_23162)"/>
<path d="M6.14785 24H1.38086V8.63672H6.14785V24Z" fill="url(#paint2_linear_10078_23162)"/>
<defs>
<linearGradient id="paint0_linear_10078_23162" x1="16.5739" y1="8.24902" x2="16.5739" y2="23.9978" gradientUnits="userSpaceOnUse">
<stop stop-color="#137CE4"/>
<stop offset="1" stop-color="#0A66C2"/>
</linearGradient>
<linearGradient id="paint1_linear_10078_23162" x1="3.7635" y1="1" x2="3.7635" y2="6.53656" gradientUnits="userSpaceOnUse">
<stop stop-color="#137CE4"/>
<stop offset="1" stop-color="#0A66C2"/>
</linearGradient>
<linearGradient id="paint2_linear_10078_23162" x1="3.76435" y1="8.63672" x2="3.76435" y2="24" gradientUnits="userSpaceOnUse">
<stop stop-color="#137CE4"/>
<stop offset="1" stop-color="#0A66C2"/>
</linearGradient>
</defs>
</svg>
