<svg width="125" height="125" viewBox="0 0 125 125" fill="none" xmlns="http://www.w3.org/2000/svg">
<path d="M60.6682 124.5L58.0362 124.252C45.2906 123.134 33.7884 118.786 23.5919 111.086C11.9032 102.226 4.54598 90.5708 1.68599 76.142C0.847514 71.7836 0.451739 67.3518 0.504687 62.914C0.525412 61.4442 1.47874 60.4713 2.92947 60.4713C6.12105 60.4713 9.31264 60.347 12.5042 60.492C22.079 60.9681 31.3015 62.914 39.7364 67.7374C48.1713 72.5607 54.2436 79.5577 58.3263 88.335C60.0379 92.0943 61.3775 96.0116 62.3262 100.031C62.3404 100.096 62.3681 100.157 62.4073 100.211C62.4466 100.264 62.4966 100.309 62.5541 100.342C62.6163 100.073 62.6992 99.8242 62.7614 99.5758C64.2536 93.5517 66.4711 87.8175 69.787 82.5594C75.6314 73.306 83.9005 67.1991 94.2006 63.742C98.3959 62.3619 102.723 61.4184 107.112 60.9267C112.121 60.3715 117.166 60.2192 122.2 60.4713C122.669 60.4783 123.126 60.6288 123.507 60.9027C123.889 61.1766 124.178 61.5606 124.334 62.0031C124.381 62.131 124.436 62.2555 124.5 62.3758V65.7708C124.459 66.0606 124.396 66.3504 124.376 66.6609C124.259 70.0639 123.849 73.4506 123.153 76.7838C121.06 86.9688 116.625 96.0152 109.537 103.633C98.0347 115.992 83.6932 122.637 66.9478 124.252L64.295 124.5H60.6682ZM56.316 119.656L56.3989 119.408L56.0259 118.973L30.8455 93.883L23.281 86.3684C22.4935 85.5611 22.307 84.6088 22.7215 83.698C23.4054 82.2282 25.2913 81.9591 26.5348 83.1805L59.4455 115.95L59.9014 116.385L60.0465 116.323L59.7356 112.555C59.3887 108.358 58.6956 104.197 57.6631 100.114C56.0259 93.6966 53.4975 87.6933 49.5391 82.3524C44.2543 75.2519 37.2494 70.6148 28.8974 67.903C21.3329 65.4602 13.5197 64.7978 5.62366 64.9013C5.08482 64.922 5.0641 65.1911 5.08482 65.6051C5.20159 68.9912 5.58969 72.3625 6.2454 75.6866C8.71163 87.8382 14.7632 97.8576 24.2551 105.828C31.4051 111.831 39.5913 115.806 48.6272 118.083C51.1556 118.724 53.7462 119.138 56.316 119.656ZM68.3985 119.221C68.4624 119.339 68.5389 119.45 68.6265 119.552L71.5901 119.097C80.9783 117.482 89.5998 113.984 97.3508 108.436C105.102 102.888 111.319 95.6012 115.257 86.6996C118.241 79.9718 119.63 72.892 119.899 65.5844C119.92 65.0048 119.713 64.8806 119.215 64.9013C115.651 65.0669 112.065 65.1083 108.521 65.3981C104.014 65.7438 99.5695 66.6692 95.299 68.1514C87.2786 70.9254 80.5224 75.4796 75.4241 82.3731C71.0305 88.3143 68.4399 95.0215 66.8234 102.184C66.0354 105.81 65.4748 109.481 65.1447 113.176C65.0618 114.212 65.0204 115.267 64.9375 116.489C65.1366 116.33 65.3237 116.157 65.497 115.971L77.393 104.151L98.2419 83.3875C98.4235 83.1745 98.6326 82.9866 98.8637 82.8285C99.2032 82.5655 99.6143 82.4109 100.043 82.3851C100.472 82.3592 100.899 82.4633 101.268 82.6836C101.64 82.8714 101.95 83.163 102.159 83.5231C102.369 83.8831 102.47 84.2963 102.449 84.7123C102.449 85.4576 102.055 85.9958 101.558 86.4926L69.1238 118.786C68.8943 118.951 68.6517 119.096 68.3985 119.221Z" fill="#008B45"/>
<path d="M64.5435 0.5L67.3621 0.748414C74.4322 1.25808 81.3567 3.01004 87.8172 5.92371C98.1381 10.6022 106.614 17.5578 113.163 26.8112C118.114 33.7423 121.533 41.6454 123.194 49.9965C123.692 52.5221 123.92 55.089 124.272 57.656V58.0079L119.899 57.8837C119.484 57.8837 119.36 57.7388 119.319 57.3247C118.282 45.8563 114.117 35.6299 106.905 26.6249C106.635 26.3144 106.449 26.273 106.096 26.48C100.786 29.3476 95.2043 31.6843 89.4338 33.4563C88.9364 33.6012 88.8949 33.8289 88.9778 34.2843C89.7654 38.3418 90.6151 42.3785 91.2368 46.4566C91.9622 51.28 92.1487 56.1655 92.273 61.051C92.2697 61.1417 92.2478 61.2308 92.2086 61.3127C92.1693 61.3946 92.1137 61.4676 92.0451 61.5271L87.3406 63.4109V62.6242C87.4343 53.5709 86.4182 44.5401 84.3148 35.7334C84.1283 34.9468 84.1283 34.9468 83.3822 35.1124C78.0331 36.3656 72.5806 37.1279 67.0926 37.3895C58.8222 37.792 50.535 37.0888 42.4511 35.2987L41.2076 35.0296C40.7931 34.9054 40.6273 35.071 40.5444 35.4643C39.8605 39.1905 39.0108 42.9167 38.5134 46.6843C38.016 50.452 37.788 54.7371 37.5186 58.7945C37.415 60.2643 37.4979 61.7548 37.4979 63.3281L36.9176 63.1418C35.7156 62.6449 34.5136 62.1274 33.2701 61.672C32.8349 61.5271 32.7312 61.2787 32.7105 60.8439C32.4411 57.656 32.7312 54.468 33.0836 51.3214C33.4981 47.4296 34.0783 43.5585 34.6586 39.708C34.9488 37.8656 35.4462 36.0439 35.8814 34.2222C35.985 33.7668 35.9021 33.5805 35.4462 33.4356C29.7084 31.6919 24.1662 29.361 18.9079 26.48C18.5142 26.273 18.3276 26.3144 18.0582 26.6456C12.0481 34.1394 8.11041 42.5855 6.36954 52.0459C6.05868 53.8055 5.87215 55.5858 5.64418 57.3661C5.60273 57.7388 5.47839 57.863 5.08462 57.8837C3.65462 57.8837 2.2039 57.9458 0.670278 57.9872C0.773901 56.8693 0.8568 55.6893 1.00187 54.5301C1.68578 49.3755 2.90854 44.3451 4.8981 39.5424C11.8616 22.7193 23.8473 11.0162 40.8553 4.43322C45.7827 2.53578 50.9519 1.33726 56.2122 0.872621C57.4971 0.748414 58.8028 0.686311 60.0877 0.603506L60.4193 0.5H64.5435ZM82.7604 30.3304C82.7275 30.1696 82.6859 30.0107 82.6361 29.8543C81.3097 25.6726 79.6725 21.6359 77.4964 17.8062C75.5276 14.3491 73.2271 11.1611 70.1184 8.61486C68.419 7.22788 66.5745 6.06862 64.4192 5.6753C61.958 5.18967 59.404 5.60872 57.2277 6.85526C54.2641 8.53206 51.9844 10.9334 49.9948 13.6452C46.4717 18.4893 44.1505 23.913 42.2438 29.5645C42.0573 30.1441 42.1817 30.3097 42.762 30.4546C50.5337 32.1521 58.3883 33.063 66.3673 32.6075C70.6156 32.3802 74.8451 31.8824 79.03 31.117C80.2528 30.8893 81.4755 30.5995 82.7604 30.3304ZM75.8799 7.12438L76.1907 7.5177C77.5378 9.2773 79.0093 10.9541 80.2113 12.7965C83.3822 17.5785 85.5583 22.8159 87.2991 28.2396C87.5271 28.9848 87.5271 28.9848 88.2939 28.7364C93.2278 27.22 98.0085 25.2447 102.573 22.8366L103.216 22.464C95.4853 14.7631 86.4287 9.62922 75.8799 7.12438ZM48.855 7.14508C38.4098 9.69132 29.4153 14.7838 21.7679 22.4847C26.7154 25.1605 31.9236 27.3247 37.3114 28.9434C39.8812 20.9735 43.1557 13.4382 48.855 7.14508Z" fill="#008B45"/>
<path d="M52.544 59.6018C52.0051 60.8439 51.8186 60.7611 51.1347 59.9124C50.4508 59.0636 50.0363 58.4012 50.3472 57.3661C50.513 56.7865 49.684 55.5237 49.1451 55.2546C48.6063 54.9855 47.6115 54.4886 47.3214 53.5571C47.2385 53.2673 46.9069 53.0603 46.7204 52.7911C46.5338 52.522 46.4924 52.3564 46.5546 52.2115C46.8571 51.5106 47.2104 50.8325 47.6115 50.1828C47.7773 49.893 47.9846 49.686 47.9017 49.2719C47.8188 48.8579 48.0467 48.7544 48.1918 48.4025C47.1763 48.4853 46.8447 47.885 46.4509 47.119C46.0572 46.3531 45.9328 46.084 45.9121 45.4629C45.8914 45.1731 45.8292 44.8005 45.6427 44.6349C45.4562 44.4693 45.166 43.8068 45.1867 43.2893C45.2075 42.7718 45.0417 42.0472 45.1038 41.4262C45.166 40.8052 45.4976 40.681 45.7049 40.2876H45.9328C46.2022 40.681 46.4924 41.0743 46.7618 41.4883C47.3836 42.4613 48.9172 42.482 49.6425 41.6125C49.9743 41.248 50.3856 40.9647 50.8446 40.7845C51.0518 40.7017 51.5077 40.8673 51.5906 41.0536C51.6569 41.2036 51.6911 41.3657 51.6911 41.5297C51.6911 41.6937 51.6569 41.8558 51.5906 42.0058C51.4248 42.2957 51.4249 42.5027 51.6735 42.5855C52.6269 42.9167 52.8756 43.6619 53.0621 44.5314C53.2486 45.4008 53.8496 45.4215 54.5543 45.4422C54.7977 45.4447 55.0325 45.5326 55.2175 45.6906C56.3366 46.9948 57.3728 47.2639 59.0308 46.7464C59.6385 46.5799 60.2659 46.4964 60.896 46.498C61.5799 46.4773 61.7664 46.3324 61.6006 45.6906C61.5177 45.3801 61.6213 45.2766 61.87 45.1317C62.4365 44.843 62.9713 44.4961 63.4658 44.0967C63.8803 43.724 64.2741 43.4963 64.8544 43.6205C65.0726 43.6548 65.2956 43.6028 65.4761 43.4756C65.9942 43.0823 66.4709 43.0616 66.989 43.4342C67.7962 43.9984 68.7603 44.2953 69.7454 44.283C70.116 44.3138 70.466 44.4667 70.7402 44.7177C71.4622 45.499 72.4252 46.0164 73.4758 46.1875C73.8074 46.2289 73.9525 46.3324 74.0354 46.6636C74.3506 48.0571 74.279 49.5101 73.8281 50.8659C73.7867 50.9694 73.6416 51.0522 73.538 51.1351C73.4344 51.2179 73.1857 51.9631 73.538 52.315C73.6087 52.3969 73.6618 52.4925 73.6939 52.5958C73.726 52.6991 73.7364 52.8079 73.7245 52.9154C73.6354 53.213 73.606 53.5254 73.638 53.8344C73.67 54.1435 73.7628 54.4432 73.911 54.7164C74.0291 54.9902 74.0789 55.2885 74.0561 55.5858C74.0147 56.2689 74.4706 56.8279 75.1338 56.7658C75.797 56.7037 75.9006 56.9935 75.9421 57.4903C75.9835 57.9871 75.9628 58.691 75.4654 59.1671C75.3201 59.3067 75.2069 59.4762 75.1338 59.6639C74.7193 60.5127 74.74 60.492 75.4861 61.0716C75.6891 61.2408 75.852 61.4529 75.9628 61.6927C76.3151 62.4379 76.8954 63.0175 77.7244 63.1003C78.5534 63.1831 78.9264 63.8663 79.0093 64.6115C79.0922 65.3568 79.1544 65.2947 79.6103 65.3361C79.7139 65.3361 79.8797 65.5431 79.8797 65.6466C79.9005 67.0543 79.9004 68.4619 79.9004 69.9524C78.9886 69.9524 78.1181 69.9938 77.2684 69.9317C76.4187 69.8696 75.797 69.704 75.0716 69.6626C74.3463 69.6212 73.911 69.7661 73.3307 69.7247C71.9906 69.6281 70.6435 69.5039 69.2895 69.3521C69.1832 69.3332 69.0821 69.292 68.9928 69.2314C68.9035 69.1708 68.828 69.092 68.7713 69.0002C68.5307 68.6053 68.3426 68.1808 68.2118 67.7374C67.9424 66.8886 67.0719 66.2055 66.0771 66.7644C65.4278 67.1095 64.7646 67.4407 64.0876 67.7581C63.8458 67.8877 63.5743 67.9519 63.3 67.9444C62.7405 67.903 62.1602 67.8823 61.6628 67.6753C61.1654 67.4683 60.2535 67.0129 59.7147 66.516C59.1758 66.0192 58.6785 65.5845 57.9324 65.5017C57.6984 65.4823 57.4764 65.3899 57.2979 65.2376C57.1194 65.0853 56.9933 64.8807 56.9376 64.6529C56.5646 63.4522 55.7977 62.4793 55.0724 61.4856C54.9702 61.3602 54.8864 61.2208 54.8237 61.0716C54.6372 60.6369 54.4299 60.4092 53.9118 60.699C53.3937 60.9888 53.2693 60.5334 53.0621 60.2643L52.544 59.6018Z" fill="#008B45"/>
</svg>
