<svg width="25" height="25" viewBox="0 0 25 25" fill="none" xmlns="http://www.w3.org/2000/svg">
<g filter="url(#filter0_b_10078_23159)">
<path d="M8.31313 1.45681C8.00705 0.390768 7.51626 0.296642 7.07313 0.212727C6.71073 0.143046 6.29303 0.0812863 5.87607 0.0186983C5.2322 -0.0615604 4.58287 0.118811 4.08491 0.516255C3.41373 1.02853 1.561 2.23225 1.08158 5.17415C0.602167 8.11605 2.38165 11.2958 2.62924 11.7424C2.87682 12.189 5.87847 19.0211 11.8489 22.3728C16.8108 25.1582 17.9511 24.9235 19.1149 24.9961C20.2788 25.0688 23.053 24.1062 23.8023 22.7877C24.5516 21.4692 24.7465 20.2728 24.6307 19.9996C24.5149 19.7265 24.1219 19.5149 23.5447 19.1219C22.9675 18.7289 20.1267 16.8203 19.5854 16.5348C19.0441 16.2492 18.6431 16.087 18.1283 16.6231C17.6134 17.1592 16.1954 18.3251 15.7649 18.6688C15.3344 19.0125 14.9614 19.0086 14.3842 18.6157C13.8071 18.2227 11.8939 17.2884 9.83525 14.8925C8.23309 13.0284 7.29603 10.8826 7.02851 10.2292C6.76098 9.57575 7.1396 9.30132 7.5021 9.05034C7.82675 8.82471 8.24175 8.44631 8.6116 8.14413C8.98146 7.84194 9.12571 7.60828 9.3994 7.24087C9.6731 6.87347 9.62561 6.50805 9.51786 6.18554C9.41012 5.86303 8.67682 2.72276 8.31313 1.45681Z" fill="#50CD5E"/>
</g>
<defs>
<filter id="filter0_b_10078_23159" x="-3" y="-4" width="31.6621" height="33" filterUnits="userSpaceOnUse" color-interpolation-filters="sRGB">
<feFlood flood-opacity="0" result="BackgroundImageFix"/>
<feGaussianBlur in="BackgroundImageFix" stdDeviation="2"/>
<feComposite in2="SourceAlpha" operator="in" result="effect1_backgroundBlur_10078_23159"/>
<feBlend mode="normal" in="SourceGraphic" in2="effect1_backgroundBlur_10078_23159" result="shape"/>
</filter>
</defs>
</svg>
