<svg width="26" height="25" viewBox="0 0 26 25" fill="none" xmlns="http://www.w3.org/2000/svg">
<path d="M9.71399 21.6349C8.94438 21.6349 9.07522 21.3545 8.80978 20.6476L6.54688 13.4633L23.966 3.49414" fill="#7ABCE5"/>
<path d="M9.7168 21.6319C10.3106 21.6319 10.5729 21.3699 10.9045 21.0591L14.0716 18.0882L10.121 15.79" fill="#2D7AAA"/>
<path d="M10.1192 15.7927L19.6918 22.6153C20.7843 23.1968 21.5725 22.8956 21.8447 21.6371L25.7412 3.92349C26.1401 2.38058 25.1315 1.68054 24.0864 2.13826L1.20595 10.6493C-0.355838 11.2537 -0.346535 12.0943 0.921302 12.4687L6.79294 14.2368L20.3864 5.96366C21.0281 5.58824 21.6172 5.78989 21.1338 6.20388" fill="#43A2D9"/>
</svg>
