<svg width="25" height="25" viewBox="0 0 25 25" fill="none" xmlns="http://www.w3.org/2000/svg">
<path fill-rule="evenodd" clip-rule="evenodd" d="M2.6953 18.8375L1 25L7.33497 23.3465C9.08702 24.2964 11.0502 24.7941 13.0452 24.7943H13.0504C19.6361 24.7943 24.9972 19.4584 25 12.9015C25.0013 9.7455 23.7429 6.7183 21.5017 4.48619C19.2605 2.25408 16.2203 1.00001 13.0501 1C6.46312 1 1.10296 6.33473 1.10032 12.8919C1.09776 14.9789 1.6479 17.0297 2.6953 18.8375ZM7.99041 21.4074L7.62756 21.1932L3.86845 22.1744L4.87197 18.5269L4.63551 18.153C3.64082 16.5773 3.11443 14.7536 3.1172 12.8926C3.11938 7.4425 7.57468 3.00859 13.0532 3.00859C18.5386 3.0108 22.9836 7.43951 22.9814 12.9004C22.9791 18.3509 18.5237 22.7854 13.0495 22.7854H13.0456C11.2669 22.7855 9.5209 22.3096 7.99041 21.4074Z" fill="#29B53F"/>
<path d="M10.0638 7.92032C9.84034 7.42533 9.60463 7.41541 9.3919 7.40696C9.21784 7.39955 9.01862 7.40001 8.81969 7.40001C8.51375 7.40796 8.22504 7.54278 8.0233 7.7719C7.7496 8.06936 6.97813 8.7884 6.97813 10.2508C6.97813 11.7133 8.04816 13.1266 8.19736 13.3253C8.34655 13.5239 10.263 16.6205 13.2978 17.812C15.82 18.8021 16.3332 18.6052 16.8807 18.5557C17.4282 18.5062 18.6472 17.837 18.8961 17.1426C19.145 16.4483 19.1449 15.8535 19.0703 15.7294C18.9956 15.6053 18.7965 15.5313 18.4979 15.3826C18.1993 15.234 16.7314 14.5148 16.4577 14.4156C16.1839 14.3165 15.9849 14.267 15.7858 14.5646C15.5867 14.8623 15.0148 15.5313 14.8404 15.7294C14.666 15.9276 14.492 15.9529 14.1934 15.8042C13.8948 15.6556 12.9329 15.3416 11.7923 14.3289C10.9047 13.5411 10.3055 12.5681 10.1313 12.2706C9.95711 11.973 10.1126 11.8122 10.2624 11.6641C10.3964 11.5309 10.561 11.3171 10.7103 11.1435C10.8596 10.9699 10.9091 10.846 11.0086 10.6478C11.1082 10.4496 11.0584 10.2758 10.9837 10.1271C10.9091 9.97848 10.3292 8.50811 10.0638 7.92032Z" fill="#29B53F"/>
</svg>
