<svg width="124" height="124" viewBox="0 0 124 124" fill="none" xmlns="http://www.w3.org/2000/svg">
<path d="M0.19501 57.759C-0.0187806 56.9251 0.237769 56.1126 0.280527 55.3001C0.344664 54.231 0.579834 53.1832 0.729488 52.1141C1.05017 49.7194 1.58465 47.3887 2.2474 45.0795C3.1667 41.7439 4.42807 38.5152 5.88185 35.372C7.20735 32.5282 8.76803 29.8127 10.5211 27.2041C11.8039 25.2583 13.2363 23.4409 14.7542 21.6662C15.8873 20.3191 17.0417 19.0148 18.3031 17.796C20.9327 15.2515 23.712 12.8995 26.7265 10.8255C29.2064 9.11491 31.7933 7.57541 34.5085 6.22834C38.8484 4.09014 43.3808 2.44372 48.0842 1.37462C50.3504 0.861453 52.6379 0.497959 54.9469 0.219993C56.871 -0.0152096 58.7951 0.0275545 60.7192 0.00617246C62.2372 -0.0152096 63.7551 0.0275545 65.2516 0.00617246C67.6674 -0.0365916 70.0619 0.326903 72.435 0.711779C74.5943 1.05389 76.7322 1.54568 78.8273 2.12299C81.2859 2.78583 83.659 3.6625 86.0107 4.62469C89.9445 6.24972 93.643 8.30239 97.1492 10.6972C99.2444 12.1298 101.275 13.6907 103.135 15.4226C104.076 16.2993 105.081 17.1118 105.979 18.0312C107.817 19.9556 109.592 21.9441 111.217 24.0823C113.397 26.9047 115.3 29.8982 116.946 33.0414C119.02 36.9757 120.645 41.081 121.821 45.3574C122.462 47.6881 122.954 50.0615 123.339 52.4563C123.595 54.0385 123.809 55.6422 123.852 57.2672C123.852 57.4169 123.83 57.5879 123.83 57.7804C122.932 57.4596 122.035 57.5452 121.158 57.5452C120.452 57.5452 119.768 57.5452 119.063 57.4383C118.87 57.4169 118.828 57.3314 118.763 57.1603C118.571 56.6044 118.614 56.0057 118.55 55.4497C118.357 53.6323 118.037 51.8362 117.673 50.0401C117.224 47.8163 116.604 45.614 115.856 43.4758C114.381 39.2208 112.435 35.201 109.998 31.4163C108.822 29.5775 107.604 27.76 106.15 26.1136C105.188 25.0231 104.397 23.783 103.349 22.7566C100.078 19.5493 96.6575 16.5345 92.7665 14.0755C89.1534 11.7877 85.3693 9.8419 81.3501 8.38792C79.7466 7.81061 78.1004 7.40435 76.5184 6.74151C75.8556 6.46354 75.1074 6.46354 74.4019 6.39939C73.3543 6.31387 72.3495 5.90761 71.3019 5.84346C68.9929 5.73655 66.7268 5.202 64.3964 5.22338C62.6647 5.24477 60.933 5.05233 59.2227 5.15924C57.1917 5.30891 55.1607 5.30891 53.1297 5.69379C51.5476 5.99314 49.9869 6.48492 48.4263 6.74151C46.6732 7.04085 44.9842 7.55402 43.338 8.13134C37.6084 10.0985 32.3492 12.9423 27.5389 16.62C25.572 18.1167 23.6906 19.7204 21.9589 21.4951C20.9114 22.5856 19.6714 23.4836 18.7734 24.7452C17.4693 26.5626 15.9942 28.2518 14.7542 30.112C12.1032 34.1105 9.9225 38.3441 8.29769 42.8771C7.35701 45.5285 6.60874 48.244 6.05288 51.0023C5.75358 52.4562 5.49703 53.9316 5.39013 55.4284C5.36875 55.856 5.30461 56.305 5.28323 56.7327C5.2191 57.3741 5.00531 57.5238 3.95773 57.5452C3.29498 57.5666 2.63223 57.5666 1.96948 57.5452C1.41362 57.5024 0.815004 57.5879 0.19501 57.759Z" fill="#005AC7"/>
<path d="M59.4152 66.3542C60.1207 63.4249 60.8262 60.4742 61.5317 57.5448C61.6172 57.2241 61.66 56.9034 62.1089 56.9247C62.5365 56.9461 62.5579 57.2455 62.622 57.5448C63.2634 60.132 63.8834 62.7406 64.5248 65.3279C64.6317 65.8197 64.7385 66.3114 64.8454 66.9101C66.4703 62.0992 68.0523 57.3951 69.6344 52.7125C69.9337 51.8358 70.1902 50.9592 70.5323 50.1253C70.6606 49.8045 70.5537 49.6335 70.3185 49.4624C69.9337 49.2058 69.5489 48.9706 69.164 48.7141C68.5013 48.265 68.2447 47.4953 68.5227 46.8324C68.8647 46.0199 69.442 45.742 70.3399 45.913C74.1881 46.64 78.0363 47.3884 81.906 48.094C84.6852 48.6071 86.2459 50.168 86.8232 52.9905C87.1652 54.701 87.5714 56.4116 87.9562 58.1221C88.2128 59.234 88.4693 60.3672 88.7259 61.4791C88.7687 61.6929 88.7259 61.8426 88.5121 61.9067C88.0418 62.0778 87.6569 62.3985 87.2507 62.6765C86.759 62.9972 86.6735 62.7406 86.588 62.3344C86.3314 61.1584 86.0749 59.9824 85.8183 58.8064C85.3908 56.9461 84.9204 55.1073 84.557 53.2257C84.279 51.7503 83.4025 50.8736 82.0342 50.4674C81.1577 50.2108 80.2384 50.1039 79.3405 49.9328C77.3522 49.5479 75.3426 49.1631 73.3543 48.7568C72.9909 48.6927 72.9267 48.7354 72.9909 49.1203C73.1405 50.0184 72.6702 50.7881 72.3923 51.6006C71.3447 54.5727 70.3826 57.5876 69.3778 60.5597C67.924 64.8789 66.4916 69.198 64.9951 73.4958C64.4179 75.185 63.8406 76.8742 63.413 78.6061C63.3275 78.9696 63.1565 79.269 62.6434 79.2476C61.3393 79.2048 61.3393 79.2476 60.9117 78.0074C59.971 75.3347 59.0303 72.6833 58.111 70.0105C56.9779 66.6963 55.8448 63.4035 54.7118 60.0893C53.6428 56.9675 52.5525 53.8671 51.4621 50.7453C51.2483 50.1466 50.949 49.5693 51.1628 48.8851C51.2483 48.6285 50.9704 48.6713 50.8421 48.7141C49.367 48.992 47.9132 49.27 46.438 49.5693C45.0698 49.8473 43.7015 50.1466 42.3333 50.3818C41.0291 50.6171 39.8105 51.7289 39.554 53.1829C39.276 54.8293 38.8271 56.433 38.4636 58.0794C38.1429 59.512 37.8223 60.9446 37.523 62.3772C37.4374 62.8048 37.3092 63.0614 36.8174 62.7407C36.3899 62.4841 36.0264 62.1206 35.5561 61.9709C35.3209 61.8854 35.3423 61.7143 35.3637 61.5219C35.9837 58.8277 36.6036 56.155 37.2236 53.4609C37.3733 52.7552 37.5016 52.0496 37.7795 51.3868C38.6347 49.3983 40.2381 48.5002 42.2905 48.1154C45.7325 47.4739 49.1746 46.7469 52.6166 46.1268C53.258 46.0199 53.8993 45.6992 54.6049 45.9344C55.2462 46.1482 55.5883 46.5758 55.6738 47.1745C55.7807 47.816 55.5242 48.3506 54.9897 48.7354C54.6476 48.9706 54.3055 49.2486 53.9421 49.4197C53.5145 49.6121 53.5359 49.8687 53.6642 50.2322C55.0111 54.1237 56.3366 58.0152 57.6834 61.9281C58.1965 63.4249 58.731 64.9216 59.2655 66.4184C59.3296 66.3542 59.3724 66.3542 59.4152 66.3542Z" fill="#005AC7"/>
<path d="M37.8854 28.5724C34.6144 28.5938 33.1606 30.5609 32.6048 33.3406C32.4337 34.2387 32.3482 35.1581 32.3482 36.0989C32.3482 36.4624 32.2413 36.8473 31.9848 37.1038C31.7068 37.3818 31.7496 37.617 31.942 37.8308C33.1606 39.1779 33.5882 40.9954 34.7427 42.3638C35.0634 42.7487 35.3627 43.1549 35.7047 43.5184C36.3889 44.2241 36.7095 45.0579 36.4957 46.0415C36.2606 47.1961 35.4696 47.8162 34.3578 48.0728C31.771 48.6715 29.1841 49.2702 26.5758 49.8475C26.2338 49.933 25.8703 50.04 25.5283 50.0613C24.9724 50.1041 24.8014 50.4676 24.6945 50.9166C24.2455 52.8838 23.7966 54.8295 23.369 56.7967C23.3048 57.0746 23.2407 57.1815 22.9628 57.1174C22.4924 57.0105 22.0435 56.8608 21.5731 56.7967C21.1883 56.7325 21.1456 56.5187 21.2097 56.2407C21.68 54.1025 22.1718 51.9643 22.6849 49.8475C22.9414 48.7784 23.711 48.2011 24.7372 47.9659C27.6876 47.2603 30.6593 46.5975 33.6096 45.9132C34.3151 45.7422 34.4006 45.5925 33.9303 45.0366C33.011 43.9247 32.1344 42.7701 31.493 41.4658C31.1724 40.8029 30.8303 40.1615 30.3386 39.5842C29.6758 38.7503 29.2482 37.7453 29.5475 36.6121C29.5903 36.4624 29.6544 36.2913 29.7613 36.1844C30.1248 35.8851 30.1248 35.5002 30.1248 35.0939C30.2103 33.0199 30.5951 31.01 31.771 29.2566C32.9896 27.4606 34.7213 26.5839 36.8592 26.3701C38.2275 26.2204 39.5316 26.3701 40.8143 26.7977C42.546 27.3964 43.7433 28.5938 44.5129 30.2188C45.2826 31.8439 45.6032 33.5544 45.6032 35.3505C45.6032 35.543 45.5605 35.7782 45.7315 35.9064C46.5439 36.5479 46.3515 37.3604 46.1163 38.1516C45.9239 38.8144 45.6246 39.4345 45.0901 39.9049C44.855 40.0973 44.7267 40.3753 44.5984 40.6533C43.9998 42.0431 43.2302 43.326 42.2253 44.4593C42.0543 44.6303 41.926 44.8441 41.7764 45.0152C41.3488 45.5284 41.3916 45.6994 42.0757 45.8705C42.4178 45.956 42.7812 46.0415 43.1233 46.1057C43.444 46.1484 43.6364 46.2981 43.6577 46.6402C43.7005 47.0465 43.3798 47.0892 43.1233 47.1534C42.6957 47.2603 42.2681 47.3458 41.8405 47.41C38.9757 47.9445 37.2868 49.6551 36.6454 52.4775C36.004 55.2999 35.3413 58.1224 34.7213 60.9448C34.6358 61.3297 34.4861 61.3083 34.2296 61.2228C33.7806 61.0517 33.3316 60.8806 32.8827 60.6882C32.6261 60.5813 32.562 60.4102 32.6261 60.1323C32.8827 59.0204 33.1179 57.8872 33.3744 56.7539C33.802 54.8723 34.2082 52.9907 34.6785 51.1091C35.2558 48.8853 36.624 47.2389 38.6337 46.1271C38.9757 45.9346 39.1895 45.7636 39.1895 45.3145C39.2109 44.6945 39.4247 44.0744 39.895 43.6254C41.0495 42.4707 41.9047 41.1237 42.5674 39.6483C42.7812 39.1779 43.0378 38.7716 43.4012 38.4081C43.9571 37.8522 44.0212 37.4887 43.6577 36.8045C43.444 36.3555 43.4226 35.8851 43.4012 35.3933C43.2943 33.7255 43.1019 32.0791 42.1398 30.6251C41.1991 29.1284 39.6812 28.551 37.8854 28.5724Z" fill="#005AC7"/>
<path d="M85.9035 28.5731C83.2097 28.5303 81.4352 30.3691 80.9007 33.3199C80.7511 34.1751 80.6228 35.0304 80.6442 35.8857C80.6442 36.2492 80.5801 36.5913 80.3663 36.8479C79.8959 37.4038 80.1739 37.917 80.5373 38.2805C81.1145 38.8578 81.4352 39.542 81.7773 40.2476C82.3973 41.5092 83.1669 42.6424 84.1504 43.6474C84.6421 44.1392 84.8345 44.7806 84.8773 45.4435C84.8986 45.7428 84.9628 45.9139 85.2407 46.0635C87.8276 47.3892 89.1745 49.613 89.7303 52.3712C90.1579 54.4453 90.6496 56.498 91.0986 58.5506C91.2055 59.0424 91.3124 59.5128 91.4193 60.0046C91.5048 60.3681 91.3337 60.6033 91.0131 60.7316C90.842 60.7957 90.671 60.8385 90.5 60.9027C89.3241 61.3089 89.3669 61.3089 89.0889 60.0901C88.4903 57.3319 87.9131 54.5736 87.2076 51.8367C86.5662 49.3991 84.8345 48.0093 82.4187 47.4534C81.9056 47.3465 81.3925 47.2823 80.9007 47.154C80.6656 47.0899 80.3663 47.0471 80.3876 46.6836C80.409 46.3415 80.5587 46.1705 80.9007 46.1277C81.307 46.0635 81.7345 45.978 82.1194 45.8711C82.6111 45.7214 82.6752 45.5076 82.3331 45.1014C81.1145 43.6901 80.0242 42.2148 79.3615 40.4615C79.2973 40.3118 79.2118 40.1621 79.0835 40.0766C78.2711 39.371 77.929 38.4515 77.7366 37.4466C77.6511 36.9976 77.6725 36.5272 78.0359 36.2064C78.4208 35.8857 78.4208 35.5008 78.4421 35.0732C78.5277 32.7853 78.998 30.6257 80.4518 28.7655C81.5421 27.3757 83.0173 26.6701 84.7062 26.4135C86.3524 26.1569 87.9772 26.2852 89.5379 26.9694C90.8206 27.5467 91.8255 28.4448 92.531 29.6635C93.5144 31.3527 93.8565 33.213 93.9206 35.1587C93.942 35.565 93.9848 35.8643 94.2841 36.1851C94.5834 36.5272 94.7116 36.9548 94.6048 37.468C94.391 38.4729 94.0489 39.3924 93.2579 40.098C93.1724 40.1835 93.1082 40.2904 93.0655 40.3973C92.3813 42.1292 91.3124 43.6474 90.1151 45.0586C89.7089 45.5504 89.7731 45.7428 90.3931 45.8925C91.8041 46.2132 93.2365 46.5339 94.6689 46.8547C96.2082 47.2182 97.7475 47.5817 99.2868 47.9238C100.57 48.2231 101.275 49.0356 101.553 50.2758C101.981 52.1788 102.365 54.0818 102.814 55.9848C102.943 56.5193 102.729 56.7118 102.323 56.7545C101.788 56.8187 101.168 57.3319 100.783 56.9684C100.463 56.669 100.484 55.9634 100.377 55.4502C100.056 53.9535 99.7143 52.4568 99.3937 50.96C99.2868 50.4682 99.0944 50.1689 98.5385 50.0406C95.6096 49.3991 92.6806 48.7149 89.7731 48.0521C88.6827 47.7955 87.8703 47.2396 87.6138 46.0635C87.3786 45.0586 87.6993 44.2247 88.4048 43.4977C89.4951 42.3431 90.3931 41.0815 90.9489 39.5848C91.1627 38.9647 91.7186 38.6012 92.0393 38.0881C92.2744 37.7032 92.4241 37.4038 92.1034 36.9548C91.5475 36.1851 91.7827 35.2442 91.6758 34.389C91.4834 32.8067 91.1627 31.2886 90.051 30.0698C89.0462 28.9579 87.6779 28.5517 85.9035 28.5731Z" fill="#005AC7"/>
<path d="M62.0433 49.7193C63.0053 50.1041 63.9888 50.318 64.8653 50.8097C65.1646 50.9808 65.1005 51.3657 64.9081 51.665C64.1598 52.7555 63.3902 53.846 62.6419 54.9365C62.2357 55.5138 61.915 55.5138 61.5302 54.9365C60.7819 53.846 60.0123 52.7555 59.264 51.665C59.0716 51.3657 58.9861 50.9594 59.3068 50.8097C60.1833 50.3821 61.124 50.0828 62.0433 49.7193Z" fill="#005AC7"/>
<path fill-rule="evenodd" clip-rule="evenodd" d="M56.9338 124C56.6105 123.8 56.2541 123.799 55.9042 123.799C55.7682 123.798 55.6331 123.798 55.5014 123.786C50.52 123.252 45.6884 122.097 41.0063 120.429C36.5167 118.826 32.2195 116.794 28.1575 114.271C25.7417 112.774 23.4541 111.149 21.2521 109.375C19.1569 107.686 17.19 105.868 15.3942 103.88C13.2349 101.485 11.1825 98.983 9.42942 96.2675C7.01358 92.5471 5.06808 88.5914 3.52879 84.4219C2.50259 81.6422 1.75432 78.7984 1.15571 75.9118C0.792265 74.1585 0.578475 72.3838 0.364684 70.6091C0.114555 68.5922 0.0816217 66.5752 0.0485515 64.5499C0.0363962 63.8055 0.0242225 63.06 0.00123816 62.3129C-0.04152 60.8589 1.02744 59.8112 2.54535 59.7898C3.42981 59.7755 4.32379 59.7803 5.21458 59.7851C5.65878 59.7874 6.1022 59.7898 6.54324 59.7898C7.06198 59.7898 7.58264 59.7841 8.10407 59.7783C9.32332 59.7648 10.5468 59.7513 11.7597 59.8112C13.5342 59.8967 15.3087 60.0464 17.0618 60.2602C19.1783 60.5168 21.2734 60.8161 23.3686 61.2438C26.7251 61.928 29.9961 62.8688 33.1816 64.1517C36.6022 65.5202 39.8305 67.2521 42.8663 69.369C44.3201 70.3953 45.6884 71.5285 47.0353 72.7045C48.2966 73.8378 49.4511 75.0566 50.5842 76.3181C51.76 77.6224 52.829 79.0336 53.8124 80.4876C56.271 84.1012 58.2165 87.9927 59.7131 92.098C60.5896 94.4928 61.3165 96.909 61.8937 99.3893C61.9035 99.4089 61.9178 99.4284 61.9365 99.4541C61.9587 99.4846 61.9872 99.5237 62.022 99.5817C62.1422 99.138 62.2624 98.7019 62.3809 98.2724L62.3818 98.269C62.5369 97.7064 62.6891 97.1546 62.8344 96.6096C63.4972 94.1293 64.3951 91.7345 65.3785 89.3611C66.7682 86.0683 68.4785 82.9251 70.5523 79.9958C71.5998 78.4991 72.7543 77.1092 73.9729 75.7408C76.175 73.2605 78.6336 71.1223 81.3487 69.2407C83.6576 67.6156 86.1162 66.2472 88.6604 65.0925C92.1665 63.5103 95.8223 62.3343 99.5851 61.5004C101.509 61.0727 103.455 60.7306 105.4 60.4527C106.481 60.2958 107.561 60.1958 108.653 60.0947C108.901 60.0717 109.149 60.0487 109.398 60.025C111.686 59.8112 113.973 59.8112 116.261 59.8112C116.851 59.8112 117.445 59.8088 118.038 59.8065C119.228 59.8017 120.422 59.7969 121.606 59.8112C122.76 59.8326 123.551 60.4527 124 61.5004V67.4232C123.893 67.8815 123.895 68.3618 123.897 68.8326V68.8349C123.898 69.022 123.899 69.2082 123.893 69.3903C123.808 71.6354 123.423 73.8378 122.995 76.0401C122.204 80.1241 120.964 84.1012 119.297 87.9286C117.159 92.8464 114.379 97.358 110.959 101.485C109.419 103.324 107.795 105.098 106.042 106.745C102.728 109.845 99.1147 112.539 95.2237 114.87C87.9976 119.168 80.2584 122.033 71.9633 123.444C70.424 123.701 68.9061 123.936 67.3454 123.914C67.2599 123.914 67.1744 123.914 67.1316 123.979C63.712 124 60.3351 124 56.9369 124H56.9338ZM57.7984 114.155L57.7971 114.154C55.9892 112.322 54.1826 110.491 52.3373 108.712C48.4489 104.97 44.6441 101.145 40.8393 97.3193C38.5564 95.024 36.2735 92.7288 33.9726 90.4516C32.2196 88.7269 30.4855 86.9831 28.7515 85.2393C27.8844 84.3673 27.0173 83.4954 26.1479 82.6258C25.1431 81.6208 23.6038 81.5567 22.6203 82.5189C21.6583 83.4597 21.7224 84.9778 22.77 86.0256L48.8311 112.09L55.2021 118.462C55.2641 118.524 55.3372 118.579 55.4106 118.634C55.5143 118.711 55.6187 118.79 55.6938 118.89C50.2635 118.334 46.8428 117.307 43.2725 116.131C40.4505 115.191 37.714 114.057 35.063 112.689C31.3216 110.765 27.7941 108.519 24.5231 105.847C22.7272 104.371 20.9955 102.853 19.4135 101.164C17.5107 99.1541 15.7576 97.0159 14.1756 94.728C12.337 92.0767 10.7549 89.2756 9.42942 86.3463C7.93288 83.0321 6.82117 79.5896 6.0729 76.0401C5.64532 73.9661 5.30326 71.8707 5.08946 69.7325C4.93981 68.1716 4.83291 66.5893 4.7474 65.007C4.72602 64.6222 4.83291 64.4939 5.23912 64.4939C5.88803 64.5014 6.53695 64.493 7.18586 64.4845C8.37555 64.4691 9.56524 64.4536 10.7549 64.5366C12.5935 64.6435 14.4107 64.7504 16.2493 64.9643C18.7935 65.2636 21.2948 65.6485 23.7748 66.2258C27.1954 67.0169 30.5092 68.1074 33.7161 69.6042C37.0512 71.165 40.087 73.1108 42.9091 75.4842C46.5863 78.5632 49.4938 82.2623 51.8455 86.4104C54.5821 91.2214 56.3779 96.3958 57.5751 101.784C58.1096 104.179 58.5372 106.595 58.8579 109.011C59.0118 110.123 59.111 111.235 59.2102 112.347C59.235 112.625 59.2598 112.903 59.2855 113.181C59.313 113.547 59.3051 113.91 59.2972 114.272C59.2868 114.755 59.2763 115.237 59.3496 115.725C58.8318 115.203 58.315 114.679 57.7984 114.155ZM64.7602 113.521C64.712 114.263 64.6627 115.021 64.5234 115.832C64.5681 115.792 64.6059 115.759 64.6376 115.732C64.7421 115.641 64.7799 115.608 64.7799 115.575C66.4688 113.897 68.1631 112.229 69.8574 110.561C71.5517 108.894 73.246 107.226 74.935 105.547C80.7066 99.839 86.4302 94.1067 92.1597 88.3683C94.0705 86.4546 95.982 84.5402 97.8961 82.6258C98.8796 81.6422 100.419 81.6208 101.381 82.5403C102.343 83.4597 102.3 84.9992 101.295 86.0042L96.592 90.7082C90.4071 96.8797 84.2317 103.061 78.0532 109.245C74.9627 112.338 71.8714 115.432 68.7778 118.526C68.7361 118.568 68.6895 118.606 68.643 118.645C68.5224 118.744 68.4024 118.842 68.3716 118.997C69.6971 118.932 71.0012 118.697 72.3053 118.419C75.4053 117.799 78.4411 117.008 81.4128 115.939C85.1542 114.613 88.7459 112.967 92.1665 110.957C96.9768 108.113 101.317 104.713 105.122 100.629C107.303 98.2774 109.248 95.733 111.002 93.0388C112.584 90.6227 113.888 88.0568 115.021 85.4268C116.282 82.4761 117.223 79.4399 117.907 76.2967C118.292 74.5648 118.612 72.8115 118.805 71.0581C118.846 70.6791 118.897 70.3033 118.947 69.9294C119.028 69.333 119.108 68.7416 119.147 68.1502C119.211 67.3276 119.239 66.5171 119.268 65.7005C119.277 65.4346 119.286 65.168 119.297 64.9001C119.297 64.6221 119.19 64.558 118.933 64.558C118.076 64.5842 117.216 64.5783 116.354 64.5723C115.107 64.5637 113.856 64.5551 112.605 64.6435C112.268 64.6657 111.93 64.687 111.592 64.7082C110.298 64.7896 108.997 64.8714 107.709 65.007C106.127 65.1567 104.566 65.3705 103.027 65.6699C99.7775 66.2686 96.592 67.1025 93.492 68.2785C90.7983 69.3262 88.1686 70.545 85.7314 72.1059C82.7811 73.9875 80.0659 76.147 77.7142 78.777C76.5384 80.1027 75.4053 81.4926 74.3791 82.9465C71.7922 86.6456 69.8681 90.6654 68.393 94.9205C67.5592 97.3152 66.9178 99.7528 66.3833 102.212C65.913 104.329 65.5282 106.467 65.2716 108.626C65.2259 109.023 65.1829 109.422 65.1397 109.823C65.0617 110.546 64.9831 111.275 64.8868 112.005C64.8258 112.51 64.7933 113.011 64.7602 113.521Z" fill="#005AC7"/>
<path fill-rule="evenodd" clip-rule="evenodd" d="M68.9501 17.8814C66.8978 16.4488 64.5888 15.8929 62.1088 15.9998C61.1254 15.9998 60.1633 16.0212 59.1799 16.2136C55.9089 16.8551 53.5358 18.6725 52.0179 21.6019C50.671 24.1891 50.1793 26.9901 50.1365 29.8981C50.1335 29.9462 50.1318 29.9939 50.1301 30.041C50.1196 30.3291 50.1098 30.597 49.8159 30.8175C49.2172 31.2665 49.0034 31.9508 49.0676 32.635C49.1959 34.0462 49.6234 35.3719 50.5641 36.5051C50.6665 36.6256 50.7791 36.741 50.8928 36.8575C51.1826 37.1546 51.4795 37.4589 51.6331 37.8736C51.9965 38.8144 52.4669 39.7338 53.0013 40.6105C54.5193 43.1122 56.2723 45.3787 58.7951 46.9823C60.6123 48.1369 62.4937 48.5004 64.4819 47.4741C66.0212 46.6616 67.3253 45.5711 68.5012 44.2454C70.0619 42.4707 71.3018 40.5036 72.3067 38.3654C72.3608 38.2571 72.4094 38.1489 72.4574 38.0421C72.599 37.7268 72.7353 37.4235 72.9908 37.168C74.017 36.1844 74.6584 34.9656 74.9577 33.5758C75.1928 32.5067 75.2142 31.5017 74.2094 30.7534C74.0597 30.6251 74.017 30.4113 74.017 30.1974C73.9956 29.5132 73.9742 28.829 73.9101 28.1448C73.7604 26.3701 73.4184 24.6595 72.777 23.0131C71.9646 20.9604 70.8101 19.1643 68.9501 17.8814ZM67.7743 19.8699C66.0854 18.587 64.1399 18.2449 62.1088 18.1594C61.5744 18.1807 61.0399 18.2021 60.5054 18.309C57.5979 18.6512 55.4386 20.1051 54.0489 22.671C52.7234 25.1085 52.4455 27.8027 52.36 30.5182C52.36 31.181 52.1676 31.7797 51.6758 32.2501C51.3765 32.5067 51.3338 32.806 51.4407 33.1695C51.7186 34.089 52.1034 34.9442 52.8517 35.5857C53.2151 35.8851 53.4289 36.2913 53.6213 36.719C54.9896 39.9049 56.8282 42.7273 59.6716 44.8014C61.3606 46.0201 62.4295 46.2339 64.2467 44.9938C65.3585 44.2454 66.3205 43.326 67.1971 42.2997C68.6081 40.6105 69.6984 38.7716 70.5536 36.7617C70.746 36.3127 70.9598 35.8851 71.3446 35.5643C72.0929 34.9229 72.4777 34.0676 72.7556 33.1482C72.8625 32.806 72.8198 32.5067 72.5205 32.2287C72.0715 31.8225 71.8577 31.2665 71.8363 30.6678C71.7936 28.7648 71.6225 26.8832 71.0881 25.0444C70.4894 22.9917 69.506 21.1956 67.7743 19.8699Z" fill="#005AC7"/>
</svg>
