<svg width="124" height="124" viewBox="0 0 124 124" fill="none" xmlns="http://www.w3.org/2000/svg">
<path d="M0.228146 61.4418C0.522666 60.6233 1.15069 60.1856 1.9433 59.9712C2.27247 59.8792 2.61462 59.8355 2.96545 59.8311C5.97128 59.7917 8.97278 59.8092 11.9743 59.8311C12.7582 59.8355 13.5378 59.923 14.3174 60.0149C14.7549 60.0674 15.1923 60.1156 15.6298 60.1462C17.1933 60.2644 18.7439 60.492 20.2945 60.724C22.5857 61.0654 24.8422 61.5599 27.0814 62.1508C30.7369 63.1181 34.2582 64.4487 37.6278 66.1863C40.1572 67.4949 42.5523 69.005 44.7916 70.7688C46.3161 71.9725 47.7757 73.2505 49.1271 74.6511C50.1579 75.7147 51.1194 76.8395 52.0506 77.9994C52.9905 79.1724 53.8437 80.4066 54.6753 81.6628C55.5502 82.9846 56.2995 84.3721 57.0444 85.7683C58.0276 87.6109 58.8159 89.5367 59.5868 91.4713C60.5527 93.8961 61.276 96.3952 61.8824 98.9338C61.9127 99.0651 61.9517 99.1964 61.995 99.3233C62.0036 99.3496 62.047 99.3802 62.0729 99.3802C62.1033 99.3759 62.1509 99.3496 62.1639 99.319C62.2245 99.157 62.2895 98.9951 62.3328 98.8288C62.5277 98.1197 62.7183 97.4107 62.9045 96.7016C63.3376 95.0559 63.8487 93.4365 64.4681 91.8565C65.1221 90.1845 65.7804 88.5126 66.5817 86.9106C67.4003 85.2737 68.2405 83.6411 69.2367 82.1049C70.0206 80.8925 70.8306 79.6888 71.7098 78.5465C73.1001 76.7432 74.5857 75.0275 76.2402 73.4693C78.1199 71.7011 80.1252 70.0948 82.2865 68.6811C85.2057 66.7728 88.2939 65.2146 91.5379 63.9628C94.5827 62.7855 97.7141 61.9232 100.902 61.2623C102.175 60.9997 103.462 60.794 104.748 60.6277C105.831 60.492 106.909 60.3476 107.992 60.2119C108.468 60.155 108.945 60.1112 109.421 60.0762C111.578 59.9186 113.735 59.8267 115.896 59.8355C117.352 59.8442 118.803 59.8486 120.258 59.853C120.583 59.853 120.908 59.8398 121.232 59.8398C121.713 59.8355 122.185 59.9143 122.636 60.0937C123.168 60.3082 123.593 60.6583 123.861 61.1748C123.896 61.2404 123.905 61.3236 124 61.3324C124 63.3807 124 65.4335 124 67.4818C123.87 67.5475 123.887 67.67 123.892 67.7838C123.922 68.9087 123.822 70.0204 123.671 71.1321C123.472 72.6246 123.268 74.1171 122.948 75.5877C122.735 76.5506 122.549 77.5179 122.324 78.4721C121.761 80.8618 121.042 83.1991 120.141 85.4838C119.483 87.1513 118.803 88.8102 117.988 90.4121C117.217 91.9221 116.416 93.4146 115.524 94.859C114.051 97.24 112.444 99.5159 110.634 101.647C109.127 103.424 107.533 105.114 105.822 106.694C104.198 108.195 102.5 109.605 100.733 110.931C99.2127 112.073 97.6449 113.141 96.0293 114.143C92.8806 116.1 89.5845 117.767 86.1542 119.159C83.8111 120.109 81.4289 120.936 78.9948 121.619C74.6896 122.827 70.3195 123.628 65.8584 123.895C65.7761 123.899 65.7111 123.921 65.6765 124C63.303 124 60.9295 124 58.556 124C58.5041 123.899 58.4044 123.895 58.3091 123.895C57.313 123.895 56.3255 123.777 55.338 123.645C54.1642 123.488 52.9861 123.348 51.8167 123.151C48.6117 122.599 45.4672 121.785 42.3748 120.761C40.0663 119.995 37.8097 119.102 35.5922 118.096C32.8852 116.866 30.2648 115.47 27.7397 113.903C26.1112 112.892 24.5303 111.797 23.0058 110.633C20.3767 108.624 17.908 106.431 15.6385 104.015C13.8973 102.164 12.3121 100.177 10.8222 98.1153C9.97762 96.9423 9.21099 95.7168 8.44438 94.4913C7.51318 93.0032 6.71625 91.4407 5.93664 89.8694C4.99244 87.9698 4.21282 85.9915 3.48952 84C2.51067 81.3126 1.82635 78.5377 1.25897 75.7365C1.09871 74.9443 0.973108 74.139 0.851836 73.338C0.695913 72.2876 0.531328 71.2372 0.444704 70.178C0.371074 69.272 0.301776 68.3703 0.228146 67.4643C0.232477 65.4553 0.232477 63.4464 0.228146 61.4418ZM68.4224 118.853C68.9118 118.862 69.267 118.888 69.6222 118.809C69.9037 118.748 70.1852 118.708 70.4711 118.66C71.9394 118.402 73.4119 118.166 74.8672 117.82C78.9948 116.844 82.9925 115.487 86.8472 113.71C90.2689 112.134 93.5172 110.252 96.5967 108.073C98.2729 106.887 99.8927 105.613 101.435 104.252C103.496 102.431 105.441 100.488 107.195 98.3561C108.594 96.6622 109.889 94.8896 111.089 93.047C111.955 91.7208 112.726 90.3421 113.445 88.9327C114.623 86.6305 115.65 84.2539 116.459 81.7941C117.369 79.0411 118.058 76.2311 118.525 73.3643C118.768 71.8762 118.976 70.3837 119.093 68.8824C119.149 68.1909 119.214 67.4949 119.266 66.8034C119.309 66.2257 119.34 65.6479 119.361 65.0658C119.379 64.6806 119.253 64.5581 118.85 64.5493C118.794 64.5493 118.733 64.5493 118.677 64.5537C117.988 64.5581 117.3 64.5756 116.611 64.5712C114.623 64.5581 112.635 64.6019 110.651 64.7769C109.07 64.917 107.49 65.0483 105.913 65.2453C104.185 65.4597 102.474 65.7748 100.776 66.1469C99.2647 66.4795 97.7661 66.8822 96.2848 67.3418C93.5909 68.1777 90.9878 69.2369 88.4887 70.55C87.0118 71.3247 85.5912 72.2001 84.2139 73.1498C82.2649 74.4979 80.4414 75.9948 78.7609 77.6624C76.9808 79.4306 75.4519 81.4133 74.0356 83.4836C73.1651 84.7572 72.3984 86.0965 71.6621 87.4534C70.6876 89.2522 69.8907 91.1387 69.1284 93.0382C68.2318 95.2616 67.5562 97.5595 66.9585 99.8748C66.4431 101.875 66.023 103.897 65.6981 105.941C65.3906 107.889 65.2347 109.854 64.9792 111.81C64.8752 112.598 64.8795 113.391 64.7842 114.178C64.728 114.655 64.6933 115.137 64.6457 115.64C64.8752 115.614 64.9878 115.448 65.1178 115.316C66.651 113.806 68.1886 112.296 69.7175 110.782C71.359 109.158 73.0005 107.534 74.6377 105.91C77.0675 103.499 79.5016 101.092 81.9227 98.6756C84.006 96.5966 86.072 94.5001 88.1509 92.4211C89.3333 91.235 90.5287 90.0663 91.7111 88.8846C93.0711 87.5234 94.4224 86.1534 95.7781 84.7922C96.5101 84.0569 97.2507 83.326 97.9827 82.5907C98.563 82.0042 99.2647 81.7678 100.075 81.8685C101.764 82.083 102.353 83.6149 102.076 84.7003C101.95 85.2037 101.69 85.6195 101.326 85.9784C100.369 86.9238 99.412 87.8735 98.4591 88.8233C96.7959 90.4778 95.1371 92.1366 93.4783 93.7954C91.8844 95.3842 90.2948 96.9774 88.7053 98.5705C87.0595 100.216 85.4093 101.858 83.7634 103.503C82.1436 105.123 80.5281 106.742 78.9082 108.357C77.2883 109.977 75.6642 111.587 74.0486 113.207C72.7449 114.511 71.4413 115.824 70.1376 117.133C69.8777 117.391 69.6135 117.64 69.358 117.903C69.0808 118.174 68.7992 118.463 68.4224 118.853ZM8.8645 64.5493C7.73407 64.5493 6.60796 64.5493 5.47752 64.5493C5.34326 64.5493 5.209 64.5537 5.07906 64.5712C4.94913 64.5887 4.8755 64.6806 4.8625 64.8076C4.84951 64.9608 4.85384 65.1183 4.85817 65.2715C4.87116 65.6392 4.90148 66.0024 4.91014 66.3701C4.94912 67.8407 5.05308 69.3026 5.26963 70.7601C5.56415 72.7078 5.863 74.6555 6.30911 76.5769C6.95446 79.3693 7.77305 82.0961 8.86018 84.7485C10.2072 88.0267 11.8097 91.1605 13.8237 94.0755C14.5687 95.1522 15.3179 96.2245 16.1322 97.2531C17.6828 99.2227 19.3719 101.065 21.191 102.785C22.8152 104.317 24.4827 105.792 26.2845 107.114C27.7571 108.195 29.2557 109.228 30.8062 110.187C33.1927 111.666 35.6744 112.944 38.2385 114.069C41.3829 115.448 44.6096 116.59 47.9317 117.452C50.1579 118.026 52.4101 118.455 54.6883 118.752C54.9915 118.792 55.2947 118.809 55.6022 118.84C55.6498 118.844 55.6758 118.818 55.6715 118.765C55.6715 118.748 55.6758 118.726 55.6628 118.713C55.6022 118.638 55.5372 118.568 55.4722 118.503C54.3764 117.422 53.2763 116.345 52.1892 115.259C50.552 113.631 48.9235 111.994 47.2906 110.362C45.6708 108.742 44.0466 107.132 42.4311 105.512C41.1534 104.234 39.88 102.947 38.6023 101.669C37.4719 100.54 36.3415 99.4153 35.211 98.2904C33.4699 96.5528 31.7244 94.8152 29.9833 93.0732C28.6363 91.7252 27.298 90.3727 25.951 89.0247C24.9851 88.0617 24.0106 87.1032 23.0404 86.1447C22.8888 85.9959 22.7372 85.8471 22.603 85.6851C21.7974 84.696 21.9143 83.2384 22.8628 82.3893C22.9755 82.2887 23.1054 82.1968 23.2397 82.1311C23.9673 81.7897 24.7079 81.7459 25.4615 82.0698C25.8037 82.2187 26.0809 82.4463 26.3408 82.7045C27.822 84.1882 29.3033 85.672 30.7889 87.1514C32.4477 88.8102 34.1066 90.469 35.7654 92.1278C37.3549 93.721 38.9445 95.3142 40.5384 96.903C42.1582 98.518 43.7824 100.133 45.4066 101.748C47.8364 104.16 50.2705 106.567 52.7003 108.979C54.8182 111.08 56.9318 113.18 59.0498 115.277C59.1451 115.373 59.2447 115.465 59.3486 115.548C59.3876 115.583 59.4569 115.61 59.5002 115.548C59.5305 115.505 59.5739 115.439 59.5609 115.4C59.4223 114.988 59.4612 114.559 59.4266 114.139C59.3876 113.675 59.3703 113.211 59.327 112.752C59.236 111.828 59.1191 110.909 59.0368 109.985C58.9155 108.655 58.7379 107.333 58.517 106.02C58.1532 103.867 57.7374 101.726 57.1614 99.621C56.4771 97.1043 55.7408 94.6051 54.7359 92.1979C53.887 90.167 52.9688 88.1712 51.873 86.2585C51.2234 85.1205 50.5434 84 49.7897 82.9233C48.616 81.2426 47.3036 79.6845 45.9133 78.192C45.6491 77.9118 45.3763 77.6405 45.1034 77.3691C44.2675 76.5419 43.3666 75.7978 42.4657 75.045C41.1491 73.9464 39.7631 72.9485 38.3165 72.0425C35.2933 70.1517 32.0666 68.703 28.6883 67.5912C26.4837 66.8647 24.2402 66.3045 21.9663 65.8668C20.7103 65.626 19.4499 65.3809 18.1765 65.2321C17.4532 65.149 16.7342 65.0395 16.0153 64.952C15.292 64.8645 14.573 64.7638 13.8497 64.7113C12.1952 64.5975 10.532 64.5362 8.8645 64.5493Z" fill="#00A9BF"/>
<path d="M0.233871 67.4615C0.155915 67.4396 0.0736248 67.4046 0 67.479C0 65.4656 0 63.4567 0 61.4433C0.0779556 61.5134 0.15158 61.4696 0.229536 61.439C0.229536 63.4436 0.22954 65.4525 0.233871 67.4615Z" fill="#00A9BF"/>
<path d="M62.1162 0.0015147C63.225 0.0015147 64.3338 0.0015147 65.4469 0.0015147C65.6548 0.0015147 65.867 -0.0203647 66.0576 0.102187C66.1789 0.18097 66.3175 0.150326 66.4517 0.150326C67.907 0.167833 69.3493 0.369173 70.7872 0.579261C71.9783 0.754335 73.1694 0.942528 74.3518 1.17012C76.591 1.59905 78.7869 2.17681 80.9612 2.86397C83.9063 3.79186 86.7606 4.95173 89.5325 6.30855C91.6851 7.36337 93.7641 8.55386 95.7781 9.85816C98.4071 11.5651 100.885 13.4691 103.254 15.5306C104.908 16.9749 106.459 18.5199 107.931 20.1481C109.794 22.2052 111.526 24.363 113.111 26.6477C113.804 27.6457 114.454 28.6698 115.095 29.6984C116.165 31.4185 117.1 33.213 118.001 35.0294C118.928 36.8983 119.69 38.8372 120.422 40.7893C121.492 43.6518 122.25 46.6018 122.878 49.5955C123.16 50.9392 123.402 52.2873 123.615 53.6397C123.662 53.9461 123.701 54.2525 123.727 54.5589C123.805 55.4824 123.909 56.4059 123.896 57.3338C123.896 57.3907 123.896 57.4519 123.892 57.5088C123.879 57.697 123.822 57.7496 123.64 57.7102C122.909 57.5482 122.164 57.5263 121.414 57.522C120.938 57.5176 120.457 57.5088 119.981 57.5001C119.807 57.4957 119.634 57.4957 119.465 57.4738C118.967 57.4126 118.798 57.2419 118.751 56.7341C118.703 56.2746 118.668 55.8106 118.634 55.3467C118.56 54.3619 118.43 53.3859 118.24 52.4186C117.928 50.8079 117.599 49.1972 117.183 47.6084C116.836 46.2822 116.472 44.9604 116.013 43.6693C115.26 41.5596 114.463 39.4675 113.462 37.4629C112.73 35.9967 112.016 34.5173 111.167 33.1167C110.361 31.7818 109.551 30.4425 108.629 29.1863C107.303 27.3874 105.952 25.606 104.484 23.9253C103.392 22.6779 102.219 21.5181 100.988 20.4064C100.534 19.9949 100.083 19.5704 99.6242 19.1633C97.8787 17.6227 96.0509 16.1871 94.1192 14.8959C90.2775 12.3267 86.2105 10.1908 81.8837 8.5845C80.9871 8.25186 80.0646 7.98925 79.1594 7.68287C78.5054 7.46403 77.8514 7.25394 77.2104 7.00008C76.5477 6.74185 75.8763 6.53614 75.1574 6.49675C74.3171 6.45298 73.4855 6.30417 72.6713 6.0897C72.1862 5.96278 71.6925 5.91462 71.1987 5.87523C69.921 5.78332 68.652 5.6345 67.3873 5.41129C66.7246 5.29749 66.0489 5.34126 65.3819 5.35002C64.9228 5.35877 64.468 5.34127 64.0089 5.2975C63.4935 5.24935 62.9781 5.22747 62.4627 5.22747C61.0681 5.23184 59.6691 5.23184 58.2745 5.28437C55.0911 5.40254 51.9596 5.87962 48.8758 6.69371C47.897 6.95194 46.8965 7.14014 45.922 7.40712C44.1852 7.8842 42.5004 8.51447 40.8242 9.17537C38.2168 10.2039 35.7221 11.4645 33.3009 12.8782C31.6421 13.8455 30.0612 14.9309 28.5063 16.0602C26.7479 17.3382 25.0977 18.7432 23.5038 20.2269C22.8282 20.8572 22.1742 21.5049 21.5418 22.179C21.3989 22.3322 21.2516 22.4941 21.0871 22.621C20.2685 23.2382 19.6058 24.0085 18.9648 24.8095C17.7824 26.2845 16.6346 27.7813 15.5345 29.3132C13.9666 31.4885 12.598 33.7907 11.3852 36.1892C10.4454 38.0494 9.62244 39.9621 8.86015 41.901C7.73405 44.7679 6.94578 47.7266 6.31776 50.7379C6.14018 51.587 5.9756 52.4405 5.83701 53.2983C5.68541 54.2525 5.59879 55.2154 5.52516 56.1783C5.50784 56.4103 5.47318 56.6379 5.45153 56.8698C5.42121 57.2287 5.183 57.452 4.80618 57.4913C4.40772 57.5307 4.00491 57.5658 3.60644 57.5745C3.18632 57.5833 2.76619 57.592 2.34607 57.5439C1.84799 57.487 1.35424 57.5876 0.864817 57.6577C0.791187 57.6664 0.717562 57.6971 0.639601 57.7102C0.371068 57.7583 0.293096 57.7058 0.275771 57.4169C0.258446 57.1499 0.254119 56.8742 0.280106 56.6072C0.505327 54.34 0.817179 52.0816 1.27628 49.845C1.87832 46.9125 2.60162 44.0063 3.62811 41.192C4.35574 39.1961 5.12235 37.2178 6.05789 35.3095C6.78985 33.8214 7.53048 32.3332 8.38372 30.9108C9.17633 29.589 9.96893 28.2628 10.8482 26.9979C12.3121 24.8926 13.854 22.8486 15.5778 20.9491C16.2881 20.1656 16.9724 19.3515 17.7174 18.6031C18.7612 17.557 19.8397 16.5416 20.9658 15.5787C21.4899 15.1279 22.0009 14.6596 22.5337 14.2175C25.2233 11.9984 28.0689 10.0201 31.0791 8.27374C35.6138 5.64326 40.4084 3.64305 45.4499 2.24246C47.9403 1.55091 50.4654 1.01694 53.0164 0.618651C54.2811 0.421693 55.5502 0.237857 56.8322 0.172205C57.1007 0.159074 57.3693 0.163451 57.6335 0.159075C57.863 0.154698 58.0839 0.16346 58.3048 0.0584158C58.4477 -0.0116137 58.6426 0.0102636 58.8115 0.0102636C59.8943 -0.00286695 61.0074 0.0015147 62.1162 0.0015147Z" fill="#00A9BF"/>
<path d="M66.7302 64.7932C66.6176 64.8413 66.5136 64.8807 66.414 64.9333C63.7763 66.2551 60.1728 66.1632 57.5784 64.6575C55.0144 63.1694 53.4638 60.9635 52.9744 58.0135C52.9181 57.6765 52.7882 57.4532 52.5413 57.2431C51.9652 56.7661 51.4022 56.2715 50.8348 55.7813C50.7178 55.6806 50.6052 55.5712 50.5143 55.453C50.3454 55.2298 50.3584 54.9716 50.523 54.7571C50.7179 54.5076 50.969 54.4332 51.2289 54.5645C51.3632 54.6346 51.4845 54.7308 51.6058 54.8228C51.9522 55.0985 52.2901 55.383 52.6365 55.6544C52.8315 55.8075 52.9008 55.7813 52.9311 55.5537C53.0091 54.9584 53.1303 54.3719 53.3209 53.8029C54.2867 50.9405 56.2141 49.0059 59.0077 48.0036C61.6974 47.0407 64.3307 47.299 66.7995 48.7608C69.3722 50.284 70.8968 52.5687 71.2563 55.5624C71.5378 57.9216 71.0007 60.1319 69.6797 62.1277C69.5541 62.3159 69.2856 62.4428 69.3202 62.6879C69.3505 62.898 69.6104 62.9768 69.7577 63.1256C71.083 64.4649 72.417 65.7999 73.7424 67.1348C73.8636 67.2574 73.9849 67.3887 74.0758 67.5331C74.5176 68.2334 74.4916 68.798 74.0239 69.4677C73.5994 70.0848 72.7505 70.2774 72.1831 70.0585C71.9103 69.9535 71.659 69.8309 71.4512 69.6209C70.0132 68.1765 68.5753 66.7321 67.1417 65.2834C66.9987 65.1433 66.8774 64.9683 66.7302 64.7932ZM54.1828 56.5122C54.1958 57.9697 54.499 59.204 55.1356 60.3682C56.0235 61.9876 57.2969 63.165 58.9731 63.8828C60.3374 64.4693 61.7667 64.6531 63.2436 64.4781C65.9852 64.1586 68.0166 62.7974 69.199 60.2544C70.3337 57.8121 70.351 55.3655 69.0733 52.9539C68.415 51.7152 67.4925 50.7348 66.3144 49.9907C65.2229 49.2992 64.0275 48.9096 62.7499 48.809C60.6579 48.647 58.7565 49.2117 57.128 50.5466C55.218 52.1091 54.2261 54.1531 54.1828 56.5122Z" fill="#00A9BF"/>
<path d="M29.0886 44.3773C29.2229 44.456 29.3528 44.3729 29.4827 44.3773C29.8942 44.386 30.1583 44.7975 30.0111 45.1957C29.9245 45.4321 29.7469 45.5721 29.526 45.6641C29.0453 45.861 28.6079 46.1411 28.1488 46.3775C27.5078 46.7057 26.9535 47.1391 26.5074 47.708C26.2562 48.0276 25.9574 48.2989 25.6369 48.544C24.8703 49.1349 24.1124 49.1524 23.3026 48.6141C23.0254 48.4302 22.8002 48.1982 22.601 47.9356C22.1202 47.3097 21.6568 46.6707 21.1674 46.0536C20.128 44.7362 19.1969 43.3443 18.3091 41.9262C17.6335 40.8495 17.0228 39.7334 16.5897 38.5254C16.2129 37.4794 16.018 36.3983 16.1047 35.2822C16.2043 34.0523 16.5854 32.9056 17.2004 31.8376C18.4607 29.6536 20.3576 28.3668 22.7569 27.789C24.4286 27.3864 26.0743 27.5571 27.6464 28.2136C30.5481 29.426 32.2501 31.6188 32.7352 34.7701C32.9258 36.0087 32.7352 37.1992 32.3324 38.3591C31.8863 39.6415 31.2627 40.8364 30.5351 41.9744C30.089 42.6747 29.6386 43.3662 29.1925 44.0665C29.1406 44.154 29.067 44.2503 29.0886 44.3773ZM31.4663 35.8599C31.4229 34.4812 31.1068 33.1901 30.3012 32.0433C29.3355 30.669 28.0752 29.7192 26.4684 29.2509C25.5763 28.9883 24.6668 28.9401 23.7443 29.0496C22.3368 29.2115 21.0895 29.7586 20.0111 30.6777C19.2099 31.3605 18.6252 32.2228 18.1532 33.1594C17.8197 33.8203 17.6291 34.5294 17.5685 35.2691C17.4689 36.5165 17.7157 37.7026 18.2614 38.8099C18.7292 39.7597 19.2316 40.6963 19.7946 41.5936C20.6824 43.0204 21.6958 44.351 22.7006 45.6903C23.1163 46.2462 23.5451 46.7889 23.9868 47.3229C24.316 47.7256 24.6538 47.7168 25.0003 47.3316C25.0392 47.2879 25.0696 47.2397 25.1085 47.1959C25.4767 46.7276 25.8578 46.2681 26.2129 45.7866C26.9621 44.7843 27.7114 43.782 28.4303 42.7578C29.2965 41.5279 30.0111 40.2018 30.6997 38.8668C31.1891 37.9258 31.5009 36.9366 31.4663 35.8599Z" fill="#00A9BF"/>
<path d="M93.5776 36.7103C94.1406 36.7804 94.6733 36.9117 95.2276 36.9598C95.2319 36.7453 95.0977 36.6491 95.0154 36.5265C94.4611 35.7168 93.8937 34.9114 93.3523 34.093C92.9712 33.5152 92.6464 32.8981 92.3303 32.281C91.0093 29.6899 92.209 26.7486 94.3095 25.5187C95.7257 24.6871 97.2198 24.5296 98.7876 24.9498C99.2337 25.0679 99.6538 25.2693 100.026 25.545C101.248 26.4466 102.079 27.6065 102.348 29.1384C102.503 30.0225 102.361 30.8716 102.057 31.6988C101.832 32.316 101.529 32.8981 101.191 33.4627C100.533 34.5526 99.827 35.6117 99.0561 36.6184C98.7529 37.0167 98.4411 37.4106 98.1293 37.8002C98.047 37.9052 97.9517 38.0015 97.8564 38.0978C97.4234 38.518 96.9036 38.6843 96.3276 38.518C95.5178 38.2772 94.6949 38.1065 93.8634 37.9927C93.2701 37.9096 92.9799 37.4194 93.4043 36.8635C93.426 36.8329 93.4433 36.8022 93.4693 36.7585C93.3437 36.5922 93.1271 36.6097 92.9626 36.5265C92.0834 36.0976 91.1999 35.6862 90.3164 35.266C90.2298 35.2266 90.1432 35.1828 90.0652 35.1303C89.7188 34.8939 89.6841 34.4212 89.9959 34.1367C90.1865 33.9617 90.403 33.9398 90.6326 34.0492C90.9964 34.2199 91.3645 34.3862 91.7239 34.5569C92.261 34.8152 92.7937 35.0778 93.3264 35.336C93.413 35.3798 93.4996 35.4148 93.5819 35.4629C93.976 35.6949 94.0496 36.0626 93.7768 36.4302C93.7421 36.474 93.6902 36.509 93.6555 36.5528C93.6295 36.5965 93.6079 36.6491 93.5776 36.7103ZM97.2285 25.6544C96.7824 25.6719 96.4619 25.6851 96.1414 25.7638C95.2622 25.9871 94.539 26.4641 93.911 27.1163C92.8413 28.2324 92.3216 30.2895 93.2008 31.9002C93.4606 32.3729 93.7205 32.8456 94.002 33.3051C94.7945 34.6051 95.6521 35.8612 96.6481 37.0167C96.7218 37.1043 96.7954 37.1962 96.8777 37.2749C96.9903 37.38 97.1289 37.3887 97.2371 37.2881C97.3497 37.183 97.4537 37.0736 97.5533 36.951C97.9041 36.5177 98.2506 36.0801 98.597 35.6424C99.6191 34.3512 100.468 32.955 101.139 31.4537C101.538 30.5609 101.577 29.6155 101.248 28.6832C101.139 28.3768 100.983 28.0836 100.814 27.8035C99.9613 26.416 98.7313 25.6851 97.2285 25.6544Z" fill="#00A9BF"/>
<path d="M66.6405 17.1542C66.6578 17.7976 66.5062 18.4585 66.2204 19.0756C65.7483 20.1129 65.1896 21.1021 64.5097 22.0169C64.2109 22.4195 63.9207 22.8266 63.6348 23.2336C63.5526 23.3518 63.6002 23.4612 63.7431 23.4787C64.2195 23.5444 64.6743 23.6844 65.1333 23.8201C65.2243 23.8464 65.3196 23.8726 65.4018 23.912C65.6617 24.0433 65.7656 24.2622 65.7093 24.5292C65.6444 24.8443 65.4711 25.015 65.168 25.0325C65.038 25.0412 64.8995 25.0237 64.7695 24.9931C64.5443 24.9406 64.3235 24.8793 64.1069 24.8093C63.6868 24.6736 63.2624 24.5992 62.812 24.6386C62.1623 24.6999 61.6123 24.4591 61.1662 23.9821C61.0883 23.8989 61.0017 23.8201 60.9367 23.7238C60.1182 22.5858 59.2174 21.5004 58.5461 20.2617C58.2776 19.7715 58.0264 19.2726 57.8315 18.7474C57.433 17.6838 57.4764 16.6333 57.9051 15.5873C58.3209 14.585 58.9922 13.8234 59.9363 13.3113C60.4127 13.0531 60.941 12.9349 61.4737 12.8911C62.223 12.8299 62.9636 12.9174 63.6911 13.1012C64.3191 13.2588 64.8475 13.5958 65.2936 14.0685C65.7483 14.5456 66.1034 15.0927 66.3633 15.7011C66.5625 16.1475 66.6448 16.6202 66.6405 17.1542ZM65.809 17.1498C65.796 16.8784 65.7916 16.6114 65.718 16.3488C65.3542 15.027 64.462 14.2173 63.2321 13.7534C62.8033 13.5914 62.3442 13.4908 61.8808 13.552C60.2048 13.7709 59.0745 14.69 58.5071 16.2963C58.2819 16.9353 58.2776 17.5831 58.5114 18.2265C58.6024 18.4804 58.702 18.7298 58.8189 18.9749C59.1567 19.6927 59.5465 20.3755 60.0229 21.0102C60.5426 21.7017 61.0537 22.402 61.5604 23.1023C61.7942 23.4262 62.0541 23.4568 62.3659 23.3562C62.5348 23.2993 62.6344 23.1461 62.734 23.006C63.3273 22.1744 63.938 21.3603 64.4967 20.5068C64.8908 19.9072 65.22 19.2813 65.4885 18.6204C65.6834 18.1477 65.8263 17.6663 65.809 17.1498Z" fill="#00A9BF"/>
<path d="M48.3057 54.3421C47.9246 54.3596 47.6518 54.2677 47.4006 54.1232C46.5864 53.6546 45.7722 53.1904 44.9623 52.7175C44.7977 52.6212 44.6332 52.5161 44.4902 52.3935C44.3257 52.249 44.3213 52.0519 44.4383 51.868C44.6505 51.5483 44.971 51.4301 45.3348 51.5527C45.4604 51.5965 45.5816 51.6534 45.6985 51.7191C46.582 52.2183 47.4612 52.7219 48.3447 53.2298C48.4616 53.2955 48.5786 53.37 48.6782 53.4532C48.9857 53.7159 48.9207 54.1232 48.5526 54.2852C48.4486 54.3334 48.3317 54.3377 48.3057 54.3421Z" fill="#00A9BF"/>
<path d="M38.8128 48.693C38.9384 48.7368 39.0856 48.7718 39.2199 48.8375C40.2116 49.3232 41.2034 49.8178 42.1909 50.3123C42.2601 50.3473 42.3251 50.3867 42.3814 50.4348C42.598 50.6099 42.6759 50.8243 42.598 51.0388C42.5113 51.2882 42.2298 51.4676 41.9613 51.4283C41.8314 51.4108 41.6971 51.3714 41.5802 51.3145C40.5494 50.8156 39.523 50.3123 38.5009 49.8003C38.2368 49.669 38.1761 49.4983 38.2281 49.1744C38.2628 48.9425 38.3883 48.7893 38.6136 48.7237C38.6742 48.7105 38.7305 48.7062 38.8128 48.693Z" fill="#00A9BF"/>
<path d="M72.3483 27.4428C72.1101 27.4472 71.8849 27.4034 71.6726 27.3115C70.9191 26.9833 70.1352 26.7295 69.36 26.4538C69.217 26.4013 69.0741 26.3444 68.9399 26.27C68.6757 26.1212 68.5847 25.9111 68.654 25.6442C68.7363 25.3334 68.9789 25.1277 69.2733 25.1496C69.4033 25.1584 69.5375 25.1934 69.6631 25.2415C70.577 25.5785 71.4907 25.9199 72.4046 26.2656C72.5128 26.305 72.6211 26.3488 72.7121 26.4144C72.9156 26.5632 73.0759 26.817 72.9113 27.1803C72.7943 27.4385 72.5864 27.4779 72.3483 27.4428Z" fill="#00A9BF"/>
<path d="M44.56 40.4218C44.5643 40.7588 44.469 40.8988 44.1096 40.9907C43.4643 41.1614 42.8103 41.3146 42.1607 41.4677C41.7709 41.5597 41.3811 41.6603 40.987 41.7347C40.6059 41.8047 40.346 41.6384 40.2204 41.2927C40.1381 41.0607 40.1945 40.8813 40.3937 40.7325C40.5193 40.6406 40.6579 40.575 40.8094 40.54C41.8142 40.2993 42.8146 40.0454 43.8194 39.8135C44.2784 39.7041 44.5556 39.9492 44.56 40.4218Z" fill="#00A9BF"/>
<path d="M87.0296 32.7045C87.0339 33.1684 86.7481 33.4398 86.367 33.396C86.237 33.3829 86.1071 33.3347 85.9858 33.2778C85.0677 32.8577 84.1495 32.4332 83.2314 32.0087C83.2141 31.9999 83.1968 31.9912 83.1794 31.9824C82.7074 31.7242 82.6554 31.3347 83.0538 30.9715C83.1881 30.849 83.344 30.7921 83.5259 30.8665C83.7035 30.9409 83.881 31.0065 84.0543 31.0853C84.9075 31.4617 85.765 31.8424 86.6181 32.2144C86.8737 32.3238 87.0253 32.4945 87.0296 32.7045Z" fill="#00A9BF"/>
<path d="M80.2902 35.9173C80.7493 35.9173 81.204 35.9173 81.6631 35.9173C81.7757 35.9173 81.8926 35.9129 82.0052 35.9304C82.2564 35.9698 82.4037 36.1405 82.4296 36.3987C82.4383 36.495 82.4383 36.5912 82.4253 36.6875C82.3907 36.8976 82.2781 37.0464 82.0658 37.0814C81.9186 37.1077 81.7627 37.1164 81.6111 37.1164C80.6756 37.1208 79.7445 37.1208 78.8091 37.1208C78.6964 37.1208 78.5795 37.1164 78.4712 37.0902C78.1854 37.0245 78.0035 36.7969 77.9992 36.5168C77.9949 36.2761 78.1637 36.0311 78.4149 35.9567C78.5405 35.9173 78.6748 35.9129 78.8091 35.9129C79.2984 35.9129 79.7922 35.9173 80.2902 35.9173Z" fill="#00A9BF"/>
<path d="M71.8499 37.4021C71.5641 37.4021 71.2782 37.4064 70.9924 37.4021C70.529 37.3933 70.2821 37.0038 70.4553 36.5618C70.516 36.4042 70.6372 36.3123 70.7932 36.2861C71.092 36.2336 71.3865 36.1504 71.694 36.1592C72.4389 36.1767 73.1795 36.1504 73.9157 36.0585C74.0673 36.041 74.2232 36.0323 74.3705 36.0541C74.6303 36.0848 74.7905 36.2817 74.8209 36.5705C74.8555 36.8725 74.7126 37.1264 74.4527 37.2095C74.3791 37.2314 74.3055 37.262 74.2319 37.2576C73.4393 37.2401 72.6554 37.5115 71.8499 37.4021Z" fill="#00A9BF"/>
<path d="M55.8372 38.9637C55.4777 38.9593 55.2698 38.758 55.2309 38.386C55.1919 38.0578 55.3391 37.8434 55.6943 37.769C56.0884 37.6858 56.4825 37.6245 56.8809 37.572C57.4483 37.4933 58.0199 37.432 58.5873 37.3663C58.7562 37.3488 58.9294 37.3532 59.1027 37.3532C59.3105 37.3532 59.4664 37.4495 59.5704 37.6289C59.7393 37.9178 59.696 38.1891 59.4318 38.3904C59.2932 38.4955 59.133 38.5567 58.9554 38.5698C58.0199 38.6399 57.0931 38.7799 56.1706 38.9243C56.0494 38.9418 55.9368 38.9506 55.8372 38.9637Z" fill="#00A9BF"/>
<path d="M80.0357 29.72C80.0227 30.1664 79.7282 30.4114 79.3125 30.3283C79.1826 30.302 79.057 30.2495 78.9357 30.2014C78.0565 29.8294 77.1774 29.4574 76.2982 29.0854C76.2289 29.0548 76.1553 29.0285 76.0903 28.9935C75.8175 28.8403 75.7308 28.639 75.8088 28.3721C75.9084 28.0395 76.1293 27.8732 76.4454 27.9344C76.7053 27.9869 76.9652 28.057 77.212 28.1576C77.9916 28.4683 78.7668 28.7966 79.542 29.1204C79.6287 29.1554 79.7196 29.1948 79.7975 29.2473C79.9664 29.3567 80.0487 29.523 80.0357 29.72Z" fill="#00A9BF"/>
<path d="M51.2318 38.4625C51.9811 38.4406 52.1067 38.5719 52.0547 39.1802C52.0374 39.3772 51.9378 39.4997 51.7602 39.5654C51.6693 39.596 51.5783 39.6135 51.483 39.631C50.5259 39.7973 49.5688 39.9636 48.616 40.1299C48.5424 40.143 48.4688 40.1649 48.3908 40.1693C47.9837 40.2043 47.7325 39.9899 47.6979 39.5829C47.6805 39.3597 47.7801 39.1584 47.9837 39.0621C48.105 39.0052 48.2349 38.9658 48.3648 38.9395C49.153 38.7951 49.9369 38.6551 50.7251 38.5194C50.9287 38.4844 51.1409 38.4756 51.2318 38.4625Z" fill="#00A9BF"/>
<path d="M66.4052 36.5193C66.4615 36.5193 66.5178 36.5193 66.5784 36.5193C67.176 36.5105 67.2713 36.9875 67.1717 37.3902C67.1414 37.5083 67.0635 37.5959 66.9509 37.6396C66.8296 37.6878 66.6997 37.7315 66.5697 37.7447C65.6992 37.8322 64.8244 37.9066 63.9539 37.9897C63.8023 38.0029 63.6507 38.0204 63.5035 38.0422C63.1657 38.0948 62.9665 37.9985 62.8625 37.7184C62.7499 37.4164 62.8365 37.1232 63.0877 36.9569C63.2523 36.8475 63.4429 36.8212 63.6248 36.7731C63.6811 36.76 63.7373 36.7468 63.7936 36.7468C64.6685 36.7644 65.5303 36.5762 66.4052 36.5193Z" fill="#00A9BF"/>
<path d="M37.1853 42.2933C37.1897 42.5034 37.1161 42.6784 36.9385 42.7835C36.8086 42.8622 36.6656 42.9191 36.5227 42.9673C35.6912 43.243 34.8553 43.5143 34.0195 43.7856C33.8592 43.8382 33.686 43.8863 33.5214 43.8994C33.2226 43.9169 33.0017 43.7331 32.9411 43.453C32.8675 43.1379 32.9584 42.9323 33.2486 42.7878C33.3352 42.7441 33.4218 42.7091 33.5128 42.6828C34.4006 42.3896 35.2884 42.092 36.1763 41.8032C36.3019 41.7638 36.4361 41.7244 36.566 41.7156C36.9385 41.6806 37.1767 41.9126 37.1853 42.2933Z" fill="#00A9BF"/>
<path d="M89.1656 37.4351C88.8711 37.4001 88.5896 37.3564 88.3037 37.3389C87.7537 37.3082 87.1994 37.2863 86.645 37.2688C86.4328 37.2645 86.2249 37.2601 86.0257 37.1857C85.7485 37.085 85.6143 36.9012 85.6186 36.6255C85.6229 36.3454 85.8005 36.096 86.0907 36.0566C86.3505 36.0216 86.6277 36.0084 86.8876 36.0522C87.4376 36.1485 87.9876 36.1441 88.5419 36.1529C88.9057 36.1572 89.2652 36.201 89.6203 36.2885C89.9322 36.3629 90.0578 36.5555 90.0621 36.8793C90.0664 37.2426 89.9148 37.4176 89.5597 37.4395C89.4254 37.4439 89.2912 37.4351 89.1656 37.4351Z" fill="#00A9BF"/>
<path d="M36.7349 49.1377C36.6743 49.1158 36.5617 49.0852 36.4621 49.037C35.8341 48.757 35.1888 48.5338 34.5305 48.3412C34.4569 48.3193 34.3833 48.3018 34.314 48.2712C34.0108 48.1399 33.8896 47.8861 33.9718 47.571C34.0585 47.2384 34.3183 47.0633 34.6605 47.1377C35.2191 47.2646 35.7562 47.4572 36.2845 47.6672C36.566 47.781 36.8475 47.8992 37.1204 48.0349C37.4279 48.188 37.5232 48.4156 37.4365 48.6869C37.3499 48.9758 37.0684 49.1683 36.7349 49.1377Z" fill="#00A9BF"/>
<path d="M30.4649 46.3342C30.6815 46.3735 30.9413 46.4173 31.2055 46.4655C31.578 46.5311 31.9504 46.6099 32.3272 46.6668C32.6737 46.7193 32.8556 47.0037 32.8166 47.262C32.7603 47.6033 32.4788 47.8484 32.141 47.844C32.0847 47.844 32.0284 47.8352 31.9721 47.8265C31.3917 47.7215 30.8114 47.6164 30.2354 47.5114C30.2181 47.507 30.1964 47.507 30.1791 47.5026C29.8153 47.4151 29.6594 47.2226 29.6984 46.9075C29.7373 46.5749 29.9799 46.3517 30.309 46.3342C30.3393 46.3298 30.3783 46.3342 30.4649 46.3342Z" fill="#00A9BF"/>
<path d="M61.8494 63.5215C61.1955 63.5127 60.3466 63.4077 59.5108 63.1845C59.1383 63.0838 58.7788 62.9525 58.4584 62.7424C57.7481 62.2741 57.7481 61.7226 58.467 61.263C58.8741 61.0004 59.3245 60.8385 59.8009 60.7509C60.2513 60.6634 60.7061 60.5977 61.1565 60.5233C61.2994 60.5014 61.3514 60.4095 61.3384 60.2826C61.2301 59.2409 60.8966 58.2911 60.2124 57.4814C60.1431 57.3983 60.0608 57.372 59.9612 57.3895C59.7749 57.4289 59.5887 57.4814 59.3982 57.4989C58.4151 57.5996 57.5922 57.2363 56.9166 56.5404C56.0417 55.6388 55.6563 54.5314 55.6823 53.2753C55.6823 53.2184 55.6823 53.1571 55.6909 53.1002C55.7343 52.8201 55.9508 52.6669 56.2323 52.7325C56.3406 52.7588 56.4488 52.8069 56.5484 52.8638C57.1115 53.1658 57.7221 53.3234 58.3458 53.4372C58.7009 53.5029 59.0603 53.5817 59.4068 53.6867C60.0521 53.8793 60.5718 54.2644 60.9399 54.8378C61.2561 55.328 61.412 55.8532 61.2301 56.4353C61.1565 56.6761 61.1608 56.873 61.3644 57.0612C61.5159 57.2013 61.6199 57.3939 61.7542 57.5602C61.7715 57.5821 61.8408 57.5996 61.8538 57.5865C61.8927 57.5514 61.9447 57.4902 61.9317 57.4552C61.9014 57.3457 61.8494 57.2407 61.7975 57.14C61.1911 56.0371 61.5116 54.9341 62.1916 54.1331C62.5684 53.6867 63.0274 53.3409 63.5688 53.1221C63.9066 52.9864 64.2444 52.8463 64.5909 52.7457C65.3877 52.5137 66.1327 52.1723 66.7996 51.669C66.8602 51.6208 66.9209 51.5727 66.9858 51.5377C67.3756 51.3232 67.7351 51.4589 67.8217 51.901C68.2028 53.818 67.8997 55.5644 66.4661 56.9781C65.6649 57.7659 64.6861 58.0811 63.5731 57.8928C63.4778 57.8753 63.3826 57.8622 63.2873 57.8534C63.1617 57.8403 63.0707 57.8841 63.0101 58.0066C62.8412 58.3568 62.668 58.7026 62.616 59.0877C62.5684 59.4335 62.538 59.7793 62.525 60.125C62.512 60.4489 62.5597 60.5014 62.8715 60.5146C63.4475 60.5365 64.0105 60.6459 64.5692 60.7684C64.9244 60.8472 65.2708 60.9654 65.5956 61.1361C65.7819 61.2324 65.9638 61.3418 66.111 61.4994C66.4358 61.8408 66.4402 62.1909 66.1067 62.5148C65.9681 62.6461 65.8035 62.7511 65.6389 62.8474C65.3574 63.0137 65.0499 63.1188 64.7338 63.1976C63.8546 63.4208 62.9668 63.5258 61.8494 63.5215ZM67.2587 52.2117C67.1158 52.1636 67.0205 52.2423 66.9295 52.308C66.2106 52.8026 65.4224 53.1265 64.5909 53.3716C64.2444 53.4722 63.9109 53.621 63.5818 53.7742C62.8845 54.1025 62.4471 54.6715 62.1699 55.3762C62.0486 55.6869 62.0616 56.0196 62.1309 56.3478C62.1439 56.4179 62.2565 56.4529 62.3128 56.4003C62.8932 55.862 63.5948 55.4943 64.2314 55.0348C64.6991 54.6978 65.1365 54.3301 65.522 53.8924C65.6606 53.7348 65.7862 53.5642 65.9291 53.4066C65.9767 53.3541 66.0504 53.284 66.111 53.284C66.2453 53.2884 66.3665 53.3628 66.4575 53.4635C66.5527 53.5729 66.4835 53.6823 66.4272 53.7786C65.9724 54.619 65.3921 55.3499 64.6342 55.932C64.2704 56.2121 63.9109 56.501 63.5515 56.7855C63.4605 56.8555 63.3696 56.9256 63.2873 57.0043C63.2483 57.0394 63.2136 57.0963 63.2093 57.1444C63.2007 57.2188 63.2743 57.2276 63.3263 57.2363C63.4215 57.2538 63.5168 57.2626 63.6078 57.2801C64.7208 57.4595 65.6476 57.1181 66.3449 56.2209C67.2717 55.0348 67.5835 53.6911 67.2587 52.2117ZM60.6455 55.9408C60.6628 55.8839 60.6888 55.8445 60.6844 55.8139C60.5718 55.2011 60.221 54.7722 59.6927 54.4702C59.2509 54.2207 58.7659 54.1113 58.2765 54.0325C57.6875 53.9362 57.1201 53.7874 56.5744 53.5466C56.4921 53.5116 56.4099 53.446 56.3016 53.5029C56.2193 53.7917 56.3276 54.0719 56.3839 54.352C56.5701 55.2405 57.0422 55.9539 57.7654 56.4791C58.4064 56.9474 59.108 57.0656 59.8529 56.7724C59.8572 56.6454 59.7793 56.6148 59.7143 56.5798C59.4328 56.4179 59.147 56.2603 58.8654 56.0983C58.2808 55.7657 57.7438 55.363 57.2847 54.8597C57.1678 54.7328 57.0595 54.5971 56.9599 54.457C56.9339 54.4176 56.9252 54.3389 56.9469 54.2951C57.0638 54.0368 57.328 53.9668 57.5316 54.1594C58.4324 55.0085 59.5584 55.4287 60.6455 55.9408Z" fill="#00A9BF"/>
<path d="M27.798 35.8637C27.785 36.7478 27.5338 37.5356 26.8842 38.1659C26.62 38.4241 26.3168 38.6211 25.9703 38.7524C25.0175 39.1025 24.0561 39.1157 23.1076 38.7612C22.3108 38.4635 21.7521 37.8989 21.4662 37.0848C21.0981 36.0212 21.1587 34.9927 21.7651 34.0254C22.2588 33.242 22.9864 32.8043 23.8829 32.6905C24.4112 32.6248 24.9482 32.6292 25.4809 32.743C26.8755 33.0494 27.8283 34.4325 27.7936 35.693C27.798 35.7455 27.798 35.8024 27.798 35.8637ZM26.4164 35.7674C26.4251 35.5792 26.3774 35.3735 26.2908 35.1765C25.9617 34.4368 25.377 34.0254 24.5931 33.986C23.8439 33.9466 23.2765 34.3405 22.8781 34.962C22.6746 35.2772 22.5923 35.6361 22.6442 36.0169C22.8088 37.1548 24.147 37.9427 25.1691 37.5181C25.9097 37.203 26.4164 36.529 26.4164 35.7674Z" fill="#00A9BF"/>
<path d="M97.1205 27.9259C98.0949 27.9478 98.8182 28.4295 99.1257 29.2834C99.3119 29.7957 99.3076 30.3168 99.0607 30.8029C98.7532 31.4159 98.2638 31.8319 97.5882 31.994C96.3193 32.2961 95.0027 31.2846 95.0027 29.9709C95.0027 28.9506 95.8688 27.8471 97.1205 27.9259ZM97.1378 31.0831C97.7225 31.0744 98.3115 30.4832 98.2855 29.9315C98.2595 29.371 97.6575 28.8192 97.0988 28.7929C96.6527 28.771 95.9338 29.4323 95.9641 30.0409C95.9944 30.6102 96.5705 31.0963 97.1378 31.0831Z" fill="#00A9BF"/>
<path d="M62.147 18.9783C60.8304 18.9652 60.0465 17.9273 60.393 16.71C60.5576 16.1276 60.93 15.7466 61.5061 15.5758C61.9391 15.4445 62.3722 15.4445 62.7966 15.5977C63.4939 15.8517 63.9443 16.5042 63.914 17.2486C63.8794 18.0631 63.4419 18.6718 62.7187 18.9126C62.5195 18.9783 62.3073 18.9739 62.147 18.9783ZM63.0652 17.2267C63.0868 16.5611 62.5455 16.2852 62.1254 16.3071C61.5364 16.3378 61.1249 16.7056 61.1206 17.2661C61.1163 17.7434 61.597 18.1419 62.1383 18.1463C62.71 18.1594 63.0695 17.8003 63.0652 17.2267Z" fill="#00A9BF"/>
</svg>
