<svg width="125" height="124" viewBox="0 0 125 124" fill="none" xmlns="http://www.w3.org/2000/svg">
<path d="M66.0282 0C66.037 0.0396823 66.0608 0.07444 66.0947 0.0969786C66.1285 0.119517 66.1698 0.128085 66.2099 0.120884C68.3779 0.145061 70.5096 0.495623 72.6413 0.834097C75.0045 1.22145 77.3423 1.75026 79.6419 2.41768C86.4021 4.39474 92.7724 7.51444 98.4758 11.6411C100.772 13.3103 102.957 15.1275 105.016 17.0809C107.342 19.2689 109.425 21.6503 111.387 24.1647C113.544 26.9467 115.452 29.9116 117.092 33.0254C118.865 36.3411 120.317 39.8182 121.428 43.4094C122.329 46.2732 123.001 49.2037 123.438 52.1734C123.717 54.0109 123.971 55.8483 124.056 57.7824C122.99 57.444 121.961 57.5165 120.931 57.5407C120.35 57.5528 119.781 57.4198 119.199 57.4077C118.981 57.4077 118.957 57.2989 118.945 57.1176C118.836 56.1989 118.69 55.2802 118.581 54.3614C118.412 52.9156 118.169 51.4793 117.855 50.058C117.396 47.8361 116.789 45.6473 116.038 43.5061C114.686 39.6136 112.92 35.877 110.769 32.3606C109.425 30.1605 107.984 28.0209 106.3 26.0746C105.319 24.9383 104.495 23.6811 103.417 22.6294C100.135 19.4502 96.6954 16.4402 92.8075 13.9983C90.0801 12.2807 87.2209 10.7811 84.2565 9.51355C81.7373 8.41351 79.0969 7.67612 76.5171 6.74531C75.8873 6.51564 75.2332 6.50355 74.6034 6.4431C73.5376 6.32222 72.5202 5.93539 71.4665 5.87495C70.1679 5.79632 68.8743 5.65107 67.5907 5.43977C66.331 5.22218 65.0593 5.42768 63.7997 5.3068C62.049 5.11751 60.2834 5.10941 58.531 5.28262C56.7869 5.46395 55.0307 5.39142 53.2866 5.75407C51.7242 6.06837 50.186 6.41893 48.6478 6.79367C47.7878 6.99917 46.8673 7.13214 46.0074 7.386C43.1057 8.2229 40.2814 9.30677 37.5654 10.6257C34.0721 12.3017 30.7603 14.3311 27.6822 16.682C25.7201 18.1809 23.8306 19.7645 22.1107 21.5415C20.9601 22.7382 19.6642 23.7658 18.6952 25.1438C17.5082 26.8241 16.1517 28.3714 14.989 30.0759C13.2173 32.7 11.658 35.4608 10.3259 38.3323C8.69783 41.8494 7.44738 45.5286 6.59549 49.3085C6.13524 51.3393 5.74766 53.3944 5.5781 55.4736C5.55387 55.8725 5.50542 56.2714 5.4812 56.6582C5.43275 57.3473 5.21474 57.4923 4.16101 57.5286C3.4343 57.5528 2.70759 57.5528 1.98088 57.5286C1.42374 57.5044 0.878704 57.6374 0.32156 57.7583C0.127771 56.9121 0.370006 56.0901 0.418453 55.2681C0.491124 54.1922 0.721251 53.1163 0.878705 52.0526C1.19361 49.9734 1.64175 47.9304 2.16256 45.8875C3.61664 40.4111 5.82596 35.163 8.72717 30.2935C9.88407 28.353 11.1456 26.4765 12.5061 24.6724C13.4871 23.3789 14.4924 22.1096 15.5946 20.9129C16.4787 19.9579 17.3023 18.9425 18.235 18.0479C20.1971 16.1863 22.1955 14.3731 24.3635 12.7412C27.2232 10.5563 30.2618 8.61527 33.4474 6.93873C36.6992 5.2426 40.0958 3.83883 43.5971 2.74406C46.2363 1.91426 48.9322 1.27594 51.6636 0.834097C53.7953 0.495623 55.927 0.145061 58.095 0.120884C58.1351 0.128085 58.1764 0.119517 58.2102 0.0969786C58.2441 0.07444 58.2679 0.0396823 58.2767 0H66.0282Z" fill="#00827A"/>
<path d="M39.3578 58.7395C38.728 58.7395 38.1103 58.7516 37.4805 58.7395C36.8507 58.7274 36.233 58.0982 36.2451 57.3965C36.2572 56.6947 36.8265 56.0897 37.4926 56.0776H41.3079C41.9982 56.0897 42.5433 56.6947 42.5311 57.4207C42.519 58.1466 41.9982 58.7274 41.2957 58.7395C40.5933 58.7516 39.9998 58.7395 39.3578 58.7395Z" fill="#00827A"/>
<path d="M50.5863 58.7395C49.9807 58.7395 49.3751 58.7516 48.7695 58.7395C48.4161 58.7363 48.0785 58.593 47.831 58.3411C47.5834 58.0893 47.4461 57.7495 47.4493 57.3965C47.4525 57.0435 47.596 56.7063 47.8481 56.459C48.1002 56.2116 48.4404 56.0745 48.7937 56.0777H52.5363C53.2751 56.0898 53.808 56.6706 53.7959 57.4449C53.7991 57.6138 53.7686 57.7816 53.7061 57.9385C53.6437 58.0954 53.5505 58.2384 53.4321 58.3589C53.3137 58.4794 53.1724 58.5752 53.0165 58.6406C52.8606 58.7059 52.6932 58.7395 52.5242 58.7395C51.8822 58.7516 51.2403 58.7395 50.5863 58.7395Z" fill="#00827A"/>
<path d="M63.6432 56.0776C64.5032 56.0776 65.0603 56.5979 65.0603 57.4086C65.0603 58.2192 64.5032 58.7395 63.6432 58.7395H60.0702C59.7211 58.7331 59.3884 58.5901 59.1438 58.3412C58.8991 58.0923 58.7621 57.7574 58.7622 57.4086C58.7652 57.0607 58.9032 56.7275 59.1472 56.4793C59.3912 56.231 59.7221 56.087 60.0702 56.0776H63.6432Z" fill="#00827A"/>
<path d="M73.1759 58.7395C72.5461 58.7395 71.9163 58.7516 71.2986 58.7395C70.9452 58.7379 70.607 58.5961 70.3583 58.3454C70.1095 58.0947 69.9707 57.7555 69.9723 57.4025C69.9739 57.0495 70.1158 56.7117 70.3668 56.4632C70.6178 56.2147 70.9573 56.0761 71.3107 56.0777H75.0653C75.7799 56.0898 76.3129 56.6584 76.325 57.3844C76.3371 58.1103 75.7921 58.7274 75.0532 58.7395C74.3144 58.7516 73.7936 58.7395 73.1759 58.7395Z" fill="#00827A"/>
<path d="M84.4131 58.7395C83.7833 58.7395 83.1535 58.7516 82.5358 58.7395C81.9181 58.7274 81.2883 58.1103 81.2883 57.4086C81.2883 56.7068 81.8697 56.0897 82.5358 56.0776H86.351C87.0414 56.0897 87.5864 56.6826 87.5864 57.4086C87.5864 58.1345 87.0414 58.7274 86.351 58.7395C85.6607 58.7516 85.0551 58.7395 84.4131 58.7395Z" fill="#00827A"/>
<path d="M39.4313 50.5232C38.8136 50.5232 38.1837 50.5353 37.566 50.5232C37.2264 50.5298 36.8977 50.4029 36.6508 50.1698C36.4039 49.9367 36.2585 49.6161 36.2458 49.277C36.2216 48.5873 36.803 47.8856 37.4812 47.8735C38.7409 47.8493 40.0126 47.8493 41.2844 47.8735C42.0474 47.8856 42.5682 48.5268 42.5319 49.3133C42.4955 50.0997 42.0232 50.5232 41.248 50.5232H39.4313Z" fill="#00827A"/>
<path d="M50.7043 50.5171H48.8996C48.0881 50.5171 47.4826 49.9606 47.4947 49.2346C47.5041 48.8676 47.6559 48.5186 47.918 48.2612C48.1801 48.0039 48.5321 47.8583 48.8996 47.8553H52.4726C53.0177 47.8553 53.6596 48.3393 53.7807 48.7991C53.8492 49.0959 53.8256 49.4065 53.7131 49.6896C53.6006 49.9728 53.4045 50.215 53.1509 50.3841C52.9993 50.4793 52.8205 50.5219 52.6422 50.505L50.7043 50.5171Z" fill="#00827A"/>
<path d="M61.9725 50.5232C61.3427 50.5232 60.725 50.5353 60.0952 50.5232C59.7564 50.53 59.4281 50.4051 59.1796 50.1749C58.931 49.9447 58.7817 49.6271 58.7629 49.2891C58.7387 48.5873 59.3443 47.8856 60.0589 47.8735C61.2822 47.8493 62.5055 47.8493 63.7409 47.8735C63.9189 47.8716 64.0954 47.9061 64.2596 47.9748C64.4238 48.0435 64.5723 48.1449 64.6958 48.2729C64.8194 48.4009 64.9156 48.5528 64.9784 48.7192C65.0412 48.8856 65.0693 49.063 65.0611 49.2407C65.0489 50.0755 64.5766 50.5232 63.7166 50.5232H61.9725Z" fill="#00827A"/>
<path d="M73.2351 50.5232C72.6053 50.5232 71.9876 50.5353 71.3578 50.5232C71.0181 50.5331 70.6881 50.4093 70.4389 50.1784C70.1897 49.9476 70.0412 49.6282 70.0255 49.2891C69.9891 48.5873 70.6068 47.8856 71.3093 47.8735C72.5447 47.8493 73.768 47.8493 74.9913 47.8735C75.1698 47.8717 75.3469 47.9062 75.5117 47.9747C75.6766 48.0433 75.8258 48.1445 75.9503 48.2723C76.0748 48.4001 76.1721 48.5518 76.2363 48.7183C76.3005 48.8847 76.3302 49.0624 76.3236 49.2407C76.3115 50.0634 75.8391 50.5232 74.9792 50.5232H73.2351Z" fill="#00827A"/>
<path d="M60.1187 75.0596C59.3678 75.0596 58.7622 74.4909 58.7622 73.7892C58.7622 73.0874 59.3556 72.4099 60.0824 72.3978C61.3178 72.3857 62.541 72.3857 63.7643 72.3978C64.5637 72.422 65.0724 73.0027 65.0603 73.7892C65.0482 74.5756 64.5395 75.0475 63.7401 75.0596H60.1187Z" fill="#00827A"/>
<path d="M84.4865 50.5232C83.8567 50.5232 83.239 50.5353 82.6092 50.5232C82.2716 50.5299 81.9447 50.4046 81.6981 50.1741C81.4515 49.9436 81.3047 49.6261 81.289 49.2891C81.2648 48.5994 81.8461 47.8856 82.5244 47.8735C83.784 47.8493 85.0558 47.8493 86.3275 47.8735C87.0785 47.8856 87.5993 48.5268 87.5872 49.3133C87.5751 50.0997 87.0664 50.5232 86.2306 50.5232H84.4865Z" fill="#00827A"/>
<path d="M39.4414 39.7542H41.137C41.9485 39.7542 42.433 40.1172 42.5299 40.8068C42.6268 41.4965 42.2271 42.3313 41.5004 42.3676C40.0712 42.4523 38.6178 42.5854 37.1886 42.295C36.5588 42.1619 36.1349 41.4481 36.2439 40.8673C36.2962 40.5544 36.4598 40.2708 36.7045 40.0686C36.9492 39.8664 37.2587 39.759 37.5762 39.7663L39.4414 39.7542Z" fill="#00827A"/>
<path d="M50.7697 39.7542H52.4048C53.2162 39.7542 53.7007 40.1293 53.7976 40.8068C53.8945 41.4844 53.4948 42.3313 52.7681 42.3676C51.3389 42.4523 49.8855 42.5854 48.4563 42.295C47.8265 42.1619 47.4026 41.4481 47.5116 40.8673C47.5615 40.5533 47.7244 40.2682 47.9697 40.0655C48.2149 39.8629 48.5257 39.7565 48.8439 39.7663L50.7697 39.7542Z" fill="#00827A"/>
<path d="M61.9706 39.7542H63.6662C64.4777 39.7542 64.9622 40.1172 65.0591 40.8068C65.156 41.4965 64.7563 42.3313 64.0296 42.3676C62.6004 42.4523 61.147 42.5854 59.7178 42.295C59.0759 42.1619 58.6641 41.4481 58.761 40.8673C58.8157 40.5555 58.9798 40.2734 59.224 40.0716C59.4682 39.8698 59.7764 39.7615 60.0933 39.7663L61.9706 39.7542Z" fill="#00827A"/>
<path d="M74.9793 39.7542C75.815 39.7663 76.2995 40.214 76.3237 40.9762C76.348 41.7384 75.815 42.3918 75.0641 42.416C73.8287 42.4402 72.6054 42.4523 71.3821 42.416C70.5585 42.3797 69.9892 41.7505 70.0256 40.9883C70.0619 40.2261 70.6433 39.7663 71.479 39.7542H74.9793Z" fill="#00827A"/>
<path d="M86.2788 39.7542C87.054 39.7663 87.5627 40.2261 87.5869 40.9641C87.6111 41.7021 87.0903 42.3918 86.3394 42.416C85.1161 42.4402 83.8807 42.4402 82.6574 42.416C82.4746 42.4161 82.2936 42.3795 82.1251 42.3086C81.9566 42.2376 81.8041 42.1336 81.6766 42.0028C81.549 41.872 81.4489 41.7169 81.3823 41.5469C81.3157 41.3768 81.2839 41.1951 81.2888 41.0125C81.3009 40.2866 81.8944 39.7663 82.718 39.7542H86.2788Z" fill="#00827A"/>
<path d="M50.4892 66.962C49.8836 66.8773 49.1327 67.0951 48.4181 66.841C47.7035 66.587 47.4128 65.9941 47.5097 65.4254C47.5538 65.1112 47.7109 64.8237 47.9516 64.6167C48.1923 64.4096 48.5002 64.2971 48.8178 64.3002H52.5604C53.2507 64.3002 53.6868 64.6632 53.7958 65.3286C53.9048 65.9941 53.5778 66.6111 52.9964 66.8168C52.7182 66.9238 52.4223 66.9771 52.1243 66.9741C51.6277 66.9499 51.119 66.962 50.4892 66.962Z" fill="#00827A"/>
<path d="M61.9868 64.3046H63.852C64.5061 64.3046 64.93 64.6676 65.0632 65.2967C65.1225 65.5778 65.0884 65.8705 64.966 66.1303C64.8435 66.3902 64.6395 66.603 64.3849 66.7365C64.1506 66.8782 63.8836 66.9574 63.6098 66.9664C62.4834 66.9664 61.357 66.9785 60.2306 66.9664C59.4918 66.9543 59.1284 66.6397 58.8741 65.9743C58.6197 65.3088 58.8983 64.9217 59.3343 64.5345C59.4314 64.4494 59.5449 64.3851 59.6678 64.3456C59.7907 64.306 59.9204 64.2921 60.0489 64.3046C60.6908 64.3167 61.3328 64.3046 61.9868 64.3046Z" fill="#00827A"/>
<path d="M73.2957 64.3044H75.1004C75.7666 64.3044 76.1905 64.6553 76.3237 65.2966C76.383 65.5776 76.3489 65.8703 76.2264 66.1302C76.104 66.3901 75.9 66.6029 75.6454 66.7364C75.4086 66.8726 75.1431 66.9513 74.8703 66.9662C73.7439 66.9662 72.6175 66.9783 71.4911 66.9662C70.7523 66.9542 70.3889 66.6396 70.1346 65.9862C69.8802 65.3329 70.1467 64.9215 70.5948 64.5343C70.6896 64.4496 70.801 64.3854 70.9219 64.3458C71.0428 64.3063 71.1706 64.2922 71.2973 64.3044C71.9634 64.3165 72.6296 64.3044 73.2957 64.3044Z" fill="#00827A"/>
<path fill-rule="evenodd" clip-rule="evenodd" d="M0.150391 61.5152C0.683311 60.2701 1.66437 59.8228 2.97245 59.8107C3.36104 59.8071 3.78063 59.8014 4.21725 59.7954C5.25036 59.7813 6.37881 59.7659 7.41749 59.7744C7.8681 59.7781 8.33224 59.7728 8.80337 59.7674C9.87713 59.7551 10.9872 59.7425 12.0563 59.8349C12.5327 59.8761 13.0404 59.9149 13.5647 59.9551C14.7335 60.0445 15.9849 60.1403 17.1554 60.2822C19.3113 60.536 21.4672 60.8382 23.5868 61.2855C26.3955 61.8478 29.1569 62.6237 31.847 63.6065C34.1339 64.4375 36.3564 65.4355 38.4964 66.5923C40.6988 67.7764 42.7975 69.1431 44.7704 70.6782C46.2646 71.8414 47.6807 73.1013 49.0095 74.4497C50.8541 76.3366 52.5318 78.379 54.0238 80.5544C55.6 82.8575 56.9738 85.2923 58.1297 87.8316C59.7447 91.3336 61.0104 94.9858 61.9086 98.7353C61.9595 98.9968 62.058 99.2467 62.1993 99.4727C62.2901 99.1221 62.384 98.7715 62.4779 98.421C62.5717 98.0704 62.6656 97.7199 62.7564 97.3693C63.4845 94.6089 64.4156 91.9058 65.5422 89.2822C66.9471 85.9941 68.6428 82.8512 70.7381 79.9258C71.7555 78.5154 72.8375 77.1575 73.9841 75.852C74.7229 75.0058 75.5102 74.1959 76.3217 73.4343C78.6878 71.1862 81.3003 69.2114 84.1096 67.5473C87.576 65.5003 91.2765 63.8768 95.1314 62.7119C97.6281 61.9438 100.173 61.3421 102.75 60.9107C104.579 60.6085 106.42 60.3547 108.273 60.1734C110.638 59.924 113.016 59.8069 115.394 59.8228L115.407 59.8229C117.389 59.8349 119.359 59.8469 121.329 59.8228C122.637 59.7986 123.618 60.2701 124.151 61.5152V67.4385C124.043 67.8888 124.049 68.3448 124.056 68.7987C124.059 69.0028 124.062 69.2064 124.054 69.4089C123.958 71.6694 123.57 73.8937 123.134 76.0937C122.336 80.1488 121.097 84.1049 119.44 87.892C116.415 94.8108 112.043 101.061 106.577 106.278C102.943 109.743 98.9051 112.758 94.55 115.26C87.5322 119.314 79.839 122.07 71.8403 123.396C69.8661 123.722 67.8919 123.976 65.8934 123.94C65.853 123.934 65.8117 123.936 65.7721 123.946C65.7326 123.957 65.6956 123.975 65.6633 124H58.6384C58.1041 123.927 57.5622 123.912 57.0212 123.898C56.5813 123.886 56.1419 123.874 55.7074 123.831C51.8956 123.414 48.1296 122.653 44.4555 121.558C36.7923 119.309 29.5937 115.71 23.1992 110.932C20.4499 108.887 17.8882 106.601 15.5445 104.103C8.19212 96.267 3.20103 86.5219 1.14356 75.985C0.598526 73.253 0.174614 70.5089 0.21095 67.7165C0.21095 67.6988 0.211757 67.6812 0.212561 67.6636C0.216161 67.5849 0.219694 67.5076 0.150391 67.4385V61.5152ZM59.5585 115.671C58.9592 115.073 58.3665 114.478 57.7771 113.887C56.413 112.518 55.0665 111.166 53.6964 109.833C47.8443 104.145 42.0792 98.3697 36.3155 92.5964C32.9537 89.2289 29.5924 85.8619 26.2147 82.513C25.2942 81.5942 23.6349 81.4975 22.7507 82.4767C21.8665 83.4559 21.7091 84.7856 22.8355 85.9219L55.38 118.379C55.4433 118.442 55.5126 118.496 55.5814 118.549C55.6836 118.628 55.7848 118.706 55.8644 118.814C54.4018 118.716 52.9485 118.51 51.5163 118.198C49.5421 117.799 47.5799 117.327 45.6421 116.747C42.0884 115.686 38.6353 114.315 35.3228 112.649C31.9844 110.977 28.8165 108.985 25.8634 106.702C24.4342 105.59 23.0656 104.417 21.7212 103.196C18.8628 100.585 16.4041 97.6476 14.1755 94.4804C12.403 91.9121 10.8666 89.1893 9.58514 86.345C8.09249 83.0425 6.95959 79.5896 6.20594 76.0457C5.84258 74.3533 5.5519 72.6488 5.346 70.9323C5.18855 69.53 5.03109 68.1278 4.97054 66.7135C4.96015 66.4596 4.9431 66.2057 4.92604 65.9519C4.9033 65.6134 4.88056 65.2749 4.87363 64.9365C4.86152 64.6705 4.89786 64.5255 5.21277 64.5255C6.00612 64.5354 6.79742 64.531 7.5875 64.5266C8.71527 64.5203 9.84058 64.5141 10.9659 64.5496C12.601 64.6101 14.2361 64.7189 15.847 64.9123C19.4563 65.3354 23.0172 65.9277 26.5175 66.919C29.5403 67.7588 32.4732 68.8925 35.2743 70.3037C37.7576 71.5417 40.0936 73.0542 42.2386 74.8127C43.5104 75.8523 44.77 76.904 45.8843 78.1007C48.0039 80.3975 49.9175 82.8514 51.5042 85.5592C53.4019 88.8288 54.9487 92.2891 56.1188 95.8827C56.9953 98.6427 57.7071 101.452 58.2505 104.296C58.6259 106.17 58.9045 108.068 59.0983 109.966C59.1328 110.291 59.1704 110.616 59.208 110.942C59.355 112.216 59.5027 113.497 59.4738 114.777C59.4738 114.885 59.5057 114.986 59.5382 115.09C59.5931 115.264 59.6498 115.444 59.5585 115.671ZM68.8062 118.505C68.6808 118.61 68.5581 118.713 68.5121 118.85C69.8202 118.802 71.1162 118.56 72.4 118.294C74.9048 117.82 77.3767 117.186 79.8003 116.396C81.6413 115.78 83.4581 115.091 85.2507 114.365C87.5929 113.395 89.867 112.268 92.0575 110.993C95.0007 109.276 97.8106 107.354 100.403 105.118C102.062 103.679 103.818 102.108 105.187 100.609C106.555 99.1098 107.863 97.5746 109.087 95.9548C110.907 93.5372 112.496 90.9551 113.835 88.2424C115.113 85.6856 116.171 83.0246 116.996 80.2882C117.48 78.6926 117.892 77.0848 118.219 75.4529C118.607 73.5427 118.898 71.6141 119.091 69.6746C119.209 68.5385 119.286 67.3956 119.362 66.256C119.389 65.8679 119.415 65.4801 119.442 65.0931C119.467 64.658 119.358 64.5008 118.885 64.525C117.997 64.5667 117.107 64.5589 116.215 64.5512C115.038 64.5409 113.857 64.5306 112.672 64.6338C112.099 64.6848 111.523 64.7172 110.945 64.7496C110.291 64.7865 109.634 64.8234 108.978 64.8876C107.185 65.073 105.405 65.3148 103.636 65.6129C101.1 66.039 98.5947 66.6367 96.1392 67.402C92.6146 68.4957 89.2383 70.0182 86.0864 71.9352C84.2624 73.0371 82.5434 74.3036 80.951 75.7188C79.8609 76.6859 78.783 77.665 77.8261 78.7772C76.6513 80.1311 75.5249 81.4971 74.4954 82.9477C72.5211 85.7522 70.9466 88.7743 69.6264 91.9293C68.7162 94.1146 67.9595 96.3604 67.3615 98.6505C66.6469 101.382 66.0171 104.139 65.6416 106.943C65.5918 107.327 65.5412 107.71 65.4906 108.094C65.3323 109.294 65.1737 110.497 65.036 111.706C65.0085 111.926 64.9966 112.134 64.9845 112.344C64.9648 112.69 64.9446 113.043 64.8543 113.471C64.7891 113.78 64.7873 114.099 64.7854 114.432C64.7831 114.841 64.7807 115.272 64.6606 115.731C66.7103 113.78 68.649 111.848 70.569 109.934C71.3378 109.168 72.1036 108.405 72.8724 107.644C79.8241 100.796 86.7183 93.8895 93.6159 86.9801C95.0946 85.4989 96.5733 84.0176 98.0529 82.5367C98.7675 81.8355 99.6153 81.6542 100.524 81.8839C102.183 82.2949 102.861 84.5433 101.505 85.8851C90.6364 96.7244 79.7761 107.564 68.9239 118.403C68.886 118.438 68.8459 118.471 68.8062 118.505Z" fill="#00827A"/>
<path fill-rule="evenodd" clip-rule="evenodd" d="M61.8767 35.7749C50.8307 35.7749 39.7887 35.7669 28.7508 35.7507C28.1816 35.7507 27.9878 35.8475 27.9878 36.4881C28.012 44.0152 28.0201 51.5462 28.012 59.0813C28.012 59.4338 28.012 59.6091 27.9286 59.6715C27.8462 59.7332 27.6821 59.6843 27.3556 59.587L27.3216 59.5769C26.8026 59.4224 26.4547 59.3567 26.0875 59.2874C25.9663 59.2646 25.843 59.2413 25.7107 59.2143C25.3716 59.1417 25.202 58.9967 25.2142 58.5857C25.2323 56.7449 25.23 54.8974 25.2278 53.0532C25.227 52.4389 25.2263 51.825 25.2263 51.2118V29.2714C25.2142 27.6757 25.5775 26.1888 26.5586 24.9075C27.7334 23.3722 29.2716 22.3931 31.2095 22.103C31.6606 22.0188 32.1194 21.9823 32.5781 21.9942C32.9052 22.0183 32.9778 21.8975 32.9778 21.5832C32.9851 21.3873 32.9826 21.1915 32.98 20.9957C32.9741 20.5387 32.9681 20.0818 33.0868 19.6248C33.4744 18.0775 35.0368 16.8445 36.6114 16.7841C38.1859 16.7236 39.494 17.3039 40.3539 18.6699C40.8869 19.504 40.9716 20.4589 40.9474 21.4018C40.9474 21.8612 41.0443 22.0063 41.5409 22.0063C46.8136 21.9821 52.0782 21.9821 57.3347 22.0063C57.8192 22.0063 57.9645 21.8854 57.9282 21.4139C57.8313 20.2534 58.0493 19.1413 58.776 18.2226C59.0963 17.8072 59.502 17.465 59.9658 17.219C60.4295 16.9729 60.9407 16.8288 61.4648 16.7962C62.7487 16.6995 63.8993 17.0017 64.8319 17.9446C65.7645 18.8875 65.9462 19.8545 65.9099 21.0392C65.8857 21.9942 65.9099 21.9942 66.8425 21.9942C68.1142 21.9942 69.3861 21.9934 70.6577 21.9927C74.4723 21.9904 78.2852 21.9881 82.0913 22.0063C82.6242 22.0063 82.7695 21.8975 82.7574 21.3535C82.709 19.7095 83.1692 18.2347 84.6832 17.3522C86.1972 16.4698 87.5537 16.5181 88.9466 17.3764C90.1093 18.0896 90.7391 19.1776 90.7391 20.5798V20.6403C90.7391 20.7638 90.7267 20.8968 90.7143 21.0299C90.6842 21.3525 90.654 21.6765 90.7997 21.8733C90.9379 22.0599 91.2453 22.0341 91.557 22.008C91.7097 21.9951 91.8634 21.9822 91.9988 21.9942C95.1963 22.2964 97.9578 24.4239 98.5028 27.7603C98.565 28.0912 98.5975 28.427 98.5997 28.7637C98.6078 38.6842 98.6118 48.6128 98.6118 58.5494C98.6239 59.0571 98.5028 59.2868 97.9699 59.3472C97.4228 59.4088 96.8857 59.5387 96.3711 59.7341C95.8382 59.9517 95.814 59.722 95.814 59.2989C95.8221 54.0042 95.8261 48.7095 95.8261 43.4148C95.8261 42.7412 95.8241 42.0676 95.8222 41.3941C95.8172 39.7104 95.8123 38.0267 95.8382 36.3431C95.8382 35.8474 95.6807 35.7628 95.2326 35.7628L61.8767 35.7749ZM61.8731 33.1149C50.8272 33.1149 39.7852 33.1189 28.7473 33.127C28.0933 33.127 27.9721 32.9336 27.9843 32.3291C28.0151 31.5676 28.0116 30.7963 28.0081 30.0246C28.0061 29.5835 28.0041 29.1423 28.0085 28.7026C28.0085 26.841 29.8858 24.8585 31.751 24.7739C31.8774 24.766 32.0142 24.7273 32.1503 24.6887C32.4314 24.609 32.71 24.5301 32.8895 24.7255C33.091 24.9449 33.0432 25.2956 32.9974 25.6313C32.9827 25.7396 32.9681 25.8462 32.9622 25.9465C32.8411 27.6993 34.2218 29.3312 35.7964 29.718C37.71 30.1895 39.6479 29.4037 40.4715 27.7839C40.8833 26.974 40.9802 26.0915 40.956 25.197C40.9439 24.7981 41.0045 24.6409 41.4526 24.6409C46.7818 24.657 52.111 24.657 57.4402 24.6409C57.8641 24.6409 57.9368 24.786 57.9247 25.1607C57.8762 25.9465 57.9368 26.7322 58.2638 27.4817C59.2328 29.7543 62.1396 30.6005 64.2592 29.1378C65.3371 28.3883 65.8822 27.3487 65.9064 26.0432L65.9076 25.9738C65.9302 24.7346 65.9317 24.653 67.3114 24.653H81.785C82.7061 24.653 82.7061 24.653 82.7392 25.5158L82.7418 25.5838C82.7903 26.8531 83.0809 28.0378 84.1468 28.896C85.4549 29.9598 86.8962 30.117 88.4223 29.5367C89.7667 29.0169 90.8083 27.4817 90.7356 26.1036C90.7245 25.9753 90.7288 25.8445 90.7331 25.7135C90.7381 25.5605 90.7431 25.4072 90.7235 25.2574C90.6509 24.7618 90.8325 24.6047 91.3412 24.6409C93.4366 24.8102 95.108 25.8135 95.762 28.0257C95.8017 28.196 95.818 28.3708 95.8105 28.5455C95.8149 29.029 95.8129 29.5126 95.8109 29.9961C95.8074 30.8423 95.8039 31.6885 95.8347 32.5346C95.8468 33.0303 95.6894 33.1149 95.2291 33.1149C84.1105 33.1068 72.9918 33.1068 61.8731 33.1149ZM38.1707 24.1471C38.1694 23.8879 38.168 23.6296 38.168 23.3726V20.8945C38.168 20.0966 37.7199 19.4922 36.9932 19.456C36.2665 19.4197 35.6609 19.9516 35.6488 20.7857C35.6003 22.4781 35.6124 24.1583 35.6366 25.8507C35.6609 26.6365 36.2301 27.2288 36.9447 27.1925C37.6593 27.1563 38.1559 26.5035 38.168 25.7177C38.1761 25.193 38.1734 24.6683 38.1707 24.1471ZM63.1198 25.971C63.1087 26.2831 62.9828 26.5802 62.766 26.8055C62.5493 27.0307 62.2569 27.1683 61.9449 27.1919C61.3635 27.2161 60.7095 26.6117 60.6974 25.9952C60.6974 25.3988 60.696 24.8025 60.6947 24.2061C60.692 23.0134 60.6893 21.8207 60.6974 20.6279C60.7095 20.0114 61.3514 19.4312 61.957 19.4554C62.5626 19.4795 63.1198 19.951 63.1198 20.6763V25.971ZM85.5224 22.5037C85.5238 22.7724 85.5251 23.0414 85.5251 23.3119V25.7174C85.5251 26.5395 86.0944 27.168 86.7484 27.1922C87.4024 27.2164 88.0323 26.6362 88.0565 25.8504C88.0928 24.158 88.0928 22.4778 88.0565 20.7854C88.0323 19.9513 87.354 19.4436 86.7 19.4557C86.0459 19.4678 85.5372 20.0843 85.5251 20.8942C85.517 21.4337 85.5197 21.9678 85.5224 22.5037Z" fill="#00827A"/>
</svg>
