<svg width="124" height="124" viewBox="0 0 124 124" fill="none" xmlns="http://www.w3.org/2000/svg">
<path d="M0.557968 57.4266C0.322798 57.4052 0.109007 57.2341 0.130386 56.9989C0.130386 56.4001 0.25866 55.9723 0.301418 55.3094C0.365555 54.2401 0.600725 53.1922 0.750379 52.1229C1.07107 49.7277 1.60554 47.3967 2.2683 45.0871C3.1876 41.7509 4.44896 38.5217 5.90274 35.378C7.22825 32.5337 8.78892 29.8177 10.542 27.2087C11.8248 25.2626 13.2572 23.4448 14.7751 21.6698C15.9082 20.3225 17.0626 19.018 18.324 17.799C20.9536 15.2541 23.7329 12.9017 26.7474 10.8273C29.2273 9.11645 31.8142 7.57668 34.5294 6.22939C38.8693 4.09083 43.4017 2.44413 48.1051 1.37485C50.3713 0.861598 52.6588 0.498043 54.9678 0.22003C56.8919 -0.0152121 58.816 0.0275591 60.7401 0.0061735C62.258 -0.0152121 63.776 0.0275591 65.2725 0.0061735C67.6883 -0.0365977 70.0828 0.326958 72.4559 0.711899C74.6152 1.05407 76.7531 1.54594 78.8482 2.12335C81.3068 2.7863 83.6799 3.66311 86.0316 4.62547C89.9653 6.25077 93.6639 8.30379 97.1701 10.699C99.2653 12.1318 101.296 13.693 103.156 15.4252C104.097 16.302 105.102 17.1147 106 18.0343C107.838 19.959 109.613 21.9478 111.238 24.0864C113.418 26.9093 115.321 29.9033 116.967 33.047C119.041 36.9819 120.666 41.088 121.842 45.3651C122.483 47.6961 122.975 50.0699 123.36 52.4651C123.616 54.0476 123.83 55.6516 123.873 57.2769V57.2983C123.873 57.4693 123.744 57.5976 123.573 57.5976C122.825 57.5763 121.948 57.5549 121.179 57.5549C120.473 57.5549 119.789 57.5549 119.084 57.448C118.891 57.4266 118.849 57.341 118.784 57.1699C118.592 56.6139 118.635 56.0151 118.571 55.4591C118.378 53.6413 118.057 51.8449 117.694 50.0485C117.245 47.8244 116.625 45.6217 115.877 43.4831C114.402 39.2274 112.456 35.2069 110.019 31.4216C108.843 29.5825 107.624 27.7647 106.171 26.118C105.209 25.0274 104.418 23.787 103.37 22.7605C100.099 19.5526 96.6784 16.5373 92.7874 14.0779C89.1743 11.7897 85.3902 9.84356 81.3709 8.38934C79.7675 7.81192 78.1213 7.4056 76.5393 6.74264C75.8765 6.46463 75.1283 6.46463 74.4227 6.40047C73.3752 6.31493 72.3703 5.9086 71.3228 5.84445C69.0138 5.73752 66.7477 5.20288 64.4173 5.22427C62.6856 5.24565 60.9539 5.05318 59.2436 5.16011C57.2126 5.30981 55.1816 5.30981 53.1505 5.69475C51.5685 5.99415 50.0078 6.48602 48.4471 6.74264C46.6941 7.04204 45.0051 7.5553 43.3589 8.13271C37.6293 10.1002 32.3701 12.9445 27.5598 16.6228C25.5929 18.1198 23.7115 19.7237 21.9798 21.4987C20.9322 22.5894 19.6923 23.4876 18.7943 24.7493C17.4902 26.5671 16.0151 28.2566 14.7751 30.1171C12.1241 34.1162 9.94339 38.3506 8.31858 42.8843C7.3779 45.5362 6.62963 48.2521 6.07378 51.0109C5.77447 52.4651 5.51792 53.9407 5.41102 55.4377C5.38964 55.8654 5.32551 56.3145 5.30413 56.7422C5.23999 57.3838 5.0262 57.5335 3.97862 57.5549C3.31587 57.5763 2.65312 57.5763 1.99037 57.5549C1.52003 57.4907 1.11382 57.4693 0.557968 57.4266Z" fill="#008B45"/>
<path fill-rule="evenodd" clip-rule="evenodd" d="M56.9338 124C56.6105 123.8 56.2541 123.799 55.9042 123.799C55.7682 123.798 55.6331 123.798 55.5014 123.786C50.52 123.252 45.6884 122.097 41.0063 120.429C36.5167 118.825 32.2195 116.793 28.1575 114.27C25.7417 112.773 23.4541 111.147 21.2521 109.372C19.1569 107.683 17.19 105.865 15.3942 103.876C13.2349 101.481 11.1825 98.9788 9.42942 96.2629C7.01358 92.5418 5.06808 88.5854 3.52879 84.4152C2.50259 81.6351 1.75432 78.7908 1.15571 75.9037C0.792265 74.1501 0.578475 72.3751 0.364684 70.6001C0.114555 68.5828 0.0816217 66.5656 0.0485515 64.5399C0.0363962 63.7954 0.0242225 63.0497 0.00123816 62.3025C-0.04152 60.8483 1.02744 59.8004 2.54535 59.779C3.42918 59.7647 4.32251 59.7695 5.21267 59.7742H5.21583C5.65962 59.7766 6.10261 59.779 6.54324 59.779C7.06198 59.779 7.58277 59.7732 8.10419 59.7675C9.3234 59.754 10.5468 59.7405 11.7597 59.8004C13.5342 59.8859 15.3087 60.0356 17.0618 60.2495C19.1783 60.5061 21.2734 60.8055 23.3686 61.2332C26.7251 61.9175 29.9961 62.8585 33.1816 64.1417C36.6023 65.5103 39.8305 67.2426 42.8663 69.3597C44.3201 70.3863 45.6884 71.5197 47.0353 72.6959C48.2966 73.8293 49.4511 75.0483 50.5842 76.3101C51.76 77.6146 52.829 79.026 53.8124 80.4803C56.271 84.0944 58.2165 87.9866 59.7131 92.0927C60.5896 94.4878 61.3165 96.9044 61.8937 99.3852C61.8985 99.3948 61.9045 99.4044 61.9114 99.4148C61.9154 99.4207 61.9198 99.4269 61.9245 99.4335L61.9292 99.44L61.9365 99.45C61.9587 99.4805 61.9872 99.5196 62.022 99.5776C62.1421 99.1341 62.2622 98.6986 62.3805 98.2693L62.3808 98.2684C62.5363 97.7045 62.6888 97.1513 62.8344 96.605C63.4972 94.1243 64.3951 91.7291 65.3785 89.3553C66.7682 86.0619 68.4785 82.9182 70.5523 79.9884C71.5998 78.4914 72.7543 77.1013 73.9729 75.7327C76.175 73.2519 78.6336 71.1134 81.3487 69.2314C83.6576 67.6061 86.1162 66.2374 88.6604 65.0826C92.1665 63.5001 95.8223 62.3239 99.5851 61.4898C101.509 61.0621 103.455 60.72 105.4 60.4419C106.481 60.2851 107.561 60.185 108.653 60.0839L108.857 60.065L108.968 60.0547C109.111 60.0414 109.254 60.0279 109.398 60.0142C111.686 59.8004 113.973 59.8004 116.261 59.8004C116.851 59.8004 117.445 59.798 118.038 59.7956C119.228 59.7909 120.422 59.7861 121.606 59.8004C122.76 59.8218 123.551 60.4419 124 61.4898V67.4137C123.893 67.8721 123.895 68.3524 123.897 68.8233C123.898 69.0114 123.899 69.198 123.893 69.3811C123.808 71.6266 123.423 73.8293 122.995 76.0321C122.204 80.1167 120.964 84.0944 119.297 87.9225C117.159 92.8412 114.379 97.3535 110.959 101.481C109.419 103.32 107.795 105.095 106.042 106.742C102.728 109.843 99.1147 112.537 95.2237 114.868C87.9976 119.167 80.2584 122.033 71.9633 123.444C70.424 123.701 68.9061 123.936 67.3454 123.914C67.2599 123.914 67.1744 123.914 67.1316 123.979C63.7122 124 60.3354 124 56.9374 124H56.9338ZM64.5241 115.831C64.6635 115.019 64.7127 114.261 64.7609 113.519V113.519C64.794 113.009 64.8266 112.508 64.8876 112.003C64.9838 111.274 65.0623 110.545 65.1403 109.822L65.1403 109.821L65.1404 109.82C65.1836 109.419 65.2266 109.02 65.2724 108.624C65.5289 106.464 65.9137 104.325 66.3841 102.208C66.9186 99.7487 67.5599 97.3107 68.3937 94.9155C69.8689 90.6598 71.793 86.6393 74.3799 82.9396C75.4061 81.4853 76.5392 80.0953 77.715 78.7694C80.0667 76.1389 82.7819 73.979 85.7322 72.0971C88.1694 70.5359 90.799 69.3169 93.4928 68.269C96.5928 67.0928 99.7782 66.2588 103.028 65.66C104.567 65.3606 106.128 65.1467 107.71 64.997C108.998 64.8614 110.299 64.7795 111.593 64.6982C111.931 64.6769 112.269 64.6556 112.606 64.6335C113.857 64.545 115.108 64.5536 116.354 64.5622H116.355C117.217 64.5682 118.077 64.5742 118.934 64.5479C119.19 64.5479 119.297 64.6121 119.297 64.8901C119.287 65.1581 119.278 65.4247 119.268 65.6907C119.24 66.5074 119.212 67.318 119.148 68.1407C119.108 68.7322 119.028 69.3237 118.948 69.9202L118.948 69.9212C118.897 70.2948 118.847 70.6705 118.806 71.0492C118.613 72.8028 118.293 74.5564 117.908 76.2886C117.224 79.4323 116.283 82.4691 115.022 85.4203C113.888 88.0507 112.584 90.617 111.002 93.0336C109.249 95.7282 107.304 98.2731 105.123 100.625C101.318 104.71 96.9776 108.11 92.1673 110.955C88.7466 112.965 85.1549 114.612 81.4136 115.938C78.4419 117.007 75.4061 117.798 72.3061 118.418C71.002 118.696 69.6979 118.932 68.3723 118.996C68.4032 118.841 68.5231 118.743 68.6437 118.644L68.644 118.643C68.6738 118.619 68.7037 118.594 68.7322 118.569C68.7482 118.555 68.7637 118.54 68.7785 118.525C71.8721 115.431 74.9633 112.336 78.0538 109.242C84.2324 103.057 90.4078 96.8751 96.5928 90.7025L101.296 85.9977C102.301 84.9926 102.344 83.4528 101.382 82.5332C100.42 81.6137 98.8803 81.635 97.8969 82.6188C95.9828 84.5334 94.0714 86.4481 92.1607 88.3621L92.1582 88.3645C86.4294 94.1031 80.7066 99.8357 74.9357 105.544C73.2468 107.223 71.5525 108.891 69.8582 110.559C68.1639 112.227 66.4696 113.895 64.7807 115.574C64.7807 115.607 64.7429 115.64 64.6383 115.731C64.6066 115.758 64.5688 115.791 64.5241 115.831ZM57.7972 114.153C58.3141 114.677 58.8312 115.201 59.3494 115.724C59.2761 115.235 59.2865 114.753 59.297 114.271C59.3049 113.908 59.3127 113.546 59.2852 113.179C59.2596 112.901 59.2348 112.623 59.21 112.345C59.1108 111.233 59.0116 110.121 58.8577 109.009C58.537 106.592 58.1094 104.175 57.5749 101.78C56.3777 96.3911 54.5818 91.2158 51.8453 86.404C49.4936 82.2552 46.5861 78.5555 42.9089 75.476C40.0868 73.1022 37.051 71.1561 33.7158 69.5949C30.509 68.0979 27.1952 67.0073 23.7746 66.216C21.2946 65.6386 18.7932 65.2537 16.2491 64.9543C14.4105 64.7404 12.5933 64.6335 10.7547 64.5266C9.56501 64.4435 8.37533 64.459 7.18565 64.4744C6.53672 64.4829 5.8878 64.4913 5.23888 64.4838C4.83267 64.4838 4.72578 64.6121 4.74716 64.997C4.83267 66.5796 4.93957 68.1621 5.08922 69.7233C5.30301 71.8618 5.64508 73.9576 6.07266 76.032C6.82093 79.582 7.93264 83.0251 9.42918 86.3399C10.7547 89.2697 12.3367 92.0712 14.1753 94.723C15.7574 97.0113 17.5105 99.1499 19.4132 101.16C20.9953 102.85 22.727 104.368 24.5228 105.844C27.7938 108.517 31.3214 110.762 35.0627 112.687C37.7137 114.056 40.4503 115.189 43.2723 116.13C46.8426 117.306 50.2633 118.333 55.6936 118.889C55.6185 118.789 55.5141 118.71 55.4104 118.633C55.337 118.578 55.2639 118.523 55.2018 118.461L48.8309 112.088L22.7697 86.0191C21.7222 84.9712 21.658 83.4528 22.6201 82.5118C23.6035 81.5495 25.1428 81.6137 26.1476 82.6188C27.017 83.4884 27.884 84.3604 28.751 85.2324C30.4851 86.9766 32.2193 88.7208 33.9724 90.4459C36.2733 92.7235 38.5562 95.0191 40.8391 97.3147C44.6439 101.141 48.4487 104.967 52.337 108.709C54.1825 110.489 55.9891 112.32 57.7972 114.153Z" fill="#008B45"/>
<path d="M91.5153 60.6748C90.9383 60.978 90.838 60.7355 90.7377 60.3514L89.8347 57.0164C89.6891 56.5062 89.5393 55.9977 89.3896 55.4894C89.0233 54.2458 88.6574 53.0035 88.3547 51.7409C88.0286 50.3462 87.0002 49.5175 85.3948 49.1334C84.6766 48.9641 83.9339 48.8637 83.1923 48.7634C82.8721 48.7202 82.552 48.6769 82.2343 48.6281C81.9092 48.5774 81.5834 48.5267 81.2575 48.4759C79.2447 48.1625 77.2185 47.847 75.2109 47.5164L75.1707 47.5124C74.9902 47.4939 74.8563 47.4801 74.8095 47.5367C74.7055 47.6205 74.7568 47.7739 74.7773 47.8353C74.7815 47.8479 74.7845 47.8566 74.7845 47.8601C74.7845 48.4007 74.7902 49.1902 74.7962 50.0152C74.8027 50.9175 74.8095 51.8621 74.8095 52.5696C74.8095 53.1962 75.0353 53.7217 75.838 53.7419H77.0921C77.9952 53.7621 78.7728 54.3685 78.7978 55.1164C78.9185 58.715 78.812 64.881 78.7855 66.4133L78.7834 66.5377C78.7797 66.7508 78.5325 66.9419 78.5325 66.9419C77.4851 67.8972 76.7767 68.5589 76.6513 68.66C76.4849 68.66 76.408 68.3932 76.4004 68.3568V57.341C76.4004 56.5325 75.9383 55.2781 74.8095 55.2781H48.3067C47.0078 55.2781 47.0525 56.5325 47.0525 57.341V68.5589C47.0343 68.6236 46.9271 68.7611 46.8017 68.7611C46.6763 68.66 46.6197 68.5395 46.5054 68.4076C45.9704 67.7903 45.1713 66.9419 45.1713 66.9419C45.1713 66.9419 44.6696 66.6487 44.6696 66.3356C44.6728 64.7374 44.7739 58.6805 44.7593 55.2781C44.7844 54.5302 45.5871 53.8026 46.5403 53.8026H47.7694C48.572 53.8026 49.1991 53.277 49.1991 52.6504L49.174 47.6781C49.2744 47.4356 48.9483 47.476 48.7978 47.5164C47.067 47.7792 45.3613 48.042 43.6306 48.3249C43.2292 48.3906 42.8279 48.4576 42.4265 48.5246C41.2225 48.7254 40.0185 48.9263 38.8145 49.093C37.2844 49.3154 35.8546 50.3664 35.5536 51.7409C35.3403 52.7592 35.041 53.7602 34.7402 54.7665C34.5812 55.2983 34.4218 55.8315 34.2744 56.3696L34.274 56.3707C33.8979 57.7246 33.5217 59.0784 33.1707 60.4323C33.0703 60.8365 32.9198 61.0791 32.3429 60.7759C32.1699 60.6922 32.0058 60.5965 31.8424 60.5013C31.5321 60.3203 31.2245 60.1409 30.863 60.0482C30.5897 59.9682 30.6117 59.8088 30.6365 59.629L30.6372 59.6238C31.0008 58.3507 31.3644 57.0828 31.7281 55.8148L31.7283 55.8138C32.0921 54.5454 32.4558 53.2771 32.8195 52.0036C32.8403 51.9245 32.8608 51.8453 32.8813 51.7662L32.8814 51.766C33.0333 51.1787 33.1843 50.5952 33.4717 50.043C34.475 48.1632 36.3563 47.3143 38.7643 46.9505C40.5592 46.681 42.3542 46.3955 44.1491 46.11C46.3926 45.7532 48.6362 45.3964 50.8797 45.0707C51.0844 45.0432 51.289 45.0008 51.4952 44.9581C52.0471 44.8436 52.6099 44.7269 53.2125 44.8888C53.965 45.0909 54.3664 45.4952 54.4667 46.0611C54.5921 46.6675 54.2911 47.1728 53.664 47.5367C53.56 47.5943 53.4561 47.6546 53.3517 47.7151C53.0531 47.8884 52.7509 48.0637 52.4349 48.1835C52.0615 48.3189 52.0772 48.4767 52.0993 48.6986C52.1069 48.7748 52.1152 48.8585 52.1088 48.9515C52.0085 50.4675 52.0085 51.7812 52.0085 52.6504C52.0085 53.277 52.6607 53.8026 53.4383 53.8026H70.3697C71.1724 53.8026 71.7995 53.277 71.7995 52.6504C71.7995 52.323 71.8078 51.9241 71.8166 51.5011C71.8453 50.1225 71.8793 48.4868 71.649 48.2239C71.4356 47.9858 71.1147 47.8602 70.7919 47.7339C70.6215 47.6672 70.4505 47.6003 70.2945 47.5164C69.5169 47.092 69.2159 46.3643 69.542 45.7377C69.9433 44.9697 70.6206 44.7069 71.6741 44.8686C73.0892 45.084 74.5042 45.3014 75.9201 45.5188C79.0217 45.9953 82.1271 46.4723 85.2443 46.9303C88.5052 47.4154 90.3363 48.8909 91.0136 51.559C91.3146 52.7718 91.6579 53.9846 92.0013 55.1974C92.1157 55.6016 92.2301 56.0058 92.343 56.41C92.4931 56.9341 92.6432 57.4633 92.7933 57.9925L92.7945 57.9966C92.945 58.5272 93.0955 59.0578 93.246 59.5834C93.2962 59.7451 93.246 59.8865 92.9952 59.9472C92.5625 60.074 92.1915 60.2877 91.8217 60.5008C91.7199 60.5594 91.6181 60.6181 91.5153 60.6748Z" fill="#008B45"/>
<path d="M82.5739 27.7883C82.529 27.7883 82.529 27.7671 82.529 27.7246C82.3717 26.5787 81.8324 25.6025 81.0684 24.7112C79.8325 23.2894 78.327 22.2071 76.5743 21.4219C75.7879 21.0612 75.271 20.5307 74.8891 19.7879C74.1026 18.1751 73.4285 16.5199 72.7319 14.8646C72.1701 13.5489 71.6758 12.212 70.9792 10.9599C70.5298 10.1323 70.013 9.34712 69.2939 8.71048C68.53 8.03141 67.6536 7.69187 66.5975 7.88286C65.9908 7.98896 65.4515 8.30728 64.9347 8.6256C64.328 9.00758 63.8112 9.47444 63.182 9.8352C62.418 10.2808 61.654 10.2596 60.89 9.81398C60.6429 9.66543 60.3957 9.49566 60.1485 9.30467C59.5868 8.88025 59.025 8.47705 58.3958 8.17995C57.879 7.9253 57.3173 7.77675 56.733 7.81919C56.014 7.88286 55.4298 8.20117 54.9129 8.64682C54.0366 9.432 53.4299 10.4082 52.9356 11.4268C52.239 12.8486 51.6997 14.3341 51.093 15.7771C50.5088 17.1777 49.947 18.5995 49.2055 19.9365C48.846 20.5519 48.3965 21.0612 47.7 21.3158C47.5651 21.3583 47.4303 21.4432 47.2955 21.5068C45.6552 22.3132 44.2171 23.3318 43.0261 24.69C41.8352 26.0482 41.3409 27.6185 41.588 29.4011C41.7229 30.356 42.1723 31.1837 42.734 31.9688C43.7002 33.2846 44.9811 34.2395 46.3967 35.0459C47.7899 35.8523 49.2954 36.4253 50.8233 36.9346C50.9806 36.9983 51.0705 37.0619 51.1379 37.2105C51.812 38.6323 52.5086 40.0329 53.3625 41.3698C54.3062 42.8765 55.3848 44.2771 56.8004 45.423C57.9464 46.3356 59.2272 46.9934 60.6878 47.2693C60.89 47.3117 61.1147 47.2693 61.317 47.3754H61.654C61.8338 47.333 62.036 47.3754 62.2158 47.3542C62.3057 47.3542 62.3956 47.333 62.4854 47.3754H62.6203C62.6652 47.333 62.6877 47.3542 62.7326 47.3542C63.2719 47.3754 63.7662 47.2693 64.2606 47.0995C65.6313 46.6751 66.8222 45.9324 67.8558 44.9774C68.6648 44.2347 69.3614 43.3858 70.013 42.4945C71.159 40.8605 72.0578 39.0992 72.9117 37.3166C73.0015 37.1256 73.1139 37.0195 73.3161 36.9558C74.7093 36.4677 76.08 35.9584 77.3608 35.2581C78.6416 34.5578 79.8325 33.7514 80.7987 32.6691C81.6751 31.6718 82.3492 30.5895 82.5065 29.2738V28.913C82.4615 28.8281 82.4615 28.722 82.5065 28.6371V28.3613C82.4615 28.2551 82.4615 28.149 82.5065 28.0429V27.7883H82.5739ZM51.1829 19.7879C52.1266 17.8568 52.8681 15.862 53.6995 13.8884C54.1714 12.7849 54.6433 11.6814 55.3174 10.684C55.5196 10.387 55.7219 10.1323 55.9915 9.89887C56.5083 9.432 57.0701 9.32589 57.7442 9.64421C58.1711 9.8352 58.5307 10.1323 58.9127 10.387C59.4519 10.7902 60.0137 11.1721 60.6204 11.448C61.654 11.9149 62.6652 11.8937 63.6988 11.4056C64.3055 11.1085 64.8448 10.7053 65.4066 10.3233C65.7436 10.0686 66.0807 9.81398 66.4852 9.64421C67.0919 9.36834 67.6761 9.45322 68.1704 9.89887C68.8221 10.4931 69.2939 11.2146 69.6759 11.9785C70.4624 13.5277 71.0916 15.1405 71.7657 16.7321C72.1926 17.7295 72.6195 18.7269 73.0465 19.7243C73.0914 19.8304 73.1364 19.9152 73.1588 20.0426C65.8335 18.0266 58.4857 18.0266 51.1155 20.0213C51.1379 19.894 51.1379 19.8304 51.1829 19.7879ZM75.1587 31.8415C74.9789 32.7116 74.4621 33.2846 73.5858 33.5604C73.406 33.6241 73.2487 33.6665 73.069 33.709C72.8218 33.7514 72.6645 33.8787 72.5746 34.091C72.3274 34.6852 72.0578 35.2793 71.7881 35.8735C70.9343 37.8259 70.013 39.757 68.7771 41.5184C67.9457 42.7067 67.002 43.8102 65.7661 44.6591C64.6875 45.4018 63.4966 45.8687 62.1484 45.8899C60.7327 45.9111 59.4744 45.423 58.3509 44.5954C57.16 43.7466 56.2387 42.6643 55.4298 41.4971C54.1265 39.6297 53.1378 37.5712 52.239 35.4916C52.0367 35.0247 51.8345 34.579 51.6547 34.1122C51.5649 33.9 51.4076 33.7939 51.1829 33.7302C50.6211 33.6029 50.0818 33.4543 49.6549 33.0299C49.2729 32.6267 49.0482 32.1811 49.0257 31.6505C49.0032 31.2261 48.9583 30.8017 49.183 30.3773C49.4077 29.9316 49.7672 29.6982 50.2616 29.6557C50.5986 29.6345 50.9357 29.5921 51.2727 29.5921C51.4525 29.5921 51.475 29.5284 51.475 29.3799C51.475 28.913 51.475 28.4461 51.475 27.9581C51.475 27.8519 51.5199 27.7671 51.5873 27.6822C52.0817 27.1092 52.7333 26.7484 53.4524 26.4514C54.5534 26.0269 55.6769 25.7935 56.8454 25.6237C58.688 25.3479 60.5305 25.2842 62.2383 25.263C63.946 25.3054 65.5189 25.3691 67.0694 25.5601C68.6423 25.7511 70.1927 26.0906 71.6084 26.8121C72.0578 27.0455 72.4173 27.3639 72.7544 27.7246C72.8218 27.7883 72.8218 27.8519 72.8218 27.9368C72.8218 28.4461 72.8218 28.9767 72.8218 29.486C72.8218 29.6133 72.8667 29.6557 73.0015 29.6557C73.451 29.6557 73.9004 29.6133 74.3498 29.677C74.552 29.6982 74.7093 29.7831 74.8216 29.9528C75.0688 30.2712 75.2486 30.5895 75.2486 30.9927C75.2036 31.2685 75.2036 31.5656 75.1587 31.8415ZM80.2595 30.7592C79.6078 31.7991 78.6641 32.5843 77.6304 33.2633C77.0013 33.6665 76.3496 34.0273 75.6755 34.3456C75.6081 34.3881 75.5407 34.4093 75.4733 34.4305C75.4733 34.4093 75.4508 34.4093 75.4508 34.3881C75.5856 34.2395 75.7205 34.091 75.8553 33.9424C76.6642 33.0511 76.9338 31.9901 76.8215 30.8229C76.7316 30.0165 76.4395 29.295 75.8103 28.722C75.5182 28.4461 75.1587 28.2551 74.7542 28.1278C74.5745 28.0854 74.4621 27.9793 74.4396 27.8095C74.3498 27.1304 73.9228 26.6211 73.4285 26.1543C72.5746 25.3903 71.5185 24.9447 70.4175 24.6051C69.0018 24.1807 67.5637 23.9685 66.1032 23.8412C64.0584 23.6502 62.036 23.6289 59.9912 23.7138C57.9914 23.7987 56.014 23.9897 54.0815 24.5202C53.0254 24.8173 52.0143 25.1993 51.1155 25.8572C50.6211 26.2179 50.2166 26.6423 49.947 27.1729C49.8346 27.3851 49.7672 27.5973 49.7448 27.8307C49.7448 27.9793 49.6774 28.0642 49.5201 28.1066C48.1943 28.4886 47.5876 29.4223 47.3854 30.6531C47.1607 31.9901 47.5427 33.1572 48.5089 34.1334C48.5763 34.2183 48.6662 34.2819 48.7111 34.3881C48.6212 34.4093 48.5763 34.3456 48.5089 34.3244C47.4528 33.7939 46.3967 33.2421 45.4979 32.4569C44.8013 31.8627 44.1497 31.2049 43.7452 30.3773C42.9363 28.8069 43.0935 27.3002 44.1946 25.9208C45.3855 24.4566 46.9135 23.4167 48.6662 22.6528C50.8908 21.6554 53.2052 20.9975 55.6095 20.5943C58.0138 20.1911 60.4182 20.0213 62.845 20.085C65.3616 20.1487 67.8558 20.3609 70.3051 20.9339C72.6645 21.4856 74.9565 22.2496 77.0687 23.438C78.2147 24.0958 79.2033 24.9447 80.0348 25.942C81.2257 27.4275 81.2032 29.2738 80.2595 30.7592Z" fill="#008B45"/>
<path d="M53.3925 63.4146C54.3961 63.4146 55.2097 62.6007 55.2097 61.5968C55.2097 60.5929 54.3961 59.779 53.3925 59.779C52.3889 59.779 51.5753 60.5929 51.5753 61.5968C51.5753 62.6007 52.3889 63.4146 53.3925 63.4146Z" fill="#008B45"/>
<path d="M70.2823 63.4146C71.2859 63.4146 72.0995 62.6007 72.0995 61.5968C72.0995 60.5929 71.2859 59.779 70.2823 59.779C69.2787 59.779 68.4651 60.5929 68.4651 61.5968C68.4651 62.6007 69.2787 63.4146 70.2823 63.4146Z" fill="#008B45"/>
<path d="M91.5153 60.6748C90.9383 60.978 90.838 60.7355 90.7377 60.3514L89.8347 57.0164C89.6891 56.5062 89.5393 55.9977 89.3896 55.4894C89.0233 54.2458 88.6574 53.0035 88.3547 51.7409C88.0286 50.3462 87.0002 49.5175 85.3948 49.1334C84.6766 48.9641 83.9339 48.8637 83.1923 48.7634C82.8721 48.7202 82.552 48.6769 82.2343 48.6281C81.9092 48.5774 81.5834 48.5267 81.2575 48.4759C79.2447 48.1625 77.2185 47.847 75.2109 47.5164L75.1707 47.5124C74.9902 47.4939 74.8563 47.4801 74.8095 47.5367C74.7055 47.6205 74.7568 47.7739 74.7773 47.8353C74.7815 47.8479 74.7845 47.8566 74.7845 47.8601C74.7845 48.4007 74.7902 49.1902 74.7962 50.0152C74.8027 50.9175 74.8095 51.8621 74.8095 52.5696C74.8095 53.1962 75.0353 53.7217 75.838 53.7419H77.0921C77.9952 53.7621 78.7728 54.3685 78.7978 55.1164C78.9185 58.715 78.812 64.881 78.7855 66.4133L78.7834 66.5377C78.7797 66.7508 78.5325 66.9419 78.5325 66.9419C77.4851 67.8972 76.7767 68.5589 76.6513 68.66C76.4849 68.66 76.408 68.3932 76.4004 68.3568V57.341C76.4004 56.5325 75.9383 55.2781 74.8095 55.2781H48.3067C47.0078 55.2781 47.0525 56.5325 47.0525 57.341V68.5589C47.0343 68.6236 46.9271 68.7611 46.8017 68.7611C46.6763 68.66 46.6197 68.5395 46.5054 68.4076C45.9704 67.7903 45.1713 66.9419 45.1713 66.9419C45.1713 66.9419 44.6696 66.6487 44.6696 66.3356C44.6728 64.7374 44.7739 58.6805 44.7593 55.2781C44.7844 54.5302 45.5871 53.8026 46.5403 53.8026H47.7694C48.572 53.8026 49.1991 53.277 49.1991 52.6504L49.174 47.6781C49.2744 47.4356 48.9483 47.476 48.7978 47.5164C47.067 47.7792 45.3613 48.042 43.6306 48.3249C43.2292 48.3906 42.8279 48.4576 42.4265 48.5246C41.2225 48.7254 40.0185 48.9263 38.8145 49.093C37.2844 49.3154 35.8546 50.3664 35.5536 51.7409C35.3403 52.7592 35.041 53.7602 34.7402 54.7665C34.5812 55.2983 34.4218 55.8315 34.2744 56.3696L34.274 56.3707C33.8979 57.7246 33.5217 59.0784 33.1707 60.4323C33.0703 60.8365 32.9198 61.0791 32.3429 60.7759C32.1699 60.6922 32.0058 60.5965 31.8424 60.5013C31.5321 60.3203 31.2245 60.1409 30.863 60.0482C30.5897 59.9682 30.6117 59.8088 30.6365 59.629L30.6372 59.6238C31.0008 58.3507 31.3644 57.0828 31.7281 55.8148L31.7283 55.8138C32.0921 54.5454 32.4558 53.2771 32.8195 52.0036C32.8404 51.9244 32.8609 51.8451 32.8814 51.766C33.0333 51.1787 33.1843 50.5952 33.4717 50.043C34.475 48.1632 36.3563 47.3143 38.7643 46.9505C40.5592 46.681 42.3542 46.3955 44.1491 46.11C46.3926 45.7532 48.6362 45.3964 50.8797 45.0707C51.0844 45.0432 51.289 45.0008 51.4952 44.9581C52.0471 44.8436 52.6099 44.7269 53.2125 44.8888C53.965 45.0909 54.3664 45.4952 54.4667 46.0611C54.5921 46.6675 54.2911 47.1728 53.664 47.5367C53.56 47.5943 53.4561 47.6546 53.3517 47.7151C53.0531 47.8884 52.7509 48.0637 52.4349 48.1835C52.0615 48.3189 52.0772 48.4767 52.0993 48.6986C52.1069 48.7748 52.1152 48.8585 52.1088 48.9515C52.0085 50.4675 52.0085 51.7812 52.0085 52.6504C52.0085 53.277 52.6607 53.8026 53.4383 53.8026H70.3697C71.1724 53.8026 71.7995 53.277 71.7995 52.6504C71.7995 52.323 71.8078 51.9241 71.8166 51.5011C71.8453 50.1225 71.8793 48.4868 71.649 48.2239C71.4356 47.9858 71.1147 47.8602 70.7919 47.7339C70.6215 47.6672 70.4505 47.6003 70.2945 47.5164C69.5169 47.092 69.2159 46.3643 69.542 45.7377C69.9433 44.9697 70.6206 44.7069 71.6741 44.8686C73.0889 45.0839 74.5036 45.3012 75.9192 45.5187L75.9201 45.5188C79.0217 45.9953 82.1271 46.4723 85.2443 46.9303C88.5052 47.4154 90.3363 48.8909 91.0136 51.559C91.3146 52.7718 91.6579 53.9846 92.0013 55.1974C92.1157 55.6016 92.2301 56.0058 92.343 56.41C92.4935 56.9354 92.6438 57.4658 92.7943 57.9963L92.7945 57.9966L92.7965 58.004C92.9463 58.5321 93.0962 59.0603 93.246 59.5834C93.2962 59.7451 93.246 59.8865 92.9952 59.9472C92.5625 60.074 92.1915 60.2877 91.8217 60.5008C91.7199 60.5594 91.6181 60.6181 91.5153 60.6748Z" fill="#008B45"/>
<path d="M82.5739 27.7883C82.529 27.7883 82.529 27.7671 82.529 27.7246C82.3717 26.5787 81.8324 25.6025 81.0684 24.7112C79.8325 23.2894 78.327 22.2071 76.5743 21.4219C75.7879 21.0612 75.271 20.5307 74.8891 19.7879C74.1026 18.1751 73.4285 16.5199 72.7319 14.8646C72.1701 13.5489 71.6758 12.212 70.9792 10.9599C70.5298 10.1323 70.013 9.34712 69.2939 8.71048C68.53 8.03141 67.6536 7.69187 66.5975 7.88286C65.9908 7.98896 65.4515 8.30728 64.9347 8.6256C64.328 9.00758 63.8112 9.47444 63.182 9.8352C62.418 10.2808 61.654 10.2596 60.89 9.81398C60.6429 9.66543 60.3957 9.49566 60.1485 9.30467C59.5868 8.88025 59.025 8.47705 58.3958 8.17995C57.879 7.9253 57.3173 7.77675 56.733 7.81919C56.014 7.88286 55.4298 8.20117 54.9129 8.64682C54.0366 9.432 53.4299 10.4082 52.9356 11.4268C52.239 12.8486 51.6997 14.3341 51.093 15.7771C50.5088 17.1777 49.947 18.5995 49.2055 19.9365C48.846 20.5519 48.3965 21.0612 47.7 21.3158C47.5651 21.3583 47.4303 21.4432 47.2955 21.5068C45.6552 22.3132 44.2171 23.3318 43.0261 24.69C41.8352 26.0482 41.3409 27.6185 41.588 29.4011C41.7229 30.356 42.1723 31.1837 42.734 31.9688C43.7002 33.2846 44.9811 34.2395 46.3967 35.0459C47.7899 35.8523 49.2954 36.4253 50.8233 36.9346C50.9806 36.9983 51.0705 37.0619 51.1379 37.2105C51.812 38.6323 52.5086 40.0329 53.3625 41.3698C54.3062 42.8765 55.3848 44.2771 56.8004 45.423C57.9464 46.3356 59.2272 46.9934 60.6878 47.2693C60.89 47.3117 61.1147 47.2693 61.317 47.3754H61.654C61.8338 47.333 62.036 47.3754 62.2158 47.3542C62.3057 47.3542 62.3956 47.333 62.4854 47.3754H62.6203C62.6652 47.333 62.6877 47.3542 62.7326 47.3542C63.2719 47.3754 63.7662 47.2693 64.2606 47.0995C65.6313 46.6751 66.8222 45.9324 67.8558 44.9774C68.6648 44.2347 69.3614 43.3858 70.013 42.4945C71.159 40.8605 72.0578 39.0992 72.9117 37.3166C73.0015 37.1256 73.1139 37.0195 73.3161 36.9558C74.7093 36.4677 76.08 35.9584 77.3608 35.2581C78.6416 34.5578 79.8325 33.7514 80.7987 32.6691C81.6751 31.6718 82.3492 30.5895 82.5065 29.2738V28.913C82.4615 28.8281 82.4615 28.722 82.5065 28.6371V28.3613C82.4615 28.2551 82.4615 28.149 82.5065 28.0429V27.7883H82.5739ZM51.1829 19.7879C52.1266 17.8568 52.8681 15.862 53.6995 13.8884C54.1714 12.7849 54.6433 11.6814 55.3174 10.684C55.5196 10.387 55.7219 10.1323 55.9915 9.89887C56.5083 9.432 57.0701 9.32589 57.7442 9.64421C58.1711 9.8352 58.5307 10.1323 58.9127 10.387C59.4519 10.7902 60.0137 11.1721 60.6204 11.448C61.654 11.9149 62.6652 11.8937 63.6988 11.4056C64.3055 11.1085 64.8448 10.7053 65.4066 10.3233C65.7436 10.0686 66.0807 9.81398 66.4852 9.64421C67.0919 9.36834 67.6761 9.45322 68.1704 9.89887C68.8221 10.4931 69.2939 11.2146 69.6759 11.9785C70.4624 13.5277 71.0916 15.1405 71.7657 16.7321C72.1926 17.7295 72.6195 18.7269 73.0465 19.7243C73.0914 19.8304 73.1364 19.9152 73.1588 20.0426C65.8335 18.0266 58.4857 18.0266 51.1155 20.0213C51.1379 19.894 51.1379 19.8304 51.1829 19.7879ZM75.1587 31.8415C74.9789 32.7116 74.4621 33.2846 73.5858 33.5604C73.406 33.6241 73.2487 33.6665 73.069 33.709C72.8218 33.7514 72.6645 33.8787 72.5746 34.091C72.3274 34.6852 72.0578 35.2793 71.7881 35.8735C70.9343 37.8259 70.013 39.757 68.7771 41.5184C67.9457 42.7067 67.002 43.8102 65.7661 44.6591C64.6875 45.4018 63.4966 45.8687 62.1484 45.8899C60.7327 45.9111 59.4744 45.423 58.3509 44.5954C57.16 43.7466 56.2387 42.6643 55.4298 41.4971C54.1265 39.6297 53.1378 37.5712 52.239 35.4916C52.0367 35.0247 51.8345 34.579 51.6547 34.1122C51.5649 33.9 51.4076 33.7939 51.1829 33.7302C50.6211 33.6029 50.0818 33.4543 49.6549 33.0299C49.2729 32.6267 49.0482 32.1811 49.0257 31.6505C49.0032 31.2261 48.9583 30.8017 49.183 30.3773C49.4077 29.9316 49.7672 29.6982 50.2616 29.6557C50.5986 29.6345 50.9357 29.5921 51.2727 29.5921C51.4525 29.5921 51.475 29.5284 51.475 29.3799C51.475 28.913 51.475 28.4461 51.475 27.9581C51.475 27.8519 51.5199 27.7671 51.5873 27.6822C52.0817 27.1092 52.7333 26.7484 53.4524 26.4514C54.5534 26.0269 55.6769 25.7935 56.8454 25.6237C58.688 25.3479 60.5305 25.2842 62.2383 25.263C63.946 25.3054 65.5189 25.3691 67.0694 25.5601C68.6423 25.7511 70.1927 26.0906 71.6084 26.8121C72.0578 27.0455 72.4173 27.3639 72.7544 27.7246C72.8218 27.7883 72.8218 27.8519 72.8218 27.9368C72.8218 28.4461 72.8218 28.9767 72.8218 29.486C72.8218 29.6133 72.8667 29.6557 73.0015 29.6557C73.451 29.6557 73.9004 29.6133 74.3498 29.677C74.552 29.6982 74.7093 29.7831 74.8216 29.9528C75.0688 30.2712 75.2486 30.5895 75.2486 30.9927C75.2036 31.2685 75.2036 31.5656 75.1587 31.8415ZM80.2595 30.7592C79.6078 31.7991 78.6641 32.5843 77.6304 33.2633C77.0013 33.6665 76.3496 34.0273 75.6755 34.3456C75.6081 34.3881 75.5407 34.4093 75.4733 34.4305C75.4733 34.4093 75.4508 34.4093 75.4508 34.3881C75.5856 34.2395 75.7205 34.091 75.8553 33.9424C76.6642 33.0511 76.9338 31.9901 76.8215 30.8229C76.7316 30.0165 76.4395 29.295 75.8103 28.722C75.5182 28.4461 75.1587 28.2551 74.7542 28.1278C74.5745 28.0854 74.4621 27.9793 74.4396 27.8095C74.3498 27.1304 73.9228 26.6211 73.4285 26.1543C72.5746 25.3903 71.5185 24.9447 70.4175 24.6051C69.0018 24.1807 67.5637 23.9685 66.1032 23.8412C64.0584 23.6502 62.036 23.6289 59.9912 23.7138C57.9914 23.7987 56.014 23.9897 54.0815 24.5202C53.0254 24.8173 52.0143 25.1993 51.1155 25.8572C50.6211 26.2179 50.2166 26.6423 49.947 27.1729C49.8346 27.3851 49.7672 27.5973 49.7448 27.8307C49.7448 27.9793 49.6774 28.0642 49.5201 28.1066C48.1943 28.4886 47.5876 29.4223 47.3854 30.6531C47.1607 31.9901 47.5427 33.1572 48.5089 34.1334C48.5763 34.2183 48.6662 34.2819 48.7111 34.3881C48.6212 34.4093 48.5763 34.3456 48.5089 34.3244C47.4528 33.7939 46.3967 33.2421 45.4979 32.4569C44.8013 31.8627 44.1497 31.2049 43.7452 30.3773C42.9363 28.8069 43.0935 27.3002 44.1946 25.9208C45.3855 24.4566 46.9135 23.4167 48.6662 22.6528C50.8908 21.6554 53.2052 20.9975 55.6095 20.5943C58.0138 20.1911 60.4182 20.0213 62.845 20.085C65.3616 20.1487 67.8558 20.3609 70.3051 20.9339C72.6645 21.4856 74.9565 22.2496 77.0687 23.438C78.2147 24.0958 79.2033 24.9447 80.0348 25.942C81.2257 27.4275 81.2032 29.2738 80.2595 30.7592Z" fill="#008B45"/>
<path d="M53.3919 63.4146C54.3955 63.4146 55.2091 62.6008 55.2091 61.5968C55.2091 60.5929 54.3955 59.7791 53.3919 59.7791C52.3882 59.7791 51.5746 60.5929 51.5746 61.5968C51.5746 62.6008 52.3882 63.4146 53.3919 63.4146Z" fill="#008B45"/>
<path d="M70.2816 63.4146C71.2852 63.4146 72.0988 62.6008 72.0988 61.5968C72.0988 60.5929 71.2852 59.7791 70.2816 59.7791C69.278 59.7791 68.4644 60.5929 68.4644 61.5968C68.4644 62.6008 69.278 63.4146 70.2816 63.4146Z" fill="#008B45"/>
</svg>
