<svg width="124" height="124" viewBox="0 0 124 124" fill="none" xmlns="http://www.w3.org/2000/svg">
<path d="M0.30279 61.825C0.797637 60.3371 1.87182 59.8049 3.38049 59.9016C3.93569 59.9379 4.50295 59.8411 5.07021 59.829C12.5774 59.6718 20.0001 60.2403 27.2779 62.2242C36.1852 64.6435 43.982 68.9619 50.2098 75.8932C54.7721 80.9737 57.9463 86.8526 60.1309 93.2879C60.7827 95.2113 61.2775 97.183 61.8448 99.1306C61.893 99.3725 62.0137 99.6023 62.1827 99.7838C62.3275 99.2394 62.4724 98.683 62.6172 98.1386C64.5 90.9412 67.4088 84.2277 71.9951 78.3125C77.6557 71.0062 85.0181 66.1313 93.708 63.204C97.8841 61.8008 102.181 60.9056 106.562 60.3976C111.559 59.829 116.592 59.6839 121.613 59.9379C122.638 59.9863 123.338 60.5185 123.725 61.4742C123.773 61.5951 123.833 61.7161 123.894 61.8492V65.2362C123.833 65.5144 123.797 65.7805 123.773 66.0587C123.652 69.4941 123.242 72.9296 122.542 76.2924C120.454 86.4897 116.036 95.5379 108.964 103.159C97.5099 115.521 83.2076 122.15 66.5277 123.771C65.6466 123.856 64.7776 123.88 63.8966 123.965C62.6896 123.965 61.4827 123.94 60.2757 123.94C59.9861 123.94 59.6964 123.928 59.3826 123.892C56.7756 123.59 54.1324 123.432 51.5495 122.973C43.7768 121.606 36.3179 118.836 29.5349 114.796C18.6242 108.276 10.3204 99.3846 5.21504 87.6389C2.53563 81.506 1.02696 75.0585 0.544179 68.3934C0.471762 67.4136 0.375207 66.4337 0.30279 65.4539V61.825ZM64.5 115.787L64.8018 115.993C64.9466 115.775 65.0552 115.533 65.2363 115.364C75.1815 105.409 85.1267 95.4532 95.0839 85.4978C96.0857 84.5059 97.0633 83.4898 98.0772 82.51C98.403 82.1713 98.8255 81.9535 99.2841 81.8689C99.7427 81.7963 100.213 81.8568 100.636 82.0745C101.481 82.4737 101.939 83.2963 101.915 84.2882C101.891 85.014 101.493 85.522 101.01 86.0059C90.1838 96.8201 79.3696 107.646 68.5433 118.473C68.3864 118.63 68.2416 118.799 67.9881 119.09C69.0381 118.945 69.8951 118.848 70.7399 118.715C78.4644 117.408 85.7301 114.832 92.4649 110.816C101.263 105.578 108.276 98.5741 113.104 89.4776C117.159 81.8326 119.006 73.619 119.319 65.0063C119.343 64.4499 119.102 64.3531 118.643 64.3773C115.095 64.5346 111.535 64.5951 107.986 64.8612C104.015 65.1515 100.129 65.9741 96.315 67.1595C89.2182 69.3611 82.9421 72.9417 77.8488 78.4335C73.0814 83.5745 69.9554 89.659 67.8553 96.3C66.5156 100.534 65.6587 104.888 65.1156 109.304C64.85 111.457 64.7052 113.622 64.5 115.787ZM55.979 119.102L56.0635 118.92C55.8945 118.739 55.7256 118.545 55.5445 118.376L23.2588 86.0784C23.0778 85.9091 22.9209 85.7397 22.764 85.5583C22.5226 85.2559 22.3657 84.9051 22.3053 84.518C22.245 84.143 22.2691 83.7438 22.4019 83.393C22.5347 83.0301 22.7519 82.7035 23.0295 82.4495C23.3192 82.1955 23.6692 82.014 24.0433 81.9414C25.021 81.7237 25.7451 82.1229 26.4089 82.7882C37.2714 93.6629 48.1339 104.526 58.9964 115.388C59.1654 115.57 59.3585 115.727 59.624 115.993C59.624 115.715 59.6361 115.606 59.624 115.485C59.3343 112.667 59.1291 109.836 58.7429 107.017C57.9946 101.489 56.5946 96.1306 54.3979 91.0017C49.5098 79.5584 41.2423 71.7078 29.4625 67.6555C21.6898 64.9701 13.6395 64.2322 5.4685 64.3652C4.96159 64.3773 4.86503 64.583 4.88917 65.0305C5.04607 68.4297 5.37195 71.8167 6.04783 75.1553C8.52207 87.3486 14.5809 97.4129 24.1037 105.384C31.6954 111.735 40.3974 115.848 50.0409 117.989C51.9961 118.424 53.9996 118.727 55.979 119.102Z" fill="#21297A"/>
<path d="M63.7725 124C63.1796 124 62.5747 123.988 61.994 123.988C61.4011 123.976 60.7841 123.976 60.1791 123.976C59.913 123.976 59.6226 123.964 59.2838 123.928C58.449 123.831 57.6021 123.746 56.7794 123.674C55.013 123.504 53.1982 123.323 51.4197 123.008C43.5918 121.641 36.1631 118.883 29.3394 114.819C23.7982 111.529 18.9466 107.622 14.9298 103.206C10.8042 98.6581 7.42863 93.4324 4.91209 87.6624C2.29876 81.6867 0.725924 75.203 0.241975 68.3927C0.19358 67.7153 0.133086 67.0258 0.0725925 66.3605C0.048395 66.0581 0.0241975 65.7557 0 65.4532V61.8001C0.471851 60.3727 1.50024 59.7316 3.14567 59.8284C3.48444 59.8526 3.8232 59.8163 4.16197 59.7921C4.37974 59.78 4.60962 59.7558 4.8274 59.7558C13.236 59.5743 20.5195 60.3606 27.1012 62.1509C36.6108 64.7275 44.1362 69.2032 50.113 75.8441C54.4806 80.6948 57.7352 86.3923 60.0703 93.2631C60.5179 94.5816 60.9051 95.9485 61.268 97.267C61.4374 97.8719 61.6068 98.4888 61.7883 99.1057C61.8367 99.2992 61.9214 99.4928 62.0424 99.65C62.1754 99.142 62.3085 98.6218 62.4416 98.1138C64.4984 90.2632 67.5836 83.7673 71.8544 78.2634C74.6371 74.6829 77.9159 71.5862 81.6181 69.058C85.1751 66.6145 89.2282 64.6307 93.6564 63.1428C97.6731 61.788 101.896 60.8687 106.554 60.3364C111.55 59.7679 116.632 59.6227 121.653 59.8768C122.693 59.9251 123.431 60.4574 123.831 61.4493C123.867 61.534 123.903 61.6187 123.94 61.7033C123.964 61.7396 123.976 61.788 124 61.8243V65.2476C123.94 65.5258 123.903 65.804 123.879 66.0702C123.758 69.5056 123.347 72.9531 122.645 76.3159C120.491 86.7431 115.918 95.7913 109.022 103.219C103.372 109.267 96.8746 114.093 89.7001 117.529C82.707 120.879 74.8791 122.996 66.4463 123.807C65.9986 123.855 65.551 123.879 65.1154 123.904C64.692 123.928 64.2443 123.952 63.8088 124C63.7967 124 63.7846 124 63.7725 124ZM0.108889 61.8364V65.4532C0.133086 65.7436 0.157284 66.046 0.181481 66.3484C0.241975 67.0137 0.302469 67.7032 0.350864 68.3927C0.846912 75.1788 2.41975 81.6505 5.02098 87.6261C9.95726 98.9484 18.1602 108.069 29.3999 114.722C36.2115 118.775 43.6281 121.521 51.4438 122.9C53.2103 123.214 55.0251 123.383 56.7915 123.565C57.6142 123.649 58.4611 123.722 59.2959 123.819C59.6347 123.843 59.913 123.855 60.1791 123.855C60.7841 123.855 61.4011 123.867 61.994 123.867C62.5868 123.879 63.2038 123.879 63.8088 123.879C64.2443 123.843 64.6799 123.807 65.1154 123.783C65.551 123.758 65.9986 123.722 66.4463 123.686C83.4813 122.041 97.782 115.109 108.949 103.098C115.821 95.6945 120.395 86.6705 122.548 76.2554C123.25 72.8926 123.661 69.4572 123.77 66.0339C123.794 65.7557 123.831 65.4774 123.891 65.1992V61.8364C123.879 61.8001 123.855 61.7638 123.843 61.7275C123.806 61.6428 123.758 61.5582 123.722 61.4735C123.335 60.53 122.645 60.0219 121.653 59.9735C116.632 59.7195 111.562 59.8768 106.578 60.4332C101.932 60.9654 97.7215 61.8848 93.7048 63.2275C84.7033 66.2516 77.3836 71.3321 71.9633 78.3118C67.7046 83.8036 64.6315 90.2873 62.5747 98.1259C62.4295 98.6823 62.2843 99.2267 62.1391 99.771L62.1149 99.8799L62.0424 99.7952C61.873 99.6017 61.7399 99.3718 61.6915 99.1178C61.51 98.513 61.3406 97.884 61.1712 97.2912C60.8083 95.9727 60.4211 94.6058 59.9735 93.2873C57.6384 86.4407 54.3959 80.7553 50.0404 75.9167C44.0757 69.2999 36.5745 64.8363 27.077 62.2598C20.4953 60.4937 13.2118 59.7074 4.8274 59.8889C4.60962 59.8889 4.37974 59.913 4.16197 59.9251C3.8232 59.9493 3.47234 59.9856 3.12148 59.9614C1.54864 59.8526 0.568641 60.4695 0.108889 61.8364ZM55.8962 119.162L55.8478 119.15C55.2187 119.041 54.5895 118.92 53.9725 118.823C52.6295 118.593 51.2382 118.351 49.8831 118.049C40.0347 115.859 31.2752 111.613 23.8587 105.432C19.0918 101.452 15.1476 96.9041 12.1471 91.8962C9.12245 86.864 6.96887 81.2392 5.7469 75.1667C5.14196 72.1668 4.7669 68.937 4.58542 65.0299C4.57332 64.8363 4.58542 64.6065 4.70641 64.4613C4.8032 64.3525 4.97258 64.3041 5.21456 64.292C14.6758 64.1468 22.3222 65.1992 29.2911 67.5822C35.1468 69.5902 40.2404 72.5902 44.4024 76.4973C48.5281 80.3682 51.8673 85.231 54.3233 90.9648C56.4406 95.9243 57.9167 101.319 58.6789 106.993C58.9451 108.952 59.1265 110.936 59.308 112.872C59.3927 113.718 59.4653 114.601 59.5621 115.46C59.5742 115.533 59.5621 115.605 59.5621 115.714C59.5621 115.787 59.5621 115.859 59.5621 115.968V116.113L59.4653 116.017C59.3322 115.884 59.2233 115.775 59.1145 115.69C59.0056 115.593 58.9209 115.509 58.8241 115.412C48.0078 104.622 37.01 93.6502 26.1575 82.8117C25.3832 82.0375 24.6693 81.7835 23.8466 81.9771C23.4837 82.0617 23.1449 82.2311 22.8545 82.473C22.5763 82.715 22.3585 83.0415 22.2375 83.3923C22.1165 83.7431 22.0802 84.1302 22.1407 84.4931C22.2012 84.856 22.3585 85.2068 22.5884 85.4971C22.7456 85.6786 22.9029 85.8479 23.0844 86.0173L55.4727 118.315C55.6058 118.448 55.7268 118.581 55.8478 118.714L56.0172 118.896L55.8962 119.162ZM6.92048 64.4008C6.36394 64.4008 5.8074 64.4008 5.23876 64.4129C5.02098 64.4129 4.88789 64.4613 4.8153 64.546C4.73061 64.6307 4.70641 64.7758 4.71851 65.0178C4.89999 68.9249 5.27505 72.1426 5.87999 75.1425C8.32393 87.2148 14.4096 97.3759 23.9555 105.347C31.3599 111.529 40.0952 115.763 49.9194 117.94C51.2745 118.242 52.6537 118.484 53.9967 118.714C54.6016 118.823 55.2187 118.932 55.8236 119.041L55.872 118.932L55.7631 118.811C55.6421 118.678 55.5211 118.545 55.388 118.412L23.0239 86.1141C22.8424 85.9447 22.673 85.7754 22.5158 85.5818C22.2738 85.2794 22.1044 84.9044 22.0318 84.5173C21.9713 84.1302 21.9955 83.7311 22.1286 83.3561C22.2617 82.9811 22.4795 82.6545 22.7819 82.3883C23.0723 82.1222 23.4353 81.9408 23.8224 81.8561C24.9476 81.6021 25.7098 82.1827 26.2543 82.727C37.1068 93.5776 48.1046 104.537 58.9209 115.327C59.0056 115.412 59.1024 115.496 59.1991 115.593C59.2717 115.666 59.3564 115.738 59.4411 115.823C59.4411 115.775 59.4411 115.738 59.4411 115.702C59.4411 115.593 59.4411 115.533 59.4411 115.46C59.3564 114.601 59.2717 113.718 59.187 112.872C59.0056 110.948 58.8241 108.952 58.5579 106.993C57.7836 101.319 56.3196 95.9364 54.2024 90.989C49.2903 79.5215 40.8937 71.6829 29.2427 67.679C22.7335 65.4532 15.5953 64.4008 6.92048 64.4008ZM67.7409 119.15L67.8497 119.029C67.9465 118.932 68.0191 118.835 68.0917 118.763C68.2127 118.629 68.3095 118.508 68.4184 118.412C79.271 107.585 90.1114 96.7711 100.964 85.9447C101.484 85.4367 101.823 84.9528 101.847 84.2754C101.884 83.3077 101.412 82.4972 100.601 82.1222C100.19 81.9166 99.7299 81.8561 99.2823 81.9287C98.8346 82.0013 98.4233 82.219 98.0966 82.5456C97.3586 83.2593 96.6327 83.9972 95.9188 84.7109C95.6406 84.9891 95.3744 85.2673 95.0961 85.5334C85.163 95.4405 75.0969 105.493 65.1759 115.4C65.0549 115.521 64.9702 115.654 64.8856 115.811C64.8372 115.884 64.8009 115.956 64.7525 116.029L64.7162 116.077L64.3411 115.823V115.787C64.4016 115.097 64.4621 114.42 64.5226 113.73C64.6436 112.279 64.7767 110.779 64.9581 109.315C65.5389 104.561 66.4342 100.303 67.7046 96.2751C70.0033 89.0172 73.2821 83.1746 77.7344 78.3844C82.6223 73.1345 88.6838 69.433 96.2697 67.0863C100.383 65.804 104.219 65.0541 107.981 64.7879C110.413 64.6065 112.893 64.5218 115.301 64.4371C116.402 64.4008 117.539 64.3525 118.664 64.3041C118.87 64.292 119.112 64.3041 119.257 64.4492C119.366 64.5581 119.415 64.7396 119.402 64.9936C119.076 74.2111 117.031 82.219 113.172 89.489C108.502 98.2831 101.533 105.468 92.4586 110.851C85.8527 114.771 78.5208 117.432 70.6567 118.763C70.088 118.859 69.5073 118.932 68.8781 119.017C68.5636 119.053 68.2369 119.101 67.8981 119.15H67.7409ZM99.6452 81.7714C99.9961 81.7714 100.335 81.8561 100.649 82.0134C101.508 82.4125 101.992 83.2593 101.956 84.2875C101.932 85.0012 101.569 85.5092 101.037 86.0415C90.184 96.8558 79.3436 107.682 68.491 118.508C68.3942 118.605 68.2974 118.714 68.1764 118.859C68.1401 118.908 68.0917 118.956 68.0433 119.004C68.3337 118.968 68.5999 118.932 68.866 118.896C69.4831 118.811 70.0638 118.738 70.6325 118.642C78.4724 117.323 85.7922 114.662 92.386 110.755C101.436 105.384 108.393 98.2106 113.051 89.4406C116.91 82.1948 118.943 74.199 119.269 65.0057C119.281 64.7758 119.245 64.6307 119.161 64.546C119.076 64.4613 118.919 64.425 118.664 64.4371C117.539 64.4855 116.402 64.5218 115.301 64.5702C112.905 64.6549 110.425 64.7395 107.993 64.921C104.243 65.1871 100.42 65.9371 96.306 67.2193C88.7443 69.554 82.6949 73.2434 77.8191 78.4812C73.3789 83.2593 70.1001 89.0898 67.8134 96.3235C66.5431 100.34 65.6478 104.598 65.067 109.339C64.8856 110.803 64.7646 112.303 64.6315 113.755C64.571 114.432 64.5105 115.109 64.45 115.775L64.6678 115.92C64.7041 115.871 64.7283 115.811 64.7646 115.763C64.8614 115.605 64.946 115.46 65.0791 115.327C75.0001 105.408 85.0663 95.3679 94.9993 85.4609C95.2776 85.1826 95.5438 84.9165 95.822 84.6383C96.5359 83.9246 97.2618 83.1867 97.9998 82.473C98.3386 82.1222 98.7741 81.9045 99.246 81.8198C99.3912 81.7835 99.5121 81.7714 99.6452 81.7714Z" fill="#21297A"/>
<path d="M59.102 43.982C59.102 40.8611 56.5733 38.3329 53.4519 38.3329C50.3304 38.3329 47.8018 40.8611 47.8018 43.982V45.6392C47.8018 48.7601 50.3304 51.2882 53.4519 51.2882C56.5733 51.2882 59.102 48.7601 59.102 45.6392V43.982Z" fill="#21297A"/>
<path d="M53.453 37.9704C55.4251 37.9704 57.0222 36.3737 57.0222 34.402C57.0222 32.4302 55.4251 30.8335 53.453 30.8335C51.4809 30.8335 49.8839 32.4302 49.8839 34.402C49.8839 36.3737 51.4809 37.9704 53.453 37.9704Z" fill="#21297A"/>
<path d="M76.1796 43.982C76.1796 40.8611 73.6509 38.3329 70.5294 38.3329C67.408 38.3329 64.8793 40.8611 64.8793 43.982V45.6392C64.8793 48.7601 67.408 51.2882 70.5294 51.2882C73.6509 51.2882 76.1796 48.7601 76.1796 45.6392V43.982Z" fill="#21297A"/>
<path d="M70.5306 37.9704C72.5027 37.9704 74.0997 36.3737 74.0997 34.402C74.0997 32.4302 72.5027 30.8335 70.5306 30.8335C68.5585 30.8335 66.9615 32.4302 66.9615 34.402C66.9615 36.3737 68.5585 37.9704 70.5306 37.9704Z" fill="#21297A"/>
<path d="M61.9472 38.1144C64.6936 38.1144 66.9198 35.8887 66.9198 33.1428C66.9198 30.3969 64.6936 28.1711 61.9472 28.1711C59.2008 28.1711 56.9746 30.3969 56.9746 33.1428C56.9746 35.8887 59.2008 38.1144 61.9472 38.1144Z" fill="#21297A"/>
<path d="M62.9017 38.3691H61.0022C57.179 38.3691 54.0817 41.4658 54.0817 45.2883V49.8728C54.0817 53.6953 57.179 56.792 61.0022 56.792H62.9017C66.7249 56.792 69.8222 53.6953 69.8222 49.8728V45.2883C69.8222 41.4658 66.7249 38.3691 62.9017 38.3691Z" fill="#21297A"/>
<path d="M61.9471 38.2353C59.1402 38.2353 56.8535 35.949 56.8535 33.1426C56.8535 30.3363 59.1402 28.05 61.9471 28.05C64.754 28.05 67.0407 30.3363 67.0407 33.1426C67.0407 35.949 64.754 38.2353 61.9471 38.2353ZM61.9471 28.292C59.2733 28.292 57.0955 30.4693 57.0955 33.1426C57.0955 35.816 59.2733 37.9933 61.9471 37.9933C64.6209 37.9933 66.7987 35.816 66.7987 33.1426C66.7987 30.4693 64.6209 28.292 61.9471 28.292Z" fill="#21297A"/>
<path d="M62.9016 56.912H61.0021C57.1184 56.912 53.9606 53.7548 53.9606 49.8719V45.2873C53.9606 41.4043 57.1184 38.2471 61.0021 38.2471H62.9016C66.7853 38.2471 69.9431 41.4043 69.9431 45.2873V49.8719C69.9431 53.7548 66.7853 56.912 62.9016 56.912ZM61.0021 38.4891C57.2515 38.4891 54.2026 41.5374 54.2026 45.2873V49.8719C54.2026 53.6218 57.2515 56.6701 61.0021 56.6701H62.9016C66.6522 56.6701 69.7011 53.6218 69.7011 49.8719V45.2873C69.7011 41.5374 66.6522 38.4891 62.9016 38.4891H61.0021Z" fill="#21297A"/>
<path d="M76.6495 66.033H48.8103C41.7568 66.033 36.022 60.3235 36.022 53.3075V34.1103C36.022 27.0944 41.7568 21.3848 48.8103 21.3848H76.6616C82.7473 21.3848 86.873 25.9331 87.974 33.8563L87.9861 33.9773V53.3801L87.974 53.4647C87.611 57.4929 86.5826 60.4686 84.8404 62.5492C82.9288 64.8717 80.1703 66.033 76.6495 66.033ZM48.8103 25.0138C43.7531 25.0138 39.6516 29.0903 39.6516 34.1103V53.3075C39.6516 58.3275 43.7652 62.404 48.8103 62.404H76.6495C80.0372 62.404 83.5942 61.3154 84.3564 53.2228V34.2434C83.7394 30.0096 81.9004 25.0138 76.6495 25.0138H48.8103Z" fill="#21297A"/>
<path d="M94.4343 54.0219L90.1755 48.8325C89.9698 48.5785 89.8247 47.9616 89.8247 47.2721V35.9377C89.8247 35.3449 89.9456 34.8127 90.1271 34.607L94.4343 29.6475C94.7246 29.3451 95.2691 30.7846 95.2691 31.8249V51.1067C95.2691 52.8849 94.7851 54.3848 94.4343 54.0219Z" fill="#21297A"/>
<path d="M94.5419 55.4622C94.1306 55.4622 93.7313 55.2929 93.4289 54.9905L93.3442 54.8937L89.0975 49.7043C88.5168 49.0027 88.4321 47.8777 88.4321 47.2608V35.9385C88.4321 35.37 88.5168 34.3297 89.0854 33.6886L93.4046 28.7048L93.4289 28.6806C93.8644 28.233 94.5056 28.1 95.0864 28.3298C96.5866 28.9346 96.6592 31.8015 96.6592 31.8257V51.1075C96.6592 51.9301 96.5624 52.7526 96.4051 53.43C96.2358 54.1558 95.9333 55.0268 95.1227 55.3534C94.9291 55.426 94.7355 55.4622 94.5419 55.4622ZM91.3116 48.0229L93.8765 51.1559C93.8765 51.1438 93.8765 51.1196 93.8765 51.1075V32.4063L91.2753 35.4184C91.2511 35.5151 91.2269 35.6845 91.2269 35.9385V47.2608C91.2148 47.6358 91.2753 47.9019 91.3116 48.0229ZM91.1906 35.5151C91.1785 35.5151 91.1785 35.5151 91.1906 35.5151V35.5151Z" fill="#21297A"/>
<path d="M32.1715 49.4851C34.071 49.4851 35.6075 47.6464 35.6075 45.965V37.9692C35.6075 36.2878 34.071 34.4007 32.1715 34.4007C30.272 34.4007 30.2478 35.9975 30.2478 37.6789V46.5093C30.2357 48.1786 30.272 49.4851 32.1715 49.4851Z" fill="#21297A"/>
<path d="M17.6275 26.1007C12.13 32.8844 8.99376 40.8349 8.99376 40.8349C8.06136 43.1804 6.35398 49.2304 5.88172 51.9728C5.73641 52.8027 5.31259 56.2668 5.28838 56.5194C5.28838 56.5194 5.28838 56.5434 5.28838 56.5555C5.27627 56.7118 5.21572 56.8682 5.11885 57.0005C5.02198 57.0847 4.87667 57.1208 4.64659 57.1208C3.21772 57.1328 1.80095 57.1929 0.299426 57.241C0.408408 56.1345 0.481063 54.9557 0.638481 53.789C1.25605 49.1101 2.28532 44.5275 4.02903 40.1373C11.8757 20.4596 26.0555 7.75803 46.5804 2.0207C50.7217 0.841957 54.972 0.276643 59.2707 0.12028C59.525 0.0962237 59.7914 0.0601398 60.0457 0H64.1628C65.1073 0.0841957 66.0397 0.168391 66.9842 0.240559C74.3345 0.793845 81.382 2.52587 88.0299 5.68922C105.564 14.0366 116.922 27.532 122.105 46.1753C123.061 49.6875 123.667 53.2959 123.885 56.9283C123.897 57.0486 123.885 57.1568 123.885 57.229C122.408 57.1809 120.967 57.1208 119.526 57.1087C119.32 57.1087 119.174 57.0726 119.09 56.9885C118.944 56.8561 118.557 53.9093 117.782 50.1927C117.176 47.2458 117.067 46.6324 116.922 45.9949C115.99 41.6889 113.968 37.5633 113.398 36.4086C113.398 36.4086 110.577 30.6713 106.06 25.4632C89.713 6.63943 65.3374 5.28027 65.3374 5.28027C41.5794 3.9572 24.2754 17.8856 17.6275 26.1007Z" fill="#21297A"/>
</svg>
