<svg width="137" height="137" viewBox="0 0 137 137" fill="none" xmlns="http://www.w3.org/2000/svg">
<path d="M69.1839 59.1462C68.476 59.1462 67.759 58.5375 67.759 57.8172C67.759 57.143 68.5758 56.5803 69.1678 56.5671C69.91 56.5671 70.6929 57.143 70.736 57.8172C70.774 58.4104 70.0534 59.1462 69.1839 59.1462Z" fill="#E44619"/>
<path d="M85.7278 74.2804C85.7758 73.254 84.5276 72.6224 83.5355 73.0566C79.967 74.6093 72.5038 79.1849 68.9513 80.764C68.6473 80.9087 68.4873 80.8955 68.1992 80.7508C67.3511 80.356 53.6323 73.6331 52.7682 73.2515C51.9041 72.8699 50.1984 72.6857 49.7663 73.2515C49.3342 73.8173 50.1218 74.8871 50.8579 75.2424C52.0741 75.8345 66.551 82.7904 67.7832 83.3431C68.0379 83.4618 68.3269 83.5221 68.6197 83.5175C68.9125 83.5128 69.1984 83.4435 69.4474 83.3167L84.6396 75.3067C85.1837 75.0699 85.6158 74.7278 85.7278 74.2804Z" fill="#E44619"/>
<path d="M100.84 63.6916L107.34 60.3195L112.525 57.7009C113.037 57.4378 113.005 57.2009 112.445 56.9509L101.996 52.3585C101.72 52.2306 101.452 52.09 101.196 51.9374C100.919 51.7622 100.733 51.507 100.677 51.2236C100.62 50.9402 100.697 50.6497 100.892 50.411C101.404 49.7926 102.092 49.6347 102.796 49.9373L116.574 56.0298C116.811 56.1233 117.031 56.2428 117.23 56.3851C117.966 56.9904 117.918 57.622 117.102 58.1615C112.525 60.3195 108.191 63.1097 103.497 65.4777C101.196 65.8856 100.2 64.3834 100.84 63.6916Z" fill="#E44619"/>
<path d="M34.3789 65.5764L27.8783 62.2043L22.6936 59.5857C22.1815 59.3225 22.2135 59.0857 22.7736 58.8356L27.2934 56.7291C27.5695 56.6012 30.5842 55.112 30.8411 54.9595C31.5757 54.4944 31.3916 53.7519 31.114 53.411C30.6019 52.7925 29.0891 53.1083 28.385 53.411L20.1981 57.3928C19.3794 57.8352 18.6666 58.1042 18.2877 58.72C17.9087 59.3358 17.7417 60.0473 18.8336 60.9321C23.4103 63.0901 27.0273 64.9945 31.7216 67.3625C34.0231 67.7704 35.019 66.2682 34.3789 65.5764Z" fill="#E44619"/>
<path fill-rule="evenodd" clip-rule="evenodd" d="M90.4758 47.4183C91.4679 47.8525 92.7161 47.2209 92.6681 46.1945C92.5561 45.7472 92.124 45.405 91.5799 45.1682L83.0809 41.1721C82.0613 41.1505 81.0418 42.0517 81.5422 43.2532C85.7252 45.144 88.7769 46.6791 90.4758 47.4183ZM57.1066 43.5536C58.1019 42.8026 57.5969 41.2635 55.8662 41.3485C51.2024 43.6085 47.764 45.1728 47.1879 45.4534C46.4518 45.8086 46.1798 46.5587 46.6119 47.1245C47.0439 47.6903 47.828 47.8745 48.6921 47.4929C49.1087 47.309 52.527 45.7674 57.1066 43.5536Z" fill="#E44619"/>
<path fill-rule="evenodd" clip-rule="evenodd" d="M73.816 73.2675C74.0881 73.4123 74.3281 73.5044 74.6161 73.4649C74.9224 73.5114 75.2388 73.4632 75.5046 73.3296C75.7704 73.1961 75.9668 72.9865 76.0563 72.7412C76.2643 72.228 76.2163 71.6885 75.5602 71.3464C75.3972 71.2605 75.2342 71.1743 75.0711 71.088C74.2093 70.6323 73.3438 70.1746 72.4558 69.7542C71.9277 69.5042 71.9277 69.3199 72.4238 69.0699L72.8078 68.8594C73.4575 68.5351 74.1111 68.2152 74.7649 67.8952C76.3658 67.1117 77.9675 66.3278 79.5127 65.4776C80.3608 65.0171 80.9529 65.0566 81.721 65.4908C82.4717 65.9023 83.2578 66.2846 84.0398 66.665C84.3081 66.7954 84.5758 66.9256 84.8414 67.0567C85.0803 67.1743 85.3529 67.2375 85.6313 67.2398C85.9098 67.2422 86.1839 67.1835 86.4256 67.0698C86.9857 66.8067 87.0977 66.4382 87.0657 65.8856C87.0364 65.3802 86.7798 65.238 86.2345 64.9357C86.1834 64.9073 86.1298 64.8776 86.0736 64.846C85.6362 64.6004 85.1845 64.3781 84.7329 64.1559C84.5071 64.0448 84.2813 63.9337 84.0573 63.8196C83.6733 63.6354 83.5292 63.438 84.0093 63.2012C86.4896 61.9511 88.9699 60.7011 91.4342 59.4247C91.7543 59.2668 91.9623 59.2931 92.2824 59.4378C92.9035 59.7124 93.5274 59.9824 94.1518 60.2527C95.0234 60.6299 95.8959 61.0075 96.763 61.3985C96.9686 61.4957 97.2001 61.55 97.4371 61.5569C97.6742 61.5638 97.9097 61.523 98.1232 61.438C98.3742 61.3622 98.5921 61.2265 98.7488 61.0484C98.9056 60.8702 98.9942 60.6577 99.0033 60.4379C99.0513 59.8458 98.8272 59.5957 98.0751 59.2273C97.6527 59.0204 97.2303 58.8425 96.7994 58.661C96.4631 58.5194 96.1216 58.3756 95.7708 58.2141L95.7652 58.2115C94.9699 57.8453 94.7968 57.7656 95.6908 57.293C96.0156 57.1213 96.3614 56.9462 96.7053 56.772C97.3104 56.4655 97.9099 56.1619 98.3792 55.885C99.1153 55.4508 99.1793 54.7271 98.7312 54.2139C98.2831 53.7007 97.4671 53.5954 96.699 53.9638C95.2908 54.6481 93.8826 55.3455 92.4904 56.0561C91.9783 56.3192 91.3382 56.2534 91.0182 56.0955C90.8148 55.9952 90.6049 55.9107 90.3926 55.8254C90.271 55.7764 90.1485 55.7272 90.0261 55.6745L79.1607 50.8584C78.7772 50.6895 78.3942 50.5211 78.0118 50.353C77.7755 50.2491 77.5394 50.1452 77.3034 50.0414C75.944 49.8614 74.9245 51.213 75.6042 52.0369L88.0578 57.5693C88.6179 57.8193 88.6499 58.0299 88.1218 58.293L81.2089 61.7537C80.7769 61.9774 80.3928 61.9643 79.9608 61.7406C77.0651 60.282 76.6498 60.058 73.7408 58.5998C73.2767 58.4156 72.3486 58.7182 72.0606 59.2314C71.7725 59.7446 71.9806 60.4947 72.5887 60.8105C74.957 62.0342 74.7601 61.9906 77.1604 63.188C77.6405 63.4249 77.6085 63.5433 77.2244 63.767L76.6964 64.0433C76.2045 64.294 75.7119 64.5446 75.219 64.7954C73.4349 65.7032 71.6473 66.6128 69.8795 67.5304C69.2714 67.833 68.6953 67.8593 68.1032 67.5435L53.0452 59.8983C52.2291 59.4772 51.349 59.7273 50.9169 60.3062C50.4849 60.8852 50.6929 61.5695 51.477 61.9642C52.9332 62.7077 54.3974 63.4446 55.8616 64.1815C57.3258 64.9184 58.79 65.6552 60.2462 66.3987L65.4469 69.0436C65.9749 69.3068 66.007 69.491 65.4309 69.7542C64.3907 70.2542 63.3826 70.7674 62.4065 71.32C61.7024 71.7148 61.5103 72.3596 61.9584 72.9254C62.4065 73.4912 63.2866 73.6491 64.0387 73.2807C65.4629 72.5833 66.9031 71.8727 68.3113 71.149C68.7753 70.899 69.1594 70.9121 69.6234 71.149C70.4315 71.5691 71.245 71.9758 72.0576 72.3822C72.645 72.6759 73.2319 72.9694 73.816 73.2675ZM62.6387 51.9039C63.3696 50.7625 62.5199 49.561 61.0066 49.8692C59.6147 50.4875 47.9078 56.0692 45.5449 57.1486C44.9688 57.4118 44.6808 57.7934 44.9048 58.4119C45.1288 59.0303 45.7529 59.3593 46.409 59.333C50.838 57.3965 59.7287 53.0874 62.6387 51.9039Z" fill="#E44619"/>
<path d="M36.3484 32.8497C35.0152 32.7999 33.7264 33.1888 32.5154 33.8471C32.3383 33.965 32.1388 34.0529 31.9266 34.1064C31.5711 34.1663 31.3155 33.9967 31.1711 33.7075C31.0266 33.4182 31.1489 33.119 31.4488 32.9295C32.571 32.2313 33.8042 31.7426 35.1596 31.583C38.4482 31.1941 41.2036 32.1815 43.4145 34.3458C44.9144 35.802 45.7254 37.5574 45.9921 39.5622C46.2587 41.5669 45.4699 43.6116 44.57 45.4967C42.6257 49.6159 40.0482 53.4259 37.3706 57.1761C36.7707 58.0139 36.3151 58.0139 35.7263 57.206C33.1931 53.7052 30.8267 50.1145 28.8824 46.3045C28.1491 44.8583 27.5159 43.3822 27.1492 41.8162C26.8493 40.5496 27.0381 39.3028 27.3825 38.086C27.4936 37.7269 27.7158 37.328 28.2491 37.4078C28.7824 37.4876 28.9713 37.8965 28.7935 38.4251C28.1491 40.4299 28.6046 42.3249 29.449 44.1801C31.2489 48.1796 33.6931 51.86 36.2262 55.5005C36.4707 55.8595 36.604 55.8595 36.8484 55.5104C39.2482 52.0794 41.5369 48.5985 43.3256 44.8683C43.8811 43.6814 44.4478 42.4746 44.5477 41.178C44.7477 38.6944 43.9256 36.5002 41.8591 34.7647C40.3481 33.4881 38.5482 32.7899 36.3484 32.8497Z" fill="#E44619"/>
<path d="M29.9601 35.4629C29.949 35.7421 29.4712 36.1411 29.1713 36.1211C28.8713 36.1012 28.3824 35.6424 28.4491 35.403C28.5158 35.1637 28.7824 34.8046 29.2157 34.7747C29.649 34.7448 29.9823 35.1836 29.9601 35.4629Z" fill="#E44619"/>
<path d="M33.9541 34.6318C34.6583 35.525 35.2317 36.2505 35.8638 37.0502C36.2265 36.5833 36.5172 36.205 36.9706 35.6207C38.4508 38.1325 40.8512 39.9834 41.518 42.7346C41.8834 44.2455 41.2593 45.6031 39.9097 46.5417C38.4802 47.533 36.4929 47.9089 34.7593 47.1211C33.0257 46.3333 31.9672 44.5591 32.5406 42.1336C32.6179 41.8127 33.0075 41.5455 32.2351 40.9708C31.3247 40.2934 30.903 39.21 31.5244 38.1445C32.2072 36.9688 33.0767 35.8817 33.9541 34.6318ZM36.8373 36.8299C35.5197 38.9179 34.2502 40.6802 33.274 42.5622C32.642 43.7809 33.4821 45.5313 34.6663 46.252C36.1145 47.1331 37.7067 47.126 39.1043 46.2304C40.8752 45.0955 41.3446 43.2901 40.1604 41.3961C39.2349 39.9187 38.0961 38.5443 36.8373 36.8299ZM34.0688 36.0326C32.0232 38.0894 31.1777 39.6817 33.162 40.6921C33.8981 39.7344 34.6396 38.7694 35.4077 37.7661C34.9756 37.2035 34.5489 36.6527 34.0688 36.0326Z" fill="#E44619"/>
<path d="M36.5036 45.6843C38.1066 45.318 39.3014 45.0495 39.3014 42.9667C40.0162 43.4887 40.0535 43.7832 39.6268 44.5709C39.0427 45.6532 37.9465 46.1201 36.5036 45.6843Z" fill="#E44619"/>
<path d="M97.5418 31.0951C96.6561 31.0535 95.8247 31.2616 95.0204 31.5863C94.5775 31.7694 94.2522 31.6779 94.1166 31.3032C93.9811 30.9286 94.2431 30.7538 94.5595 30.6122C97.6051 29.2885 101.283 30.1544 103.425 32.7935C104.481 34.0864 105.063 35.6548 105.088 37.2724C105.106 38.363 104.736 39.3953 104.311 40.4027C103.136 43.2166 101.527 45.8223 99.8373 48.3948C99.286 49.219 98.7257 50.0348 98.1564 50.8507C97.7316 51.4501 97.352 51.4585 96.9273 50.859C94.7312 47.7288 92.6526 44.5402 91.071 41.1019C90.5649 39.9947 90.104 38.8624 90.0136 37.647C89.9305 36.3981 90.2179 35.152 90.8451 34.0422C90.9716 33.8174 91.1885 33.6093 91.5319 33.7758C91.8753 33.9423 92.0471 34.1671 91.8573 34.5167C91.3302 35.5175 91.1024 36.6297 91.1975 37.7386C91.2608 38.6543 91.6042 39.5118 91.9748 40.361C93.3936 43.5745 95.3186 46.5383 97.3249 49.4687C97.4695 49.6935 97.5689 49.7684 97.7497 49.4937C99.6114 46.7464 101.428 43.9741 102.82 40.9937C103.29 39.9947 103.741 38.9707 103.877 37.8885C104.019 36.6809 103.77 35.4616 103.163 34.3836C102.142 32.5603 100.524 31.4531 98.31 31.1034C98.1751 31.0881 98.0388 31.0853 97.9033 31.0951L97.5418 31.0951Z" fill="#E44619"/>
<path d="M93.493 32.7018C93.4748 32.8327 93.4083 32.9537 93.3046 33.0447C93.2009 33.1356 93.0664 33.191 92.9237 33.2014C92.5803 33.218 92.3905 32.9682 92.3091 32.6935C92.2278 32.4188 92.6706 32.1024 92.9056 32.1108C93.1406 32.1191 93.484 32.4271 93.493 32.7018Z" fill="#E44619"/>
<path d="M97.6593 39.8282C97.6683 39.9364 97.6683 40.0613 97.5418 40.1113C97.4153 40.1612 97.4695 40.0447 97.4876 39.9864C97.5057 39.9281 97.596 39.8781 97.6593 39.8282Z" fill="#E44619"/>
<path fill-rule="evenodd" clip-rule="evenodd" d="M97.6593 39.8282C97.6769 39.7905 97.698 39.7542 97.7226 39.72C98.1021 39.0873 98.2738 38.4795 98.1112 37.7053C97.8581 36.5065 98.6896 35.6656 100.217 35.2993C100.967 35.1162 101.735 35.0995 102.503 35.0829C102.684 35.0829 102.892 35.0829 102.892 35.3243C102.892 35.4172 102.892 35.5101 102.893 35.6029C102.897 36.4755 102.901 37.3462 102.558 38.1965C101.961 39.6367 100.361 39.9697 99.0601 39.3537C98.7528 39.2038 98.6534 39.2787 98.5359 39.5202C98.0208 40.4942 97.831 41.5432 97.7768 42.6171C97.774 42.6495 97.7731 42.6832 97.7723 42.7171C97.7677 42.9012 97.763 43.0891 97.4424 43.075C97.1101 43.0604 97.1172 42.8672 97.1241 42.6796C97.1251 42.6529 97.1261 42.6264 97.1261 42.6005C97.1317 41.4195 96.949 40.2443 96.5839 39.1122C96.4212 38.6044 96.3579 38.5628 95.8337 38.6876C94.2612 39.0373 93.0683 38.338 92.6797 36.8894C92.4722 36.1391 92.381 35.3655 92.4086 34.5917C92.4086 34.3669 92.4899 34.2586 92.7429 34.2586C93.7642 34.242 94.7764 34.267 95.7614 34.6083C97.4334 35.1911 97.596 36.7063 97.0538 37.7969C96.9182 38.0633 96.8911 38.2631 97.0267 38.5211C97.2707 38.9874 97.3791 39.4869 97.4876 39.9864C97.5984 40.0272 97.6073 39.971 97.6164 39.9137C97.6221 39.8776 97.6278 39.8411 97.6593 39.8282ZM96.5206 37.5554C96.0416 36.9477 95.5626 36.4815 94.9571 36.1318C94.9348 36.1181 94.9127 36.1038 94.8906 36.0894C94.7246 35.9818 94.5632 35.8771 94.3878 36.0902C94.1889 36.3316 94.4058 36.5064 94.5956 36.623C95.0726 36.9128 95.4889 37.2794 95.8247 37.7053C95.9964 37.9134 95.9874 38.0133 95.6801 38.0966C94.5866 38.3963 93.7009 37.9467 93.3485 36.8478C93.1587 36.2733 93.1044 35.6823 93.0592 35.0828C93.0412 34.8914 93.1044 34.7998 93.3304 34.8164L93.4155 34.823C94.1372 34.8788 94.8573 34.9344 95.5355 35.1827C96.4121 35.4991 96.7646 36.0486 96.6381 36.9061C96.621 37.0159 96.6004 37.1258 96.574 37.2666C96.5584 37.3499 96.5407 37.444 96.5206 37.5554ZM100.578 35.8405C99.0872 36.1152 98.545 36.7895 98.8251 38.0466C98.9177 37.9727 99.004 37.9007 99.0875 37.831C99.2486 37.6966 99.3996 37.5707 99.5662 37.4555C99.8224 37.2876 100.088 37.132 100.361 36.9893C100.596 36.8561 100.85 36.7562 101.021 37.0393C101.172 37.2872 100.955 37.3882 100.765 37.4766C100.738 37.4891 100.712 37.5014 100.687 37.5138C100.181 37.7588 99.7201 38.0763 99.3222 38.4545C99.2047 38.5794 99.1053 38.6877 99.3222 38.8209C100.145 39.312 101.464 38.9707 101.871 38.1382C102.214 37.4306 102.277 36.673 102.332 35.9071C102.35 35.6928 102.226 35.6988 102.057 35.707L102.051 35.7073C101.558 35.7182 101.065 35.7627 100.578 35.8405Z" fill="#E44619"/>
<path d="M68.9945 11.3131C67.0575 11.2251 65.2391 11.6648 63.48 12.3506C62.5116 12.7374 61.8 12.544 61.5036 11.7527C61.2071 10.9614 61.7803 10.5921 62.472 10.2931C69.1328 7.49718 77.1771 9.326 81.8615 14.9004C84.1697 17.6314 85.4432 20.9442 85.4982 24.3609C85.5377 26.6645 84.7274 28.8451 83.7984 30.9728C81.229 36.9164 77.7109 42.4204 74.0148 47.8541C72.8092 49.595 71.5837 51.3183 70.3385 53.0416C69.4096 54.3077 68.5795 54.3253 67.6505 53.0592C62.8476 46.4473 58.3017 39.7124 54.8428 32.4499C53.736 30.1111 52.7279 27.7196 52.5303 25.1522C52.3485 22.5144 52.9771 19.8822 54.3487 17.538C54.6254 17.0632 55.0997 16.6236 55.8508 16.9753C56.6018 17.327 56.9774 17.8018 56.5623 18.5404C55.4095 20.6542 54.9114 23.0034 55.1195 25.3456C55.2579 27.28 56.0089 29.0912 56.8193 30.8848C59.9224 37.6725 64.1323 43.9327 68.5202 50.1225C68.8364 50.5973 69.0538 50.7556 69.4491 50.1753C73.5207 44.3723 77.4934 38.5166 80.5372 32.2213C81.565 30.1111 82.5532 27.9482 82.8497 25.6622C83.1597 23.1115 82.6166 20.5362 81.2883 18.259C79.0548 14.408 75.5169 12.0692 70.6745 11.3307C70.3794 11.2982 70.0814 11.2923 69.785 11.3131L68.9945 11.3131Z" fill="#E44619"/>
<path d="M60.1398 14.7069C60.0999 14.9832 59.9544 15.2389 59.7276 15.431C59.5009 15.6232 59.2067 15.74 58.8946 15.762C58.1435 15.7971 57.7285 15.2696 57.5506 14.6893C57.3727 14.109 58.3412 13.4408 58.855 13.4584C59.3689 13.476 60.12 14.1266 60.1398 14.7069Z" fill="#E44619"/>
<path d="M75.2831 33.252C75.0147 34.711 74.6457 35.138 73.8158 35.7209C73.7692 35.7455 73.7253 35.7699 73.6824 35.7936C73.3774 35.9625 73.1246 36.1025 72.3286 36.1293C70.7718 36.1815 69.2032 36.1635 67.6435 36.1455C67.0699 36.1389 66.4975 36.1323 65.9273 36.1293C65.2911 36.1332 64.6476 35.9565 64.0437 35.4939C63.3392 34.9542 63.2385 34.6398 63.0034 33.8356C62.7648 32.556 63.1904 31.6259 63.7035 30.505C63.7668 30.3667 63.8315 30.2254 63.8964 30.0802C63.8542 30.0718 63.9401 30.089 63.8964 30.0802C65.5459 30.4105 66.2183 30.7348 68.6066 30.1917C71.3525 29.5673 72.5689 29.6958 74.243 30.085C74.4939 30.726 74.6944 31.1409 74.8497 31.4624C75.1515 32.087 75.2831 32.3594 75.2831 33.252Z" fill="#E44619"/>
<path fill-rule="evenodd" clip-rule="evenodd" d="M75.2831 33.252C75.0147 34.711 74.6457 35.138 73.8158 35.7209C73.7692 35.7455 73.7253 35.7699 73.6824 35.7936C73.3774 35.9625 73.1246 36.1025 72.3286 36.1293C70.7718 36.1815 69.2032 36.1635 67.6435 36.1455C67.0699 36.1389 66.4975 36.1323 65.9273 36.1293C65.2911 36.1332 64.6476 35.9565 64.0437 35.4939C63.3392 34.9542 63.2385 34.6398 63.0034 33.8356C62.7648 32.556 63.1904 31.6259 63.7035 30.505C63.7668 30.3667 63.8315 30.2254 63.8964 30.0802C65.5459 30.4105 66.2183 30.7348 68.6066 30.1917C71.3525 29.5673 72.5689 29.6958 74.243 30.085C74.4939 30.726 74.6944 31.1409 74.8497 31.4624C75.1515 32.087 75.2831 32.3594 75.2831 33.252Z" fill="#E44619"/>
<path fill-rule="evenodd" clip-rule="evenodd" d="M75.2831 33.252C75.0147 34.711 74.6457 35.138 73.8158 35.7209C73.7692 35.7455 73.7253 35.7699 73.6824 35.7936C73.3774 35.9625 73.1246 36.1025 72.3286 36.1293C70.7718 36.1815 69.2032 36.1635 67.6435 36.1455C67.0699 36.1389 66.4975 36.1323 65.9273 36.1293C65.2911 36.1332 64.6476 35.9565 64.0437 35.4939C63.3392 34.9542 63.2385 34.6398 63.0034 33.8356C62.7648 32.556 63.1904 31.6259 63.7035 30.505C63.7668 30.3667 63.8315 30.2254 63.8964 30.0802C65.5459 30.4105 66.2183 30.7348 68.6066 30.1917C71.3525 29.5673 72.5689 29.6958 74.243 30.085C74.4939 30.726 74.6944 31.1409 74.8497 31.4624C75.1515 32.087 75.2831 32.3594 75.2831 33.252Z" fill="#E44619"/>
<path fill-rule="evenodd" clip-rule="evenodd" d="M66.4512 17.2525H66.6576V17.4865C66.6576 18.5459 66.6576 19.6176 66.6705 20.677C66.6722 20.9705 66.6061 21.2607 66.477 21.527C65.7357 23.0748 65.0201 24.6632 64.331 26.1927C63.693 27.6089 63.0777 28.9745 62.486 30.2105C62.2796 30.6416 61.8825 31.4959 61.6813 32.1386C61.1903 33.7052 61.7409 35.1882 62.7752 36.3295C63.2026 36.801 64.0541 37.4081 65.102 37.4945C66.9106 37.5027 68.6628 37.5 70.4368 37.4973H70.4457C71.3385 37.4959 72.2369 37.4945 73.1513 37.4945C74.1575 37.4945 74.7934 37.0313 75.3649 36.3295C76.5728 34.8462 76.7735 33.2098 76.1698 31.7101C75.3228 29.9714 74.6158 28.2205 73.9077 26.4667C73.2462 24.8285 72.5836 23.1877 71.8048 21.5516C71.6815 21.2921 71.6156 21.0112 71.6113 20.7263C71.592 20.0795 71.5944 19.4328 71.5968 18.786C71.5976 18.5705 71.5984 18.3549 71.5984 18.1394V17.2525H71.7919C71.8877 17.2576 71.9836 17.2437 72.0735 17.2118C72.1634 17.1799 72.2454 17.1306 72.3145 17.067C72.3835 17.0034 72.438 16.9268 72.4747 16.8422C72.5113 16.7575 72.5292 16.6665 72.5272 16.5749C72.5401 16.0822 72.5401 14.6954 72.5272 14.2027C72.5327 14.1101 72.5179 14.0175 72.4837 13.9308C72.4495 13.8441 72.3967 13.7651 72.3287 13.699C72.2606 13.6329 72.1789 13.5811 72.0887 13.5469C71.9985 13.5127 71.9018 13.4969 71.8048 13.5005H66.4641C66.3704 13.4972 66.2771 13.5119 66.1895 13.5439C66.102 13.5758 66.0222 13.6243 65.9547 13.6864C65.8873 13.7485 65.8336 13.823 65.797 13.9053C65.7604 13.9877 65.7416 14.0762 65.7416 14.1657C65.7158 14.6831 65.7158 16.0945 65.7416 16.6119C65.7484 16.7862 65.8265 16.9509 65.9592 17.0707C66.0919 17.1905 66.2686 17.2558 66.4512 17.2525ZM71.4021 16.3903C71.5971 16.3903 71.643 16.3406 71.643 16.1416V14.5787C71.643 14.3673 71.5971 14.3176 71.4021 14.3176H66.8246C66.641 14.3176 66.5951 14.3549 66.5951 14.5538V16.1168C66.5951 16.353 66.6295 16.3903 66.8475 16.3903H71.4021ZM67.4211 20.4311V16.9374H70.8055V17.6088C70.8055 17.8481 70.8048 18.0875 70.8041 18.3269C70.8019 19.0449 70.7998 19.7628 70.817 20.4808C70.8221 20.7842 70.8804 21.0838 70.9891 21.3636C71.5883 22.8035 72.1912 24.2354 72.7936 25.6662C73.2522 26.7554 73.7108 27.8445 74.167 28.9354C74.3165 29.292 74.4677 29.6469 74.6187 30.0014C74.873 30.5984 75.1268 31.1943 75.3716 31.795C75.912 33.154 75.5737 34.0749 75.2831 34.6422C74.9152 35.3603 74.0286 36.2513 73.1023 36.4077L65.1328 36.4327C64.092 36.0719 63.1933 35.4427 62.9106 34.7088C62.555 33.7763 62.4765 32.7648 62.8551 31.8074L63.4402 30.4273L67.2261 21.4257C67.3584 21.114 67.425 20.7742 67.4211 20.4311ZM75.2831 33.252C75.0147 34.711 74.6457 35.138 73.8158 35.7209C73.7692 35.7455 73.7253 35.7699 73.6824 35.7936C73.3774 35.9625 73.1246 36.1025 72.3286 36.1293C70.7718 36.1815 69.2032 36.1635 67.6435 36.1455C67.0699 36.1389 66.4975 36.1323 65.9273 36.1293C65.2911 36.1332 64.6476 35.9565 64.0437 35.4939C63.3392 34.9542 63.2385 34.6398 63.0034 33.8356C62.7648 32.556 63.1904 31.6259 63.7035 30.505C63.7668 30.3667 63.8315 30.2254 63.8964 30.0802C65.5459 30.4105 66.2183 30.7348 68.6066 30.1917C71.3525 29.5673 72.5689 29.6958 74.243 30.085C74.4939 30.726 74.6944 31.1409 74.8497 31.4624C75.1515 32.087 75.2831 32.3594 75.2831 33.252Z" fill="#E44619"/>
<path d="M0.333973 68.1919C0.87978 66.5508 2.06458 65.9638 3.72863 66.0705C4.341 66.1106 4.96668 66.0038 5.59236 65.9905C13.8727 65.817 22.0598 66.4441 30.0871 68.6322C39.9117 71.3007 48.5115 76.0639 55.3806 83.709C60.4127 89.3127 63.9139 95.797 66.3234 102.895C67.0423 105.017 67.5881 107.191 68.2138 109.339C68.267 109.606 68.4002 109.86 68.5865 110.06C68.7463 109.459 68.906 108.846 69.0658 108.245C71.1425 100.307 74.3508 92.9018 79.4095 86.3774C85.653 78.3187 93.7735 72.9418 103.358 69.713C107.965 68.1653 112.704 67.1779 117.536 66.6176C123.047 65.9905 128.599 65.8304 134.137 66.1106C135.268 66.1639 136.04 66.751 136.466 67.805C136.52 67.9384 136.586 68.0719 136.653 68.2186V71.9545C136.586 72.2613 136.546 72.5549 136.52 72.8617C136.386 76.6509 135.934 80.4401 135.162 84.1493C132.859 95.3968 127.986 105.377 120.185 113.782C107.552 127.418 91.7767 134.73 73.379 136.518C72.4072 136.611 71.4487 136.638 70.4769 136.731C69.1457 136.731 67.8144 136.704 66.4832 136.704C66.1637 136.704 65.8442 136.691 65.498 136.651C62.6226 136.317 59.7072 136.144 56.8583 135.637C48.2852 134.129 40.0581 131.074 32.5765 126.618C20.5422 119.426 11.3832 109.62 5.75211 96.6643C2.79676 89.8998 1.13272 82.7884 0.600221 75.4368C0.520346 74.3561 0.413847 73.2753 0.333973 72.1946V68.1919ZM71.1425 127.712L71.4753 127.939C71.6351 127.698 71.7549 127.431 71.9546 127.245C82.924 116.264 93.8933 105.283 104.876 94.3027C105.981 93.2086 107.059 92.0879 108.178 91.0072C108.537 90.6336 109.003 90.3934 109.509 90.3C110.015 90.22 110.534 90.2867 111 90.5269C111.932 90.9671 112.437 91.8744 112.411 92.9685C112.384 93.769 111.945 94.3294 111.412 94.8631C99.4712 106.791 87.5434 118.732 75.6021 130.674C75.4291 130.847 75.2693 131.034 74.9898 131.354C76.1479 131.194 77.0931 131.087 78.025 130.94C86.5449 129.5 94.559 126.658 101.987 122.228C111.692 116.451 119.426 108.726 124.751 98.6923C129.224 90.26 131.261 81.2006 131.607 71.701C131.634 71.0872 131.368 70.9805 130.862 71.0071C126.948 71.1806 123.021 71.2473 119.107 71.5408C114.727 71.8611 110.441 72.7683 106.234 74.0759C98.4062 76.5042 91.4838 80.4535 85.866 86.5108C80.6076 92.1813 77.1597 98.8924 74.8433 106.217C73.3657 110.887 72.4205 115.69 71.8214 120.56C71.5286 122.935 71.3688 125.323 71.1425 127.712ZM61.744 131.367L61.8372 131.167C61.6508 130.967 61.4644 130.754 61.2647 130.567L25.6541 94.9431C25.4544 94.7563 25.2814 94.5696 25.1083 94.3694C24.8421 94.0359 24.669 93.6489 24.6024 93.222C24.5359 92.8084 24.5625 92.3681 24.7089 91.9812C24.8554 91.5809 25.095 91.2206 25.4012 90.9405C25.7207 90.6603 26.1067 90.4601 26.5194 90.3801C27.5977 90.1399 28.3965 90.5802 29.1286 91.314C41.1098 103.309 53.0909 115.29 65.0721 127.271C65.2584 127.472 65.4714 127.645 65.7643 127.939C65.7643 127.632 65.7776 127.512 65.7643 127.378C65.4448 124.269 65.2185 121.147 64.7925 118.039C63.9671 111.941 62.4229 106.031 60 100.373C54.6085 87.7517 45.4895 79.0926 32.4967 74.6229C23.9235 71.6609 15.0441 70.847 6.03167 70.9938C5.47255 71.0072 5.36605 71.234 5.39268 71.7276C5.56574 75.4768 5.92517 79.2126 6.67066 82.8951C9.3997 96.3441 16.0825 107.445 26.586 116.237C34.9595 123.242 44.5577 127.778 55.1943 130.14C57.3509 130.62 59.5607 130.954 61.744 131.367Z" fill="#E44619"/>
<path d="M70.34 136.77C69.6861 136.77 69.0189 136.757 68.3783 136.757C67.7244 136.744 67.0439 136.744 66.3766 136.744C66.083 136.744 65.7628 136.73 65.3891 136.69C64.4683 136.584 63.5342 136.49 62.6268 136.41C60.6784 136.223 58.6767 136.023 56.715 135.676C48.081 134.169 39.8874 131.127 32.3609 126.644C26.2491 123.014 20.8978 118.705 16.4674 113.835C11.9168 108.818 8.19366 103.054 5.41796 96.6902C2.5355 90.0992 0.800683 82.9477 0.266894 75.436C0.213515 74.6889 0.146792 73.9284 0.0800683 73.1945C0.0533789 72.861 0.0266894 72.5274 0 72.1939V68.1645C0.520444 66.5901 1.65475 65.883 3.46963 65.9897C3.84328 66.0164 4.21693 65.9764 4.59058 65.9497C4.83079 65.9364 5.08434 65.9097 5.32454 65.9097C14.5991 65.7095 22.6326 66.5768 29.8922 68.5514C40.3811 71.3933 48.6815 76.33 55.2738 83.6549C60.0913 89.0051 63.681 95.2893 66.2565 102.868C66.7503 104.322 67.1773 105.83 67.5776 107.284C67.7645 107.951 67.9513 108.632 68.1515 109.312C68.2048 109.525 68.2983 109.739 68.4317 109.912C68.5785 109.352 68.7253 108.778 68.8721 108.218C71.1407 99.5588 74.5436 92.394 79.2543 86.3233C82.3236 82.374 85.94 78.9584 90.0235 76.1699C93.9468 73.4747 98.4173 71.2866 103.301 69.6455C107.732 68.1512 112.389 67.1372 117.527 66.5501C123.038 65.923 128.643 65.7629 134.181 66.0431C135.329 66.0965 136.143 66.6835 136.583 67.7776C136.623 67.871 136.663 67.9644 136.703 68.0578C136.73 68.0978 136.743 68.1512 136.77 68.1912V71.9671C136.703 72.2739 136.663 72.5808 136.637 72.8743C136.503 76.6635 136.049 80.4661 135.275 84.1752C132.9 95.6762 127.856 105.656 120.249 113.848C114.017 120.519 106.851 125.843 98.9377 129.632C91.2245 133.328 82.5905 135.663 73.2892 136.557C72.7954 136.61 72.3017 136.637 71.8213 136.664C71.3542 136.69 70.8605 136.717 70.38 136.77C70.3667 136.77 70.3533 136.77 70.34 136.77ZM0.120102 68.2045V72.1939C0.146792 72.5141 0.173481 72.8476 0.200171 73.1812C0.266894 73.915 0.333618 74.6755 0.386997 75.436C0.93413 82.921 2.66894 90.0591 5.53806 96.6502C10.9827 109.139 20.0304 119.199 32.4277 126.537C39.9407 131.006 48.121 134.035 56.7417 135.556C58.6901 135.903 60.6918 136.09 62.6401 136.29C63.5475 136.383 64.4817 136.463 65.4025 136.57C65.7761 136.597 66.083 136.61 66.3766 136.61C67.0439 136.61 67.7244 136.624 68.3783 136.624C69.0322 136.637 69.7128 136.637 70.38 136.637C70.8605 136.597 71.3409 136.557 71.8213 136.53C72.3017 136.503 72.7954 136.463 73.2892 136.423C92.0786 134.609 107.852 126.964 120.169 113.715C127.749 105.549 132.793 95.5962 135.169 84.1085C135.943 80.3994 136.396 76.6102 136.516 72.8343C136.543 72.5274 136.583 72.2206 136.65 71.9137V68.2045C136.637 68.1645 136.61 68.1245 136.597 68.0845C136.556 67.9911 136.503 67.8977 136.463 67.8043C136.036 66.7636 135.275 66.2032 134.181 66.1498C128.643 65.8697 123.052 66.0431 117.554 66.6568C112.429 67.2439 107.785 68.2579 103.355 69.7389C93.4264 73.0745 85.3528 78.6782 79.3744 86.3767C74.677 92.4341 71.2875 99.5855 69.0189 108.231C68.8587 108.845 68.6986 109.445 68.5385 110.046L68.5118 110.166L68.4317 110.073C68.2449 109.859 68.0981 109.606 68.0447 109.325C67.8445 108.658 67.6577 107.964 67.4709 107.311C67.0705 105.856 66.6435 104.349 66.1498 102.894C63.5742 95.3427 59.9978 89.0718 55.1937 83.7349C48.6148 76.4367 40.3411 71.5134 29.8655 68.6715C22.6059 66.7236 14.5724 65.8563 5.32454 66.0564C5.08434 66.0564 4.83079 66.0831 4.59058 66.0965C4.21693 66.1232 3.82993 66.1632 3.44294 66.1365C1.70812 66.0164 0.627202 66.6969 0.120102 68.2045ZM61.6526 131.433L61.5992 131.42C60.9053 131.3 60.2114 131.167 59.5308 131.06C58.0495 130.806 56.5149 130.54 55.0203 130.206C44.1577 127.791 34.4961 123.108 26.3158 116.29C21.058 111.9 16.7076 106.884 13.3981 101.36C10.0619 95.8096 7.68656 89.6055 6.33874 82.9077C5.6715 79.5988 5.25782 76.0364 5.05765 71.7269C5.0443 71.5134 5.05765 71.2599 5.19109 71.0998C5.29785 70.9797 5.48468 70.9264 5.75157 70.913C16.1871 70.7529 24.621 71.9137 32.3076 74.5421C38.7664 76.7569 44.3845 80.0658 48.9751 84.3753C53.5257 88.6449 57.2088 94.0084 59.9178 100.333C62.2531 105.803 63.8812 111.754 64.7219 118.011C65.0155 120.173 65.2156 122.361 65.4158 124.495C65.5092 125.429 65.5893 126.403 65.696 127.351C65.7094 127.431 65.696 127.511 65.696 127.631C65.696 127.711 65.696 127.791 65.696 127.911V128.071L65.5893 127.964C65.4425 127.818 65.3224 127.698 65.2023 127.604C65.0822 127.497 64.9888 127.404 64.882 127.297C52.9518 115.396 40.8215 103.295 28.8513 91.34C27.9972 90.4861 27.2099 90.2059 26.3024 90.4194C25.9021 90.5128 25.5284 90.6996 25.2082 90.9664C24.9012 91.2333 24.661 91.5935 24.5276 91.9804C24.3941 92.3673 24.3541 92.7943 24.4208 93.1946C24.4876 93.5948 24.661 93.9818 24.9146 94.302C25.0881 94.5021 25.2615 94.6889 25.4617 94.8757L61.1855 130.499C61.3323 130.646 61.4658 130.793 61.5992 130.94L61.786 131.14L61.6526 131.433ZM7.63318 71.0331C7.01932 71.0331 6.40546 71.0331 5.77826 71.0464C5.53806 71.0464 5.39127 71.0998 5.3112 71.1932C5.21778 71.2866 5.19109 71.4467 5.20444 71.7136C5.40461 76.0231 5.8183 79.5721 6.48553 82.881C9.18117 96.1966 15.8936 107.404 26.4225 116.197C34.5895 123.014 44.2244 127.684 55.0603 130.086C56.5549 130.419 58.0762 130.686 59.5575 130.94C60.2247 131.06 60.9053 131.18 61.5725 131.3L61.6259 131.18L61.5058 131.047C61.3724 130.9 61.2389 130.753 61.0921 130.606L25.395 94.9824C25.1948 94.7956 25.008 94.6088 24.8345 94.3954C24.5676 94.0618 24.3808 93.6482 24.3007 93.2212C24.234 92.7943 24.2607 92.354 24.4075 91.9404C24.5543 91.5268 24.7945 91.1665 25.1281 90.873C25.4484 90.5795 25.8487 90.3793 26.2757 90.2859C27.5168 90.0058 28.3575 90.6462 28.958 91.2466C40.9282 103.215 53.0586 115.303 64.9888 127.204C65.0822 127.297 65.1889 127.391 65.2957 127.497C65.3758 127.578 65.4692 127.658 65.5626 127.751C65.5626 127.698 65.5626 127.658 65.5626 127.618C65.5626 127.497 65.5626 127.431 65.5626 127.351C65.4692 126.403 65.3758 125.429 65.2823 124.495C65.0822 122.374 64.882 120.173 64.5884 118.011C63.7344 111.754 62.1197 105.816 59.7843 100.359C54.3664 87.7109 45.1051 79.0651 32.2542 74.6488C25.0747 72.1939 17.2013 71.0331 7.63318 71.0331ZM74.7171 131.42L74.8372 131.287C74.9439 131.18 75.024 131.073 75.1041 130.993C75.2375 130.846 75.3443 130.713 75.4644 130.606C87.4346 118.665 99.3914 106.737 111.362 94.7956C111.935 94.2353 112.309 93.7016 112.336 92.9544C112.376 91.887 111.855 90.9931 110.961 90.5795C110.508 90.3527 110.001 90.286 109.507 90.366C109.013 90.4461 108.559 90.6862 108.199 91.0465C107.385 91.8336 106.584 92.6475 105.797 93.4347C105.49 93.7416 105.196 94.0485 104.889 94.342C93.9335 105.269 82.8307 116.357 71.888 127.284C71.7545 127.417 71.6611 127.564 71.5677 127.738C71.5143 127.818 71.4743 127.898 71.4209 127.978L71.3809 128.031L70.9672 127.751V127.711C71.0339 126.95 71.1007 126.203 71.1674 125.443C71.3008 123.842 71.4476 122.187 71.6478 120.573C72.2883 115.329 73.2758 110.633 74.677 106.19C77.2125 98.1846 80.8289 91.7403 85.7398 86.4567C91.1311 80.6662 97.8168 76.5835 106.184 73.9951C110.721 72.5808 114.951 71.7536 119.102 71.4601C121.784 71.2599 124.52 71.1665 127.175 71.0731C128.39 71.0331 129.644 70.9797 130.885 70.9264C131.112 70.913 131.379 70.9264 131.539 71.0865C131.659 71.2066 131.712 71.4067 131.699 71.6869C131.339 81.8537 129.083 90.6862 124.826 98.7049C119.675 108.405 111.989 116.33 101.98 122.267C94.6941 126.59 86.6072 129.525 77.9332 130.993C77.3059 131.1 76.6654 131.18 75.9715 131.273C75.6245 131.313 75.2642 131.367 74.8905 131.42H74.7171ZM109.907 90.1926C110.294 90.1926 110.668 90.286 111.015 90.4594C111.962 90.8997 112.496 91.8337 112.456 92.9678C112.429 93.7549 112.029 94.3153 111.442 94.9024C99.4715 106.83 87.5147 118.772 75.5444 130.713C75.4377 130.82 75.3309 130.94 75.1975 131.1C75.1574 131.153 75.1041 131.207 75.0507 131.26C75.371 131.22 75.6645 131.18 75.9581 131.14C76.6387 131.047 77.2793 130.966 77.9065 130.86C86.5538 129.405 94.6274 126.47 101.9 122.161C111.882 116.237 119.555 108.325 124.693 98.6515C128.95 90.6595 131.192 81.8403 131.552 71.7002C131.566 71.4467 131.526 71.2866 131.432 71.1932C131.339 71.0998 131.165 71.0598 130.885 71.0731C129.644 71.1265 128.39 71.1665 127.175 71.2199C124.533 71.3133 121.797 71.4067 119.115 71.6068C114.978 71.9003 110.761 72.7276 106.224 74.1418C97.8835 76.7169 91.2111 80.7863 85.8332 86.5635C80.9357 91.8337 77.3193 98.2646 74.7971 106.243C73.3959 110.673 72.4084 115.369 71.7679 120.6C71.5677 122.214 71.4343 123.868 71.2875 125.469C71.2207 126.217 71.154 126.964 71.0873 127.698L71.3275 127.858C71.3675 127.804 71.3942 127.738 71.4343 127.684C71.541 127.511 71.6344 127.351 71.7812 127.204C82.7239 116.263 93.8267 105.189 104.783 94.2619C105.09 93.9551 105.383 93.6615 105.69 93.3547C106.478 92.5675 107.278 91.7536 108.092 90.9664C108.466 90.5795 108.946 90.3393 109.467 90.2459C109.627 90.2059 109.76 90.1926 109.907 90.1926Z" fill="#E44619"/>
<path d="M19.4429 28.7886C13.3792 36.271 9.91997 45.0402 9.91997 45.0402C8.89155 47.6272 7.00833 54.3004 6.48744 57.3252C6.32717 58.2406 5.8597 62.0614 5.83299 62.34C5.83299 62.34 5.83299 62.3665 5.83299 62.3798C5.81964 62.5522 5.75286 62.7247 5.64601 62.8706C5.53916 62.9635 5.37888 63.0033 5.12512 63.0033C3.54909 63.0165 1.98642 63.0829 0.330262 63.1359C0.450467 61.9154 0.530604 60.6153 0.704234 59.3284C1.3854 54.1677 2.52067 49.1131 4.44395 44.2708C13.0987 22.5666 28.7388 8.55698 51.3774 2.2288C55.9452 0.928665 60.6332 0.305133 65.3747 0.132666C65.6552 0.106133 65.949 0.0663332 66.2295 0H70.7706C71.8123 0.0928665 72.8408 0.185733 73.8825 0.265333C81.9897 0.875598 89.763 2.78599 97.0955 6.27512C116.435 15.4822 128.963 30.3673 134.68 50.9306C135.735 54.8045 136.403 58.7845 136.643 62.791C136.656 62.9237 136.643 63.0431 136.643 63.1227C135.014 63.0696 133.424 63.0033 131.835 62.99C131.608 62.99 131.448 62.9502 131.354 62.8573C131.194 62.7114 130.766 59.4611 129.912 55.3617C129.244 52.1114 129.124 51.4348 128.963 50.7316C127.935 45.9822 125.704 41.4317 125.077 40.1581C125.077 40.1581 121.965 33.8299 116.983 28.0855C98.952 7.32319 72.0661 5.82406 72.0661 5.82406C45.8614 4.36473 26.7754 19.7275 19.4429 28.7886Z" fill="#E44619"/>
</svg>
