<svg width="124" height="124" viewBox="0 0 124 124" fill="none" xmlns="http://www.w3.org/2000/svg">
<path d="M65.8758 0C65.9121 0.132969 66.0211 0.120881 66.118 0.120881C68.2618 0.157146 70.3692 0.495612 72.4888 0.83408C74.852 1.22142 77.1897 1.75022 79.4893 2.41763C82.5717 3.32341 85.5801 4.46301 88.4884 5.82647C92.0432 7.49875 95.4298 9.50647 98.6017 11.8222C100.182 12.9489 101.691 14.1721 103.119 15.4849C104.173 16.464 105.299 17.3706 106.281 18.4223C108.012 20.2597 109.684 22.1334 111.234 24.14C113.392 26.9652 115.316 29.9609 116.987 33.0973C118.247 35.4666 119.289 37.9325 120.257 40.4348C121.168 42.8718 121.913 45.3677 122.486 47.9052C122.879 49.5687 123.186 51.2511 123.407 52.946C123.6 54.3724 123.794 55.7988 123.879 57.2494C123.891 57.4065 123.879 57.5636 123.879 57.7812C122.849 57.4307 121.832 57.5153 120.827 57.5395C120.221 57.5516 119.64 57.4186 119.034 57.4065C118.865 57.4065 118.84 57.3219 118.78 57.1647C118.574 56.5966 118.647 55.9801 118.574 55.3999C118.375 53.5812 118.084 51.7737 117.702 49.9844C117.236 47.7842 116.629 45.616 115.885 43.4931C114.526 39.6075 112.76 35.8759 110.617 32.3599C109.272 30.1599 107.831 28.0203 106.159 26.0741C105.178 24.9378 104.355 23.6806 103.277 22.6411C100.019 19.5102 96.6396 16.5366 92.8123 14.1068C90.0208 12.3452 87.0972 10.8014 84.0676 9.48917C81.9238 8.57048 79.6831 7.92981 77.503 7.10782C76.1465 6.60012 74.7416 6.56385 73.3608 6.28582C72.1981 6.04406 71.0596 5.8023 69.8605 5.77813C68.9521 5.75395 68.0316 5.53636 67.1111 5.37921C66.9779 5.36712 66.8447 5.31877 66.7115 5.31877C64.1317 5.36712 61.5519 5.01657 58.9842 5.23416C57.0342 5.39131 55.06 5.35504 53.11 5.75395C51.7414 6.03198 50.3848 6.31 49.0162 6.62429C47.6476 6.93859 46.0852 7.26496 44.6439 7.7364C42.2106 8.53858 39.8283 9.48722 37.5101 10.5771C34.634 11.9421 31.8789 13.5475 29.2741 15.3761C27.7627 16.4261 26.3148 17.5643 24.9381 18.7849C23.9328 19.6916 22.8791 20.5619 21.9465 21.5531C20.8201 22.7499 19.512 23.7773 18.531 25.1554C17.3198 26.8598 15.9269 28.4313 14.7642 30.172C13.0148 32.782 11.4758 35.5266 10.1617 38.3798C8.54498 41.8792 7.29879 45.5376 6.44344 49.2954C5.97293 51.3271 5.6291 53.3861 5.41395 55.4603C5.3655 56.0043 5.41395 56.5603 5.23227 57.1043C5.14749 57.3702 5.0627 57.3823 4.84469 57.4186C3.80308 57.5878 2.76147 57.5274 1.71986 57.5274C1.19906 57.5153 0.70248 57.6483 0.169563 57.7571C-0.0242247 56.8988 0.230121 56.0526 0.278568 55.2186C0.339127 54.1669 0.569251 53.1152 0.726704 52.0636C1.05719 49.9548 1.49785 47.8647 2.04688 45.8019C2.7811 43.005 3.72027 40.2657 4.85681 37.6062C5.72206 35.5627 6.7089 33.5727 7.81207 31.6467C8.63567 30.2082 9.47138 28.7697 10.4161 27.3917C11.7542 25.4149 13.2018 23.5141 14.7521 21.6982C15.8764 20.349 17.0689 19.0579 18.3251 17.83C20.1753 16.0302 22.1285 14.339 24.175 12.7651C30.5275 7.8585 37.788 4.25176 45.5401 2.15168C47.8686 1.51685 50.2298 1.0084 52.6134 0.62858C54.3333 0.350553 56.0652 0.108793 57.8214 0.120881C57.9305 0.120881 58.0758 0.169234 58.1242 0H65.8758Z" fill="#460F81"/>
<path d="M66.2876 71.054C66.0696 71.0903 65.8879 71.0057 65.682 70.8727C64.6283 70.2199 63.5624 69.5913 62.5087 68.9265C62.1575 68.7089 61.8668 68.6968 61.5155 68.9265C60.4497 69.5913 59.3596 70.2441 58.2817 70.8848C57.7124 71.2232 57.0463 71.0782 56.7072 70.5584C56.368 70.0386 56.5134 69.4463 57.0463 69.0836C57.7851 68.5759 58.5482 68.1045 59.3354 67.6451C59.7714 67.4034 59.7472 67.2342 59.3475 66.9924L55.4112 64.5627C53.2069 63.1967 50.9783 61.8549 48.774 60.489C48.1805 60.1263 48.0231 59.4978 48.3501 58.9659C48.6771 58.434 49.3432 58.2043 49.9609 58.5911L61.3581 65.6143C61.8062 65.9045 62.2422 65.8803 62.7025 65.6023C64.4102 64.5264 66.1422 63.4627 67.8621 62.3989L68.2618 62.1451C68.5525 61.9396 68.5767 61.8308 68.2133 61.6132C66.3966 60.5132 64.5919 59.389 62.7994 58.2648C62.3391 57.9747 62.1817 57.2856 62.3997 56.8142C62.6177 56.3428 63.3202 56.0647 63.6714 56.234C64.0227 56.4032 64.6404 56.8021 65.1127 57.0922L70.3329 60.2835C70.6599 60.489 70.9506 60.5011 71.2776 60.2956L76.5099 57.1164C76.9096 56.8746 76.8853 56.6812 76.4614 56.4515L63.8168 49.6338C63.405 49.4042 62.9689 49.1987 62.5571 48.9569C62.1453 48.7151 61.7578 48.7877 61.3581 49.0053C59.3233 50.1053 57.3006 51.2174 55.2538 52.3053C54.8541 52.5108 54.5028 52.813 54.0063 52.8372C53.5097 52.8614 53.0373 52.5592 52.8678 51.991C52.6982 51.4229 52.9162 51.0723 53.3522 50.8306C54.3938 50.2382 55.4475 49.6701 56.5013 49.102C57.3006 48.6668 58.1242 48.2437 58.9236 47.7964C59.4081 47.5184 59.4081 47.3129 58.9357 47.0349C58.4634 46.7569 57.773 46.4063 57.2038 46.092C56.6345 45.7777 56.3802 45.1612 56.6466 44.6173C56.709 44.477 56.8004 44.3515 56.9148 44.249C57.0292 44.1465 57.164 44.0694 57.3104 44.0225C57.4568 43.9757 57.6115 43.9604 57.7643 43.9775C57.9171 43.9945 58.0645 44.0437 58.1969 44.1217C59.3354 44.7019 60.4618 45.2942 61.5882 45.9107C61.7094 45.9939 61.853 46.0384 62 46.0384C62.1471 46.0384 62.2906 45.9939 62.4118 45.9107C63.514 45.3063 64.6404 44.7261 65.7425 44.1338C66.4692 43.7348 66.8689 43.9282 67.3171 44.5689C67.7652 45.2096 67.4382 45.7173 66.8084 46.092C66.1786 46.4668 65.682 46.7085 65.137 47.0228C64.5919 47.3371 64.5798 47.5184 65.137 47.8206C66.663 48.6547 68.1891 49.4646 69.7273 50.2866L77.9512 54.7109C78.2055 54.8438 78.4599 54.9526 78.7021 55.0977C78.9443 55.2427 79.4288 55.3032 79.8164 55.0614C80.8701 54.4086 81.9359 53.768 83.0018 53.1394C83.5831 52.8009 84.2008 52.8976 84.5399 53.3691C84.8791 53.8405 84.8306 54.5054 84.2735 54.9043C83.7164 55.3032 82.917 55.7625 82.2387 56.1977C81.5605 56.6329 81.6937 56.7054 82.2993 57.0439C82.9049 57.3823 83.4741 57.6362 84.0434 57.9747C84.6126 58.3131 84.7822 58.5428 84.7459 59.0868C84.739 59.2887 84.6719 59.4839 84.5533 59.6476C84.4346 59.8112 84.2697 59.9358 84.0797 60.0055C83.9181 60.0836 83.7399 60.1211 83.5605 60.1148C83.381 60.1084 83.2059 60.0585 83.0502 59.9692C81.9238 59.3527 80.7853 58.7725 79.6589 58.1681C79.4167 58.0351 79.2592 58.0109 79.017 58.156C77.1518 59.3285 75.2745 60.4769 73.3971 61.6253C73.0338 61.8429 73.1428 62.0242 73.4335 62.1934C73.9422 62.5077 74.463 62.7978 74.9596 63.1363C75.4561 63.4748 75.6863 63.5835 75.7105 64.0912C75.7347 64.5989 75.6499 64.9374 75.226 65.1792C75.0431 65.2836 74.8356 65.3375 74.6249 65.3354C74.4141 65.3332 74.2078 65.2752 74.027 65.1671C73.2397 64.6956 72.4282 64.2363 71.6652 63.7286C71.0838 63.3297 70.6357 63.2934 69.9938 63.7165C68.3466 64.8165 66.6146 65.7957 64.9189 66.8232L64.6283 67.0166C64.2528 67.2462 64.2528 67.4155 64.6525 67.6451C65.4519 68.1045 66.227 68.6122 67.0022 69.1078C67.4987 69.4221 67.5351 69.9177 67.3776 70.3892C67.3099 70.6145 67.1612 70.807 66.96 70.9297C66.7589 71.0524 66.5194 71.0967 66.2876 71.054Z" fill="#460F81"/>
<path d="M79.8769 22.5564C78.4235 22.496 77.0186 22.9674 75.6984 23.7653C75.5053 23.9081 75.2878 24.0147 75.0565 24.0795C74.6689 24.1521 74.3903 23.9466 74.2328 23.596C74.0754 23.2455 74.2086 22.8828 74.5356 22.6532C75.7589 21.807 77.1033 21.2147 78.581 21.0213C82.166 20.5498 85.1697 21.7465 87.58 24.3697C89.2151 26.1345 90.0992 28.262 90.3899 30.6918C90.6806 33.1215 89.8207 35.5995 88.8396 37.8842C86.7201 42.8766 83.9101 47.4942 80.9912 52.0394C80.3372 53.0548 79.8406 53.0548 79.1987 52.0756C76.4372 47.8327 73.8574 43.481 71.7378 38.8633C70.9385 37.1105 70.2481 35.3215 69.8484 33.4237C69.5214 31.8885 69.7273 30.3775 70.1028 28.9027C70.2239 28.4675 70.4661 27.984 71.0475 28.0807C71.6288 28.1774 71.8347 28.673 71.6409 29.3137C70.9385 31.7434 71.435 34.0402 72.3555 36.2886C74.3176 41.1359 76.9822 45.5964 79.7437 50.0086C80.0101 50.4437 80.1555 50.4438 80.422 50.0207C83.0381 45.8624 85.5331 41.6436 87.4831 37.1226C88.0887 35.6842 88.7064 34.2215 88.8154 32.65C89.0334 29.6401 88.1371 26.9807 85.8843 24.8774C84.2371 23.3301 82.275 22.4839 79.8769 22.5564Z" fill="#460F81"/>
<path d="M39.2057 28.6489C38.0187 28.5884 36.9045 28.8906 35.8265 29.3621C35.2331 29.628 34.797 29.495 34.6154 28.9511C34.4337 28.4071 34.7849 28.1532 35.2088 27.9477C39.2905 26.0257 44.22 27.2829 47.0904 31.1148C48.5049 32.9922 49.2853 35.2695 49.319 37.6182C49.3432 39.2018 48.8467 40.7007 48.2774 42.1634C46.7029 46.2492 44.547 50.0328 42.2821 53.768C41.5433 54.9647 40.7923 56.1493 40.0293 57.334C39.46 58.2043 38.9514 58.2164 38.3821 57.3461C35.439 52.8009 32.6533 48.1712 30.5337 43.1788C29.8554 41.5711 29.2377 39.9271 29.1166 38.1622C29.0052 36.3489 29.3904 34.5395 30.2309 32.9281C30.4005 32.6017 30.6911 32.2995 31.1514 32.5412C31.6116 32.783 31.8418 33.1094 31.5874 33.6171C30.881 35.0702 30.5758 36.6851 30.7033 38.2952C30.788 39.6249 31.2483 40.87 31.7449 42.1029C33.6464 46.769 36.2262 51.0723 38.915 55.3274C39.1088 55.6537 39.242 55.7625 39.4843 55.3636C41.9793 51.3745 44.4138 47.3492 46.279 43.0216C46.9088 41.5711 47.5144 40.0842 47.696 38.5128C47.886 36.7594 47.5532 34.989 46.7392 33.4237C45.3706 30.7764 43.2026 29.1686 40.2352 28.6609C40.0544 28.6387 39.8718 28.6346 39.6902 28.6489H39.2057Z" fill="#460F81"/>
<path d="M56.1743 36.7358C58.6451 32.8314 60.9463 28.8423 62.6904 24.5631C63.3444 22.9795 63.8168 21.3476 63.7078 19.5949C63.4776 15.8959 60.8736 12.0881 56.7799 11.3145C55.0358 10.9881 53.3522 11.1332 51.7414 11.9068C51.2084 12.1607 50.833 12.0156 50.6029 11.52C50.3727 11.0244 50.7119 10.7343 51.0994 10.5408C51.846 10.1521 52.6525 9.89062 53.4855 9.76721C53.8488 9.62215 54.2727 9.80347 54.624 9.56171C58.6935 9.53753 61.7214 11.3507 63.7925 14.808C64.7982 16.4858 65.3064 18.4139 65.2581 20.3685C65.2338 22.0487 64.6525 23.6323 64.0348 25.1675C61.9273 30.3654 59.0326 35.1281 56.0168 39.8304C55.4475 40.7007 54.9146 40.7128 54.3696 39.8666C51.4991 35.4545 48.7982 30.9456 46.6908 26.1103C46.0731 24.696 45.528 23.2455 45.2374 21.7345C44.8256 19.5465 45.2616 17.4794 46.1942 15.497C46.3516 15.1585 46.6302 14.8805 47.1026 15.0739C47.5749 15.2673 47.7203 15.7025 47.5265 16.1618C47.1346 17.0185 46.8655 17.9259 46.7271 18.8575C46.5697 20.0663 46.5939 21.263 46.9451 22.4356C48.2047 26.6181 50.3606 30.3654 52.5528 34.1127C53.3038 35.3819 54.1153 36.627 54.8904 37.9084C55.1084 38.271 55.2659 38.271 55.4597 37.8963C55.6535 37.5215 55.7493 37.3365 55.932 37.0743C56.1258 36.7962 55.9183 37.0984 56.1743 36.7358Z" fill="#460F81"/>
<path d="M85.8238 62.1934L91.0561 58.978L94.9803 56.5724C95.3679 56.3307 95.3436 56.1131 94.9197 55.8834L87.0107 51.6647C86.8018 51.5471 86.5996 51.418 86.4052 51.2778C86.1957 51.1169 86.0553 50.8825 86.0126 50.6221C85.9699 50.3617 86.0279 50.0948 86.175 49.8756C86.5626 49.3075 87.0834 49.1624 87.6163 49.4404L98.0445 55.0372C98.2241 55.1232 98.3911 55.2329 98.5411 55.3636C99.0983 55.9197 99.0619 56.4999 98.4442 56.9955C97.0745 58.1131 95.4737 58.914 93.757 59.3406C91.9644 59.7758 90.2567 60.4527 88.5611 61.1538C87.7859 61.4681 87.0107 61.8187 86.2477 62.1692C86.1832 62.2043 86.1118 62.2246 86.0385 62.2288C85.9652 62.233 85.8918 62.2209 85.8238 62.1934Z" fill="#460F81"/>
<path d="M37.0498 61.7824C34.9545 60.9725 32.8955 60.0659 30.7154 59.4494C30.0342 59.2864 29.3629 59.0846 28.7048 58.845C27.5179 58.3614 26.4113 57.7012 25.4225 56.8867C24.8291 56.4032 25.0107 55.5328 25.7496 55.1339C27.8812 53.9735 30.025 52.8372 32.1809 51.7009C32.6896 51.4229 33.3315 51.6646 33.6706 52.2086C34.0098 52.7526 33.7918 53.2361 33.2952 53.5746C32.7986 53.913 32.1567 54.2394 31.5753 54.5537L29.1045 55.8834C28.62 56.1373 28.62 56.3186 29.1166 56.6087L35.9598 60.8154C36.09 60.9053 36.2154 61.0021 36.3352 61.1055C36.5411 61.3714 37.0377 61.311 37.0498 61.7824Z" fill="#460F81"/>
<path d="M72.0285 41.559C72.0649 42.5019 71.1201 43.0821 70.3692 42.6832C67.6683 41.2568 64.9674 39.8304 62.2786 38.3798C62.0485 38.2468 61.9273 38.2589 61.7093 38.3919C61.0674 38.7545 60.4013 39.0688 59.7472 39.4194C59.0932 39.7699 58.4997 39.6007 58.1727 39.0809C57.8457 38.5611 58.0516 37.8721 58.6087 37.5457C59.5292 37.0018 60.4618 36.5182 61.3944 36.0105C61.5872 35.9014 61.8059 35.8461 62.0275 35.8503C62.2492 35.8546 62.4656 35.9183 62.654 36.0347L71.2049 40.6161C71.6167 40.8337 71.9437 41.148 72.0285 41.559Z" fill="#460F81"/>
<path d="M59.6988 56.2823C59.2627 56.2823 58.4997 55.5087 58.5118 55.0735C58.5239 54.6383 59.2385 53.9251 59.6867 53.913C60.1348 53.9009 60.8494 54.6021 60.8736 55.0614C60.8978 55.5208 60.159 56.2702 59.6988 56.2823Z" fill="#460F81"/>
<path d="M72.9127 25.7235C72.9006 26.062 72.3798 26.5455 72.0527 26.5213C71.7257 26.4972 71.1928 25.9411 71.2655 25.651C71.3382 25.3609 71.6288 24.9257 72.1012 24.8894C72.5736 24.8532 72.9369 25.3851 72.9127 25.7235Z" fill="#460F81"/>
<path d="M33.7796 30.9819C33.7552 31.1718 33.666 31.3476 33.5271 31.4797C33.3881 31.6117 33.2079 31.6921 33.0166 31.7072C32.5564 31.7313 32.302 31.3687 32.193 30.9698C32.084 30.5709 32.6775 30.1115 32.9924 30.1236C33.3073 30.1357 33.7675 30.583 33.7796 30.9819Z" fill="#460F81"/>
<path d="M49.755 13.4662C49.7429 13.7805 49.2463 14.2519 48.9435 14.2398C48.6408 14.2277 48.1321 13.72 48.1442 13.442C48.1563 13.164 48.7134 12.6442 48.9678 12.6563C49.2221 12.6684 49.755 13.164 49.755 13.4662Z" fill="#460F81"/>
<path d="M48.4106 21.0212C48.4227 21.8674 48.4348 22.7257 48.4348 23.5718C48.4348 24.418 48.4712 24.4059 49.3069 24.418H52.3833L52.4196 24.4422C52.4257 24.4782 52.4257 24.515 52.4196 24.551L48.7861 24.5752C48.5802 24.5872 48.3258 24.5631 48.338 24.2971C48.3501 23.2092 48.2047 22.1092 48.4106 21.0212Z" fill="#460F81"/>
<path d="M37.0498 61.7824C36.9287 61.4439 36.4684 61.4439 36.3352 61.1055C37.0256 61.4198 37.6191 61.8549 38.2368 62.2901C37.7886 62.2297 37.4132 62.0121 37.0498 61.7824Z" fill="#460F81"/>
<path d="M54.624 9.56171C54.309 9.96062 53.873 9.74303 53.4855 9.76721C54.6725 9.47707 54.7936 9.56174 54.624 9.56171Z" fill="#460F81"/>
<path d="M39.3632 41.3293C39.3753 41.4864 39.3753 41.6678 39.2057 41.7403C39.0361 41.8128 39.1088 41.6436 39.133 41.559C39.1573 41.4744 39.2784 41.4018 39.3632 41.3293Z" fill="#C8BCD5"/>
<path fill-rule="evenodd" clip-rule="evenodd" d="M0 61.5165C0.532917 60.2835 1.51397 59.8241 2.82203 59.812C3.21062 59.8085 3.63021 59.8027 4.06682 59.7968C5.09993 59.7827 6.22837 59.7673 7.26704 59.7758C7.71674 59.7795 8.18326 59.7742 8.65842 59.7688C9.74455 59.7565 10.8758 59.7437 11.9543 59.8362C12.5337 59.8885 13.1143 59.9367 13.6952 59.985C15.1298 60.1042 16.567 60.2237 17.998 60.4044C22.5036 60.9604 26.9002 61.9154 31.1756 63.4264C35.4511 64.9374 39.5448 66.9803 43.2631 69.676C44.5954 70.6551 45.855 71.6826 47.0904 72.7826C49.7187 75.1156 51.9351 77.7871 53.9215 80.6761C56.1621 83.9279 57.9062 87.4213 59.3475 91.084C60.4133 93.8159 61.2612 96.6083 62.0484 99.4732C62.1534 99.0682 62.2623 98.6633 62.3707 98.2607C62.4499 97.9662 62.5288 97.673 62.6056 97.3819C63.3337 94.6216 64.2648 91.9186 65.3913 89.295C66.7962 86.007 68.4919 82.8641 70.5751 79.9509C71.5944 78.5191 72.6901 77.1431 73.8574 75.8288C74.5357 75.0552 75.2502 74.3299 75.9891 73.6167C78.4487 71.2396 81.1854 69.1658 84.1403 67.4397C87.5599 65.4344 91.2071 63.8437 95.0045 62.7011C97.3101 62.0005 99.656 61.4394 102.029 61.0209C104.052 60.6703 106.087 60.3802 108.134 60.1747C110.378 59.9307 112.634 59.8137 114.892 59.8241C116.987 59.8362 119.083 59.8483 121.19 59.8241C122.498 59.8 123.467 60.2835 124 61.5165V67.4397C123.891 67.89 123.898 68.346 123.905 68.7999C123.908 69.0039 123.911 69.2076 123.903 69.41C123.806 71.6705 123.419 73.8947 122.983 76.0947C122.186 80.1502 120.948 84.1064 119.289 87.8928C116.264 94.8114 111.892 101.061 106.426 106.279C102.792 109.743 98.754 112.758 94.3989 115.26C87.3812 119.314 79.688 122.07 71.6894 123.396C69.7152 123.722 67.741 123.976 65.7425 123.94C65.7021 123.934 65.6608 123.936 65.6213 123.946C65.5817 123.957 65.5447 123.975 65.5124 124H58.4876C57.9532 123.927 57.4114 123.912 56.8704 123.898C56.4305 123.886 55.9911 123.874 55.5565 123.831C51.7449 123.414 47.9789 122.653 44.3047 121.558C36.6416 119.309 29.443 115.71 23.0486 110.933C20.2993 108.887 17.7377 106.601 15.394 104.103C8.04167 96.2675 3.05061 86.5227 0.99316 75.9859C0.448132 73.254 0.0242235 70.51 0.0605587 67.7177C0.0605587 67.7 0.0613661 67.6824 0.0621702 67.6648C0.0657703 67.5861 0.0693031 67.5088 0 67.4397V61.5165ZM59.396 115.647L59.2264 115.49L58.7904 115.067C50.2122 106.628 41.7009 98.1234 33.1866 89.6154C30.8213 87.2519 28.4559 84.8882 26.0887 82.5256C25.1319 81.5707 23.4362 81.5223 22.5763 82.4894C21.7164 83.4564 21.5952 84.8224 22.7095 85.9345L55.2053 118.367C55.3774 118.504 55.5356 118.658 55.6777 118.826C52.022 118.433 48.4149 117.676 44.9103 116.566C42.1272 115.688 39.4044 114.63 36.7591 113.399C33.6392 111.954 30.6523 110.239 27.8328 108.273C26.1387 107.108 24.5206 105.836 22.9881 104.466C22.8788 104.369 22.7694 104.273 22.6598 104.176C21.6156 103.257 20.5625 102.329 19.6089 101.323C17.5929 99.2164 15.7386 96.9616 14.0617 94.5775C9.13914 87.399 6.06498 79.1203 5.11116 70.4738C5.09438 70.32 5.07722 70.1661 5.06004 70.012C4.94078 68.9422 4.82048 67.8631 4.82048 66.7748C4.82048 66.451 4.79614 66.1236 4.77167 65.7947C4.75048 65.5098 4.7292 65.2236 4.72358 64.9374C4.71147 64.6836 4.7357 64.5264 5.06271 64.5264C5.85606 64.5364 6.64735 64.532 7.43743 64.5276C8.56519 64.5213 9.69049 64.515 10.8158 64.5506C12.4509 64.611 14.086 64.7198 15.6968 64.9132C19.294 65.3363 22.8549 65.9286 26.3551 66.9199C29.417 67.7685 32.3868 68.9185 35.2209 70.3529C37.6596 71.5854 39.958 73.0769 42.0762 74.8013C43.2874 75.7925 44.4864 76.7838 45.5523 77.9201C47.7566 80.2531 49.7187 82.7674 51.3417 85.5477C53.2667 88.8234 54.8225 92.3018 55.9805 95.9193C56.8671 98.6754 57.5751 101.486 58.1 104.333C58.4876 106.4 58.8025 108.491 58.9842 110.594C59.0188 110.958 59.0583 111.323 59.0978 111.687C59.2105 112.725 59.3233 113.766 59.3233 114.813C59.3233 114.909 59.3564 115.002 59.3902 115.096C59.4501 115.264 59.5121 115.438 59.396 115.647ZM68.7826 118.379C68.6171 118.519 68.4432 118.648 68.2618 118.766C69.2772 118.733 70.2891 118.628 71.2897 118.452C78.0419 117.278 84.5556 115.008 90.5716 111.731C91.6738 111.126 92.7638 110.485 93.8175 109.821C96.0701 108.401 98.2229 106.83 100.261 105.118C102.431 103.295 104.459 101.311 106.329 99.1831C107.953 97.2987 109.454 95.3122 110.822 93.2357C111.883 91.6309 112.837 89.9593 113.681 88.2312C114.998 85.5898 116.084 82.8396 116.927 80.0113C117.554 77.8869 118.056 75.7275 118.429 73.5442C118.634 72.287 118.84 71.0177 118.949 69.7364C118.986 69.2529 119.034 68.7452 119.083 68.2616C119.167 67.4656 119.198 66.6637 119.23 65.86C119.244 65.5043 119.258 65.1483 119.276 64.7924C119.287 64.5314 119.132 64.5345 118.968 64.5378C118.95 64.5381 118.931 64.5385 118.913 64.5385C117.983 64.5705 117.054 64.5672 116.124 64.5639C114.946 64.5597 113.768 64.5556 112.591 64.6231C110.277 64.7561 107.988 64.9616 105.699 65.2517C103.955 65.4814 102.235 65.7957 100.527 66.1704C98.2096 66.6768 95.9309 67.3474 93.7085 68.177C90.9349 69.2287 88.2582 70.4738 85.7511 72.0815C82.7837 73.9672 80.0465 76.131 77.6847 78.7783C76.4913 80.096 75.379 81.4846 74.354 82.9366C72.4023 85.741 70.7693 88.7534 69.4851 91.9181C68.578 94.1222 67.8173 96.3836 67.208 98.6874C66.4935 101.419 65.8636 104.163 65.4882 106.968C65.4367 107.355 65.383 107.741 65.3292 108.128C65.168 109.289 65.0067 110.449 64.9068 111.61C64.8773 111.91 64.842 112.179 64.8052 112.46C64.7665 112.755 64.726 113.063 64.6888 113.435C64.6593 113.729 64.6597 114.023 64.6601 114.317C64.6607 114.748 64.6613 115.18 64.5677 115.611C64.6688 115.571 64.7598 115.509 64.8341 115.43C66.6905 113.628 68.5291 111.802 70.3664 109.977C71.1544 109.195 71.9422 108.413 72.731 107.633C78.819 101.626 84.8629 95.5822 90.9081 89.5366C93.2333 87.2112 95.5588 84.8856 97.8871 82.5619C98.6017 81.8487 99.4495 81.6674 100.394 81.897C101.981 82.2839 102.72 84.5202 101.375 85.862C90.5151 96.6929 79.6508 107.532 68.7826 118.379Z" fill="#460F81"/>
<path fill-rule="evenodd" clip-rule="evenodd" d="M39.3632 41.3293C39.3867 41.2745 39.4151 41.2219 39.4479 41.1722C39.9566 40.2535 40.1868 39.371 39.9687 38.2468C39.6296 36.5061 40.7439 35.2852 42.7908 34.7534C43.7961 34.4874 44.8256 34.4632 45.8551 34.4391C46.0973 34.4391 46.3759 34.4391 46.3759 34.7896C46.3759 34.9245 46.3764 35.0593 46.377 35.1942C46.3822 36.4612 46.3875 37.7254 45.9277 38.96C45.1283 41.0513 42.9846 41.5348 41.2405 40.6403C40.8287 40.4227 40.6954 40.5315 40.538 40.882C39.8476 42.2964 39.5933 43.8195 39.5206 45.3788C39.5168 45.4258 39.5157 45.4748 39.5146 45.524C39.5084 45.7913 39.5021 46.0641 39.0725 46.0437C38.6271 46.0225 38.6367 45.7419 38.6459 45.4695C38.6473 45.4308 38.6486 45.3923 38.6486 45.3546C38.656 43.6399 38.4112 41.9334 37.9219 40.2897C37.7038 39.5524 37.6191 39.4919 36.9166 39.6732C34.8091 40.1809 33.2104 39.1655 32.6896 37.0622C32.4116 35.9727 32.2892 34.8495 32.3262 33.7259C32.3262 33.3995 32.4352 33.2423 32.7744 33.2423C34.143 33.2182 35.4995 33.2544 36.8197 33.75C39.0604 34.5962 39.2784 36.7963 38.5517 38.3798C38.37 38.7666 38.3337 39.0567 38.5153 39.4315C38.8424 40.1084 38.9877 40.8337 39.133 41.559C39.2816 41.6183 39.2935 41.5367 39.3056 41.4535C39.3133 41.4011 39.321 41.348 39.3632 41.3293ZM37.8371 38.0292C37.1952 37.1468 36.5532 36.4699 35.7418 35.9622C35.7119 35.9423 35.6822 35.9214 35.6526 35.9007C35.4302 35.7443 35.2139 35.5923 34.9787 35.9017C34.7123 36.2523 35.0029 36.5061 35.2573 36.6754C35.8965 37.0961 36.4545 37.6285 36.9045 38.2468C37.1346 38.549 37.1225 38.6941 36.7107 38.815C35.2452 39.2501 34.0582 38.5974 33.5859 37.0018C33.3315 36.1677 33.2588 35.3094 33.1983 34.4391C33.1741 34.161 33.2588 34.0281 33.5616 34.0522L33.6758 34.0618C34.6429 34.1428 35.6079 34.2236 36.5169 34.5841C37.6917 35.0435 38.1641 35.8413 37.9945 37.0864C37.9717 37.2459 37.9441 37.4054 37.9087 37.6098C37.8878 37.7308 37.8641 37.8675 37.8371 38.0292ZM43.2753 35.5391C41.2768 35.938 40.5501 36.9171 40.9256 38.7424C41.0497 38.6351 41.1653 38.5306 41.2772 38.4294C41.4931 38.2342 41.6954 38.0513 41.9187 37.8842C42.2621 37.6403 42.6178 37.4144 42.9846 37.2073C43.2995 37.0138 43.6386 36.8688 43.8687 37.2798C44.0703 37.6397 43.7795 37.7864 43.5252 37.9147C43.4891 37.9329 43.4537 37.9508 43.4206 37.9688C42.7423 38.3245 42.125 38.7856 41.5917 39.3348C41.4343 39.5161 41.301 39.6732 41.5917 39.8666C42.6939 40.5798 44.4622 40.0842 45.0072 38.8754C45.4675 37.8479 45.5523 36.7479 45.6249 35.6358C45.6489 35.3246 45.483 35.3334 45.2563 35.3453L45.2495 35.3457C44.5875 35.3616 43.9277 35.4262 43.2753 35.5391Z" fill="#460F81"/>
<path d="M57.1432 14.3003C57.0975 14.3991 57.0406 14.4924 56.9736 14.5783L55.5565 15.9684C55.4112 16.1256 55.2538 16.2343 55.06 16.0168C54.8662 15.7992 54.951 15.642 55.1084 15.4849C55.5686 15.0377 56.029 14.5903 56.477 14.131C56.5982 14.0222 56.7435 13.9376 56.9131 14.0101C56.9747 14.0323 57.0289 14.0712 57.0696 14.1224C57.1103 14.1737 57.1358 14.2353 57.1432 14.3003Z" fill="#460F81"/>
<path d="M55.2901 13.3211C55.4839 13.3695 55.6292 13.4783 55.605 13.6838C55.5808 13.8893 55.4718 14.0222 55.2538 14.0101C55.2086 14.0087 55.1642 13.998 55.1234 13.9787C55.0826 13.9593 55.0463 13.9317 55.0167 13.8977C54.9871 13.8636 54.9649 13.8238 54.9515 13.7807C54.9381 13.7377 54.9338 13.6923 54.9389 13.6475C54.945 13.5588 54.9847 13.4757 55.0499 13.4151C55.1151 13.3545 55.201 13.3209 55.2901 13.3211Z" fill="#460F81"/>
<path d="M57.7851 15.7508C57.7609 15.9563 57.6519 16.1135 57.4581 16.1376C57.2643 16.1618 57.1311 16.0047 57.119 15.7992C57.1097 15.7596 57.1096 15.7184 57.1188 15.6788C57.128 15.6392 57.1461 15.6022 57.1719 15.5707C57.1976 15.5391 57.2302 15.5139 57.2673 15.497C57.3043 15.48 57.3447 15.4717 57.3854 15.4728C57.43 15.4641 57.4759 15.4645 57.5204 15.4738C57.5649 15.4832 57.607 15.5014 57.6443 15.5273C57.6816 15.5533 57.7132 15.5864 57.7374 15.6248C57.7616 15.6632 57.7778 15.7061 57.7851 15.7508Z" fill="#460F81"/>
<path d="M56.8041 17.6487C56.6103 17.6003 56.4649 17.4794 56.4771 17.2739C56.4768 17.2294 56.4859 17.1854 56.504 17.1446C56.522 17.1039 56.5485 17.0675 56.5817 17.0378C56.6149 17.0081 56.6541 16.9858 56.6966 16.9723C56.7391 16.9588 56.784 16.9545 56.8283 16.9596C57.01 16.9838 57.1795 17.1168 57.1553 17.3102C57.1311 17.5036 56.9979 17.6124 56.8041 17.6487Z" fill="#460F81"/>
<path d="M53.0615 15.4728C53.2917 15.4607 53.4128 15.5574 53.4249 15.7387C53.437 15.9201 53.3764 16.1135 53.1584 16.1497C52.9404 16.186 52.8193 16.0047 52.783 15.8234C52.7466 15.642 52.9162 15.5211 53.0615 15.4728Z" fill="#460F81"/>
<path d="M54.1274 17.3102C54.0668 17.4915 53.9457 17.6366 53.7519 17.6366C53.5581 17.6366 53.437 17.4794 53.437 17.286C53.4352 17.2416 53.4428 17.1973 53.4593 17.1561C53.4759 17.1149 53.501 17.0776 53.533 17.0467C53.5651 17.0159 53.6033 16.9922 53.6452 16.9772C53.6871 16.9622 53.7317 16.9562 53.7761 16.9596C53.8683 16.9627 53.9559 17.0006 54.0211 17.0657C54.0864 17.1308 54.1243 17.2182 54.1274 17.3102Z" fill="#460F81"/>
<path d="M55.278 17.5882C55.323 17.5843 55.3683 17.5904 55.4106 17.6062C55.4529 17.622 55.4911 17.647 55.5225 17.6795C55.5539 17.7119 55.5775 17.751 55.5918 17.7938C55.6061 17.8365 55.6106 17.882 55.605 17.9267C55.6084 18.0081 55.58 18.0876 55.5257 18.1485C55.4715 18.2094 55.3957 18.2469 55.3143 18.2531C55.2688 18.2581 55.2227 18.2538 55.1789 18.2406C55.1351 18.2273 55.0944 18.2053 55.0593 18.176C55.0242 18.1466 54.9955 18.1104 54.9748 18.0697C54.9541 18.0289 54.9419 17.9844 54.9389 17.9388C54.9354 17.8929 54.9417 17.8468 54.9574 17.8035C54.973 17.7602 54.9977 17.7207 55.0297 17.6876C55.0617 17.6545 55.1004 17.6286 55.1432 17.6114C55.186 17.5943 55.2319 17.5864 55.278 17.5882Z" fill="#460F81"/>
<path d="M54.1153 14.3123C54.0426 14.4816 53.9336 14.6266 53.7277 14.6145C53.6833 14.6137 53.6396 14.6031 53.5998 14.5835C53.56 14.5639 53.525 14.5358 53.4972 14.5012C53.4695 14.4666 53.4497 14.4263 53.4393 14.3832C53.4289 14.3402 53.4281 14.2953 53.437 14.2519C53.4384 14.2116 53.4481 14.172 53.4657 14.1356C53.4833 14.0993 53.5082 14.067 53.539 14.0408C53.5698 14.0147 53.6057 13.9952 53.6444 13.9837C53.6832 13.9721 53.7239 13.9688 53.764 13.9739C53.8551 13.9738 53.9427 14.0091 54.0082 14.0722C54.0737 14.1354 54.1121 14.2215 54.1153 14.3123Z" fill="#460F81"/>
<path d="M55.5081 22.2784C55.4983 22.2784 55.4884 22.2784 55.4786 22.2784C55.1738 22.2788 54.8783 22.2792 54.8783 21.9279C54.8783 21.5887 55.1325 21.5773 55.3537 21.5674C55.3689 21.5667 55.3842 21.566 55.3991 21.5652C55.6292 21.5531 55.9926 21.5773 56.0168 21.9037C56.041 22.2301 55.7261 22.2784 55.5081 22.2784Z" fill="#460F81"/>
<path fill-rule="evenodd" clip-rule="evenodd" d="M48.9841 20.8616C48.7789 20.8551 48.5734 20.8486 48.4106 21.0212C48.3691 21.5805 48.375 22.1397 48.381 22.7012C48.3854 23.1228 48.3899 23.5457 48.3743 23.9708C48.3622 24.4059 48.6165 24.4785 48.9557 24.4785C49.2104 24.4836 49.4785 24.4821 49.7447 24.4807C50.0986 24.4787 50.4492 24.4767 50.7603 24.4905C50.9415 24.4986 51.1254 24.4906 51.3102 24.4825C51.6812 24.4664 52.0558 24.4501 52.4196 24.5631C52.7951 25.2642 53.3764 25.4697 54.1637 25.4092C55.0509 25.3488 55.9411 25.3488 56.8283 25.4092C57.3128 25.4334 57.7488 25.1191 57.8941 24.8774C58.0395 24.6356 58.2211 24.5872 58.4876 24.5872H61.6851C62.0848 24.5872 62.2665 24.4664 62.2543 24.0312C62.218 23.1609 62.218 22.3026 62.2543 21.4322C62.2665 20.9971 62.0848 20.8641 61.6972 20.8641H59.4081C59.2921 20.862 59.1747 20.8658 59.0574 20.8695C58.5012 20.8873 57.9493 20.905 57.5792 20.296C57.5437 20.2476 57.4922 20.2134 57.4339 20.1993C56.8525 19.8971 56.8162 19.2201 57.3612 18.8333C58.1236 18.3259 58.6713 17.5553 58.8994 16.6695C59.3718 14.8805 58.1606 12.9343 56.5255 12.3057C54.8904 11.6771 52.892 12.4387 52.0199 14.0222C51.573 14.8099 51.4407 15.7371 51.6496 16.618C51.8585 17.4989 52.3931 18.2686 53.1463 18.7729C53.4813 19.0059 53.5015 19.2474 53.5278 19.5614C53.5329 19.6221 53.5382 19.6855 53.546 19.752C53.5817 20.0544 53.414 20.1081 53.2409 20.1636C53.1787 20.1835 53.1159 20.2036 53.0615 20.2355C52.9409 20.3038 52.8341 20.394 52.7466 20.5015C52.565 20.8278 52.2864 20.8762 51.9351 20.8641C51.3053 20.856 50.6755 20.8587 50.0457 20.8614C49.7308 20.8628 49.4159 20.8641 49.101 20.8641C49.0622 20.8641 49.0232 20.8629 48.9841 20.8616ZM58.318 15.8234C58.3301 14.1189 57.01 12.8255 55.2901 12.8134C53.5944 12.8134 52.25 14.0948 52.2379 15.7387C52.2315 16.1365 52.3045 16.5315 52.4525 16.9008C52.6006 17.2701 52.8208 17.6063 53.1004 17.8899C53.38 18.1734 53.7133 18.3985 54.0809 18.5522C54.4485 18.7059 54.8431 18.785 55.2416 18.7849C56.9494 18.797 58.3059 17.5278 58.318 15.8234ZM57.1432 14.3003C57.0975 14.3991 57.0406 14.4924 56.9736 14.5783L55.5565 15.9684C55.4112 16.1256 55.2538 16.2343 55.06 16.0168C54.8662 15.7992 54.951 15.642 55.1084 15.4849C55.5686 15.0377 56.029 14.5903 56.477 14.131C56.5982 14.0222 56.7435 13.9376 56.9131 14.0101C56.9747 14.0323 57.0289 14.0712 57.0696 14.1224C57.1103 14.1737 57.1358 14.2353 57.1432 14.3003ZM55.2901 13.3211C55.4839 13.3695 55.6292 13.4783 55.605 13.6838C55.5808 13.8893 55.4718 14.0222 55.2538 14.0101C55.2086 14.0087 55.1642 13.998 55.1234 13.9787C55.0826 13.9593 55.0463 13.9317 55.0167 13.8977C54.9871 13.8636 54.9649 13.8238 54.9515 13.7807C54.9381 13.7377 54.9338 13.6923 54.9389 13.6475C54.945 13.5588 54.9847 13.4757 55.0499 13.4151C55.1151 13.3545 55.201 13.3209 55.2901 13.3211ZM57.7851 15.7508C57.7609 15.9563 57.6519 16.1135 57.4581 16.1376C57.2643 16.1618 57.1311 16.0047 57.119 15.7992C57.1097 15.7596 57.1096 15.7184 57.1188 15.6788C57.128 15.6392 57.1461 15.6022 57.1719 15.5707C57.1976 15.5391 57.2302 15.5139 57.2673 15.497C57.3043 15.48 57.3447 15.4717 57.3854 15.4728C57.43 15.4641 57.4759 15.4645 57.5204 15.4738C57.5649 15.4832 57.607 15.5014 57.6443 15.5273C57.6816 15.5533 57.7132 15.5864 57.7374 15.6248C57.7616 15.6632 57.7778 15.7061 57.7851 15.7508ZM56.8041 17.6487C56.6103 17.6003 56.4649 17.4794 56.4771 17.2739C56.4768 17.2294 56.4859 17.1854 56.504 17.1446C56.522 17.1039 56.5485 17.0675 56.5817 17.0378C56.6149 17.0081 56.6541 16.9858 56.6966 16.9723C56.7391 16.9588 56.784 16.9545 56.8283 16.9596C57.01 16.9838 57.1795 17.1168 57.1553 17.3102C57.1311 17.5036 56.9979 17.6124 56.8041 17.6487ZM53.0615 15.4728C53.2917 15.4607 53.4128 15.5574 53.4249 15.7387C53.437 15.9201 53.3764 16.1135 53.1584 16.1497C52.9404 16.186 52.8193 16.0047 52.783 15.8234C52.7466 15.642 52.9162 15.5211 53.0615 15.4728ZM54.1274 17.3102C54.0668 17.4915 53.9457 17.6366 53.7519 17.6366C53.5581 17.6366 53.437 17.4794 53.437 17.286C53.4352 17.2416 53.4428 17.1973 53.4593 17.1561C53.4759 17.1149 53.501 17.0776 53.533 17.0467C53.5651 17.0159 53.6033 16.9922 53.6452 16.9772C53.6871 16.9622 53.7317 16.9562 53.7761 16.9596C53.8683 16.9627 53.9559 17.0006 54.0211 17.0657C54.0864 17.1308 54.1243 17.2182 54.1274 17.3102ZM55.278 17.5882C55.323 17.5843 55.3683 17.5904 55.4106 17.6062C55.4529 17.622 55.4911 17.647 55.5225 17.6795C55.5539 17.7119 55.5775 17.751 55.5918 17.7938C55.6061 17.8365 55.6106 17.882 55.605 17.9267C55.6084 18.0081 55.58 18.0876 55.5257 18.1485C55.4715 18.2094 55.3957 18.2469 55.3143 18.2531C55.2688 18.2581 55.2227 18.2538 55.1789 18.2406C55.1351 18.2273 55.0944 18.2053 55.0593 18.176C55.0242 18.1466 54.9955 18.1104 54.9748 18.0697C54.9541 18.0289 54.9419 17.9844 54.9389 17.9388C54.9354 17.8929 54.9417 17.8468 54.9574 17.8035C54.973 17.7602 54.9977 17.7207 55.0297 17.6876C55.0617 17.6545 55.1004 17.6286 55.1432 17.6114C55.186 17.5943 55.2319 17.5864 55.278 17.5882ZM54.1153 14.3123C54.0426 14.4816 53.9336 14.6266 53.7277 14.6145C53.6833 14.6137 53.6396 14.6031 53.5998 14.5835C53.56 14.5639 53.525 14.5358 53.4972 14.5012C53.4695 14.4666 53.4497 14.4263 53.4393 14.3832C53.4289 14.3402 53.4281 14.2953 53.437 14.2519C53.4384 14.2116 53.4481 14.172 53.4657 14.1356C53.4833 14.0993 53.5082 14.067 53.539 14.0408C53.5698 14.0147 53.6057 13.9952 53.6444 13.9837C53.6832 13.9721 53.7239 13.9688 53.764 13.9739C53.8551 13.9738 53.9427 14.0091 54.0082 14.0722C54.0737 14.1354 54.1121 14.2215 54.1153 14.3123ZM55.3143 19.4619L55.9199 19.4256C55.9444 19.423 55.9687 19.4199 55.9925 19.4168C56.1915 19.3912 56.3546 19.3702 56.3438 19.7157C56.3317 20.1026 56.2227 20.1388 55.9078 20.1146C55.488 20.0945 55.0675 20.0985 54.6482 20.1267C54.2969 20.1509 54.2485 19.9817 54.2485 19.6916C54.2485 19.4014 54.4423 19.4014 54.6482 19.4256C54.7847 19.4416 54.9371 19.447 55.0879 19.4524C55.1646 19.4551 55.2408 19.4578 55.3143 19.4619ZM56.8041 20.8157C56.4734 20.8238 56.1375 20.8211 55.7997 20.8184C55.6301 20.8171 55.4601 20.8157 55.2901 20.8157L53.5944 20.8278C53.3159 20.8278 53.1463 20.9487 53.1463 21.2751C53.1463 21.6015 53.328 21.6136 53.5944 21.6015C53.6139 21.6006 53.6337 21.5995 53.6537 21.5984C53.907 21.5846 54.1888 21.5693 54.2 21.9279C54.2121 22.3147 53.873 22.3026 53.5581 22.2784C53.5346 22.2766 53.5122 22.2747 53.4909 22.2728C53.2277 22.25 53.136 22.242 53.1584 22.6894C53.1827 23.1729 53.1705 23.7773 53.1584 24.14C53.1463 24.5026 53.3159 24.6839 53.6429 24.6839H56.9131C56.9309 24.6839 56.9493 24.6843 56.9682 24.6847C57.1421 24.6879 57.3491 24.6918 57.3491 24.4301C57.3491 24.2471 57.3105 24.2517 57.2 24.2648C57.1353 24.2725 57.0459 24.2832 56.9252 24.2609C56.8401 24.2451 56.741 24.245 56.641 24.2448C56.3568 24.2443 56.0652 24.2438 56.0652 23.8861C56.0652 23.5062 56.3644 23.5368 56.663 23.5673C56.7444 23.5756 56.8257 23.5839 56.901 23.5839C57.2522 23.5839 57.4097 23.5235 57.3854 23.1246C57.3552 22.5407 57.3552 21.9557 57.3854 21.3718C57.3975 20.9487 57.3006 20.8037 56.8041 20.8157ZM55.4786 22.2784C55.1738 22.2788 54.8783 22.2792 54.8783 21.9279C54.8783 21.5887 55.1325 21.5773 55.3537 21.5674C55.3689 21.5667 55.3842 21.566 55.3991 21.5652C55.6292 21.5531 55.9926 21.5773 56.0168 21.9037C56.041 22.2301 55.7261 22.2784 55.5081 22.2784L55.4786 22.2784ZM50.8693 21.5289C51.0284 21.5504 51.2166 21.5292 51.4088 21.5075C51.7579 21.4681 52.1204 21.4273 52.3469 21.6377C52.5689 21.844 52.5297 22.1999 52.4891 22.5682C52.4654 22.7827 52.4413 23.0014 52.4681 23.1971C52.5407 23.729 52.3469 23.9707 51.7535 23.9345C51.16 23.8982 50.2395 23.9103 49.4765 23.9224C49.1131 23.9345 48.9557 23.8499 48.9799 23.451C49.0102 22.9518 49.0102 22.4512 48.9799 21.952C48.9678 21.6377 49.0768 21.5169 49.3917 21.5289C49.5972 21.5368 49.9266 21.5344 50.2855 21.5318C50.4764 21.5304 50.6758 21.5289 50.8693 21.5289ZM59.4063 23.9197C59.553 23.9211 59.6992 23.9224 59.8441 23.9224C59.9854 23.9224 60.1375 23.9197 60.2896 23.917C60.5937 23.9117 60.8978 23.9063 61.1158 23.9224C61.4429 23.9466 61.6003 23.8499 61.5761 23.4872C61.5458 22.984 61.5458 22.4794 61.5761 21.9762C61.5882 21.6377 61.4671 21.5169 61.128 21.5289C60.2559 21.5531 59.3839 21.541 58.5239 21.5289C58.209 21.5289 58.0879 21.6136 58.1 21.9399C58.1121 22.4597 58.1121 22.9795 58.1 23.5114C58.0879 23.8257 58.0879 23.9345 58.5239 23.9224C58.8151 23.9143 59.1116 23.917 59.4063 23.9197Z" fill="#460F81"/>
<path d="M84.649 33.9918C84.832 33.9734 85.0169 33.9934 85.1918 34.0505C85.3667 34.1077 85.5277 34.2007 85.6644 34.3235C85.8012 34.4464 85.9107 34.5964 85.986 34.764C86.0612 34.9316 86.1005 35.1131 86.1013 35.2967C86.1022 35.4804 86.0646 35.6622 85.9909 35.8304C85.9172 35.9987 85.8091 36.1498 85.6734 36.2739C85.5378 36.398 85.3777 36.4925 85.2034 36.5512C85.029 36.6099 84.8443 36.6316 84.6611 36.6149C84.478 36.6333 84.2931 36.6133 84.1182 36.5562C83.9433 36.4991 83.7823 36.4061 83.6456 36.2832C83.5088 36.1603 83.3993 36.0103 83.3241 35.8427C83.2488 35.6751 83.2095 35.4937 83.2087 35.31C83.2078 35.1264 83.2455 34.9446 83.3192 34.7763C83.3928 34.608 83.501 34.457 83.6366 34.3329C83.7722 34.2087 83.9323 34.1143 84.1067 34.0555C84.281 33.9968 84.4657 33.9751 84.649 33.9918Z" fill="#460F81"/>
<path d="M85.1213 35.2973C85.085 35.5874 84.9275 35.7567 84.6611 35.7567C84.3946 35.7567 84.1766 35.5754 84.1766 35.3215C84.1748 35.2565 84.1866 35.1918 84.2111 35.1316C84.2356 35.0713 84.2723 35.0168 84.3189 34.9713C84.3656 34.9259 84.4211 34.8906 84.4821 34.8677C84.543 34.8447 84.6081 34.8346 84.6732 34.838C84.9275 34.838 85.0971 35.0314 85.1213 35.2973Z" fill="#460F81"/>
<path fill-rule="evenodd" clip-rule="evenodd" d="M82.5514 36.7519C83.0478 37.5499 83.7712 37.8598 84.7216 37.8358C86.175 37.7875 87.253 36.7237 87.1682 35.3819C87.1327 34.82 87.0632 34.2601 86.9935 33.6988C86.8968 32.92 86.7998 32.1383 86.7927 31.3445C86.7882 31.1407 86.7425 30.94 86.6583 30.7543C86.574 30.5687 86.453 30.4019 86.3025 30.2641C86.152 30.1264 85.9752 30.0204 85.7826 29.9526C85.59 29.8849 85.3857 29.8567 85.1819 29.8698C84.5278 29.906 84.4552 29.628 84.5036 29.1082C84.513 28.939 84.581 28.8064 84.6506 28.6706C84.6706 28.6317 84.6907 28.5925 84.7095 28.5521C84.9518 28.0324 84.8428 27.4159 84.4431 27.1258C84.0434 26.8356 83.0381 26.8719 82.6747 27.2104C82.3114 27.5488 82.2993 28.262 82.5536 28.6489C82.7698 28.9777 82.7322 29.3065 82.6938 29.6428C82.687 29.702 82.6802 29.7617 82.6747 29.8214C82.4685 29.8018 82.4454 29.6789 82.4247 29.5687C82.4199 29.5429 82.4152 29.5179 82.4083 29.495C82.3367 29.2554 82.268 29.0143 82.1992 28.7728C82.0702 28.3198 81.9407 27.8653 81.7906 27.4159C81.6937 27.1137 81.6573 26.8356 81.8875 26.606C82.1176 26.3763 82.1055 26.0741 81.9602 25.7598C81.8148 25.4455 81.6452 25.3367 81.2092 25.3609C81.0627 25.369 80.9149 25.3826 80.7675 25.3961C80.4762 25.4229 80.1867 25.4495 79.9133 25.4334C78.8498 25.3463 77.781 25.3578 76.7139 25.3692C76.1526 25.3753 75.5917 25.3813 75.0322 25.373C74.4024 25.373 74.1239 26.195 74.4872 26.5818C74.8391 26.9564 74.8388 27.2743 74.8385 27.7442L74.8384 27.7906C74.8384 27.9132 74.8377 28.0403 74.837 28.1687C74.8347 28.5592 74.8323 28.962 74.8506 29.2895C74.8748 29.7247 74.7658 29.9786 74.3298 30.172C73.5546 30.5104 73.3971 30.9093 73.5183 31.7797C73.5452 31.8836 73.5504 31.9919 73.5338 32.0979C73.5171 32.204 73.4789 32.3055 73.4214 32.3962C73.085 32.8831 72.9465 33.4794 73.0338 34.0643L73.0343 34.0632L73.0338 34.0764C73.0329 34.0997 73.0319 34.123 73.031 34.1462C73.0072 34.7265 72.984 35.2955 73.2518 35.8534C74.3419 38.1018 77.4304 38.549 79.017 36.893C79.6105 36.2644 80.1918 36.0951 80.9549 36.1677C81.0757 36.1798 81.1974 36.1798 81.3182 36.1677C81.8633 36.071 82.2872 36.2281 82.5415 36.7479C82.5449 36.7492 82.5482 36.7505 82.5514 36.7519ZM79.8114 25.889C79.8127 25.8873 79.8141 25.8857 79.8154 25.884C79.8157 25.8869 79.8161 25.8898 79.8164 25.8928L79.8207 25.8955L79.8217 25.8937C80.0054 25.9256 80.1845 25.9823 80.3641 26.0391C80.4665 26.0715 80.5691 26.1039 80.6728 26.1318C80.8048 26.1674 80.9386 26.1956 81.076 26.2071H75.2866V26.0741H75.6146C75.4851 26.0594 75.3891 26.0433 75.335 26.0257H78.8838C78.9498 26.0257 79.0159 26.0286 79.0817 26.0315C79.3176 26.0418 79.5501 26.0519 79.7679 25.929C79.7841 25.9176 79.7987 25.9041 79.8114 25.889ZM76.6589 26.1415C77.2728 26.1453 77.9206 26.1403 78.5876 26.1345H79.2592C79.2958 26.1345 79.3344 26.1372 79.3736 26.14C79.465 26.1464 79.5595 26.1531 79.6381 26.1259C79.3437 26.1279 79.0515 26.1304 78.7626 26.133L78.5876 26.1345H76.4928H76.0617C76.2567 26.138 76.4559 26.1402 76.6589 26.1415ZM79.3561 34.2457C79.353 34.9875 79.058 35.6985 78.5347 36.2253C78.0113 36.7521 77.3016 37.0527 76.5583 37.0622C75.0322 37.0743 73.7242 35.7808 73.7242 34.2698C73.7363 33.1577 74.9353 31.4896 75.7347 31.5017C78.0602 31.5137 79.3319 32.4808 79.3561 34.2457ZM74.6689 34.2698C74.6689 35.3457 75.444 36.1314 76.522 36.1435C77.0199 36.1515 77.5006 35.9618 77.8583 35.6161C78.2161 35.2704 78.4215 34.797 78.4296 34.3001C78.4376 33.8031 78.2475 33.3234 77.9011 32.9663C77.5548 32.6093 77.0804 32.4042 76.5825 32.3962C75.4683 32.3841 74.6689 33.194 74.6689 34.2698ZM82.8685 35.2973C82.8685 36.2281 83.7285 37.0622 84.6732 37.0622C85.6179 37.0501 86.4536 36.2039 86.4294 35.2732C86.4109 34.8176 86.2189 34.3862 85.8925 34.0671C85.5661 33.7481 85.1299 33.5655 84.6732 33.5566C83.7163 33.5445 82.8685 34.3665 82.8685 35.2973ZM84.649 33.9918C84.832 33.9734 85.0169 33.9934 85.1918 34.0505C85.3667 34.1077 85.5277 34.2007 85.6644 34.3235C85.8012 34.4464 85.9107 34.5964 85.986 34.764C86.0612 34.9316 86.1005 35.1131 86.1013 35.2967C86.1022 35.4804 86.0646 35.6622 85.9909 35.8304C85.9172 35.9987 85.8091 36.1498 85.6734 36.2739C85.5378 36.398 85.3777 36.4925 85.2034 36.5512C85.029 36.6099 84.8443 36.6316 84.6611 36.6149C84.478 36.6333 84.2931 36.6133 84.1182 36.5562C83.9433 36.4991 83.7823 36.4061 83.6456 36.2832C83.5088 36.1603 83.3993 36.0103 83.3241 35.8427C83.2488 35.6751 83.2095 35.4937 83.2087 35.31C83.2078 35.1264 83.2455 34.9446 83.3192 34.7763C83.3928 34.608 83.501 34.457 83.6366 34.3329C83.7722 34.2087 83.9323 34.1143 84.1067 34.0555C84.281 33.9968 84.4657 33.9751 84.649 33.9918ZM77.5999 34.2577C77.612 34.7896 77.0912 35.2973 76.5583 35.3094C76.0254 35.3215 75.4925 34.8017 75.4925 34.2819C75.4925 33.7621 76.0012 33.2303 76.5341 33.2303C77.067 33.2303 77.5878 33.7259 77.5999 34.2577ZM81.0224 30.6781C80.5644 30.6789 80.1023 30.6797 79.6347 30.6797C79.7486 30.8186 79.8552 30.9415 79.9544 31.0559C80.14 31.2697 80.2999 31.454 80.4341 31.6588C80.7974 32.2149 81.1365 32.9039 81.1002 33.4962C81.0639 34.0885 80.6763 34.3665 80.2403 34.6567C79.998 34.8259 80.0707 35.3578 80.313 35.3699C80.8095 35.394 81.3182 35.3819 81.8269 35.3699C82.0074 35.3699 82.0302 35.2372 82.0533 35.1024C82.0581 35.0744 82.0629 35.0463 82.0692 35.0193C82.4204 33.327 83.4983 32.5654 85.1819 32.7467C85.2816 32.7592 85.3926 32.8029 85.5014 32.8457C85.7099 32.9277 85.91 33.0064 86.0055 32.8555C86.1115 32.688 86.0822 32.4305 86.0539 32.1815C86.0434 32.089 86.033 31.9977 86.0297 31.9126C86.0055 31.2236 85.63 30.7038 85.0123 30.6917C83.6992 30.6737 82.3794 30.6759 81.0224 30.6781ZM78.9201 28.3467C78.9201 26.9685 78.9201 26.9685 80.2654 26.9686L80.3008 26.9686C80.64 26.9686 80.8095 27.0532 80.9064 27.3917C81.0356 27.8833 81.1863 28.3641 81.3371 28.8449C81.4124 29.0854 81.4878 29.3258 81.5605 29.5676C81.6331 29.7851 81.5605 29.8698 81.3424 29.8698C80.64 29.8536 79.9375 29.8536 79.235 29.8698C78.9928 29.8698 78.9201 29.761 78.9201 29.5434V28.3467ZM77.9014 29.7916C77.9543 29.8016 78.0072 29.8116 78.0602 29.8214C78.1492 29.5648 78.1332 29.3162 78.1178 29.0757C78.1143 29.0217 78.1108 28.968 78.1086 28.9148C78.0967 28.709 78.1225 28.476 78.148 28.2446C78.2006 27.7693 78.2524 27.3009 77.9754 27.0895C77.6877 26.8699 77.1989 26.91 76.7115 26.9499C76.5014 26.9671 76.2915 26.9843 76.0981 26.9807H75.977C75.7468 26.9565 75.6499 27.0653 75.6499 27.295C75.6499 28.0082 75.6499 28.7335 75.6621 29.4588C75.6621 29.6159 75.7105 29.7126 75.9164 29.6763C76.578 29.542 77.2397 29.6668 77.9014 29.7916ZM83.6195 27.7664L83.6248 27.7668C83.8054 27.7788 84.019 27.793 84.007 28.0324C83.9949 28.2741 83.7648 28.2741 83.5952 28.262C83.5787 28.2609 83.5615 28.2599 83.544 28.2589C83.3827 28.25 83.1944 28.2396 83.1834 28.0324C83.1723 27.8215 83.3959 27.794 83.5732 27.7723C83.5891 27.7703 83.6046 27.7684 83.6195 27.7664ZM83.5953 29.0599C83.7648 29.3137 83.7164 29.5313 83.6074 29.9302C83.4984 29.5434 83.4741 29.3258 83.5953 29.0599ZM75.7832 30.6071C76.3161 30.7401 76.849 30.7885 77.3819 30.5709C77.3719 30.7801 77.5019 30.8005 77.636 30.8215C77.6646 30.8259 77.6934 30.8304 77.721 30.8368L77.7235 30.8343C77.7225 30.8389 77.7217 30.8438 77.721 30.8489C77.7434 30.8615 77.7658 30.8744 77.7883 30.8873C77.9603 30.9863 78.1366 31.0879 78.3508 31.0665C78.3396 30.7627 78.129 30.7312 77.9144 30.6991C77.8984 30.6967 77.8823 30.6943 77.8664 30.6917C77.8532 30.6857 77.84 30.6795 77.8268 30.6733C77.6824 30.6059 77.5363 30.5376 77.3698 30.5709C76.8369 30.3654 76.3161 30.2687 75.7953 30.6071H75.7832ZM77.8664 30.6917C77.8513 30.7068 77.8326 30.7184 77.8137 30.7301C77.7753 30.7539 77.7359 30.7783 77.7235 30.8343L77.8664 30.6917ZM75.7953 30.6192H75.7832C75.6489 31.0831 75.3032 31.0899 74.949 31.0968C74.8878 31.098 74.8264 31.0992 74.7658 31.1027C74.7573 31.1061 74.7492 31.109 74.7415 31.1114C74.7497 31.1038 74.7578 31.0968 74.7658 31.0907L74.6161 30.9758C74.9515 30.7157 75.3715 30.5887 75.7953 30.6192ZM74.6161 30.9758L74.6083 30.9698C74.5893 30.9793 74.5676 30.9888 74.545 30.9986C74.4238 31.0516 74.278 31.1154 74.3903 31.2478C74.492 31.3678 74.5937 31.2623 74.6846 31.1681C74.7041 31.1479 74.7231 31.1282 74.7415 31.1114C74.6397 31.1424 74.6083 31.083 74.6083 30.9819L74.6161 30.9758ZM78.8417 31.468C78.6501 31.3647 78.4599 31.2622 78.3508 31.0544C78.6325 30.9184 78.7847 31.0817 78.9352 31.2432C78.9853 31.297 79.0352 31.3506 79.0897 31.3929C79.1161 31.4134 79.1357 31.4312 79.1497 31.4467C79.1298 31.4326 79.1097 31.4187 79.0897 31.405L78.9686 31.5379C78.9268 31.5138 78.8842 31.4909 78.8417 31.468ZM79.4288 32.0335L78.9686 31.5379C79.0537 31.5485 79.2511 31.5592 79.1497 31.4467C79.3224 31.5688 79.486 31.7067 79.562 31.9126C79.5294 31.9149 79.4986 31.9281 79.4744 31.95C79.4502 31.9719 79.4342 32.0014 79.4288 32.0335ZM79.9012 32.8072L79.4288 32.0335L79.562 31.9126C79.7789 32.1102 79.9416 32.3599 80.0344 32.6379C80.0083 32.6356 79.9846 32.6309 79.9638 32.6268C79.8783 32.61 79.8427 32.603 79.9012 32.8072ZM79.9012 32.8072C79.9738 33.061 80.0465 33.3149 80.1555 33.738C80.3543 33.2786 80.2187 33.0086 80.0923 32.7566C80.0723 32.7168 80.0526 32.6775 80.0344 32.6379C79.9863 32.6913 79.9418 32.7479 79.9012 32.8072ZM80.2744 26.1228C80.3719 26.1226 80.4696 26.1224 80.5673 26.1224C80.4628 26.1485 80.3661 26.1449 80.2744 26.1228Z" fill="#460F81"/>
</svg>
