<svg width="124" height="124" viewBox="0 0 124 124" fill="none" xmlns="http://www.w3.org/2000/svg">
<path d="M63.3627 12.4799C64.0168 12.6129 64.695 12.6976 65.3248 12.879C67.9773 13.6166 70.1816 14.9106 71.8894 16.8696C73.3876 18.5554 74.3637 20.639 74.6993 22.8677C74.7839 23.5212 74.8203 24.18 74.8083 24.8388C74.8204 29.422 74.8204 34.0173 74.8204 38.6005C74.8204 41.7688 73.8272 44.5986 71.4412 47.0292C69.9152 48.5892 68.0863 49.6776 65.8699 50.3669C63.8956 50.9836 61.8972 51.165 59.8746 50.8022C58.191 50.512 56.5439 50.0041 55.1147 49.1092C51.9414 47.1139 50.0035 44.4051 49.3495 41.0191C49.2064 40.2211 49.1415 39.4111 49.1557 38.6005C49.1557 34.0778 49.1799 29.555 49.1436 25.0444C49.1315 22.65 49.6402 20.3765 50.9846 18.2845C51.6569 17.2444 52.4863 16.3143 53.4433 15.5273C54.5212 14.6324 55.7566 13.9915 57.0768 13.399C58.0699 12.9636 59.0994 12.758 60.1531 12.5887C60.2379 12.5766 60.3469 12.6008 60.3712 12.4799H63.3627ZM71.09 31.6834C71.09 29.4583 71.0779 27.2453 71.09 25.0202C71.1021 23.9318 71.0052 22.8556 70.6298 21.7914C69.7214 19.2277 67.8562 17.3896 65.0341 16.4222C62.6118 15.5999 60.1653 15.6845 57.8519 16.9059C56.9314 17.3775 56.0715 17.8975 55.3569 18.6231C53.6855 20.3161 52.8861 22.2509 52.8861 24.4639C52.8861 29.0229 52.9103 33.582 52.874 38.141C52.8619 40.1 53.1889 41.9502 54.388 43.6674C55.8172 45.6869 57.8761 46.8841 60.4438 47.392C61.8792 47.6894 63.3696 47.5762 64.7435 47.0655C65.9546 46.606 67.0931 46.1344 68.0621 45.2999C70.1089 43.5344 71.0658 41.4181 71.0779 38.9512C71.09 36.4842 71.09 34.1019 71.09 31.6834Z" fill="#1ED760"/>
<path d="M50.8399 70.7809C50.0284 70.7809 49.4834 70.3939 49.2654 69.6562C49.0474 68.9186 49.2775 68.2655 49.871 67.7214C50.1364 67.485 50.4848 67.3632 50.8399 67.3828H60.0448C60.3839 67.3828 60.4808 67.3102 60.4808 66.9232C60.4566 65.5809 60.4445 64.2386 60.4808 62.8963C60.4929 62.4489 60.3476 62.328 59.9721 62.2917C58.4252 62.1622 56.9148 61.7525 55.515 61.0824C54.4976 60.5866 53.456 60.0787 52.5356 59.3773C51.2409 58.4155 50.0694 57.2986 49.0474 56.0518C46.9642 53.4034 45.5229 50.3923 44.881 46.9821C44.8325 46.7765 44.7962 46.5589 44.7598 46.3533C44.5418 45.2286 45.0626 44.3338 46.08 44.0677C46.5766 43.9347 47.5577 44.7207 47.6788 45.41C47.8892 46.6599 48.2052 47.8897 48.6235 49.0863C48.8695 49.7582 49.1608 50.4127 49.4955 51.0453C50.0258 52.0511 50.659 52.9994 51.3849 53.875C52.5633 55.2755 53.9824 56.4549 55.5756 57.3578C58.0585 58.7968 60.6988 59.1838 63.4603 58.9299C64.9015 58.8072 66.3088 58.4262 67.6146 57.8052C69.3395 56.958 70.8855 55.788 72.1686 54.3588C72.9139 53.5282 73.5677 52.62 74.1186 51.65C75.1239 49.8602 75.8627 47.9616 76.1534 45.8937C76.2987 44.9384 76.7711 44.3338 77.5825 44.104C78.0186 43.971 78.4667 44.2975 78.8058 44.6482C79.1449 44.9989 79.3266 45.6398 79.2176 46.2565C78.7089 49.0621 77.7884 51.6862 76.2745 54.0564C75.5668 55.1775 74.7559 56.2301 73.8521 57.2006C72.4533 58.6469 70.8245 59.8523 69.0317 60.768C67.4329 61.6145 65.7615 62.0619 64.0174 62.2796C63.6056 62.34 63.4482 62.4489 63.4603 62.9326C63.4966 64.2628 63.4845 65.593 63.4603 66.9232C63.4603 67.286 63.533 67.3828 63.8963 67.3828H73.1012C74.0217 67.3828 74.7484 68.1567 74.7484 69.112C74.7484 70.0674 74.1186 70.7809 73.1012 70.7809H50.8399Z" fill="#1ED760"/>
<path d="M17.7011 32.6027C17.7011 35.9041 17.6768 39.2175 17.7132 42.5189C17.7132 43.5588 17.5557 44.4174 16.502 44.4416C15.4483 44.4658 15.1939 43.6193 15.2061 42.4947C15.2222 35.8436 15.2182 29.1845 15.1939 22.5173C15.1939 21.4773 15.3635 20.6308 16.4051 20.5945C17.4467 20.5582 17.7253 21.4289 17.7132 22.5414C17.689 25.8912 17.7011 29.253 17.7011 32.6027Z" fill="#1ED760"/>
<path d="M108.243 32.4573C108.243 35.8554 108.231 39.2656 108.255 42.6637C108.255 43.6915 107.977 44.405 107.032 44.4413C106.087 44.4776 105.712 43.6915 105.712 42.6274C105.728 35.8634 105.732 29.1116 105.724 22.3718C105.724 21.3681 105.991 20.6184 106.947 20.5942C107.904 20.57 108.268 21.2956 108.255 22.4081C108.219 25.7578 108.243 29.1075 108.243 32.4573Z" fill="#1ED760"/>
<path d="M32.188 32.4577C32.188 29.108 32.2123 25.7582 32.1759 22.4085C32.1638 21.3081 32.4424 20.5825 33.4719 20.5946C34.5014 20.6067 34.7194 21.3322 34.7073 22.3601V42.6036C34.7073 43.6436 34.4408 44.478 33.3992 44.4417C32.3576 44.4054 32.1759 43.5589 32.1759 42.5189C32.2002 39.1692 32.188 35.8195 32.188 32.4577Z" fill="#1ED760"/>
<path d="M91.2213 32.6389C91.2213 35.9887 91.2092 39.3384 91.2334 42.676C91.2455 43.716 90.9912 44.4295 90.0343 44.4416C89.0775 44.4537 88.8111 43.716 88.8111 42.7002C88.8191 35.904 88.8151 29.1159 88.799 22.3358C88.7868 21.3079 89.0533 20.5944 90.0222 20.5944C90.9912 20.5944 91.2576 21.2837 91.2576 22.3237C91.2213 25.7581 91.2455 29.2046 91.2455 32.6389H91.2213Z" fill="#1ED760"/>
<path d="M26.5424 32.4216C26.5424 29.7612 26.5666 27.1128 26.5424 24.4524C26.5303 23.3882 26.7362 22.6022 27.7899 22.6143C28.8436 22.6264 29.0374 23.3398 29.0374 24.3436C29.0374 29.7974 29.0253 35.2513 29.0374 40.7052C29.0374 41.7452 28.6862 42.4466 27.7657 42.4224C26.8452 42.3982 26.5182 41.7331 26.5424 40.6689C26.5788 37.9238 26.5545 35.1788 26.5545 32.4216H26.5424Z" fill="#1ED760"/>
<path d="M96.9087 32.5426C96.9087 35.2514 96.8844 37.9602 96.9087 40.6811C96.9208 41.7211 96.6301 42.4225 95.6854 42.4346C94.7407 42.4467 94.45 41.7211 94.45 40.6811C94.4742 35.1668 94.4782 29.6565 94.4621 24.1502C94.4621 23.1827 94.8012 22.6386 95.6127 22.6023C96.4242 22.566 96.9087 23.086 96.9087 24.1381C96.8965 26.9315 96.9087 29.7371 96.9087 32.5426Z" fill="#1ED760"/>
<path d="M40.3012 32.4576C40.3012 35.2148 40.2769 37.972 40.3133 40.7291C40.3254 41.7933 39.9741 42.4463 39.0415 42.4221C38.1089 42.3979 37.8425 41.7691 37.8546 40.7654C37.8707 35.2511 37.8707 29.7367 37.8546 24.2224C37.8546 23.2187 38.1937 22.6382 39.0658 22.614C39.9378 22.5898 40.3133 23.1703 40.3012 24.1861C40.289 26.9433 40.3012 29.7004 40.3012 32.4576Z" fill="#1ED760"/>
<path d="M83.1291 32.3369C83.1291 29.6644 83.1413 27.004 83.1291 24.3436C83.117 23.3157 83.3956 22.6022 84.3645 22.6143C85.3335 22.6264 85.612 23.3157 85.612 24.3436C85.5878 29.7773 85.5878 35.1989 85.612 40.6085C85.612 41.721 85.285 42.4587 84.2919 42.4224C83.2987 42.3861 83.1049 41.6122 83.117 40.6085C83.1413 37.8513 83.1291 35.0941 83.1291 32.3369Z" fill="#1ED760"/>
<path d="M45.9677 32.5793C45.9677 34.1393 45.9435 35.7114 45.9677 37.2713C45.9919 38.2871 45.5922 38.8797 44.7444 38.8676C43.8966 38.8555 43.509 38.275 43.509 37.2472C43.5453 34.0788 43.5332 30.9105 43.5211 27.7422C43.509 26.7143 43.8724 26.1701 44.7565 26.1701C45.6407 26.1701 45.9919 26.7506 45.9677 27.7664C45.9435 29.3747 45.9677 30.971 45.9677 32.5793Z" fill="#1ED760"/>
<path d="M79.9258 32.5071C79.9258 34.1154 79.9015 35.7238 79.9258 37.3321C79.9379 38.2996 79.514 38.8317 78.7509 38.8679C77.9879 38.9042 77.4792 38.4205 77.4671 37.4531C77.4671 34.1396 77.455 30.8383 77.4671 27.5369C77.4792 26.5816 77.9516 26.1342 78.763 26.1704C79.5745 26.2067 79.9379 26.7509 79.9258 27.6941C79.9136 29.3025 79.9258 30.9108 79.9258 32.5071Z" fill="#1ED760"/>
<path d="M20.8883 32.5426C20.8883 31.3091 20.8883 30.0756 20.8762 28.8301C20.8762 27.8868 21.2395 27.3306 22.0631 27.3185C22.8867 27.3064 23.3712 27.8022 23.3712 28.818V36.2551C23.3712 37.2104 22.8746 37.7304 22.1237 37.7304C21.3727 37.7304 20.8762 37.2588 20.8883 36.2551C20.9004 35.0216 20.8883 33.7882 20.8883 32.5426Z" fill="#1ED760"/>
<path d="M11.9836 34.8155C11.9836 36.6174 11.9715 38.4192 11.9836 40.209C11.9957 41.6359 11.5476 42.3736 10.8087 42.3736C10.0699 42.3736 9.58546 41.7085 9.58546 40.2815C9.57739 36.6778 9.57335 33.0822 9.57335 29.4947C9.58546 28.0435 9.99725 27.2333 10.8451 27.2575C11.6929 27.2817 12.0199 28.1886 11.9957 29.6277C11.9715 31.357 11.9957 33.0863 11.9957 34.8155H11.9836Z" fill="#1ED760"/>
<path d="M113.845 34.8044C113.845 36.6062 113.833 38.396 113.857 40.1978C113.869 41.6248 113.433 42.3382 112.682 42.3745C111.931 42.4108 111.447 41.6973 111.447 40.3066C111.422 36.6425 111.434 32.9784 111.434 29.3142C111.447 27.9235 111.907 27.2342 112.67 27.2584C113.433 27.2826 113.857 28.0203 113.845 29.411V34.8044Z" fill="#1ED760"/>
<path d="M102.58 32.6028C102.58 33.8363 102.568 35.0698 102.58 36.3032C102.592 37.319 102.06 37.7302 101.321 37.7181C100.582 37.706 100.146 37.2707 100.146 36.3395C100.158 33.7879 100.146 31.2242 100.146 28.6606C100.134 27.7415 100.594 27.3182 101.321 27.3182C102.047 27.3182 102.58 27.7899 102.58 28.7573C102.568 30.0391 102.58 31.321 102.58 32.6028Z" fill="#1ED760"/>
<path d="M65.6654 42.8695C65.4186 43.6999 65.0687 44.4961 64.6237 45.2397C64.4421 45.542 64.2483 45.8443 64.0424 46.1346C64.0182 46.1587 64.0061 46.195 63.9818 46.195C63.9576 46.195 63.9455 46.1346 63.9455 46.1104C63.788 45.5057 63.6548 44.9011 63.4974 44.2964C63.3573 43.7356 63.1875 43.1826 62.9887 42.6397C62.7614 42.0244 62.4986 41.4228 62.2014 40.8379C61.7805 39.9888 61.2775 39.1828 60.6996 38.4314C60.2818 37.8792 59.82 37.3616 59.3188 36.8835C58.9794 36.5584 58.6193 36.2555 58.2409 35.9766L58.1077 35.8798H58.0955C58.0592 35.8798 58.0592 35.8919 58.0592 35.9161L58.1077 35.9886C58.1077 35.9983 58.1115 36.0075 58.1183 36.0143C58.1251 36.0211 58.1344 36.0249 58.144 36.0249C58.144 36.037 58.144 36.0491 58.1682 36.0612L58.1924 36.0975H58.2167L58.8344 36.9319C59.016 37.1617 59.1735 37.4156 59.343 37.6575C59.7638 38.2796 60.1479 38.9257 60.4937 39.5923C60.8244 40.2251 61.1118 40.8796 61.3536 41.5514C61.562 42.0891 61.74 42.6382 61.8865 43.196C62.0318 43.7684 62.153 44.3368 62.2499 44.9011C62.3629 45.5883 62.4035 46.2854 62.371 46.9811C62.371 47.0536 62.3589 47.0778 62.2741 47.0536C61.6908 46.9458 61.116 46.7962 60.5542 46.6062C60.0427 46.4195 59.5449 46.1972 59.0645 45.9411C58.4877 45.6392 57.9439 45.2785 57.4415 44.8648C56.8198 44.3627 56.2625 43.7859 55.7822 43.1476C55.2817 42.4976 54.859 41.7914 54.5226 41.0435C54.4136 40.8016 54.3046 40.5477 54.2198 40.2937C54.0395 39.8242 53.8898 39.3435 53.7717 38.8547C53.7474 38.7216 53.7111 38.6007 53.6869 38.4556C53.6762 38.4287 53.672 38.3997 53.6748 38.3709C53.6704 38.366 53.6671 38.3603 53.665 38.354C53.6629 38.3478 53.6621 38.3412 53.6627 38.3347C53.6748 38.3226 53.6748 38.3226 53.6627 38.3226C53.6545 38.3078 53.6503 38.2911 53.6506 38.2742C53.6295 38.2376 53.621 38.1951 53.6263 38.1533C53.6114 38.1105 53.6032 38.0656 53.6021 38.0202C53.5906 38.0023 53.5863 37.9807 53.59 37.9598C53.5581 37.837 53.5378 37.7115 53.5294 37.5849C53.5096 37.5266 53.5013 37.465 53.5052 37.4035C53.4913 37.3563 53.4831 37.3076 53.481 37.2584V37.2221C53.4815 37.2156 53.4808 37.209 53.4787 37.2027C53.4766 37.1965 53.4733 37.1907 53.4689 37.1858C53.4447 37.0528 53.4325 36.9198 53.4204 36.7868C53.4223 36.7659 53.4181 36.7449 53.4083 36.7263C53.3599 36.3514 53.3478 35.9886 53.3235 35.6138C53.2953 35.0737 53.3034 34.5323 53.3478 33.9933C53.3962 33.4209 53.4689 32.8526 53.5658 32.2882C53.6384 31.8529 53.699 31.4296 53.7959 31.0064C53.8928 30.5831 53.9291 30.3776 54.0018 30.0631C54.0745 29.7487 54.244 29.0957 54.3894 28.6241C54.5347 28.1525 54.8012 27.4148 55.0313 26.8223C55.2614 26.2297 55.4552 25.8427 55.6732 25.359C55.6853 25.3348 55.6974 25.2986 55.7216 25.2986C55.7459 25.2986 55.7459 25.3348 55.758 25.359C55.7701 25.3832 55.9276 25.6734 55.9881 25.8306C56.0487 25.9878 56.2546 26.2902 56.3394 26.5441C56.4241 26.7981 56.4605 26.7134 56.5089 26.8102C56.5574 26.9069 56.6664 27.0883 56.739 27.2213L57.1266 27.826C57.4635 28.3475 57.8315 28.8482 58.2288 29.3255C58.6071 29.7912 59.0115 30.2354 59.4399 30.6557C59.4658 30.6693 59.4869 30.6904 59.5005 30.7162C59.5387 30.742 59.5715 30.7748 59.5974 30.8129L59.7064 30.9096C59.7205 30.9144 59.7332 30.9224 59.7437 30.9328C59.7542 30.9433 59.7622 30.9561 59.767 30.9701C60.2999 31.4538 60.8691 31.9013 61.4384 32.3366C61.6685 32.518 61.9107 32.6873 62.1287 32.8687C62.7119 33.3079 63.2441 33.8109 63.7154 34.3682C64.093 34.8451 64.4332 35.3505 64.7327 35.8798C65.0308 36.4025 65.286 36.9485 65.4958 37.5123C65.7679 38.2603 65.9389 39.0411 66.0045 39.8342C66.0745 40.8581 65.9597 41.8862 65.6654 42.8695Z" fill="#1ED760"/>
<path d="M58.1406 36.0127C58.1309 36.0127 58.1216 36.0089 58.1147 36.0022C58.1078 35.9954 58.1039 35.9862 58.1039 35.9766C58.1137 35.9766 58.123 35.9804 58.1299 35.9872C58.1368 35.994 58.1406 36.0032 58.1406 36.0127Z" fill="#1ED760"/>
<path d="M58.165 36.0477C58.1414 36.0361 58.1406 36.0243 58.1406 36.0127C58.1406 36.0012 58.1532 36.0245 58.165 36.0477Z" fill="#1ED760"/>
<path d="M58.1054 35.8787C58.0937 35.8898 58.0937 35.8787 58.0937 35.8677L58.1054 35.8787Z" fill="#1ED760"/>
<path d="M58.2114 36.0965H58.1891C58.2002 36.0854 58.2114 36.0854 58.2114 36.0965Z" fill="#1ED760"/>
<path d="M53.6577 38.3349C53.67 38.3227 53.67 38.3227 53.6577 38.3349V38.3349Z" fill="#1ED760"/>
<path d="M58.2383 20.4613C58.4851 19.6348 58.8351 18.8425 59.2799 18.1032C59.4616 17.7887 59.6553 17.4985 59.8612 17.2083C59.8733 17.1841 59.8855 17.1357 59.9218 17.1478C59.9581 17.1599 59.9581 17.1962 59.9581 17.2325C60.1035 17.8371 60.2488 18.4418 60.4063 19.0464C60.539 19.6053 60.709 20.1547 60.915 20.691C61.1358 21.3071 61.3947 21.9088 61.6901 22.4929C62.1199 23.3408 62.6224 24.15 63.192 24.9114C63.6134 25.4569 64.0749 25.9703 64.5727 26.4472C64.9162 26.7763 65.2803 27.0833 65.6627 27.3663L65.796 27.4509C65.796 27.463 65.8081 27.463 65.8081 27.4751C65.8177 27.4751 65.827 27.4713 65.8338 27.4645C65.8406 27.4577 65.8444 27.4485 65.8444 27.4389L65.7839 27.3663C65.796 27.3421 65.7838 27.33 65.7596 27.33C65.7354 27.33 65.7596 27.2937 65.7354 27.2937C65.7112 27.2937 65.7112 27.2696 65.7112 27.2575L65.687 27.2333C65.4689 26.9672 65.2752 26.6891 65.0693 26.411C64.8634 26.1328 64.718 25.9273 64.5606 25.6854C64.1354 25.0619 63.751 24.4115 63.41 23.7384C63.0775 23.1089 62.7862 22.4586 62.5379 21.7915C62.3441 21.2473 62.1625 20.7031 62.0171 20.1348C61.8718 19.5664 61.7507 19.0101 61.6538 18.4297C61.5343 17.7473 61.4937 17.0534 61.5327 16.3618C61.5327 16.2892 61.5448 16.2651 61.6174 16.2771C62.2053 16.3876 62.7842 16.5412 63.3494 16.7367C63.8607 16.9192 64.3585 17.1374 64.8391 17.3897C65.4085 17.6975 65.9478 18.0578 66.45 18.466C67.7153 19.4958 68.7195 20.8092 69.381 22.2994C69.49 22.5412 69.5869 22.7952 69.6838 23.0371C69.8639 23.5055 70.0097 23.9865 70.1198 24.4761C70.1562 24.6091 70.1925 24.7421 70.2167 24.8752C70.2267 24.9022 70.2308 24.9311 70.2288 24.9598C70.2288 24.9719 70.241 24.9961 70.241 25.0082C70.241 25.0203 70.2288 25.0203 70.241 25.0203C70.2407 25.0372 70.2449 25.0539 70.2531 25.0687C70.2669 25.1034 70.2751 25.1402 70.2773 25.1775C70.2894 25.2259 70.2894 25.2742 70.3015 25.3105C70.3112 25.3334 70.3154 25.3583 70.3136 25.3831C70.3407 25.5068 70.3609 25.632 70.3742 25.7579C70.3951 25.816 70.4033 25.8778 70.3984 25.9393C70.4134 25.9822 70.4215 26.027 70.4226 26.0724V26.1449C70.4547 26.28 70.4749 26.4175 70.4832 26.5561V26.6165C70.5437 26.9793 70.5559 27.3542 70.5801 27.7291C70.6043 28.2694 70.5922 28.8108 70.5437 29.3495C70.505 29.9211 70.4363 30.4902 70.3379 31.0546C70.2652 31.4779 70.1925 31.9132 70.1077 32.3365C70.0229 32.7597 69.9745 32.9653 69.9018 33.2676C69.7928 33.7634 69.6475 34.2351 69.5021 34.7188C69.3568 35.2025 69.1025 35.928 68.8723 36.5085C68.6422 37.089 68.4484 37.5001 68.2304 37.9838C68.2183 38.008 68.2062 38.0443 68.182 38.0443C68.1577 38.0443 68.1578 38.008 68.1456 37.9838C68.0568 37.8286 67.9799 37.6669 67.9155 37.5001C67.8065 37.2583 67.6491 37.0527 67.5522 36.7987C67.5069 36.706 67.4543 36.617 67.3947 36.5327L67.1525 36.1094C67.0313 35.9039 66.8981 35.7104 66.7649 35.5048C66.4258 34.9848 66.0624 34.489 65.6749 34.0053C65.2925 33.543 64.8841 33.1029 64.4516 32.6872C64.4395 32.663 64.4031 32.6509 64.4031 32.6146C64.3609 32.6002 64.3261 32.5698 64.3062 32.5299C64.2644 32.5044 64.2275 32.4717 64.1972 32.4332C64.1714 32.4196 64.1503 32.3985 64.1367 32.3727C63.5916 31.8769 63.0345 31.4295 62.4531 30.9942L61.7628 30.4742C61.1861 30.0315 60.6583 29.5289 60.1883 28.9747C59.8065 28.5007 59.4662 27.995 59.1709 27.463C58.8751 26.9391 58.62 26.3934 58.4078 25.8305C58.1301 25.0842 57.9588 24.3026 57.8991 23.5087C57.8292 22.4808 57.944 21.4487 58.2383 20.4613Z" fill="#1ED760"/>
<path d="M65.764 27.331C65.7883 27.331 65.8005 27.3436 65.7883 27.3686C65.7762 27.3937 65.764 27.3435 65.764 27.331Z" fill="#1ED760"/>
<path d="M65.7367 27.2936C65.7611 27.2936 65.7611 27.3061 65.7611 27.3312C65.7611 27.3562 65.7367 27.3061 65.7367 27.2936Z" fill="#1ED760"/>
<path d="M65.7912 27.451C65.8036 27.451 65.8036 27.4632 65.8036 27.4754C65.8036 27.4877 65.7912 27.4632 65.7912 27.451Z" fill="#1ED760"/>
<path d="M65.689 27.2332L65.7115 27.2565C65.7055 27.2565 65.6998 27.2541 65.6956 27.2497C65.6914 27.2453 65.689 27.2393 65.689 27.2332Z" fill="#1ED760"/>
<path d="M70.2433 25.0083C70.231 25.0083 70.231 25.0206 70.2433 25.0083V25.0083Z" fill="#1ED760"/>
<path d="M0.25349 57.7555C0.235689 57.7591 0.217297 57.7587 0.199677 57.7543C0.182058 57.7499 0.165662 57.7416 0.151704 57.7299C0.137746 57.7183 0.126584 57.7037 0.119045 57.6872C0.111505 57.6707 0.107784 57.6527 0.108152 57.6346C0.0475934 56.776 0.217157 55.9295 0.289827 55.0951C0.386721 54.0672 0.544172 53.0514 0.701624 52.0356C1.04075 49.9717 1.47273 47.92 1.99757 45.8803C2.74537 43.0598 3.69245 40.2957 4.83171 37.6088C5.69701 35.5685 6.68385 33.5817 7.78696 31.6591C8.659 30.1596 9.53105 28.6722 10.5 27.2452C11.8036 25.3351 13.2064 23.4945 14.7027 21.7309C15.8075 20.3944 16.984 19.1187 18.2272 17.9095C20.1038 16.0706 22.0897 14.3462 24.1741 12.7459C27.0523 10.5492 30.1113 8.59937 33.3184 6.91712C36.5668 5.21316 39.9641 3.8086 43.468 2.72089C46.3168 1.82142 49.2328 1.15015 52.1884 0.713478C54.09 0.435342 55.9915 0.133022 57.9173 0.120929C57.9448 0.125855 57.9731 0.122772 57.9989 0.112049C58.0246 0.101327 58.0468 0.0834175 58.0626 0.0604643C58.1113 0.022899 58.1707 0.00172831 58.2322 0H65.7778C65.7977 0.00133996 65.8169 0.00755791 65.8338 0.0181053C65.8507 0.0286528 65.8647 0.0432037 65.8746 0.0604643C65.8933 0.0833854 65.9177 0.101025 65.9453 0.111632C65.9729 0.12224 66.0029 0.125446 66.0321 0.120929C68.2001 0.145114 70.3318 0.495807 72.4634 0.834407C74.8493 1.21301 77.208 1.74622 79.5245 2.43067C82.6706 3.35541 85.7367 4.53224 88.6931 5.94969C92.0704 7.54773 95.2901 9.45872 98.3098 11.6575C100.003 12.8609 101.624 14.161 103.167 15.5514C104.136 16.4584 105.165 17.2807 106.073 18.236C107.878 20.1467 109.634 22.0937 111.233 24.1857C113.343 26.9522 115.227 29.8842 116.865 32.9531C118.753 36.5012 120.282 40.228 121.431 44.0785C122.163 46.4765 122.733 48.9207 123.139 51.3947C123.393 52.9788 123.623 54.563 123.756 56.1593C123.806 56.6495 123.83 57.1419 123.829 57.6346C123.83 57.654 123.826 57.6734 123.818 57.6911C123.81 57.7088 123.797 57.7242 123.782 57.736C123.767 57.7479 123.748 57.7559 123.729 57.7593C123.71 57.7627 123.69 57.7614 123.672 57.7555C122.763 57.4774 121.867 57.5499 120.971 57.5499C120.331 57.5623 119.691 57.5259 119.057 57.4411C118.983 57.4391 118.913 57.4114 118.857 57.3628C118.802 57.3142 118.766 57.2478 118.754 57.1751C118.548 56.6188 118.621 56.0262 118.561 55.47C118.355 53.6439 118.052 51.8421 117.676 50.0403C117.208 47.8408 116.606 45.6721 115.872 43.5464C114.513 39.6516 112.747 35.9104 110.603 32.3847C109.259 30.1838 107.817 28.0434 106.134 26.0964C105.129 24.9234 104.281 23.6295 103.167 22.5653C99.9085 19.4332 96.5172 16.4584 92.6899 14.0398C89.9399 12.3213 87.0655 10.8095 84.0906 9.51708C81.6199 8.42872 79.0158 7.75153 76.5208 6.7841C75.8426 6.51805 75.1159 6.50596 74.4255 6.4334C73.3597 6.33666 72.3423 5.94969 71.2886 5.87713C69.9901 5.79847 68.6964 5.65316 67.4128 5.44179C66.129 5.21202 64.8452 5.42969 63.5613 5.30877C61.8505 5.13146 60.1263 5.12336 58.4139 5.28458C56.6213 5.46597 54.8288 5.39342 53.0484 5.7562C51.5102 6.07062 49.9841 6.4334 48.458 6.79619C47.5981 7.00177 46.6897 7.13479 45.8177 7.38874C42.9165 8.23215 40.0923 9.32039 37.3758 10.6417C33.8801 12.3138 30.5679 14.3443 27.4927 16.7002C25.5306 18.1998 23.6412 19.7839 21.9213 21.5616C20.7707 22.7467 19.4626 23.7746 18.5058 25.1652C17.549 26.5559 16.1683 28.1159 15.1024 29.6638C14.0366 31.2117 13.1888 32.5903 12.3288 34.114C10.929 36.5684 9.72223 39.1277 8.71956 41.7687C7.74614 44.3325 6.96085 46.9636 6.3699 49.6412C5.99444 51.3584 5.72798 53.0877 5.44941 54.8049C5.32829 55.5667 5.31618 56.3406 5.19506 57.1025C5.15873 57.3685 5.07395 57.4048 4.83171 57.4411C3.81433 57.5983 2.79695 57.562 1.77956 57.5499C1.25876 57.5378 0.774293 57.6588 0.25349 57.7555Z" fill="#1ED760"/>
<path d="M124 61.5161C124.002 61.4991 123.997 61.482 123.988 61.4678C123.455 60.2464 122.486 59.7748 121.178 59.7869C119.167 59.8111 117.145 59.8111 115.134 59.799C112.792 59.7888 110.451 59.9059 108.121 60.1497C106.268 60.331 104.44 60.585 102.599 60.8873C100.026 61.3175 97.4846 61.9194 94.9924 62.6892C91.1337 63.8545 87.4293 65.4785 83.9587 67.5263C81.1564 69.1968 78.5451 71.1675 76.1708 73.4034C75.3594 74.1774 74.5721 74.9755 73.8333 75.8341C72.6948 77.1401 71.6047 78.4945 70.5873 79.9094C68.492 82.8359 66.8085 85.9679 65.4035 89.2693C64.2678 91.8916 63.3325 94.596 62.6058 97.3594C62.4483 97.964 62.2908 98.5566 62.1213 99.1612C62.1147 99.1859 62.1004 99.2079 62.0805 99.224C62.0607 99.2401 62.0362 99.2495 62.0106 99.2508C61.9851 99.2522 61.9597 99.2454 61.9383 99.2315C61.9168 99.2176 61.9003 99.1972 61.8912 99.1733C61.8373 99.0272 61.7928 98.8777 61.7579 98.7259C60.8597 94.975 59.594 91.3215 57.9791 87.8181C56.8258 85.2766 55.4519 82.8406 53.8732 80.5382C52.3812 78.3621 50.7036 76.3188 48.859 74.4313C47.5422 73.0945 46.1382 71.8462 44.6562 70.6946C42.4409 68.9661 40.0689 67.4479 37.5709 66.1598C35.6673 65.1789 33.7056 64.3147 31.6967 63.5719C29.0048 62.5944 26.2438 61.8183 23.4365 61.2501C21.3049 60.8148 19.1611 60.5124 17.0052 60.2585C15.3096 60.0529 13.6018 59.9683 11.8941 59.8111C10.368 59.678 8.80561 59.7506 7.26742 59.7385C5.72924 59.7264 4.30006 59.7748 2.82243 59.7869C1.34481 59.799 0.545433 60.2464 0.0125186 61.4678C0.00288524 61.482 -0.00140624 61.4991 0.00040613 61.5161V67.3449C0.00261624 67.3822 0.0107955 67.419 0.024631 67.4538C0.0610323 67.5288 0.0737033 67.6132 0.0609646 67.6956C0.0246295 70.4891 0.44854 73.2341 0.993566 75.9671C3.73575 89.9534 11.599 102.418 23.049 110.928C29.4433 115.707 36.6419 119.307 44.305 121.557C47.9805 122.647 51.746 123.408 55.5567 123.831C56.5257 123.927 57.5067 123.867 58.4878 124H65.452L65.5368 123.976C65.6008 123.945 65.672 123.933 65.7427 123.94C67.7411 123.976 69.7153 123.722 71.6895 123.395C79.6881 122.069 87.3812 119.312 94.3989 115.257C98.7579 112.754 102.8 109.737 106.438 106.272C108.037 104.74 109.545 103.117 110.956 101.411C114.365 97.3194 117.171 92.7626 119.288 87.8786C120.946 84.0901 122.184 80.1325 122.983 76.076C123.419 73.863 123.806 71.65 123.903 69.3886C123.927 68.7356 123.842 68.0705 124 67.4296V61.5161ZM59.4567 115.438C59.4542 115.461 59.4454 115.482 59.4312 115.5C59.4171 115.518 59.3981 115.532 59.3766 115.539C59.3551 115.547 59.3319 115.548 59.3096 115.543C59.2874 115.538 59.267 115.527 59.2508 115.511C56.9375 113.201 54.6847 110.891 52.3714 108.654C43.5056 100.056 34.87 91.2162 26.1011 82.5215C25.1322 81.554 23.4365 81.5057 22.5766 82.4731C21.7167 83.4405 21.5834 84.807 22.7098 85.9196L55.2055 118.353C55.3006 118.455 55.4017 118.552 55.5083 118.643C55.5241 118.662 55.5342 118.685 55.5376 118.71C55.541 118.734 55.5374 118.759 55.5274 118.782C55.5173 118.804 55.5011 118.824 55.4806 118.838C55.4601 118.852 55.4362 118.859 55.4114 118.861C51.8675 118.409 48.37 117.648 44.959 116.587C42.1336 115.698 39.3701 114.623 36.6867 113.37C32.6935 111.503 28.9199 109.199 25.435 106.502C24.0906 105.486 22.8431 104.337 21.5834 103.212C20.3128 102.047 19.104 100.816 17.962 99.524C16.5208 97.9278 15.2369 96.1985 14.0015 94.4329C12.6306 92.4642 11.4041 90.3989 10.3317 88.2535C8.85235 85.2915 7.66389 82.1933 6.78295 79.0024C6.29849 77.2006 5.87458 75.3867 5.57178 73.5485C5.26899 71.7104 5.0631 70.1867 4.95409 68.4937C4.86931 67.2965 4.73608 66.1114 4.72397 64.9142C4.71185 64.5998 4.80875 64.5031 5.12365 64.5031C7.00096 64.5152 8.87827 64.4305 10.7556 64.5394C12.9357 64.6603 15.1158 64.8175 17.2838 65.0956C21.4744 65.6156 25.5803 66.4984 29.5651 67.9012C33.5498 69.3039 37.5345 71.3235 41.0227 73.9597C42.6941 75.2295 44.305 76.5597 45.7342 78.0955C47.8776 80.3678 49.7623 82.8701 51.354 85.5568C53.2616 88.8225 54.8089 92.2852 55.9685 95.8841C56.8578 98.6456 57.5698 101.461 58.1002 104.313C58.4393 106.018 58.6694 107.735 58.8632 109.464C59.057 111.194 59.3114 113.092 59.3356 114.918C59.3356 115.088 59.4688 115.245 59.4567 115.438ZM119.288 65.0835C119.167 66.6072 119.083 68.1309 118.937 69.6546C118.648 72.6361 118.114 75.5887 117.338 78.4824C116.659 81.0969 115.759 83.6495 114.65 86.113C113.442 88.861 111.991 91.4957 110.314 93.9855C109.103 95.7632 107.831 97.4924 106.377 99.1008C105.469 100.117 104.597 101.157 103.616 102.088C101.414 104.208 99.0623 106.168 96.579 107.953C93.8857 109.867 91.0424 111.561 88.0766 113.02C83.9338 115.048 79.5796 116.613 75.0929 117.688C73.1914 118.147 71.2414 118.437 69.3035 118.8C69.0855 118.836 68.8675 118.776 68.6374 118.836C68.6106 118.847 68.5811 118.847 68.5541 118.838C68.527 118.828 68.5042 118.809 68.4897 118.785C68.4752 118.76 68.4699 118.731 68.4748 118.703C68.4796 118.675 68.4943 118.649 68.5163 118.631C68.601 118.534 68.71 118.449 68.7948 118.365C79.6469 107.513 90.507 96.6741 101.375 85.847C102.708 84.5047 102.005 82.2675 100.382 81.8684C99.4374 81.6387 98.6017 81.8322 97.875 82.5577C89.4937 90.9381 81.1245 99.3426 72.6948 107.675C70.0665 110.25 67.4625 112.862 64.8222 115.438L64.6284 115.632C64.7253 114.894 64.58 114.168 64.689 113.479C64.798 112.79 64.8222 112.185 64.8949 111.532C65.0644 110.021 65.2703 108.521 65.4762 107.01C65.72 105.2 66.0555 103.404 66.4815 101.628C66.8327 100.153 67.1719 98.6896 67.5958 97.2385C68.444 94.3032 69.5547 91.4499 70.9144 88.713C72.094 86.2917 73.5012 83.9878 75.1171 81.8322C76.401 80.1513 77.7454 78.5308 79.2835 77.0676C81.6207 74.8504 84.2101 72.9144 86.9987 71.2993C89.8449 69.6668 92.8628 68.3528 95.9977 67.3812C98.4469 66.6046 100.948 66.0025 103.483 65.5794C105.263 65.2891 107.044 65.0473 108.836 64.8659C110.047 64.7449 111.271 64.7208 112.47 64.6119C114.541 64.4305 116.612 64.5877 118.683 64.5031C119.131 64.491 119.325 64.5756 119.288 65.0835Z" fill="#1ED760"/>
</svg>
