<svg width="32" height="32" viewBox="0 0 32 32" fill="none" xmlns="http://www.w3.org/2000/svg">
<path d="M20.2835 26.7083C20.2308 26.7335 20.182 26.754 20.1353 26.7814C18.8988 27.4708 17.2095 27.4229 15.9933 26.6376C14.7913 25.8614 14.0644 24.7109 13.835 23.1722C13.8086 22.9965 13.7477 22.88 13.632 22.7705C13.3619 22.5216 13.098 22.2637 12.832 22.008C12.7772 21.9555 12.7244 21.8984 12.6817 21.8368C12.6026 21.7204 12.6087 21.5857 12.6858 21.4738C12.7772 21.3437 12.8949 21.3049 13.0167 21.3734C13.0797 21.4099 13.1366 21.4601 13.1934 21.5081C13.3558 21.6519 13.5142 21.8003 13.6766 21.9418C13.768 22.0217 13.8005 22.008 13.8147 21.8893C13.8513 21.5788 13.9081 21.2729 13.9974 20.9762C14.4502 19.4832 15.3537 18.4742 16.6633 17.9514C17.9242 17.4492 19.1587 17.5839 20.316 18.3463C21.5221 19.1408 22.2368 20.3324 22.4053 21.8939C22.5373 23.1243 22.2855 24.2771 21.6662 25.3181C21.6074 25.4163 21.4815 25.4825 21.4977 25.6103C21.5119 25.7199 21.6338 25.761 21.7028 25.8386C22.3241 26.5371 22.9495 27.2334 23.5708 27.9297C23.6276 27.9936 23.6844 28.0621 23.7271 28.1374C23.9342 28.5027 23.922 28.7971 23.7027 29.1464C23.5037 29.4683 23.1058 29.5687 22.8398 29.4546C22.7119 29.3998 22.5941 29.3359 22.4967 29.2263C21.8226 28.473 21.1485 27.7196 20.4764 26.964C20.4094 26.891 20.3526 26.7997 20.2835 26.7083ZM14.4015 22.3892C14.4076 23.1494 14.5497 23.7932 14.8482 24.4004C15.2644 25.2451 15.8613 25.8591 16.6471 26.2335C17.2867 26.5394 17.9567 26.6353 18.6491 26.544C19.9343 26.3773 20.8866 25.6674 21.4409 24.3411C21.9728 23.0672 21.9809 21.7911 21.382 20.5333C21.0734 19.8873 20.6409 19.3759 20.0886 18.9878C19.577 18.6271 19.0166 18.424 18.4176 18.3715C17.4369 18.287 16.5456 18.5815 15.7822 19.2777C14.8868 20.0927 14.4218 21.1588 14.4015 22.3892Z" fill="#00A9BF"/>
<path d="M6.15111 16.7233C6.20429 16.7559 6.25576 16.7214 6.30722 16.7233C6.47019 16.7269 6.57484 16.8975 6.51651 17.0626C6.4822 17.1606 6.41186 17.2186 6.32437 17.2567C6.13395 17.3384 5.96069 17.4545 5.77885 17.5525C5.52496 17.6886 5.30538 17.8683 5.12868 18.1041C5.02918 18.2366 4.91081 18.3491 4.78387 18.4507C4.48022 18.6957 4.18001 18.703 3.85921 18.4798C3.74942 18.4036 3.66022 18.3074 3.5813 18.1985C3.39089 17.939 3.20733 17.6741 3.01348 17.4182C2.60176 16.8721 2.23293 16.295 1.88125 15.7071C1.61364 15.2607 1.37175 14.798 1.2002 14.2972C1.05095 13.8635 0.973758 13.4153 1.00807 12.9526C1.04752 12.4427 1.19849 11.9673 1.44209 11.5245C1.94129 10.619 2.69268 10.0855 3.64306 9.84602C4.30524 9.67908 4.95713 9.74985 5.57985 10.022C6.72923 10.5247 7.40342 11.4338 7.59555 12.7403C7.67104 13.2538 7.59555 13.7474 7.43601 14.2282C7.25932 14.7599 7.01229 15.2553 6.72409 15.7271C6.54739 16.0174 6.36898 16.3041 6.19228 16.5944C6.1717 16.6307 6.14254 16.6706 6.15111 16.7233ZM7.09292 13.1921C7.07576 12.6205 6.95053 12.0852 6.63145 11.6098C6.24889 11.04 5.74968 10.6463 5.11324 10.4521C4.75985 10.3432 4.3996 10.3233 4.0342 10.3686C3.47666 10.4358 2.9826 10.6626 2.55544 11.0436C2.23808 11.3267 2.00649 11.6842 1.8195 12.0725C1.6874 12.3465 1.61192 12.6405 1.5879 12.9471C1.54845 13.4643 1.64623 13.956 1.86238 14.4151C2.04766 14.8089 2.24666 15.1972 2.46967 15.5692C2.82135 16.1607 3.22277 16.7124 3.62076 17.2676C3.78545 17.4981 3.95528 17.7231 4.13026 17.9445C4.26064 18.1114 4.39445 18.1078 4.53169 17.9481C4.54713 17.9299 4.55914 17.91 4.57458 17.8918C4.72039 17.6977 4.87135 17.5072 5.01202 17.3075C5.3088 16.892 5.60558 16.4765 5.89036 16.0519C6.23345 15.542 6.51651 14.9922 6.78928 14.4387C6.98313 14.0486 7.10664 13.6385 7.09292 13.1921Z" fill="#00A9BF"/>
<path d="M26.353 14.228C26.6094 14.2665 26.8519 14.3386 27.1043 14.3651C27.1063 14.2472 27.0451 14.1943 27.0077 14.1269C26.7553 13.6819 26.497 13.2393 26.2505 12.7895C26.077 12.472 25.9291 12.1328 25.7851 11.7937C25.1837 10.3696 25.7299 8.75317 26.6863 8.07724C27.3311 7.62021 28.0113 7.53361 28.7251 7.76454C28.9282 7.82948 29.1195 7.94013 29.2891 8.09167C29.8451 8.58719 30.2237 9.22464 30.346 10.0665C30.417 10.5524 30.3519 11.0191 30.2139 11.4737C30.1113 11.8129 29.9733 12.1328 29.8195 12.4431C29.5198 13.0421 29.1984 13.6242 28.8474 14.1775C28.7094 14.3963 28.5674 14.6128 28.4254 14.8269C28.388 14.8846 28.3446 14.9376 28.3012 14.9905C28.104 15.2214 27.8674 15.3128 27.6051 15.2214C27.2364 15.0891 26.8618 14.9953 26.4832 14.9328C26.213 14.8871 26.0809 14.6176 26.2741 14.3122C26.284 14.2953 26.2919 14.2785 26.3037 14.2544C26.2465 14.163 26.148 14.1726 26.073 14.1269C25.6727 13.8912 25.2705 13.6651 24.8682 13.4342C24.8288 13.4125 24.7894 13.3885 24.7539 13.3596C24.5961 13.2297 24.5803 12.9699 24.7223 12.8136C24.8091 12.7173 24.9077 12.7053 25.0122 12.7655C25.1778 12.8593 25.3454 12.9507 25.5091 13.0445C25.7536 13.1864 25.9961 13.3307 26.2387 13.4727C26.2781 13.4967 26.3175 13.516 26.355 13.5424C26.5344 13.6699 26.568 13.872 26.4437 14.074C26.428 14.0981 26.4043 14.1173 26.3885 14.1414C26.3767 14.1654 26.3668 14.1943 26.353 14.228ZM28.0153 8.15181C27.8122 8.16143 27.6663 8.16865 27.5203 8.21195C27.1201 8.33462 26.7908 8.59682 26.5049 8.95523C26.0178 9.56862 25.7812 10.6992 26.1815 11.5844C26.2998 11.8442 26.4181 12.104 26.5463 12.3565C26.9071 13.0709 27.2975 13.7613 27.7511 14.3963C27.7846 14.4445 27.8181 14.495 27.8556 14.5383C27.9068 14.596 27.9699 14.6008 28.0192 14.5455C28.0705 14.4878 28.1178 14.4276 28.1632 14.3603C28.3229 14.1221 28.4806 13.8816 28.6384 13.641C29.1037 12.9314 29.4902 12.1641 29.7959 11.339C29.9773 10.8483 29.995 10.3287 29.8451 9.81638C29.7959 9.648 29.7249 9.48683 29.648 9.33288C29.2595 8.57036 28.6995 8.16865 28.0153 8.15181Z" fill="#00A9BF"/>
<path d="M17.8742 4.58198C17.8835 4.96989 17.8022 5.36837 17.6488 5.74045C17.3955 6.36587 17.0957 6.96226 16.7309 7.51379C16.5705 7.75656 16.4148 8.00198 16.2614 8.2474C16.2173 8.31865 16.2428 8.38462 16.3195 8.39517C16.5752 8.43476 16.8192 8.5192 17.0655 8.60101C17.1143 8.61684 17.1654 8.63267 17.2096 8.65642C17.349 8.73559 17.4048 8.86753 17.3746 9.02851C17.3397 9.21851 17.2468 9.32142 17.0841 9.33198C17.0144 9.33725 16.94 9.3267 16.8703 9.30823C16.7494 9.27656 16.6309 9.23961 16.5147 9.19739C16.2893 9.11558 16.0616 9.07073 15.8199 9.09448C15.4713 9.13142 15.1762 8.98628 14.9368 8.69864C14.895 8.6485 14.8485 8.60101 14.8137 8.54295C14.3745 7.85684 13.8911 7.20239 13.5309 6.45559C13.3868 6.16003 13.252 5.8592 13.1474 5.54254C12.9336 4.90129 12.9569 4.26795 13.187 3.63726C13.41 3.03295 13.7702 2.57378 14.2769 2.26503C14.5325 2.10934 14.816 2.03809 15.1018 2.0117C15.5039 1.97476 15.9012 2.02753 16.2916 2.13836C16.6286 2.23336 16.9121 2.43656 17.1515 2.72156C17.3955 3.0092 17.586 3.33906 17.7255 3.70586C17.8324 3.97503 17.8765 4.26003 17.8742 4.58198ZM17.428 4.57934C17.4211 4.41572 17.4187 4.25476 17.3792 4.09642C17.184 3.29948 16.7053 2.81129 16.0453 2.53156C15.8153 2.43392 15.5689 2.37323 15.3203 2.41018C14.4209 2.54212 13.8144 3.09629 13.51 4.06476C13.3891 4.45003 13.3868 4.84059 13.5123 5.22851C13.5611 5.38156 13.6145 5.53198 13.6773 5.67976C13.8586 6.11253 14.0677 6.5242 14.3233 6.90684C14.6022 7.32378 14.8764 7.746 15.1483 8.16822C15.2738 8.3635 15.4132 8.38198 15.5805 8.32128C15.6712 8.28698 15.7246 8.19461 15.7781 8.11017C16.0964 7.60878 16.4241 7.11795 16.7239 6.60337C16.9354 6.24184 17.112 5.86448 17.2561 5.46601C17.3606 5.18101 17.4373 4.89072 17.428 4.57934Z" fill="#00A9BF"/>
<path d="M11.8897 20.8263C11.7683 20.8326 11.6814 20.7999 11.6014 20.7485C11.342 20.582 11.0827 20.4171 10.8247 20.249C10.7723 20.2148 10.7198 20.1774 10.6743 20.1338C10.6219 20.0825 10.6205 20.0125 10.6578 19.9471C10.7254 19.8335 10.8274 19.7915 10.9433 19.835C10.9833 19.8506 11.022 19.8708 11.0592 19.8942C11.3406 20.0716 11.6207 20.2505 11.9021 20.4311C11.9393 20.4544 11.9766 20.4809 12.0083 20.5104C12.1063 20.6038 12.0856 20.7485 11.9683 20.8061C11.9352 20.8232 11.898 20.8248 11.8897 20.8263Z" fill="#00A9BF"/>
<path d="M8.86616 18.8191C8.90616 18.8346 8.95307 18.847 8.99583 18.8704C9.31175 19.043 9.62767 19.2187 9.9422 19.3945C9.96427 19.4069 9.98497 19.4209 10.0029 19.438C10.0719 19.5002 10.0967 19.5765 10.0719 19.6527C10.0443 19.7413 9.95461 19.8051 9.86908 19.7911C9.8277 19.7849 9.78493 19.7709 9.74768 19.7506C9.41935 19.5733 9.0924 19.3945 8.76683 19.2125C8.68268 19.1659 8.66337 19.1052 8.67992 18.9901C8.69096 18.9077 8.73097 18.8533 8.8027 18.8299C8.82201 18.8253 8.83995 18.8237 8.86616 18.8191Z" fill="#00A9BF"/>
<path d="M19.2823 10.3158C19.2001 10.3177 19.1224 10.299 19.0492 10.2596C18.7892 10.1191 18.5188 10.0104 18.2513 9.89238C18.202 9.86989 18.1527 9.84553 18.1064 9.81368C18.0152 9.74997 17.9838 9.66004 18.0077 9.54574C18.0361 9.41271 18.1198 9.32465 18.2214 9.33401C18.2662 9.33776 18.3126 9.35275 18.3559 9.37336C18.6712 9.51763 18.9864 9.66379 19.3017 9.81181C19.3391 9.82867 19.3764 9.84741 19.4078 9.87551C19.478 9.93922 19.5333 10.0479 19.4765 10.2034C19.4362 10.314 19.3645 10.3308 19.2823 10.3158Z" fill="#00A9BF"/>
<path d="M10.6981 15.8797C10.6995 15.9995 10.6691 16.0493 10.5546 16.0819C10.3491 16.1426 10.1408 16.197 9.93384 16.2514C9.80968 16.2841 9.68553 16.3199 9.55999 16.3463C9.43859 16.3712 9.35581 16.3121 9.31581 16.1892C9.2896 16.1068 9.30753 16.043 9.37099 15.9902C9.411 15.9575 9.45514 15.9342 9.50343 15.9217C9.82348 15.8362 10.1422 15.746 10.4622 15.6636C10.6084 15.6247 10.6967 15.7118 10.6981 15.8797Z" fill="#00A9BF"/>
<path d="M24.2497 12.6941C24.2512 12.898 24.1501 13.0172 24.0154 12.998C23.9695 12.9922 23.9235 12.971 23.8806 12.946C23.556 12.7614 23.2315 12.5749 22.9069 12.3883C22.9007 12.3845 22.8946 12.3806 22.8885 12.3768C22.7216 12.2633 22.7032 12.0922 22.8441 11.9326C22.8915 11.8787 22.9467 11.8537 23.011 11.8864C23.0737 11.9191 23.1365 11.9479 23.1978 11.9826C23.4994 12.1479 23.8026 12.3153 24.1042 12.4787C24.1945 12.5268 24.2481 12.6018 24.2497 12.6941Z" fill="#00A9BF"/>
<path d="M22.0775 14.2787C22.2237 14.2787 22.3686 14.2787 22.5148 14.2787C22.5507 14.2787 22.5879 14.2772 22.6238 14.2834C22.7038 14.2974 22.7507 14.358 22.759 14.4498C22.7617 14.484 22.7617 14.5182 22.7576 14.5524C22.7465 14.6271 22.7107 14.68 22.6431 14.6924C22.5962 14.7017 22.5465 14.7049 22.4982 14.7049C22.2002 14.7064 21.9037 14.7064 21.6057 14.7064C21.5698 14.7064 21.5326 14.7049 21.4981 14.6955C21.407 14.6722 21.3491 14.5913 21.3477 14.4918C21.3463 14.4062 21.4001 14.3192 21.4801 14.2927C21.5201 14.2787 21.5629 14.2772 21.6057 14.2772C21.7616 14.2772 21.9188 14.2787 22.0775 14.2787Z" fill="#00A9BF"/>
<path d="M19.3894 14.8068C19.2984 14.8068 19.2073 14.8083 19.1163 14.8068C18.9687 14.8037 18.89 14.6653 18.9452 14.5082C18.9645 14.4522 19.0032 14.4195 19.0528 14.4102C19.148 14.3915 19.2418 14.362 19.3398 14.3651C19.577 14.3713 19.8129 14.362 20.0475 14.3293C20.0957 14.3231 20.1454 14.32 20.1923 14.3278C20.2751 14.3387 20.3261 14.4086 20.3358 14.5113C20.3468 14.6186 20.3013 14.7088 20.2185 14.7384C20.1951 14.7461 20.1716 14.757 20.1482 14.7555C19.8957 14.7492 19.646 14.8457 19.3894 14.8068Z" fill="#00A9BF"/>
<path d="M14.2904 15.3616C14.1759 15.3601 14.1097 15.2885 14.0973 15.1564C14.0849 15.0397 14.1318 14.9635 14.2449 14.9371C14.3705 14.9075 14.496 14.8857 14.6229 14.8671C14.8036 14.8391 14.9857 14.8173 15.1664 14.794C15.2202 14.7878 15.2754 14.7893 15.3306 14.7893C15.3968 14.7893 15.4465 14.8235 15.4796 14.8873C15.5334 14.9899 15.5196 15.0864 15.4354 15.1579C15.3913 15.1952 15.3403 15.217 15.2837 15.2217C14.9857 15.2466 14.6905 15.2963 14.3967 15.3476C14.358 15.3539 14.3222 15.357 14.2904 15.3616Z" fill="#00A9BF"/>
<path d="M21.8744 11.3353C21.8698 11.5172 21.766 11.6171 21.6195 11.5832C21.5737 11.5725 21.5294 11.5511 21.4867 11.5314C21.1768 11.3799 20.8669 11.2283 20.557 11.0767C20.5326 11.0642 20.5066 11.0535 20.4837 11.0392C20.3876 10.9768 20.357 10.8948 20.3845 10.786C20.4196 10.6504 20.4975 10.5827 20.6089 10.6076C20.7005 10.629 20.7921 10.6576 20.8791 10.6986C21.1539 10.8252 21.4271 10.959 21.7004 11.0909C21.7309 11.1052 21.7629 11.1213 21.7904 11.1427C21.85 11.1872 21.879 11.255 21.8744 11.3353Z" fill="#00A9BF"/>
<path d="M12.8222 15.1835C13.0608 15.1758 13.1008 15.2224 13.0843 15.4386C13.0788 15.5086 13.047 15.5521 12.9905 15.5755C12.9615 15.5863 12.9325 15.5926 12.9022 15.5988C12.5973 15.6579 12.2924 15.717 11.9889 15.7761C11.9655 15.7807 11.942 15.7885 11.9172 15.7901C11.7875 15.8025 11.7075 15.7263 11.6965 15.5817C11.6909 15.5024 11.7227 15.4308 11.7875 15.3966C11.8261 15.3764 11.8675 15.3624 11.9089 15.3531C12.16 15.3017 12.4097 15.252 12.6608 15.2038C12.7256 15.1913 12.7932 15.1882 12.8222 15.1835Z" fill="#00A9BF"/>
<path d="M17.6557 14.4929C17.6736 14.4929 17.6915 14.4929 17.7108 14.4929C17.9012 14.4897 17.9316 14.6593 17.8998 14.8023C17.8902 14.8443 17.8654 14.8754 17.8295 14.891C17.7909 14.9081 17.7495 14.9237 17.7081 14.9283C17.4308 14.9594 17.1521 14.9859 16.8748 15.0154C16.8266 15.0201 16.7783 15.0263 16.7314 15.0341C16.6238 15.0527 16.5603 15.0185 16.5272 14.919C16.4913 14.8117 16.5189 14.7075 16.5989 14.6484C16.6514 14.6095 16.7121 14.6002 16.77 14.5831C16.7879 14.5784 16.8059 14.5737 16.8238 14.5737C17.1025 14.58 17.377 14.5131 17.6557 14.4929Z" fill="#00A9BF"/>
<path d="M8.34745 16.5445C8.34883 16.6192 8.32538 16.6814 8.26882 16.7187C8.22743 16.7467 8.18191 16.7669 8.13638 16.7841C7.87151 16.882 7.60526 16.9785 7.33901 17.0749C7.28797 17.0935 7.23278 17.1107 7.18036 17.1153C7.08517 17.1215 7.01482 17.0562 6.9955 16.9567C6.97205 16.8447 7.00102 16.7716 7.09345 16.7203C7.12104 16.7047 7.14863 16.6923 7.1776 16.683C7.46041 16.5788 7.74321 16.473 8.02602 16.3704C8.06603 16.3564 8.10879 16.3424 8.15018 16.3393C8.26882 16.3268 8.34469 16.4092 8.34745 16.5445Z" fill="#00A9BF"/>
<path d="M24.9038 14.8184C24.81 14.806 24.7203 14.7904 24.6293 14.7842C24.4541 14.7733 24.2775 14.7655 24.1009 14.7593C24.0333 14.7578 23.9671 14.7562 23.9036 14.7298C23.8153 14.694 23.7726 14.6287 23.774 14.5307C23.7753 14.4312 23.8319 14.3425 23.9243 14.3285C24.0071 14.3161 24.0954 14.3114 24.1782 14.327C24.3534 14.3612 24.5286 14.3596 24.7051 14.3627C24.821 14.3643 24.9355 14.3799 25.0486 14.411C25.148 14.4374 25.188 14.5058 25.1894 14.6209C25.1907 14.75 25.1425 14.8122 25.0293 14.82C24.9866 14.8215 24.9438 14.8184 24.9038 14.8184Z" fill="#00A9BF"/>
<path d="M8.2057 18.9771C8.18639 18.9693 8.15052 18.9584 8.11879 18.9413C7.91876 18.8418 7.71321 18.7625 7.50352 18.694C7.48007 18.6863 7.45661 18.68 7.43454 18.6692C7.33797 18.6225 7.29934 18.5323 7.32556 18.4203C7.35315 18.3021 7.43592 18.2399 7.5449 18.2664C7.72286 18.3115 7.89392 18.3799 8.06223 18.4545C8.1519 18.495 8.24157 18.537 8.32848 18.5852C8.42643 18.6396 8.45678 18.7205 8.42919 18.8169C8.40159 18.9196 8.31193 18.988 8.2057 18.9771Z" fill="#00A9BF"/>
<path d="M6.20809 17.981C6.27706 17.995 6.35983 18.0106 6.44398 18.0277C6.56263 18.051 6.68126 18.079 6.80128 18.0992C6.91165 18.1179 6.96959 18.219 6.95717 18.3108C6.93924 18.4321 6.84957 18.5192 6.74197 18.5176C6.72403 18.5176 6.7061 18.5145 6.68816 18.5114C6.5033 18.4741 6.31845 18.4367 6.13497 18.3994C6.12945 18.3978 6.12255 18.3979 6.11703 18.3963C6.00115 18.3652 5.95149 18.2968 5.9639 18.1848C5.97632 18.0666 6.05357 17.9873 6.15842 17.981C6.16808 17.9795 6.18049 17.981 6.20809 17.981Z" fill="#00A9BF"/>
<path d="M18.0105 26.1153C17.7045 26.1107 17.3075 26.0555 16.9164 25.9383C16.7422 25.8854 16.574 25.8165 16.4241 25.7061C16.0918 25.4602 16.0918 25.1705 16.4282 24.9292C16.6186 24.7913 16.8293 24.7062 17.0522 24.6603C17.2629 24.6143 17.4756 24.5798 17.6863 24.5407C17.7532 24.5292 17.7775 24.481 17.7714 24.4143C17.7208 23.8672 17.5648 23.3684 17.2446 22.9432C17.2122 22.8995 17.1737 22.8857 17.1271 22.8949C17.04 22.9156 16.9529 22.9432 16.8638 22.9524C16.4038 23.0052 16.0189 22.8144 15.7028 22.449C15.2936 21.9754 15.1133 21.3939 15.1254 20.7342C15.1254 20.7043 15.1254 20.6721 15.1295 20.6422C15.1497 20.4951 15.251 20.4147 15.3827 20.4491C15.4334 20.4629 15.484 20.4882 15.5306 20.5181C15.794 20.6767 16.0797 20.7595 16.3714 20.8192C16.5376 20.8537 16.7057 20.8951 16.8678 20.9503C17.1697 21.0514 17.4128 21.2537 17.585 21.5548C17.7329 21.8122 17.8058 22.0881 17.7208 22.3938C17.6863 22.5202 17.6883 22.6237 17.7836 22.7225C17.8545 22.7961 17.9031 22.8972 17.9659 22.9845C17.974 22.996 18.0064 23.0052 18.0125 22.9983C18.0307 22.9799 18.055 22.9478 18.049 22.9294C18.0348 22.8719 18.0105 22.8167 17.9862 22.7639C17.7025 22.1846 17.8525 21.6054 18.1705 21.1847C18.3468 20.9502 18.5616 20.7687 18.8148 20.6537C18.9728 20.5825 19.1309 20.5089 19.2929 20.456C19.6657 20.3342 20.0142 20.1549 20.3262 19.8906C20.3546 19.8653 20.3829 19.84 20.4133 19.8216C20.5957 19.709 20.7638 19.7802 20.8044 20.0124C20.9827 21.0192 20.8408 21.9364 20.1702 22.6788C19.7954 23.0926 19.3375 23.2581 18.8168 23.1592C18.7723 23.15 18.7277 23.1431 18.6831 23.1385C18.6244 23.1317 18.5818 23.1546 18.5534 23.219C18.4744 23.4029 18.3934 23.5845 18.3691 23.7868C18.3468 23.9684 18.3326 24.15 18.3265 24.3315C18.3205 24.5016 18.3427 24.5292 18.4886 24.5361C18.7581 24.5476 19.0215 24.6051 19.2828 24.6694C19.449 24.7108 19.611 24.7729 19.763 24.8625C19.8501 24.9131 19.9352 24.9706 20.0041 25.0533C20.156 25.2326 20.1581 25.4165 20.0021 25.5866C19.9372 25.6556 19.8602 25.7107 19.7832 25.7613C19.6515 25.8486 19.5077 25.9038 19.3598 25.9452C18.9485 26.0624 18.5332 26.1176 18.0105 26.1153ZM20.541 20.1756C20.4741 20.1503 20.4295 20.1917 20.387 20.2262C20.0507 20.4859 19.6819 20.656 19.2929 20.7847C19.1309 20.8376 18.9749 20.9158 18.8209 20.9962C18.4947 21.1686 18.2901 21.4674 18.1604 21.8375C18.1037 22.0007 18.1098 22.1754 18.1422 22.3478C18.1482 22.3846 18.2009 22.403 18.2273 22.3754C18.4987 22.0927 18.827 21.8996 19.1248 21.6582C19.3436 21.4812 19.5482 21.2882 19.7285 21.0583C19.7934 20.9755 19.8521 20.8859 19.919 20.8031C19.9413 20.7756 19.9757 20.7388 20.0041 20.7388C20.0669 20.7411 20.1236 20.7801 20.1662 20.833C20.2107 20.8905 20.1783 20.948 20.152 20.9985C19.9392 21.4399 19.6678 21.8237 19.3132 22.1295C19.143 22.2766 18.9749 22.4283 18.8067 22.5777C18.7641 22.6145 18.7216 22.6512 18.6831 22.6926C18.6649 22.711 18.6487 22.7409 18.6466 22.7662C18.6426 22.8052 18.677 22.8099 18.7014 22.8144C18.7459 22.8236 18.7905 22.8282 18.833 22.8374C19.3537 22.9317 19.7873 22.7524 20.1135 22.2812C20.547 21.6582 20.6929 20.9526 20.541 20.1756ZM17.4472 22.134C17.4554 22.1042 17.4675 22.0835 17.4655 22.0674C17.4128 21.7456 17.2487 21.5203 17.0015 21.3617C16.7949 21.2307 16.5679 21.1732 16.339 21.1318C16.0635 21.0813 15.7981 21.0031 15.5428 20.8767C15.5043 20.8583 15.4658 20.8238 15.4151 20.8537C15.3766 21.0054 15.4273 21.1525 15.4536 21.2996C15.5408 21.7663 15.7616 22.1409 16.0999 22.4168C16.3998 22.6627 16.728 22.7248 17.0765 22.5708C17.0785 22.5041 17.042 22.488 17.0116 22.4697C16.88 22.3846 16.7462 22.3019 16.6145 22.2168C16.341 22.0421 16.0898 21.8306 15.8751 21.5663C15.8203 21.4996 15.7697 21.4284 15.7231 21.3548C15.7109 21.3341 15.7069 21.2928 15.717 21.2698C15.7717 21.1341 15.8953 21.0974 15.9905 21.1985C16.4119 21.6444 16.9387 21.8651 17.4472 22.134Z" fill="#00A9BF"/>
<path d="M5.62522 13.2238C5.62027 13.5955 5.52455 13.9267 5.27699 14.1917C5.17631 14.3003 5.06078 14.3831 4.92875 14.4383C4.56565 14.5855 4.19926 14.591 3.83782 14.442C3.53414 14.3169 3.32124 14.0795 3.21231 13.7372C3.07202 13.2901 3.09513 12.8576 3.32619 12.451C3.51434 12.1216 3.7916 11.9376 4.13324 11.8897C4.33459 11.8621 4.53924 11.864 4.74225 11.9118C5.27368 12.0406 5.63677 12.6221 5.62357 13.1521C5.62522 13.1741 5.62522 13.1981 5.62522 13.2238ZM5.09874 13.1833C5.10204 13.1042 5.08389 13.0177 5.05088 12.9349C4.92545 12.6239 4.70264 12.451 4.40391 12.4344C4.11839 12.4179 3.90219 12.5835 3.75035 12.8448C3.67278 12.9772 3.64142 13.1281 3.66122 13.2882C3.72394 13.7667 4.23392 14.0979 4.62342 13.9194C4.90564 13.7869 5.09874 13.5035 5.09874 13.1833Z" fill="#00A9BF"/>
<path d="M27.9336 9.33551C28.3631 9.34749 28.6818 9.61092 28.8174 10.0779C28.8995 10.3581 28.8976 10.6431 28.7888 10.9089C28.6532 11.2442 28.4375 11.4717 28.1397 11.5603C27.5804 11.7256 27.0001 11.1724 27.0001 10.4539C27.0001 9.89591 27.3819 9.29241 27.9336 9.33551ZM27.9412 11.0622C28.1989 11.0574 28.4585 10.7341 28.4471 10.4324C28.4356 10.1258 28.1703 9.82406 27.924 9.80969C27.7274 9.79772 27.4105 10.1593 27.4239 10.4922C27.4372 10.8036 27.6911 11.0694 27.9412 11.0622Z" fill="#00A9BF"/>
<path d="M15.4552 5.66665C14.7703 5.65871 14.3625 5.03117 14.5428 4.29507C14.6284 3.94291 14.8221 3.71255 15.1218 3.60928C15.347 3.52985 15.5723 3.52985 15.7931 3.62252C16.1558 3.7761 16.3901 4.17063 16.3744 4.62076C16.3564 5.11326 16.1288 5.4813 15.7526 5.62694C15.6489 5.66665 15.5385 5.664 15.4552 5.66665ZM15.9328 4.60752C15.9441 4.20505 15.6625 4.03824 15.4439 4.05148C15.1375 4.07001 14.9235 4.29243 14.9212 4.63135C14.919 4.91997 15.1691 5.16092 15.4507 5.16356C15.7481 5.17151 15.9351 4.95438 15.9328 4.60752Z" fill="#00A9BF"/>
</svg>
