<svg width="32" height="32" viewBox="0 0 32 32" fill="none" xmlns="http://www.w3.org/2000/svg">
<path d="M15.3438 29.5L14.76 29.4449C11.9334 29.197 9.38251 28.2329 7.12119 26.525C4.52894 24.5601 2.8973 21.9754 2.26302 18.7755C2.07707 17.8089 1.9893 16.826 2.00104 15.8418C2.00564 15.5159 2.21706 15.3001 2.53879 15.3001C3.2466 15.3001 3.95442 15.2725 4.66223 15.3047C6.78567 15.4103 8.83097 15.8418 10.7016 16.9115C12.5723 17.9812 13.9189 19.533 14.8244 21.4795C15.204 22.3133 15.5011 23.182 15.7115 24.0735C15.7146 24.0878 15.7207 24.1014 15.7295 24.1132C15.7382 24.1251 15.7492 24.135 15.762 24.1423C15.7758 24.0826 15.7942 24.0275 15.808 23.9725C16.1389 22.6365 16.6307 21.3648 17.3661 20.1987C18.6622 18.1465 20.4961 16.7921 22.7804 16.0255C23.7108 15.7194 24.6703 15.5101 25.6438 15.4011C26.7546 15.278 27.8736 15.2442 28.9898 15.3001C29.094 15.3016 29.1953 15.335 29.2799 15.3958C29.3645 15.4565 29.4285 15.5417 29.4632 15.6398C29.4736 15.6682 29.4858 15.6958 29.5 15.7224V16.4754C29.4908 16.5396 29.477 16.6039 29.4724 16.6728C29.4464 17.4275 29.3557 18.1786 29.2012 18.9178C28.737 21.1765 27.7535 23.1828 26.1816 24.8723C23.6307 27.6131 20.4501 29.0868 16.7364 29.4449L16.1481 29.5H15.3438ZM14.3786 28.4257L14.3969 28.3706L14.3142 28.2742L8.72985 22.7099L7.05224 21.0434C6.87759 20.8644 6.83622 20.6532 6.92815 20.4512C7.07982 20.1252 7.49807 20.0655 7.77385 20.3364L15.0726 27.6039L15.1737 27.7003L15.2059 27.6866L15.1369 26.851C15.06 25.9202 14.9063 24.9973 14.6773 24.0918C14.3142 22.6686 13.7535 21.3372 12.8756 20.1528C11.7036 18.578 10.1501 17.5497 8.29781 16.9482C6.6202 16.4065 4.88744 16.2596 3.1363 16.2825C3.0168 16.2871 3.0122 16.3468 3.0168 16.4386C3.04269 17.1896 3.12876 17.9372 3.27418 18.6745C3.82113 21.3694 5.16321 23.5914 7.26827 25.3589C8.85395 26.6903 10.6694 27.5718 12.6734 28.0768C13.2341 28.2191 13.8086 28.3109 14.3786 28.4257ZM17.0581 28.3293C17.0723 28.3555 17.0893 28.3801 17.1087 28.4028L17.7659 28.3018C19.848 27.9437 21.76 27.1678 23.479 25.9374C25.198 24.707 26.5768 23.091 27.4501 21.1169C28.112 19.6248 28.4199 18.0547 28.4796 16.4341C28.4842 16.3055 28.4383 16.278 28.328 16.2825C27.5374 16.3193 26.7423 16.3285 25.9563 16.3927C24.9567 16.4694 23.9711 16.6746 23.024 17.0033C21.2453 17.6185 19.7469 18.6285 18.6162 20.1573C17.6418 21.475 17.0673 22.9624 16.7088 24.5509C16.5341 25.355 16.4097 26.1692 16.3365 26.9887C16.3181 27.2183 16.309 27.4524 16.2906 27.7233C16.3347 27.6882 16.3762 27.6498 16.4147 27.6085L19.0529 24.9871L23.6766 20.3823C23.7169 20.3351 23.7633 20.2934 23.8145 20.2583C23.8898 20.2 23.981 20.1657 24.0761 20.16C24.1713 20.1543 24.2659 20.1773 24.3477 20.2262C24.4302 20.2678 24.4989 20.3325 24.5454 20.4124C24.5919 20.4922 24.6143 20.5839 24.6097 20.6761C24.6097 20.8414 24.5223 20.9608 24.412 21.0709L17.219 28.2329C17.1681 28.2694 17.1143 28.3016 17.0581 28.3293Z" fill="#008B45"/>
<path d="M16.2032 2L16.8283 2.05509C18.3962 2.16812 19.9319 2.55666 21.3647 3.20284C23.6536 4.2404 25.5334 5.78297 26.9858 7.83514C28.0838 9.37228 28.842 11.125 29.2104 12.9771C29.3207 13.5372 29.3713 14.1064 29.4494 14.6757V14.7538L28.4796 14.7262C28.3877 14.7262 28.3601 14.6941 28.3509 14.6023C28.1211 12.0589 27.1973 9.79091 25.5978 7.79383C25.538 7.72496 25.4967 7.71578 25.4185 7.76169C24.2408 8.39765 23.003 8.91588 21.7232 9.30885C21.6129 9.34099 21.6037 9.39149 21.6221 9.49249C21.7968 10.3923 21.9852 11.2876 22.1231 12.192C22.2839 13.2617 22.3253 14.3452 22.3529 15.4286C22.3522 15.4488 22.3473 15.4685 22.3386 15.4867C22.3299 15.5048 22.3176 15.521 22.3023 15.5342L21.259 15.952V15.7776C21.2798 13.7698 21.0544 11.767 20.588 9.81386C20.5466 9.6394 20.5466 9.6394 20.3811 9.67613C19.1949 9.95407 17.9856 10.1231 16.7685 10.1811C14.9344 10.2704 13.0965 10.1145 11.3037 9.71745L11.0279 9.65777C10.936 9.63022 10.8992 9.66695 10.8808 9.75418C10.7291 10.5806 10.5407 11.4069 10.4304 12.2425C10.3201 13.0781 10.2695 14.0284 10.2098 14.9282C10.1868 15.2542 10.2052 15.5847 10.2052 15.9336L10.0765 15.8923C9.80991 15.7821 9.54333 15.6674 9.26756 15.5664C9.17104 15.5342 9.14806 15.4791 9.14346 15.3827C9.08371 14.6757 9.14806 13.9687 9.22619 13.2709C9.31812 12.4078 9.44681 11.5493 9.5755 10.6953C9.63985 10.2867 9.75016 9.88273 9.84668 9.47872C9.86966 9.37772 9.85127 9.3364 9.75016 9.30426C8.47767 8.91757 7.24856 8.40063 6.0824 7.76169C5.99508 7.71578 5.95371 7.72496 5.89396 7.79842C4.56107 9.46035 3.68779 11.3335 3.30171 13.4316C3.23277 13.8218 3.19141 14.2166 3.14085 14.6114C3.13165 14.6941 3.10408 14.7216 3.01675 14.7262C2.69961 14.7262 2.37788 14.74 2.03776 14.7492C2.06074 14.5013 2.07913 14.2396 2.1113 13.9825C2.26298 12.8393 2.53415 11.7237 2.97538 10.6586C4.5197 6.92766 7.17783 4.33222 10.9498 2.87229C12.0425 2.45148 13.1889 2.18568 14.3555 2.08264C14.6405 2.05509 14.9301 2.04132 15.215 2.02295L15.2886 2H16.2032ZM20.2432 8.61561C20.2359 8.57995 20.2267 8.54471 20.2157 8.51002C19.9215 7.58264 19.5584 6.6874 19.0758 5.83807C18.6392 5.07137 18.129 4.36436 17.4396 3.79967C17.0627 3.49207 16.6536 3.23498 16.1756 3.14775C15.6298 3.04005 15.0634 3.13298 14.5807 3.40943C13.9235 3.7813 13.4179 4.31386 12.9767 4.91528C12.1953 5.98957 11.6806 7.19241 11.2577 8.44575C11.2163 8.57429 11.2439 8.61102 11.3726 8.64316C13.0962 9.01962 14.8381 9.22162 16.6077 9.12062C17.5498 9.07021 18.4878 8.9598 19.4159 8.79007C19.6871 8.73957 19.9583 8.6753 20.2432 8.61561ZM18.7173 3.46912L18.7863 3.55634C19.085 3.94658 19.4113 4.31845 19.6779 4.72705C20.3811 5.78756 20.8637 6.94908 21.2498 8.15192C21.3004 8.3172 21.3004 8.3172 21.4704 8.26211C22.5646 7.92581 23.6249 7.48774 24.6372 6.95368L24.7797 6.87104C23.0653 5.16319 21.0568 4.02463 18.7173 3.46912ZM12.7239 3.47371C10.4074 4.0384 8.41267 5.16778 6.71668 6.87563C7.81391 7.46907 8.96894 7.94902 10.1638 8.30802C10.7337 6.54049 11.4599 4.86937 12.7239 3.47371Z" fill="#008B45"/>
<path d="M13.542 15.1073C13.4225 15.3827 13.3811 15.3644 13.2295 15.1761C13.0778 14.9879 12.9859 14.841 13.0548 14.6114C13.0916 14.4829 12.9077 14.2028 12.7882 14.1432C12.6687 14.0835 12.4481 13.9733 12.3838 13.7667C12.3654 13.7024 12.2919 13.6565 12.2505 13.5968C12.2091 13.5371 12.1999 13.5004 12.2137 13.4683C12.2808 13.3128 12.3592 13.1625 12.4481 13.0184C12.4849 12.9541 12.5309 12.9082 12.5125 12.8164C12.4941 12.7245 12.5446 12.7016 12.5768 12.6235C12.3516 12.6419 12.2781 12.5088 12.1907 12.3389C12.1034 12.169 12.0758 12.1093 12.0712 11.9716C12.0666 11.9073 12.0528 11.8247 12.0115 11.788C11.9701 11.7513 11.9058 11.6043 11.9104 11.4896C11.915 11.3748 11.8782 11.2141 11.892 11.0764C11.9058 10.9386 11.9793 10.9111 12.0253 10.8239H12.0758C12.1356 10.9111 12.1999 10.9983 12.2597 11.0901C12.3976 11.3059 12.7377 11.3105 12.8985 11.1177C12.9721 11.0369 13.0633 10.974 13.1651 10.9341C13.2111 10.9157 13.3122 10.9524 13.3306 10.9937C13.3453 11.027 13.3529 11.063 13.3529 11.0993C13.3529 11.1357 13.3453 11.1717 13.3306 11.2049C13.2938 11.2692 13.2938 11.3151 13.349 11.3335C13.5604 11.4069 13.6156 11.5722 13.6569 11.765C13.6983 11.9578 13.8316 11.9624 13.9878 11.967C14.0418 11.9676 14.0939 11.9871 14.1349 12.0221C14.3831 12.3114 14.6129 12.371 14.9806 12.2563C15.1154 12.2193 15.2545 12.2008 15.3943 12.2012C15.5459 12.1966 15.5873 12.1644 15.5505 12.0221C15.5322 11.9533 15.5551 11.9303 15.6103 11.8982C15.7359 11.8341 15.8545 11.7572 15.9642 11.6686C16.0561 11.586 16.1435 11.5355 16.2721 11.563C16.3205 11.5706 16.37 11.5591 16.41 11.5309C16.5249 11.4437 16.6306 11.4391 16.7456 11.5217C16.9246 11.6468 17.1384 11.7127 17.3568 11.7099C17.439 11.7168 17.5166 11.7507 17.5775 11.8063C17.7376 11.9796 17.9512 12.0944 18.1842 12.1323C18.2577 12.1415 18.2899 12.1644 18.3083 12.2379C18.3782 12.5469 18.3623 12.8692 18.2623 13.1699C18.2531 13.1928 18.2209 13.2112 18.1979 13.2295C18.175 13.2479 18.1198 13.4132 18.1979 13.4912C18.2136 13.5094 18.2254 13.5306 18.2325 13.5535C18.2396 13.5764 18.2419 13.6005 18.2393 13.6244C18.2195 13.6904 18.213 13.7597 18.2201 13.8282C18.2272 13.8967 18.2478 13.9632 18.2807 14.0238C18.3069 14.0845 18.3179 14.1507 18.3128 14.2166C18.3037 14.3681 18.4048 14.4921 18.5518 14.4783C18.6989 14.4645 18.7219 14.5288 18.7311 14.639C18.7403 14.7492 18.7357 14.9053 18.6254 15.0108C18.5932 15.0418 18.5681 15.0794 18.5518 15.121C18.4599 15.3093 18.4645 15.3047 18.63 15.4332C18.675 15.4707 18.7111 15.5178 18.7357 15.571C18.8138 15.7362 18.9425 15.8648 19.1264 15.8831C19.3102 15.9015 19.393 16.053 19.4113 16.2183C19.4297 16.3836 19.4435 16.3698 19.5446 16.379C19.5676 16.379 19.6044 16.4249 19.6044 16.4478C19.609 16.76 19.609 17.0722 19.609 17.4028C19.4067 17.4028 19.2137 17.4119 19.0253 17.3982C18.8368 17.3844 18.6989 17.3477 18.5381 17.3385C18.3772 17.3293 18.2807 17.3614 18.152 17.3523C17.8548 17.3308 17.556 17.3033 17.2557 17.2696C17.2322 17.2654 17.2097 17.2563 17.1899 17.2429C17.1701 17.2294 17.1534 17.2119 17.1408 17.1916C17.0875 17.104 17.0457 17.0099 17.0167 16.9115C16.957 16.7233 16.7639 16.5718 16.5433 16.6957C16.3993 16.7723 16.2522 16.8457 16.1021 16.9161C16.0485 16.9448 15.9883 16.9591 15.9274 16.9574C15.8033 16.9482 15.6746 16.9437 15.5643 16.8977C15.454 16.8518 15.2518 16.7508 15.1323 16.6407C15.0128 16.5305 14.9025 16.4341 14.737 16.4157C14.6851 16.4114 14.6359 16.3909 14.5963 16.3571C14.5567 16.3234 14.5288 16.278 14.5164 16.2275C14.4337 15.9612 14.2636 15.7454 14.1027 15.525C14.0801 15.4972 14.0615 15.4663 14.0476 15.4332C14.0062 15.3368 13.9603 15.2863 13.8454 15.3506C13.7305 15.4149 13.7029 15.3139 13.6569 15.2542L13.542 15.1073Z" fill="#008B45"/>
</svg>
