<svg width="32" height="32" viewBox="0 0 32 32" fill="none" xmlns="http://www.w3.org/2000/svg">
<path d="M17.598 6C17.8382 6.04498 18.0872 6.07361 18.3185 6.13494C19.2925 6.38438 20.1019 6.82192 20.7289 7.48437C21.2791 8.0544 21.6375 8.75897 21.7607 9.5126C21.7917 9.73358 21.8051 9.95635 21.8007 10.1791C21.8052 11.7289 21.8052 13.2828 21.8052 14.8326C21.8052 15.904 21.4405 16.8608 20.5644 17.6828C20.004 18.2103 19.3325 18.5783 18.5186 18.8114C17.7937 19.0199 17.0599 19.0813 16.3172 18.9586C15.699 18.8604 15.0942 18.6887 14.5694 18.3861C13.4042 17.7114 12.6927 16.7954 12.4525 15.6504C12.4 15.3806 12.3761 15.1067 12.3814 14.8326C12.3814 13.3033 12.3903 11.7739 12.3769 10.2487C12.3725 9.43899 12.5593 8.67023 13.0529 7.9628C13.2998 7.6111 13.6043 7.2966 13.9557 7.03047C14.3515 6.72787 14.8051 6.51115 15.2899 6.31078C15.6546 6.16357 16.0326 6.09405 16.4195 6.0368C16.4506 6.03271 16.4907 6.04089 16.4996 6H17.598ZM20.4354 12.4936C20.4354 11.7412 20.431 10.9929 20.4354 10.2405C20.4399 9.87245 20.4043 9.50851 20.2664 9.14866C19.9329 8.28176 19.248 7.6602 18.2118 7.33307C17.3223 7.05501 16.424 7.08363 15.5745 7.49664C15.2365 7.65611 14.9208 7.83195 14.6584 8.0773C14.0447 8.64978 13.7511 9.30405 13.7511 10.0524C13.7511 11.594 13.76 13.1356 13.7467 14.6772C13.7422 15.3397 13.8623 15.9653 14.3026 16.546C14.8274 17.2289 15.5834 17.6337 16.5262 17.8054C17.0533 17.906 17.6006 17.8677 18.105 17.695C18.5498 17.5396 18.9678 17.3802 19.3236 17.098C20.0752 16.501 20.4265 15.7854 20.431 14.9512C20.4354 14.117 20.4354 13.3114 20.4354 12.4936Z" fill="#1ED760"/>
<path d="M13.0039 25.7143C12.7059 25.7143 12.5058 25.5834 12.4257 25.334C12.3457 25.0846 12.4302 24.8637 12.6481 24.6797C12.7455 24.5998 12.8735 24.5586 13.0039 24.5652H16.3838C16.5083 24.5652 16.5439 24.5407 16.5439 24.4098C16.535 23.9559 16.5306 23.502 16.5439 23.0481C16.5483 22.8968 16.495 22.856 16.3571 22.8437C15.7891 22.7999 15.2345 22.6614 14.7205 22.4348C14.3469 22.2671 13.9645 22.0954 13.6265 21.8582C13.1511 21.533 12.7209 21.1553 12.3457 20.7337C11.5807 19.8381 11.0515 18.8199 10.8158 17.6668C10.798 17.5973 10.7847 17.5237 10.7713 17.4542C10.6913 17.0739 10.8825 16.7713 11.2561 16.6813C11.4384 16.6363 11.7986 16.9021 11.8431 17.1352C11.9204 17.5578 12.0364 17.9737 12.19 18.3783C12.2803 18.6055 12.3873 18.8269 12.5102 19.0408C12.7049 19.3809 12.9374 19.7015 13.204 19.9976C13.6367 20.4712 14.1578 20.87 14.7427 21.1753C15.6544 21.6619 16.6239 21.7928 17.6379 21.7069C18.1671 21.6654 18.6839 21.5366 19.1633 21.3266C19.7967 21.0401 20.3644 20.6445 20.8355 20.1612C21.1092 19.8803 21.3492 19.5732 21.5515 19.2452C21.9207 18.64 22.192 17.998 22.2987 17.2988C22.3521 16.9757 22.5255 16.7713 22.8235 16.6936C22.9836 16.6486 23.1481 16.759 23.2726 16.8776C23.3972 16.9962 23.4639 17.2129 23.4239 17.4214C23.2371 18.3701 22.8991 19.2575 22.3432 20.059C22.0833 20.438 21.7855 20.794 21.4537 21.1221C20.9401 21.6112 20.342 22.0188 19.6837 22.3284C19.0966 22.6147 18.4829 22.766 17.8425 22.8396C17.6913 22.86 17.6335 22.8968 17.6379 23.0604C17.6513 23.5102 17.6468 23.96 17.6379 24.4098C17.6379 24.5325 17.6646 24.5652 17.798 24.5652H21.178C21.516 24.5652 21.7828 24.8269 21.7828 25.15C21.7828 25.473 21.5515 25.7143 21.178 25.7143H13.0039Z" fill="#1ED760"/>
<path d="M6.15212 12.7554C6.15212 11.6227 6.16102 10.49 6.14768 9.35726C6.14323 8.98515 6.24551 8.7398 6.62353 8.74389C7.00155 8.74798 7.08161 8.99333 7.07716 9.3409V16.1862C7.07716 16.5378 6.97932 16.82 6.59685 16.8077C6.21439 16.7955 6.14768 16.5092 6.14768 16.1576C6.15657 15.0249 6.15212 13.8922 6.15212 12.7554Z" fill="#1ED760"/>
<path d="M27.8278 12.8166C27.8278 13.9493 27.8234 15.082 27.8323 16.2107C27.8367 16.5623 27.7433 16.8036 27.392 16.8077C27.0406 16.8118 26.9428 16.5623 26.9428 16.2188C26.9458 13.9207 26.9443 11.6253 26.9384 9.33268C26.9339 8.9851 27.0318 8.74384 27.3875 8.74384C27.7433 8.74384 27.8412 8.97692 27.8412 9.32859C27.8278 10.4899 27.8367 11.6553 27.8367 12.8166H27.8278Z" fill="#1ED760"/>
<path d="M4.08138 12.7431C4.08138 11.8435 4.09028 10.9479 4.08138 10.0483C4.07694 9.68846 4.15254 9.42266 4.53945 9.42675C4.92637 9.43084 4.99752 9.6721 4.99752 10.0115C4.99752 11.8557 4.99308 13.6999 4.99752 15.5442C4.99752 15.8958 4.86855 16.133 4.53056 16.1248C4.19257 16.1166 4.07249 15.8917 4.08138 15.5319C4.09473 14.6036 4.08583 13.6754 4.08583 12.7431H4.08138Z" fill="#1ED760"/>
<path d="M29.9194 12.7841C29.9194 13.7001 29.9105 14.616 29.9194 15.5361C29.9239 15.8878 29.8171 16.1249 29.4702 16.129C29.1234 16.1331 29.0166 15.8878 29.0166 15.5361C29.0255 13.6714 29.027 11.8081 29.0211 9.94621C29.0211 9.61908 29.1456 9.43507 29.4436 9.4228C29.7415 9.41053 29.9194 9.58637 29.9194 9.94212C29.915 10.8867 29.9194 11.8354 29.9194 12.7841Z" fill="#1ED760"/>
<path d="M9.13284 12.7552C9.13284 13.6875 9.12394 14.6199 9.13728 15.5522C9.14173 15.912 9.01276 16.1328 8.67032 16.1247C8.32788 16.1165 8.23004 15.9039 8.23449 15.5645C8.24042 13.6998 8.24042 11.8351 8.23449 9.97047C8.23449 9.63107 8.35901 9.43478 8.67921 9.42661C8.99942 9.41843 9.13729 9.61471 9.13284 9.9582C9.12839 10.8905 9.13284 11.8229 9.13284 12.7552Z" fill="#1ED760"/>
<path d="M24.8594 12.7145C24.8594 11.8108 24.8639 10.9112 24.8594 10.0116C24.855 9.66397 24.9573 9.42271 25.313 9.4268C25.6688 9.43089 25.7711 9.66397 25.7711 10.0116C25.7622 11.849 25.7622 13.6823 25.7711 15.5115C25.7711 15.8877 25.651 16.1371 25.2864 16.1249C24.9217 16.1126 24.8505 15.8509 24.855 15.5115C24.8639 14.5792 24.8594 13.6468 24.8594 12.7145Z" fill="#1ED760"/>
<path d="M11.213 12.7966C11.213 13.3241 11.2041 13.8556 11.213 14.3832C11.2219 14.7266 11.0752 14.927 10.7638 14.9229C10.4525 14.9188 10.3102 14.7226 10.3102 14.375C10.3236 13.3036 10.3191 12.2322 10.3147 11.1609C10.3102 10.8133 10.4436 10.6293 10.7683 10.6293C11.0929 10.6293 11.2219 10.8256 11.213 11.1691C11.2041 11.7129 11.213 12.2527 11.213 12.7966Z" fill="#1ED760"/>
<path d="M23.6812 12.7721C23.6812 13.316 23.6723 13.8598 23.6812 14.4037C23.6856 14.7308 23.53 14.9108 23.2498 14.923C22.9696 14.9353 22.7828 14.7717 22.7784 14.4446C22.7784 13.3242 22.7739 12.2078 22.7784 11.0915C22.7828 10.7684 22.9562 10.6171 23.2542 10.6294C23.5522 10.6417 23.6856 10.8257 23.6812 11.1446C23.6767 11.6885 23.6812 12.2324 23.6812 12.7721Z" fill="#1ED760"/>
<path d="M2.00445 12.7843C2.00445 12.3672 2.00445 11.9501 2 11.5289C2 11.21 2.13342 11.0219 2.43584 11.0178C2.73825 11.0137 2.91614 11.1813 2.91614 11.5248V14.0397C2.91614 14.3627 2.7338 14.5385 2.45807 14.5385C2.18234 14.5385 2 14.3791 2.00445 14.0397C2.0089 13.6226 2.00445 13.2055 2.00445 12.7843Z" fill="#1ED760"/>
<path d="M31.9999 12.8046C31.9999 13.2217 31.9955 13.6387 31.9999 14.0558C32.0044 14.3993 31.8087 14.5384 31.5374 14.5343C31.2661 14.5302 31.106 14.383 31.106 14.0681C31.1105 13.2053 31.106 12.3384 31.106 11.4715C31.1016 11.1607 31.2706 11.0176 31.5374 11.0176C31.8043 11.0176 31.9999 11.1771 31.9999 11.5042C31.9955 11.9377 31.9999 12.3711 31.9999 12.8046Z" fill="#1ED760"/>
<path d="M18.4457 16.2761C18.3551 16.5569 18.2266 16.8262 18.0633 17.0776C17.9966 17.1799 17.9254 17.2821 17.8498 17.3802C17.8409 17.3884 17.8365 17.4007 17.8276 17.4007C17.8187 17.4007 17.8142 17.3802 17.8142 17.372C17.7564 17.1676 17.7075 16.9631 17.6497 16.7587C17.5982 16.569 17.5359 16.382 17.4629 16.1985C17.3794 15.9904 17.2829 15.7869 17.1738 15.5892C17.0192 15.3021 16.8345 15.0295 16.6223 14.7754C16.4689 14.5887 16.2994 14.4137 16.1154 14.252C15.9907 14.1421 15.8585 14.0396 15.7195 13.9453L15.6706 13.9126H15.6662C15.6528 13.9126 15.6528 13.9167 15.6528 13.9249L15.6706 13.9494C15.6706 13.9527 15.672 13.9558 15.6745 13.9581C15.677 13.9604 15.6804 13.9617 15.684 13.9617C15.684 13.9658 15.684 13.9699 15.6929 13.9739L15.7018 13.9862H15.7107L15.9375 14.2684C16.0042 14.3461 16.062 14.4319 16.1242 14.5137C16.2787 14.7241 16.4198 14.9426 16.5467 15.168C16.6682 15.382 16.7737 15.6033 16.8625 15.8304C16.939 16.0123 17.0044 16.1979 17.0582 16.3866C17.1115 16.5801 17.156 16.7723 17.1916 16.9631C17.2331 17.1955 17.248 17.4312 17.2361 17.6665C17.2361 17.691 17.2316 17.6992 17.2005 17.691C16.9863 17.6545 16.7753 17.604 16.569 17.5397C16.3812 17.4766 16.1984 17.4014 16.022 17.3148C15.8102 17.2127 15.6105 17.0908 15.426 16.9509C15.1977 16.7811 14.9931 16.5861 14.8167 16.3702C14.633 16.1504 14.4778 15.9116 14.3542 15.6587C14.3142 15.5769 14.2742 15.491 14.243 15.4052C14.1769 15.2464 14.1219 15.0838 14.0785 14.9185C14.0696 14.8736 14.0563 14.8327 14.0474 14.7836C14.0434 14.7745 14.0419 14.7647 14.0429 14.755C14.0413 14.7533 14.0401 14.7514 14.0393 14.7493C14.0386 14.7472 14.0383 14.7449 14.0385 14.7427C14.0429 14.7386 14.0429 14.7386 14.0385 14.7386C14.0355 14.7336 14.0339 14.728 14.034 14.7223C14.0263 14.7099 14.0232 14.6955 14.0251 14.6814C14.0196 14.6669 14.0166 14.6517 14.0162 14.6364C14.012 14.6303 14.0104 14.623 14.0118 14.6159C14.0001 14.5744 13.9926 14.532 13.9895 14.4892C13.9823 14.4695 13.9792 14.4486 13.9807 14.4278C13.9755 14.4119 13.9725 14.3954 13.9718 14.3788V14.3665C13.972 14.3643 13.9717 14.3621 13.9709 14.36C13.9701 14.3578 13.9689 14.3559 13.9673 14.3542C13.9584 14.3093 13.954 14.2643 13.9495 14.2193C13.9502 14.2122 13.9487 14.2051 13.9451 14.1989C13.9273 14.0721 13.9228 13.9494 13.9139 13.8226C13.9036 13.64 13.9065 13.457 13.9228 13.2747C13.9406 13.0811 13.9673 12.889 14.0029 12.6981C14.0296 12.5509 14.0518 12.4078 14.0874 12.2647C14.123 12.1216 14.1363 12.052 14.163 11.9457C14.1897 11.8394 14.2519 11.6186 14.3053 11.4591C14.3587 11.2996 14.4565 11.0502 14.541 10.8498C14.6255 10.6495 14.6967 10.5186 14.7767 10.355C14.7812 10.3469 14.7856 10.3346 14.7945 10.3346C14.8034 10.3346 14.8034 10.3469 14.8078 10.355C14.8123 10.3632 14.8701 10.4613 14.8923 10.5145C14.9146 10.5677 14.9902 10.6699 15.0213 10.7558C15.0525 10.8416 15.0658 10.813 15.0836 10.8457C15.1014 10.8784 15.1414 10.9398 15.1681 10.9848L15.3104 11.1892C15.4341 11.3656 15.5692 11.5349 15.7151 11.6963C15.854 11.8538 16.0025 12.004 16.1598 12.1461C16.1693 12.1507 16.1771 12.1578 16.1821 12.1665C16.1961 12.1753 16.2081 12.1864 16.2176 12.1992L16.2577 12.232C16.2628 12.2336 16.2675 12.2363 16.2714 12.2398C16.2752 12.2433 16.2781 12.2477 16.2799 12.2524C16.4756 12.416 16.6846 12.5673 16.8936 12.7145C16.9781 12.7758 17.0671 12.8331 17.1471 12.8944C17.3613 13.0429 17.5567 13.213 17.7297 13.4015C17.8684 13.5627 17.9933 13.7336 18.1033 13.9126C18.2127 14.0894 18.3064 14.274 18.3835 14.4646C18.4834 14.7176 18.5462 14.9816 18.5703 15.2498C18.596 15.596 18.5538 15.9436 18.4457 16.2761Z" fill="#1ED760"/>
<path d="M15.6838 13.9585C15.6799 13.9585 15.6763 13.9571 15.6736 13.9547C15.6708 13.9523 15.6693 13.949 15.6693 13.9456C15.6732 13.9456 15.6768 13.947 15.6795 13.9494C15.6822 13.9518 15.6838 13.9551 15.6838 13.9585Z" fill="#1ED760"/>
<path d="M15.6921 13.9697C15.6836 13.9657 15.6838 13.9625 15.6838 13.9585C15.6838 13.9545 15.6878 13.9617 15.6921 13.9697Z" fill="#1ED760"/>
<path d="M15.6706 13.9126C15.6667 13.916 15.6668 13.9119 15.6668 13.9085L15.6706 13.9126Z" fill="#1ED760"/>
<path d="M15.708 13.9856H15.7004C15.7042 13.9822 15.708 13.9822 15.708 13.9856Z" fill="#1ED760"/>
<path d="M14.0374 14.742C14.0413 14.7386 14.0413 14.7386 14.0374 14.742V14.742Z" fill="#1ED760"/>
<path d="M15.7204 8.69883C15.8111 8.41935 15.9396 8.15145 16.1029 7.90144C16.1696 7.79512 16.2408 7.69698 16.3164 7.59884C16.3208 7.59066 16.3253 7.57431 16.3386 7.5784C16.3519 7.58249 16.3519 7.59475 16.3519 7.60702C16.4053 7.81148 16.4587 8.01594 16.5165 8.2204C16.5653 8.40938 16.6277 8.59517 16.7033 8.77653C16.7844 8.98483 16.8794 9.18831 16.9879 9.38581C17.1457 9.67253 17.3302 9.94616 17.5394 10.2036C17.6941 10.3881 17.8636 10.5617 18.0464 10.723C18.1725 10.8343 18.3062 10.9381 18.4466 11.0337L18.4955 11.0624C18.4955 11.0665 18.5 11.0665 18.5 11.0705C18.5035 11.0705 18.5069 11.0693 18.5094 11.067C18.5119 11.0647 18.5133 11.0615 18.5133 11.0583L18.4911 11.0337C18.4955 11.0256 18.4911 11.0215 18.4822 11.0215C18.4733 11.0215 18.4822 11.0092 18.4733 11.0092C18.4644 11.0092 18.4644 11.001 18.4644 10.9969L18.4555 10.9888C18.3755 10.8988 18.3043 10.8048 18.2287 10.7107C18.1531 10.6167 18.0997 10.5471 18.0419 10.4654C17.8858 10.2545 17.7447 10.0346 17.6194 9.807C17.4973 9.59413 17.3904 9.37422 17.2992 9.14864C17.2281 8.96463 17.1614 8.78061 17.108 8.58842C17.0546 8.39623 17.0101 8.20813 16.9746 8.01185C16.9307 7.7811 16.9158 7.54648 16.9301 7.3126C16.9301 7.28807 16.9345 7.27989 16.9612 7.28398C17.1771 7.32132 17.3896 7.37326 17.5972 7.43937C17.7849 7.50109 17.9677 7.57487 18.1442 7.66018C18.3533 7.76426 18.5513 7.88611 18.7357 8.02412C19.2003 8.37237 19.569 8.81649 19.8119 9.32038C19.852 9.40217 19.8875 9.48804 19.9231 9.56982C19.9893 9.72824 20.0428 9.89087 20.0832 10.0564C20.0966 10.1014 20.1099 10.1464 20.1188 10.1914C20.1224 10.2005 20.124 10.2103 20.1232 10.22C20.1232 10.2241 20.1277 10.2323 20.1277 10.2364C20.1277 10.2404 20.1232 10.2404 20.1277 10.2404C20.1276 10.2462 20.1291 10.2518 20.1321 10.2568C20.1372 10.2686 20.1402 10.281 20.141 10.2936C20.1455 10.31 20.1455 10.3263 20.1499 10.3386C20.1535 10.3463 20.155 10.3547 20.1544 10.3631C20.1643 10.405 20.1717 10.4473 20.1766 10.4899C20.1843 10.5095 20.1873 10.5304 20.1855 10.5512C20.191 10.5657 20.194 10.5809 20.1944 10.5962V10.6207C20.2062 10.6664 20.2136 10.7129 20.2166 10.7598V10.7802C20.2389 10.9029 20.2433 11.0297 20.2522 11.1564C20.2611 11.3391 20.2567 11.5222 20.2389 11.7044C20.2246 11.8976 20.1994 12.0901 20.1633 12.2809C20.1366 12.4241 20.1099 12.5713 20.0788 12.7144C20.0476 12.8575 20.0299 12.927 20.0032 13.0293C19.9631 13.1969 19.9098 13.3564 19.8564 13.52C19.803 13.6835 19.7096 13.9289 19.6251 14.1252C19.5407 14.3214 19.4695 14.4605 19.3894 14.624C19.385 14.6322 19.3805 14.6445 19.3717 14.6445C19.3628 14.6445 19.3628 14.6322 19.3583 14.624C19.3257 14.5716 19.2975 14.5169 19.2738 14.4605C19.2338 14.3787 19.176 14.3092 19.1404 14.2233C19.1238 14.1919 19.1044 14.1619 19.0826 14.1333L18.9936 13.9902C18.9492 13.9207 18.9002 13.8553 18.8513 13.7858C18.7268 13.6099 18.5934 13.4423 18.4511 13.2787C18.3107 13.1224 18.1607 12.9736 18.0019 12.833C17.9974 12.8248 17.9841 12.8207 17.9841 12.8084C17.9686 12.8036 17.9558 12.7933 17.9485 12.7798C17.9332 12.7712 17.9196 12.7601 17.9085 12.7471C17.899 12.7425 17.8913 12.7354 17.8863 12.7267C17.6861 12.559 17.4816 12.4077 17.2681 12.2605L17.0146 12.0847C16.8028 11.935 16.609 11.765 16.4364 11.5776C16.2963 11.4173 16.1713 11.2463 16.0629 11.0665C15.9543 10.8893 15.8606 10.7047 15.7827 10.5144C15.6807 10.2621 15.6178 9.99777 15.5959 9.7293C15.5702 9.38173 15.6124 9.03274 15.7204 8.69883Z" fill="#1ED760"/>
<path d="M18.4822 11.0215C18.4916 11.0215 18.4967 11.0262 18.492 11.0355C18.4873 11.0448 18.4822 11.0261 18.4822 11.0215Z" fill="#1ED760"/>
<path d="M18.4716 11.0092C18.481 11.0092 18.481 11.0138 18.481 11.0231C18.481 11.0324 18.4716 11.0138 18.4716 11.0092Z" fill="#1ED760"/>
<path d="M18.491 11.0626C18.4957 11.0626 18.4957 11.0668 18.4957 11.0711C18.4957 11.0753 18.491 11.0668 18.491 11.0626Z" fill="#1ED760"/>
<path d="M18.4555 10.9888L18.4644 10.9969C18.462 10.9969 18.4591 10.9963 18.4574 10.9947C18.4557 10.9931 18.4555 10.991 18.4555 10.9888Z" fill="#1ED760"/>
<path d="M20.1258 10.2364C20.1219 10.2364 20.1219 10.2399 20.1258 10.2364V10.2364Z" fill="#1ED760"/>
</svg>
