<svg width="28" height="28" viewBox="0 0 28 28" fill="none" xmlns="http://www.w3.org/2000/svg">
<g clip-path="url(#clip0_10311_30131)">
<path d="M3.8173 8.90771C3.34348 8.90771 2.94146 9.07295 2.61099 9.40342C2.28052 9.73389 2.11523 10.1304 2.11523 10.5933V17.6996C2.11523 18.174 2.28047 18.5757 2.61099 18.9062C2.94146 19.2367 3.34348 19.402 3.8173 19.402C4.29078 19.402 4.69036 19.2367 5.01571 18.9062C5.34041 18.5757 5.50321 18.174 5.50321 17.6996V10.5933C5.50321 10.1304 5.33797 9.73389 5.00746 9.40342C4.67694 9.07295 4.28014 8.90771 3.8173 8.90771Z" fill="#008B45"/>
<path d="M17.5005 2.52833L18.6739 0.363723C18.7509 0.220417 18.7235 0.110526 18.5915 0.0332546C18.4481 -0.0333761 18.338 0.000386753 18.261 0.132157L17.0712 2.31406C16.0242 1.85118 14.9169 1.61932 13.7493 1.61932C12.5813 1.61932 11.4739 1.85123 10.4274 2.31406L9.23751 0.132157C9.16018 0.000386753 9.05004 -0.0330778 8.90704 0.0332546C8.77467 0.110874 8.74727 0.220417 8.82459 0.363723L9.99804 2.52833C8.80819 3.13512 7.86054 3.98018 7.15544 5.06537C6.45035 6.15115 6.09766 7.33767 6.09766 8.62703H21.3842C21.3842 7.33797 21.0315 6.1514 20.3265 5.06537C19.6213 3.98018 18.6791 3.13512 17.5005 2.52833ZM10.7165 5.67678C10.5896 5.80397 10.438 5.86727 10.2618 5.86727C10.0853 5.86727 9.93683 5.80397 9.8157 5.67678C9.69457 5.55018 9.63401 5.39922 9.63401 5.22245C9.63401 5.04627 9.69457 4.89501 9.8157 4.76812C9.93683 4.64152 10.0857 4.57822 10.2618 4.57822C10.438 4.57822 10.5896 4.64152 10.7165 4.76812C10.8431 4.89531 10.9067 5.04627 10.9067 5.22245C10.9063 5.39892 10.8428 5.55018 10.7165 5.67678ZM17.6822 5.67678C17.5608 5.80397 17.412 5.86727 17.2361 5.86727C17.0595 5.86727 16.908 5.80397 16.7814 5.67678C16.6545 5.55018 16.5912 5.39922 16.5912 5.22245C16.5912 5.04627 16.6545 4.89501 16.7814 4.76812C16.908 4.64152 17.0595 4.57822 17.2361 4.57822C17.4123 4.57822 17.5607 4.64152 17.6822 4.76812C17.8034 4.89531 17.8639 5.04627 17.8639 5.22245C17.8639 5.39892 17.8033 5.55018 17.6822 5.67678Z" fill="#008B45"/>
<path d="M6.16406 20.2281C6.16406 20.7354 6.34024 21.1648 6.69263 21.5172C7.04533 21.8696 7.47475 22.0458 7.98169 22.0458H9.20471L9.22147 25.7977C9.22147 26.2715 9.3867 26.6738 9.71717 27.0043C10.0476 27.3349 10.4445 27.5001 10.907 27.5001C11.3806 27.5001 11.7828 27.3349 12.1133 27.0043C12.4439 26.6738 12.6091 26.2715 12.6091 25.7977V22.0462H14.8897V25.7977C14.8897 26.2715 15.0548 26.6738 15.3854 27.0043C15.7159 27.3349 16.1178 27.5001 16.5917 27.5001C17.0652 27.5001 17.4675 27.3349 17.798 27.0043C18.1285 26.6738 18.2937 26.2715 18.2937 25.7977V22.0462H19.5332C20.0289 22.0462 20.4528 21.8699 20.8059 21.5175C21.1582 21.1651 21.3345 20.7357 21.3345 20.2285V9.22144H6.16406V20.2281Z" fill="#008B45"/>
<path d="M23.6817 8.90771C23.2188 8.90771 22.8223 9.07051 22.4918 9.39521C22.1613 9.72051 21.9961 10.1201 21.9961 10.5933V17.6996C21.9961 18.174 22.1613 18.5757 22.4918 18.9062C22.8223 19.2367 23.2191 19.402 23.6817 19.402C24.1552 19.402 24.5575 19.2367 24.888 18.9062C25.2185 18.5757 25.3837 18.174 25.3837 17.6996V10.5933C25.3837 10.12 25.2185 9.72051 24.888 9.39521C24.5575 9.07051 24.1552 8.90771 23.6817 8.90771Z" fill="#008B45"/>
</g>
<defs>
<clipPath id="clip0_10311_30131">
<rect width="27.5" height="27.5" fill="white"/>
</clipPath>
</defs>
</svg>
