<svg width="32" height="32" viewBox="0 0 32 32" fill="none" xmlns="http://www.w3.org/2000/svg">
<path d="M8.81018 19.3487C8.59566 19.3487 8.38526 19.3526 8.17074 19.3487C7.95622 19.3447 7.74582 19.1407 7.74995 18.913C7.75407 18.6854 7.94797 18.4892 8.17487 18.4852H9.47437C9.70952 18.4892 9.89516 18.6854 9.89104 18.9209C9.88691 19.1564 9.70952 19.3447 9.47024 19.3487C9.23097 19.3526 9.02883 19.3487 8.81018 19.3487Z" fill="#00817A"/>
<path d="M12.6818 19.3487C12.4755 19.3487 12.2693 19.3526 12.063 19.3487C11.9426 19.3476 11.8276 19.3012 11.7433 19.2195C11.659 19.1378 11.6122 19.0275 11.6133 18.913C11.6144 18.7986 11.6633 18.6892 11.7491 18.6089C11.835 18.5287 11.9509 18.4842 12.0712 18.4853H13.346C13.5976 18.4892 13.7792 18.6776 13.775 18.9287C13.7761 18.9835 13.7657 19.0379 13.7445 19.0889C13.7232 19.1398 13.6914 19.1861 13.6511 19.2252C13.6108 19.2643 13.5627 19.2954 13.5096 19.3166C13.4565 19.3378 13.3994 19.3487 13.3419 19.3487C13.1232 19.3526 12.9046 19.3487 12.6818 19.3487Z" fill="#00817A"/>
<path d="M17.0265 18.4852C17.3194 18.4852 17.5092 18.654 17.5092 18.917C17.5092 19.1799 17.3194 19.3487 17.0265 19.3487H15.8095C15.6906 19.3466 15.5773 19.3002 15.4939 19.2195C15.4106 19.1387 15.3639 19.0301 15.364 18.917C15.365 18.8041 15.412 18.696 15.4951 18.6155C15.5782 18.535 15.6909 18.4883 15.8095 18.4852H17.0265Z" fill="#00817A"/>
<path d="M20.3189 16.886C20.1044 16.886 19.8899 16.8899 19.6795 16.886C19.5591 16.8855 19.4439 16.8395 19.3592 16.7582C19.2745 16.6768 19.2272 16.5668 19.2277 16.4523C19.2283 16.3378 19.2766 16.2282 19.3621 16.1476C19.4476 16.067 19.5632 16.022 19.6836 16.0226H20.9625C21.2059 16.0265 21.3874 16.2109 21.3915 16.4464C21.3957 16.6819 21.21 16.8821 20.9584 16.886C20.7067 16.8899 20.5293 16.886 20.3189 16.886Z" fill="#00817A"/>
<path d="M24.1555 19.3487C23.941 19.3487 23.7265 19.3526 23.5161 19.3487C23.3057 19.3447 23.0911 19.1446 23.0911 18.917C23.0911 18.6893 23.2892 18.4892 23.5161 18.4852H24.8156C25.0507 18.4892 25.2364 18.6815 25.2364 18.917C25.2364 19.1524 25.0507 19.3447 24.8156 19.3487C24.5804 19.3526 24.3742 19.3487 24.1555 19.3487Z" fill="#00817A"/>
<path d="M8.83512 16.8879C8.62473 16.8879 8.4102 16.8919 8.19981 16.8879C8.08412 16.8901 7.97218 16.8489 7.88807 16.7733C7.80397 16.6977 7.75444 16.5937 7.75014 16.4837C7.74189 16.26 7.93991 16.0324 8.17093 16.0284C8.59997 16.0206 9.03314 16.0206 9.46631 16.0284C9.72621 16.0324 9.9036 16.2404 9.89123 16.4955C9.87885 16.7506 9.71796 16.8879 9.45393 16.8879H8.83512Z" fill="#00817A"/>
<path d="M12.7066 16.886H12.0919C11.8155 16.886 11.6092 16.7055 11.6134 16.47C11.6166 16.3509 11.6683 16.2377 11.7575 16.1542C11.8468 16.0707 11.9667 16.0235 12.0919 16.0226H13.3089C13.4945 16.0226 13.7132 16.1795 13.7544 16.3287C13.7778 16.425 13.7697 16.5257 13.7314 16.6176C13.6931 16.7094 13.6263 16.788 13.5399 16.8428C13.4883 16.8737 13.4274 16.8875 13.3667 16.8821L12.7066 16.886Z" fill="#00817A"/>
<path d="M16.4574 16.8879C16.2429 16.8879 16.0325 16.8919 15.818 16.8879C15.7026 16.8901 15.5908 16.8496 15.5061 16.775C15.4215 16.7003 15.3706 16.5973 15.3642 16.4876C15.3559 16.26 15.5622 16.0324 15.8056 16.0284C16.2223 16.0206 16.6389 16.0206 17.0597 16.0284C17.1204 16.0278 17.1805 16.039 17.2364 16.0613C17.2924 16.0836 17.3429 16.1165 17.385 16.158C17.4271 16.1995 17.4599 16.2488 17.4812 16.3028C17.5026 16.3567 17.5122 16.4143 17.5094 16.4719C17.5053 16.7427 17.3444 16.8879 17.0515 16.8879H16.4574Z" fill="#00817A"/>
<path d="M20.3215 14.4253C20.107 14.4253 19.8966 14.4292 19.6821 14.4253C19.5664 14.4285 19.454 14.3884 19.3691 14.3135C19.2842 14.2386 19.2336 14.135 19.2283 14.025C19.2159 13.7974 19.4263 13.5697 19.6656 13.5658C20.0863 13.558 20.503 13.558 20.9197 13.5658C20.9805 13.5652 21.0408 13.5764 21.0969 13.5986C21.1531 13.6209 21.2039 13.6537 21.2463 13.6952C21.2887 13.7366 21.3219 13.7859 21.3437 13.8398C21.3656 13.8938 21.3757 13.9515 21.3735 14.0093C21.3694 14.2762 21.2085 14.4253 20.9156 14.4253H20.3215Z" fill="#00817A"/>
<path d="M24.1805 16.8879C23.966 16.8879 23.7556 16.8919 23.5411 16.8879C23.4261 16.8901 23.3147 16.8495 23.2307 16.7747C23.1467 16.6999 23.0967 16.5969 23.0914 16.4876C23.0831 16.2639 23.2812 16.0324 23.5122 16.0284C23.9412 16.0206 24.3744 16.0206 24.8076 16.0284C25.0633 16.0324 25.2407 16.2404 25.2366 16.4955C25.2325 16.7506 25.0592 16.8879 24.7746 16.8879H24.1805Z" fill="#00817A"/>
<path d="M8.84482 13.5349H9.42238C9.69878 13.5349 9.8638 13.6527 9.8968 13.8764C9.9298 14.1001 9.79366 14.3709 9.54614 14.3827C9.05934 14.4101 8.56429 14.4533 8.07749 14.3591C7.86297 14.3159 7.71858 14.0844 7.75571 13.896C7.77354 13.7945 7.82924 13.7025 7.91259 13.6369C7.99594 13.5713 8.10136 13.5365 8.2095 13.5389L8.84482 13.5349Z" fill="#00817A"/>
<path d="M12.7288 13.5349H13.2858C13.5622 13.5349 13.7272 13.6566 13.7602 13.8764C13.7932 14.0962 13.6571 14.3709 13.4095 14.3827C12.9227 14.4101 12.4277 14.4533 11.9409 14.3591C11.7264 14.3159 11.582 14.0844 11.6191 13.896C11.6361 13.7941 11.6916 13.7017 11.7751 13.6359C11.8587 13.5702 11.9645 13.5357 12.0729 13.5389L12.7288 13.5349Z" fill="#00817A"/>
<path d="M16.462 13.5349H17.0395C17.3159 13.5349 17.481 13.6527 17.514 13.8764C17.547 14.1001 17.4108 14.3709 17.1633 14.3827C16.6765 14.4101 16.1815 14.4533 15.6947 14.3591C15.476 14.3159 15.3358 14.0844 15.3688 13.896C15.3874 13.7949 15.4433 13.7033 15.5265 13.6379C15.6096 13.5724 15.7146 13.5373 15.8225 13.5389L16.462 13.5349Z" fill="#00817A"/>
<path d="M20.9156 23.4107C21.2003 23.4146 21.3653 23.5598 21.3735 23.807C21.3818 24.0543 21.2002 24.2662 20.9445 24.2741C20.5237 24.2819 20.107 24.2859 19.6903 24.2741C19.4098 24.2623 19.2159 24.0582 19.2283 23.811C19.2407 23.5637 19.4387 23.4146 19.7234 23.4107H20.9156Z" fill="#00817A"/>
<path d="M24.791 13.5349C25.055 13.5389 25.2283 13.688 25.2365 13.9274C25.2448 14.1668 25.0674 14.3905 24.8116 14.3984C24.3949 14.4062 23.9742 14.4062 23.5575 14.3984C23.4952 14.3984 23.4336 14.3865 23.3762 14.3635C23.3188 14.3405 23.2669 14.3068 23.2234 14.2643C23.1799 14.2219 23.1459 14.1716 23.1232 14.1164C23.1005 14.0613 23.0897 14.0023 23.0913 13.9431C23.0954 13.7076 23.2976 13.5389 23.5781 13.5349H24.791Z" fill="#00817A"/>
<path d="M8.7709 21.9483C8.56463 21.9209 8.30886 21.9915 8.06546 21.9091C7.82206 21.8267 7.72305 21.6344 7.75605 21.4499C7.77107 21.348 7.82457 21.2547 7.90655 21.1876C7.98854 21.1204 8.09341 21.0839 8.2016 21.0849H9.47635C9.7115 21.0849 9.86001 21.2027 9.89714 21.4185C9.93427 21.6344 9.82289 21.8345 9.62487 21.9013C9.53013 21.9359 9.42934 21.9532 9.32784 21.9523C9.15869 21.9444 8.98543 21.9483 8.7709 21.9483Z" fill="#00817A"/>
<path d="M8.7709 24.2741C8.56463 24.2466 8.30886 24.3173 8.06546 24.2348C7.82206 24.1524 7.72305 23.9601 7.75605 23.7757C7.77107 23.6737 7.82457 23.5805 7.90655 23.5133C7.98854 23.4462 8.09341 23.4097 8.2016 23.4107H9.47635C9.7115 23.4107 9.86001 23.5284 9.89714 23.7443C9.93427 23.9601 9.82289 24.1603 9.62487 24.227C9.53013 24.2617 9.42934 24.279 9.32784 24.278C9.15869 24.2702 8.98543 24.2741 8.7709 24.2741Z" fill="#00817A"/>
<path d="M12.7065 21.0863H13.3418C13.5646 21.0863 13.709 21.2041 13.7544 21.4082C13.7746 21.4993 13.763 21.5943 13.7213 21.6786C13.6796 21.7629 13.6101 21.8319 13.5234 21.8752C13.4435 21.9212 13.3526 21.9468 13.2593 21.9498C12.8757 21.9498 12.492 21.9537 12.1083 21.9498C11.8567 21.9458 11.7329 21.8438 11.6463 21.6279C11.5597 21.4121 11.6546 21.2865 11.8031 21.1609C11.8361 21.1333 11.8748 21.1125 11.9166 21.0996C11.9585 21.0868 12.0027 21.0823 12.0465 21.0863C12.2651 21.0903 12.4838 21.0863 12.7065 21.0863Z" fill="#00817A"/>
<path d="M12.7065 23.4121H13.3418C13.5646 23.4121 13.709 23.5298 13.7544 23.7339C13.7746 23.8251 13.763 23.92 13.7213 24.0043C13.6796 24.0886 13.6101 24.1577 13.5234 24.2009C13.4435 24.2469 13.3526 24.2726 13.2593 24.2755C12.8757 24.2755 12.492 24.2794 12.1083 24.2755C11.8567 24.2716 11.7329 24.1696 11.6463 23.9537C11.5597 23.7378 11.6546 23.6123 11.8031 23.4867C11.8361 23.4591 11.8748 23.4382 11.9166 23.4254C11.9585 23.4126 12.0027 23.408 12.0465 23.4121C12.2651 23.416 12.4838 23.4121 12.7065 23.4121Z" fill="#00817A"/>
<path d="M20.321 18.4867H20.9563C21.1791 18.4867 21.3235 18.6044 21.3688 18.8085C21.389 18.8997 21.3774 18.9946 21.3357 19.0789C21.294 19.1632 21.2245 19.2322 21.1378 19.2755C21.058 19.3215 20.9671 19.3472 20.8738 19.3501C20.4901 19.3501 20.1065 19.354 19.7228 19.3501C19.4712 19.3462 19.3474 19.2441 19.2608 19.0283C19.1741 18.8124 19.269 18.6868 19.4175 18.5613C19.4506 18.5337 19.4892 18.5128 19.5311 18.5C19.573 18.4872 19.6171 18.4826 19.6609 18.4867C19.8796 18.4906 20.0982 18.4867 20.321 18.4867Z" fill="#00817A"/>
<path d="M20.321 21.0863H20.9563C21.1791 21.0863 21.3235 21.2041 21.3688 21.4082C21.389 21.4993 21.3774 21.5943 21.3357 21.6786C21.294 21.7629 21.2245 21.8319 21.1378 21.8752C21.058 21.9212 20.9671 21.9468 20.8738 21.9498C20.4901 21.9498 20.1065 21.9537 19.7228 21.9498C19.4712 21.9458 19.3474 21.8438 19.2608 21.6279C19.1741 21.4121 19.269 21.2865 19.4175 21.1609C19.4506 21.1333 19.4892 21.1125 19.5311 21.0996C19.573 21.0868 19.6171 21.0823 19.6609 21.0863C19.8796 21.0903 20.0982 21.0863 20.321 21.0863Z" fill="#00817A"/>
<path d="M16.4743 21.0863H17.089C17.3159 21.0863 17.4603 21.2001 17.5057 21.4081C17.5259 21.4993 17.5143 21.5942 17.4726 21.6785C17.4309 21.7628 17.3614 21.8319 17.2747 21.8752C17.194 21.9193 17.1036 21.9449 17.0106 21.9497C16.627 21.9497 16.2433 21.9536 15.8597 21.9497C15.608 21.9458 15.4842 21.8438 15.3976 21.6318C15.311 21.4199 15.4017 21.2865 15.5544 21.1609C15.5867 21.1334 15.6246 21.1126 15.6658 21.0997C15.707 21.0869 15.7505 21.0823 15.7936 21.0863C16.0205 21.0902 16.2474 21.0863 16.4743 21.0863Z" fill="#00817A"/>
<path d="M16.4743 23.412H17.089C17.3159 23.412 17.4603 23.5259 17.5057 23.7339C17.5259 23.825 17.5143 23.92 17.4726 24.0043C17.4309 24.0886 17.3614 24.1576 17.2747 24.2009C17.194 24.2451 17.1036 24.2706 17.0106 24.2755C16.627 24.2755 16.2433 24.2794 15.8597 24.2755C15.608 24.2715 15.4842 24.1695 15.3976 23.9576C15.311 23.7456 15.4017 23.6122 15.5544 23.4866C15.5867 23.4591 15.6246 23.4383 15.6658 23.4255C15.707 23.4126 15.7505 23.4081 15.7936 23.412C16.0205 23.416 16.2474 23.412 16.4743 23.412Z" fill="#00817A"/>
<path d="M24.2015 21.0863H24.8162C25.0431 21.0863 25.1875 21.2001 25.2329 21.4081C25.2531 21.4993 25.2415 21.5942 25.1998 21.6785C25.1581 21.7628 25.0886 21.8319 25.0019 21.8752C24.9212 21.9193 24.8308 21.9449 24.7378 21.9497C24.3542 21.9497 23.9705 21.9536 23.5868 21.9497C23.3352 21.9458 23.2114 21.8438 23.1248 21.6318C23.0382 21.4199 23.1289 21.2865 23.2816 21.1609C23.3139 21.1334 23.3518 21.1126 23.393 21.0997C23.4342 21.0869 23.4777 21.0823 23.5208 21.0863C23.7477 21.0902 23.9746 21.0863 24.2015 21.0863Z" fill="#00817A"/>
<path d="M24.2015 23.412H24.8162C25.0431 23.412 25.1875 23.5259 25.2329 23.7339C25.2531 23.825 25.2415 23.92 25.1998 24.0043C25.1581 24.0886 25.0886 24.1576 25.0019 24.2009C24.9212 24.2451 24.8308 24.2706 24.7378 24.2755C24.3542 24.2755 23.9705 24.2794 23.5868 24.2755C23.3352 24.2715 23.2114 24.1695 23.1248 23.9576C23.0382 23.7456 23.1289 23.6122 23.2816 23.4866C23.3139 23.4591 23.3518 23.4383 23.393 23.4255C23.4342 23.4126 23.4777 23.4081 23.5208 23.412C23.7477 23.416 23.9746 23.412 24.2015 23.412Z" fill="#00817A"/>
<path fill-rule="evenodd" clip-rule="evenodd" d="M4.0001 8.86415C3.99597 8.2462 4.11978 7.67038 4.45404 7.17414C4.85434 6.5796 5.37844 6.2004 6.03872 6.08804C6.19242 6.05544 6.34873 6.04132 6.50504 6.04591C6.61646 6.05527 6.64122 6.00846 6.64122 5.88674C6.6437 5.8109 6.64283 5.73506 6.64197 5.65922C6.63995 5.48226 6.63792 5.3053 6.67837 5.12834C6.81042 4.52912 7.34277 4.05161 7.87925 4.0282C8.41573 4.00479 8.86142 4.2295 9.15442 4.75851C9.336 5.08153 9.36488 5.45136 9.35663 5.81652C9.35663 5.99441 9.38964 6.05059 9.55884 6.05059C11.3554 6.04123 13.1491 6.04123 14.9401 6.05059C15.1052 6.05059 15.1547 6.00378 15.1423 5.8212C15.1093 5.37178 15.1836 4.94108 15.4312 4.58529C15.5404 4.42442 15.6786 4.29189 15.8366 4.19662C15.9946 4.10134 16.1688 4.04551 16.3474 4.03288C16.7848 3.99543 17.1768 4.11247 17.4946 4.47762C17.8124 4.84277 17.8743 5.21729 17.8619 5.67608C17.8536 6.04591 17.8619 6.04591 18.1796 6.04591C18.6127 6.04591 19.0457 6.04562 19.4787 6.04532L19.4795 6.04532C20.7792 6.04445 22.0784 6.04357 23.3752 6.05059C23.5568 6.05059 23.6063 6.00846 23.6022 5.79779C23.5857 5.16111 23.7425 4.58997 24.2584 4.24823C24.7742 3.90648 25.2364 3.92521 25.711 4.25759C26.1071 4.5338 26.3217 4.95513 26.3217 5.49818V5.52159C26.3217 5.56946 26.3175 5.62092 26.3133 5.67248C26.303 5.7974 26.2927 5.92288 26.3424 5.99909C26.3895 6.07137 26.4942 6.06138 26.6004 6.05125C26.6524 6.04629 26.7048 6.04129 26.7509 6.04591C27.8404 6.16295 28.7813 6.98688 28.967 8.27897C28.9882 8.40711 28.9992 8.53715 29 8.66753V26.3806C29 26.9523 28.7886 28.5043 26.528 28.6515H6.51116C4.42725 28.5043 4.0002 27.2204 4.0002 26.3806L4.0001 8.86415ZM5.20099 11.3734C8.96184 11.3797 12.7241 11.3828 16.4877 11.3828L27.8528 11.3781C28.0054 11.3781 28.0591 11.4109 28.0591 11.6028C27.9923 16.5271 28.0699 20.5571 28.0699 25.4821C28.0699 26.2172 28.0699 27.5532 26.528 27.5532H6.22381C4.93028 27.5532 4.93028 25.9722 4.93028 25.4821C4.93028 25.4821 4.94926 14.574 4.941 11.659C4.941 11.4109 5.00703 11.3734 5.20099 11.3734ZM5.2009 10.357C8.96175 10.3539 12.724 10.3523 16.4876 10.3523C20.2759 10.3492 24.0643 10.3492 27.8527 10.3523C28.0095 10.3523 28.0631 10.3195 28.059 10.1276C28.0485 9.79995 28.0497 9.47214 28.0509 9.14449C28.0516 8.95723 28.0523 8.76998 28.0508 8.58272C28.0533 8.51508 28.0478 8.44736 28.0343 8.38142C27.8114 7.52471 27.2419 7.13615 26.528 7.07061C26.3547 7.05656 26.2928 7.11742 26.3175 7.30936C26.3242 7.36736 26.3225 7.42672 26.3208 7.48597C26.3193 7.53672 26.3178 7.58739 26.3217 7.63706C26.3464 8.17075 25.9915 8.7653 25.5334 8.9666C25.0135 9.19131 24.5224 9.13045 24.0767 8.71848C23.7135 8.3861 23.6145 7.92731 23.598 7.43576L23.5971 7.4094C23.5916 7.24599 23.5888 7.16251 23.5506 7.11985C23.5107 7.07529 23.4323 7.07529 23.272 7.07529H18.3405C17.8704 7.07529 17.8699 7.10689 17.8622 7.5868L17.8618 7.61366C17.8535 8.11925 17.6678 8.52186 17.3006 8.81211C16.5784 9.37857 15.588 9.05087 15.2578 8.17075C15.1464 7.8805 15.1258 7.5762 15.1423 7.27191C15.1464 7.12678 15.1216 7.07061 14.9772 7.07061C13.1614 7.07685 11.3456 7.07685 9.52987 7.07061C9.37718 7.07061 9.35655 7.13146 9.36067 7.28595C9.36893 7.63238 9.33591 7.97413 9.1956 8.28779C8.91498 8.9151 8.2547 9.2194 7.60268 9.03682C7.0662 8.88702 6.59575 8.25502 6.63701 7.5762C6.63903 7.53739 6.64398 7.49607 6.64901 7.45415C6.66461 7.32415 6.6809 7.18834 6.61225 7.10338C6.55108 7.02767 6.45617 7.05824 6.36037 7.0891C6.31399 7.10404 6.26741 7.11905 6.22434 7.1221C5.58882 7.15487 4.94917 7.92263 4.94917 8.64358C4.94767 8.81384 4.94835 8.98471 4.94903 9.15553C4.95023 9.45441 4.95142 9.75311 4.94092 10.048C4.93679 10.2821 4.97806 10.357 5.2009 10.357ZM7.99389 8.05887C8.23737 8.04482 8.40656 7.79203 8.41069 7.48773C8.41345 7.28452 8.41252 7.0813 8.4116 6.87948C8.41115 6.77909 8.41069 6.67905 8.41069 6.57952V5.61982C8.41069 5.31085 8.258 5.07677 8.01039 5.06273C7.76279 5.04869 7.55645 5.25467 7.55233 5.57769C7.53582 6.23309 7.53994 6.88382 7.5482 7.53923C7.55645 7.84352 7.75041 8.07291 7.99389 8.05887ZM24.9458 5.0625C24.723 5.06718 24.5497 5.30594 24.5456 5.61959C24.5428 5.82853 24.5437 6.03538 24.5446 6.24292C24.5451 6.34696 24.5456 6.45116 24.5456 6.55589V7.4875C24.5456 7.80584 24.7395 8.04927 24.9624 8.05864C25.1852 8.068 25.3998 7.84329 25.4081 7.539C25.4204 6.88359 25.4204 6.23287 25.4081 5.57746C25.3998 5.25444 25.1687 5.05782 24.9458 5.0625ZM16.7923 7.90918C16.8662 7.82195 16.9091 7.70689 16.9128 7.58601V5.53553C16.9128 5.25464 16.723 5.07206 16.5167 5.0627C16.3103 5.05334 16.0916 5.27805 16.0875 5.5168C16.0847 5.97871 16.0856 6.44061 16.0866 6.90252C16.087 7.13347 16.0875 7.36442 16.0875 7.59538C16.0916 7.83413 16.3144 8.0682 16.5125 8.05884C16.6188 8.0497 16.7185 7.99642 16.7923 7.90918Z" fill="#00817A"/>
</svg>
