<svg width="32" height="32" viewBox="0 0 32 32" fill="none" xmlns="http://www.w3.org/2000/svg">
<path d="M11.1818 13.8905C12.132 13.8905 12.9015 13.1485 12.9015 12.2322C12.9015 11.316 12.132 10.574 11.1818 10.574C10.2316 10.574 9.46214 11.316 9.46214 12.2322C9.46214 13.1485 10.2316 13.8905 11.1818 13.8905Z" fill="#21297A"/>
<path d="M19.4129 13.8905C20.3631 13.8905 21.1326 13.1485 21.1326 12.2322C21.1326 11.316 20.3631 10.574 19.4129 10.574C18.4627 10.574 17.6932 11.316 17.6932 12.2322C17.6932 13.1485 18.4627 13.8905 19.4129 13.8905Z" fill="#21297A"/>
<path d="M15.274 13.9578C16.5973 13.9578 17.6699 12.9235 17.6699 11.6475C17.6699 10.3715 16.5973 9.33721 15.274 9.33721C13.9507 9.33721 12.8781 10.3715 12.8781 11.6475C12.8781 12.9235 13.9507 13.9578 15.274 13.9578Z" fill="#21297A"/>
<path d="M15.7414 14.2394H14.855C13.0709 14.2394 11.6256 15.6567 11.6256 17.4061V19.5044C11.6256 21.2539 13.0709 22.6711 14.855 22.6711H15.7414C17.5254 22.6711 18.9707 21.2539 18.9707 19.5044V17.4061C18.9707 15.6567 17.5254 14.2394 15.7414 14.2394Z" fill="#21297A"/>
<path fill-rule="evenodd" clip-rule="evenodd" d="M17.7129 14.634C18.5695 15.2283 19.1281 16.1979 19.1281 17.2912V19.4216C19.1281 19.6393 19.106 19.852 19.0637 20.0578C19.1783 20.072 19.2951 20.0793 19.4137 20.0793C20.9177 20.0793 22.1361 18.9045 22.1361 17.4542V16.6841C22.1361 15.2339 20.9177 14.059 19.4137 14.059C18.7701 14.059 18.1788 14.2742 17.7129 14.634ZM11.1825 14.059C11.8173 14.059 12.4012 14.2683 12.8641 14.6192C11.9953 15.2122 11.4274 16.1887 11.4274 17.2912V19.4216C11.4274 19.6409 11.4498 19.8552 11.4927 20.0625C11.3909 20.0736 11.2874 20.0793 11.1825 20.0793C9.67851 20.0793 8.46015 18.9045 8.46015 17.4542V16.6841C8.46015 15.2339 9.67851 14.059 11.1825 14.059Z" fill="#21297A"/>
<path d="M30.9798 22.0183C30.7816 22.0183 30.5893 21.9396 30.4435 21.7991L30.4027 21.7541L28.3566 19.3426C28.0768 19.0166 28.036 18.4938 28.036 18.2072V12.9458C28.036 12.6816 28.0768 12.1981 28.3507 11.9002L30.4319 9.58431L30.4435 9.57307C30.6534 9.36508 30.9624 9.30325 31.2422 9.41005C31.965 9.69111 32 11.0233 32 11.0346V19.9947C32 20.3769 31.9534 20.7592 31.8776 21.074C31.796 21.4112 31.6502 21.816 31.2597 21.9677C31.1664 22.0014 31.0731 22.0183 30.9798 22.0183Z" fill="#21297A"/>
<path d="M0.927495 19.2417C1.84272 19.2417 2.58307 18.3873 2.58307 17.606V13.8904C2.58307 13.1091 1.84272 12.2322 0.927495 12.2322C0.0122673 12.2322 0.000608735 12.9741 0.000608735 13.7555V17.8589C-0.00522074 18.6347 0.0122673 19.2417 0.927495 19.2417Z" fill="#21297A"/>
<path fill-rule="evenodd" clip-rule="evenodd" d="M8.64937 26H22.757C25.6908 26 27.5819 24.0035 27.5819 20.6807V11.3198C27.5819 8.30444 25.2427 6 22.7594 6H8.64937C5.77546 6 3.08688 7.77634 3.08688 11.3198V20.6807C3.08688 23.6194 5.57783 26 8.64937 26ZM21.6082 7.0562H8.86234C6.33258 7.0562 4.28181 9.0337 4.28181 11.4731V20.2107C4.28181 22.8092 6.46633 24.9156 9.16107 24.9156H22.3052C24.56 24.9156 26.3879 23.1531 26.3879 20.9789V11.6651C26.3879 9.11967 24.2479 7.0562 21.6082 7.0562Z" fill="#21297A"/>
</svg>
