<svg width="32" height="32" viewBox="0 0 32 32" fill="none" xmlns="http://www.w3.org/2000/svg">
<path d="M26.872 24.5149C26.6648 24.6268 26.6288 24.5373 26.5927 24.3955L26.2684 23.1643C26.2161 22.976 26.1623 22.7883 26.1085 22.6006C25.977 22.1415 25.8455 21.6829 25.7368 21.2168C25.6197 20.702 25.2503 20.396 24.6736 20.2543C24.4157 20.1917 24.1489 20.1547 23.8825 20.1177C23.7675 20.1017 23.6525 20.0857 23.5384 20.0677C23.4216 20.049 23.3047 20.0303 23.1876 20.0115C22.4646 19.8958 21.7368 19.7793 21.0157 19.6573L21.0012 19.6558C20.9364 19.649 20.8883 19.6439 20.8715 19.6648C20.8341 19.6957 20.8525 19.7523 20.8599 19.775C20.8614 19.7797 20.8625 19.7829 20.8625 19.7842C20.8625 19.9837 20.8645 20.2752 20.8667 20.5797C20.869 20.9128 20.8715 21.2616 20.8715 21.5227C20.8715 21.7541 20.9526 21.9481 21.2409 21.9555H21.6914C22.0157 21.963 22.2951 22.1868 22.3041 22.4629C22.3474 23.7914 22.3091 26.0676 22.2996 26.6333L22.2989 26.6792C22.2975 26.7579 22.2088 26.8284 22.2088 26.8284C21.8325 27.1811 21.5781 27.4254 21.533 27.4627C21.4733 27.4627 21.4457 27.3642 21.4429 27.3508V23.2841C21.4429 22.9857 21.2769 22.5226 20.8715 22.5226H11.3519C10.8854 22.5226 10.9014 22.9857 10.9014 23.2841V27.4254C10.8949 27.4493 10.8564 27.5 10.8113 27.5C10.7663 27.4627 10.746 27.4182 10.7049 27.3695C10.5128 27.1416 10.2257 26.8284 10.2257 26.8284C10.2257 26.8284 10.0455 26.7202 10.0455 26.6046C10.0467 26.0146 10.083 23.7786 10.0777 22.5226C10.0867 22.2465 10.3751 21.9779 10.7174 21.9779H11.1589C11.4472 21.9779 11.6725 21.7839 11.6725 21.5526L11.6635 19.717C11.6995 19.6275 11.5824 19.6424 11.5283 19.6573C10.9066 19.7543 10.294 19.8513 9.67229 19.9558C9.52813 19.98 9.38397 20.0048 9.23981 20.0295C8.80734 20.1036 8.37487 20.1778 7.9424 20.2393C7.3928 20.3214 6.87924 20.7094 6.77112 21.2168C6.69449 21.5927 6.587 21.9623 6.47893 22.3338C6.42183 22.5301 6.36458 22.7269 6.31163 22.9255L6.31151 22.926C6.1764 23.4258 6.04129 23.9256 5.91519 24.4253C5.87915 24.5746 5.82509 24.6641 5.61787 24.5522C5.55571 24.5213 5.49677 24.486 5.43809 24.4508C5.32665 24.384 5.21613 24.3178 5.08629 24.2836C4.98813 24.254 4.99603 24.1952 5.00494 24.1288L5.0052 24.1269C5.13581 23.6569 5.26641 23.1888 5.39701 22.7208L5.39712 22.7204C5.52777 22.2521 5.65841 21.7839 5.78905 21.3138C5.79655 21.2846 5.80392 21.2553 5.81127 21.2261C5.86586 21.0093 5.9201 20.7939 6.02331 20.59C6.3837 19.8961 7.05944 19.5827 7.92438 19.4484C8.56909 19.3489 9.21379 19.2435 9.8585 19.1381C10.6644 19.0064 11.4703 18.8747 12.2761 18.7545C12.3496 18.7443 12.4231 18.7286 12.4972 18.7129C12.6954 18.6706 12.8976 18.6275 13.114 18.6873C13.3843 18.7619 13.5285 18.9111 13.5645 19.1201C13.6096 19.3439 13.5015 19.5305 13.2762 19.6648C13.2389 19.686 13.2015 19.7083 13.164 19.7307C13.0568 19.7946 12.9482 19.8593 12.8347 19.9036C12.7006 19.9535 12.7063 20.0118 12.7142 20.0937C12.7169 20.1218 12.7199 20.1528 12.7176 20.1871C12.6816 20.7467 12.6816 21.2317 12.6816 21.5526C12.6816 21.7839 12.9158 21.9779 13.1951 21.9779H19.2768C19.5651 21.9779 19.7903 21.7839 19.7903 21.5526C19.7903 21.4317 19.7933 21.2845 19.7965 21.1283C19.8068 20.6194 19.819 20.0155 19.7363 19.9185C19.6596 19.8306 19.5443 19.7842 19.4284 19.7376C19.3672 19.713 19.3058 19.6883 19.2497 19.6573C18.9704 19.5006 18.8623 19.232 18.9794 19.0007C19.1236 18.7171 19.3669 18.6201 19.7453 18.6798C20.2535 18.7593 20.7616 18.8396 21.2701 18.9198L21.2704 18.9199C22.3845 19.0958 23.4999 19.2719 24.6196 19.4409C25.7909 19.62 26.4486 20.1647 26.6918 21.1497C26.8 21.5974 26.9233 22.0451 27.0466 22.4928C27.0877 22.642 27.1288 22.7912 27.1694 22.9405C27.2234 23.1344 27.2775 23.3303 27.3315 23.5261L27.3315 23.5262L27.3323 23.5289C27.3861 23.7239 27.4399 23.9188 27.4937 24.1119C27.5117 24.1716 27.4937 24.2239 27.4036 24.2463C27.2482 24.2931 27.1149 24.372 26.9821 24.4506C26.9455 24.4723 26.909 24.4939 26.872 24.5149Z" fill="#008B45"/>
<path d="M23.6604 12.3745C23.6443 12.3745 23.6443 12.3666 23.6443 12.351C23.5878 11.9279 23.3941 11.5676 23.1196 11.2385C22.6757 10.7137 22.135 10.3141 21.5054 10.0243C21.2229 9.89108 21.0373 9.69523 20.9001 9.42104C20.6176 8.82566 20.3755 8.2146 20.1252 7.60355C19.9235 7.11784 19.7459 6.6243 19.4957 6.16209C19.3343 5.85656 19.1486 5.56671 18.8904 5.33168C18.6159 5.081 18.3012 4.95565 17.9218 5.02616C17.7039 5.06533 17.5102 5.18284 17.3246 5.30035C17.1066 5.44136 16.921 5.61371 16.695 5.74689C16.4206 5.9114 16.1462 5.90357 15.8718 5.73905C15.783 5.68422 15.6942 5.62154 15.6054 5.55104C15.4036 5.39436 15.2019 5.24551 14.9759 5.13583C14.7902 5.04183 14.5885 4.98699 14.3786 5.00266C14.1203 5.02616 13.9105 5.14367 13.7248 5.30818C13.4101 5.59804 13.1921 5.95841 13.0146 6.33444C12.7644 6.85932 12.5707 7.4077 12.3527 7.94041C12.1429 8.45746 11.9411 8.98234 11.6748 9.47588C11.5456 9.70307 11.3842 9.89108 11.134 9.98509C11.0856 10.0008 11.0372 10.0321 10.9887 10.0556C10.3995 10.3533 9.88298 10.7293 9.45521 11.2307C9.02744 11.7321 8.84987 12.3118 8.93865 12.9698C8.98708 13.3224 9.1485 13.6279 9.35028 13.9178C9.69734 14.4035 10.1574 14.756 10.6659 15.0537C11.1663 15.3514 11.7071 15.5629 12.2559 15.7509C12.3124 15.7744 12.3447 15.7979 12.3689 15.8528C12.611 16.3776 12.8612 16.8947 13.1679 17.3882C13.5069 17.9445 13.8943 18.4615 14.4028 18.8845C14.8144 19.2214 15.2745 19.4643 15.7991 19.5661C15.8718 19.5818 15.9525 19.5661 16.0251 19.6053H16.1462C16.2107 19.5896 16.2834 19.6053 16.348 19.5974C16.3802 19.5974 16.4125 19.5896 16.4448 19.6053H16.4932C16.5094 19.5896 16.5175 19.5974 16.5336 19.5974C16.7273 19.6053 16.9049 19.5661 17.0824 19.5034C17.5748 19.3467 18.0025 19.0725 18.3738 18.72C18.6644 18.4458 18.9146 18.1325 19.1486 17.8034C19.5603 17.2002 19.8831 16.55 20.1898 15.8919C20.2221 15.8214 20.2625 15.7823 20.3351 15.7588C20.8355 15.5786 21.3278 15.3906 21.7879 15.132C22.248 14.8735 22.6757 14.5758 23.0228 14.1763C23.3376 13.8081 23.5797 13.4086 23.6362 12.9228V12.7897C23.62 12.7583 23.62 12.7192 23.6362 12.6878V12.586C23.62 12.5468 23.62 12.5076 23.6362 12.4685V12.3745H23.6604ZM12.385 9.42104C12.724 8.70815 12.9904 7.97175 13.289 7.24318C13.4585 6.83582 13.628 6.42845 13.8701 6.06025C13.9428 5.95057 14.0154 5.85656 14.1123 5.77039C14.2979 5.59804 14.4997 5.55887 14.7418 5.67638C14.8952 5.74689 15.0243 5.85656 15.1615 5.95057C15.3552 6.09942 15.557 6.24043 15.7749 6.34227C16.1462 6.51462 16.5094 6.50679 16.8807 6.3266C17.0986 6.21693 17.2923 6.06808 17.4941 5.92707C17.6151 5.83306 17.7362 5.73905 17.8815 5.67638C18.0994 5.57454 18.3092 5.60588 18.4868 5.77039C18.7209 5.98974 18.8904 6.2561 19.0276 6.53812C19.3101 7.11001 19.5361 7.70539 19.7782 8.29294C19.9315 8.66114 20.0849 9.02934 20.2382 9.39754C20.2544 9.43671 20.2705 9.46805 20.2786 9.51505C17.6474 8.77082 15.0081 8.77082 12.3608 9.50722C12.3689 9.46021 12.3689 9.43671 12.385 9.42104ZM20.9969 13.8708C20.9324 14.192 20.7467 14.4035 20.432 14.5053C20.3674 14.5288 20.3109 14.5445 20.2463 14.5602C20.1575 14.5758 20.101 14.6228 20.0688 14.7012C19.98 14.9205 19.8831 15.1399 19.7863 15.3592C19.4796 16.08 19.1486 16.7929 18.7047 17.4431C18.4061 17.8818 18.0671 18.2891 17.6232 18.6025C17.2358 18.8767 16.808 19.049 16.3237 19.0569C15.8153 19.0647 15.3633 18.8845 14.9597 18.579C14.532 18.2656 14.201 17.8661 13.9105 17.4352C13.4423 16.7458 13.0872 15.9859 12.7644 15.2182C12.6917 15.0459 12.6191 14.8814 12.5545 14.709C12.5222 14.6307 12.4657 14.5915 12.385 14.568C12.1833 14.521 11.9895 14.4661 11.8362 14.3095C11.699 14.1606 11.6183 13.9961 11.6102 13.8003C11.6021 13.6436 11.586 13.4869 11.6667 13.3302C11.7474 13.1657 11.8765 13.0795 12.0541 13.0639C12.1752 13.056 12.2962 13.0404 12.4173 13.0404C12.4819 13.0404 12.49 13.0169 12.49 12.962C12.49 12.7897 12.49 12.6173 12.49 12.4371C12.49 12.398 12.5061 12.3666 12.5303 12.3353C12.7079 12.1238 12.9419 11.9906 13.2002 11.8809C13.5957 11.7242 13.9993 11.6381 14.419 11.5754C15.0808 11.4736 15.7426 11.4501 16.356 11.4422C16.9694 11.4579 17.5344 11.4814 18.0913 11.5519C18.6563 11.6224 19.2132 11.7477 19.7217 12.0141C19.8831 12.1003 20.0123 12.2178 20.1333 12.351C20.1575 12.3745 20.1575 12.398 20.1575 12.4293C20.1575 12.6173 20.1575 12.8132 20.1575 13.0012C20.1575 13.0482 20.1737 13.0639 20.2221 13.0639C20.3835 13.0639 20.5449 13.0482 20.7064 13.0717C20.779 13.0795 20.8355 13.1109 20.8759 13.1735C20.9646 13.291 21.0292 13.4086 21.0292 13.5574C21.0131 13.6592 21.0131 13.7689 20.9969 13.8708ZM22.8291 13.4712C22.595 13.8551 22.256 14.145 21.8848 14.3956C21.6588 14.5445 21.4247 14.6777 21.1826 14.7952C21.1584 14.8108 21.1341 14.8187 21.1099 14.8265C21.1099 14.8187 21.1019 14.8187 21.1019 14.8108C21.1503 14.756 21.1987 14.7012 21.2471 14.6463C21.5377 14.3173 21.6346 13.9256 21.5942 13.4947C21.5619 13.197 21.457 12.9307 21.231 12.7192C21.1261 12.6173 20.9969 12.5468 20.8517 12.4998C20.7871 12.4841 20.7467 12.445 20.7387 12.3823C20.7064 12.1316 20.553 11.9436 20.3755 11.7712C20.0688 11.4892 19.6894 11.3247 19.2939 11.1994C18.7854 11.0427 18.2689 10.9643 17.7443 10.9173C17.0098 10.8468 16.2834 10.839 15.5489 10.8703C14.8306 10.9017 14.1203 10.9722 13.4262 11.168C13.0469 11.2777 12.6837 11.4187 12.3608 11.6616C12.1833 11.7947 12.038 11.9514 11.9411 12.1473C11.9008 12.2256 11.8765 12.304 11.8685 12.3901C11.8685 12.445 11.8443 12.4763 11.7878 12.492C11.3116 12.633 11.0936 12.9777 11.021 13.4321C10.9403 13.9256 11.0775 14.3565 11.4246 14.7168C11.4488 14.7482 11.4811 14.7717 11.4972 14.8108C11.4649 14.8187 11.4488 14.7952 11.4246 14.7873C11.0452 14.5915 10.6659 14.3878 10.343 14.0979C10.0928 13.8786 9.85876 13.6357 9.71348 13.3302C9.42292 12.7505 9.47942 12.1943 9.87491 11.6851C10.3027 11.1445 10.8515 10.7607 11.4811 10.4786C12.2801 10.1104 13.1114 9.86758 13.975 9.71873C14.8387 9.56989 15.7023 9.50722 16.5739 9.53072C17.4779 9.55422 18.3738 9.63256 19.2536 9.84408C20.101 10.0478 20.9243 10.3298 21.683 10.7685C22.0946 11.0113 22.4497 11.3247 22.7484 11.6929C23.1761 12.2413 23.1681 12.9228 22.8291 13.4712Z" fill="#008B45"/>
<path d="M13.1785 25.5263C13.539 25.5263 13.8312 25.2259 13.8312 24.8553C13.8312 24.4847 13.539 24.1842 13.1785 24.1842C12.818 24.1842 12.5258 24.4847 12.5258 24.8553C12.5258 25.2259 12.818 25.5263 13.1785 25.5263Z" fill="#008B45"/>
<path d="M19.2451 25.5263C19.6056 25.5263 19.8979 25.2259 19.8979 24.8553C19.8979 24.4847 19.6056 24.1842 19.2451 24.1842C18.8847 24.1842 18.5924 24.4847 18.5924 24.8553C18.5924 25.2259 18.8847 25.5263 19.2451 25.5263Z" fill="#008B45"/>
</svg>
