<svg width="32" height="32" viewBox="0 0 32 32" fill="none" xmlns="http://www.w3.org/2000/svg">
<path d="M18.0275 27.0835C17.9409 27.0989 17.8687 27.063 17.7869 27.0066C17.3682 26.7298 16.9447 26.4632 16.526 26.1812C16.3864 26.0889 16.2709 26.0838 16.1313 26.1812C15.7078 26.4632 15.2747 26.74 14.8463 27.0117C14.6201 27.1553 14.3554 27.0937 14.2207 26.8733C14.0859 26.6529 14.1437 26.4017 14.3554 26.2479C14.649 26.0326 14.9522 25.8326 15.265 25.6378C15.4383 25.5353 15.4287 25.4635 15.2698 25.361L13.7057 24.3306C12.8298 23.7513 11.9443 23.1822 11.0684 22.6029C10.8326 22.4491 10.77 22.1825 10.8999 21.957C11.0299 21.7314 11.2946 21.634 11.54 21.798L16.0688 24.7766C16.2468 24.8996 16.4201 24.8893 16.603 24.7714C17.2815 24.3152 17.9698 23.864 18.6532 23.4129L18.812 23.3052C18.9275 23.2181 18.9371 23.172 18.7927 23.0797C18.0708 22.6132 17.3537 22.1364 16.6415 21.6596C16.4586 21.5366 16.396 21.2444 16.4826 21.0444C16.5693 20.8445 16.8484 20.7266 16.988 20.7984C17.1275 20.8701 17.373 21.0393 17.5607 21.1624L19.6349 22.5158C19.7649 22.6029 19.8804 22.608 20.0103 22.5209L22.0894 21.1726C22.2482 21.0701 22.2386 20.9881 22.0701 20.8907L17.0457 17.9993C16.8821 17.9019 16.7088 17.8147 16.5452 17.7122C16.3816 17.6097 16.2276 17.6404 16.0688 17.7327C15.2602 18.1992 14.4565 18.6709 13.6432 19.1323C13.4843 19.2194 13.3448 19.3476 13.1475 19.3578C12.9501 19.3681 12.7624 19.2399 12.6951 18.999C12.6277 18.758 12.7143 18.6093 12.8876 18.5068C13.3015 18.2556 13.7202 18.0147 14.1389 17.7737C14.4565 17.5892 14.7838 17.4097 15.1014 17.2201C15.2939 17.1021 15.2939 17.015 15.1062 16.8971C14.9185 16.7792 14.6442 16.6305 14.418 16.4972C14.1918 16.3639 14.0907 16.1025 14.1966 15.8718C14.2214 15.8123 14.2577 15.7591 14.3032 15.7156C14.3486 15.6721 14.4022 15.6394 14.4604 15.6196C14.5186 15.5997 14.58 15.5932 14.6407 15.6004C14.7015 15.6077 14.76 15.6285 14.8126 15.6616C15.265 15.9077 15.7126 16.1589 16.1602 16.4203C16.2083 16.4556 16.2654 16.4745 16.3238 16.4745C16.3823 16.4745 16.4393 16.4556 16.4875 16.4203C16.9254 16.164 17.373 15.9179 17.8109 15.6667C18.0997 15.4975 18.2585 15.5796 18.4366 15.8513C18.6147 16.123 18.4847 16.3383 18.2344 16.4972C17.9842 16.6561 17.7869 16.7587 17.5703 16.892C17.3537 17.0252 17.3489 17.1021 17.5703 17.2303C18.1767 17.584 18.7831 17.9275 19.3943 18.2761L22.6621 20.1524C22.7632 20.2088 22.8642 20.255 22.9605 20.3165C23.0567 20.378 23.2492 20.4036 23.4032 20.3011C23.8219 20.0243 24.2455 19.7526 24.669 19.486C24.9 19.3424 25.1454 19.3834 25.2802 19.5834C25.4149 19.7833 25.3957 20.0653 25.1743 20.2345C24.9529 20.4036 24.6353 20.5984 24.3658 20.783C24.0963 20.9675 24.1492 20.9983 24.3898 21.1419C24.6305 21.2854 24.8567 21.393 25.0829 21.5366C25.3091 21.6801 25.3764 21.7775 25.362 22.0082C25.3593 22.0939 25.3326 22.1767 25.2855 22.2461C25.2383 22.3155 25.1728 22.3683 25.0973 22.3978C25.0331 22.431 24.9623 22.4469 24.891 22.4442C24.8197 22.4415 24.7501 22.4203 24.6882 22.3825C24.2407 22.121 23.7883 21.8749 23.3407 21.6186C23.2444 21.5622 23.1819 21.552 23.0856 21.6135C22.3445 22.1108 21.5985 22.5978 20.8525 23.0848C20.7082 23.1771 20.7515 23.254 20.867 23.3257C21.0691 23.459 21.2761 23.5821 21.4734 23.7256C21.6707 23.8692 21.7621 23.9153 21.7718 24.1306C21.7814 24.3459 21.7477 24.4895 21.5792 24.592C21.5066 24.6363 21.4241 24.6591 21.3404 24.6582C21.2566 24.6573 21.1746 24.6327 21.1028 24.5869C20.79 24.3869 20.4675 24.1921 20.1643 23.9768C19.9333 23.8076 19.7553 23.7923 19.5002 23.9717C18.8457 24.4382 18.1574 24.8535 17.4837 25.2892L17.3682 25.3712C17.219 25.4686 17.219 25.5404 17.3778 25.6378C17.6954 25.8326 18.0034 26.0479 18.3115 26.2581C18.5088 26.3914 18.5232 26.6016 18.4606 26.8015C18.4337 26.8971 18.3747 26.9788 18.2947 27.0308C18.2148 27.0828 18.1196 27.1016 18.0275 27.0835Z" fill="#752FBF"/>
<path d="M23.4273 6.51588C22.8498 6.49025 22.2915 6.69018 21.7669 7.02853C21.6902 7.08913 21.6038 7.1343 21.5119 7.16182C21.3579 7.19258 21.2472 7.10543 21.1846 6.95676C21.122 6.80809 21.175 6.6543 21.3049 6.55689C21.791 6.19804 22.3252 5.94684 22.9124 5.86481C24.3369 5.66488 25.5304 6.1724 26.4882 7.28486C27.1379 8.03333 27.4892 8.9356 27.6047 9.96603C27.7202 10.9965 27.3785 12.0474 26.9887 13.0163C26.1465 15.1336 25.0299 17.0919 23.8701 19.0195C23.6102 19.4501 23.4129 19.4501 23.1578 19.0349C22.0605 17.2354 21.0354 15.3899 20.1932 13.4316C19.8756 12.6882 19.6012 11.9295 19.4424 11.1246C19.3125 10.4736 19.3943 9.83274 19.5435 9.2073C19.5916 9.02275 19.6879 8.81769 19.9189 8.8587C20.1499 8.89971 20.2317 9.1099 20.1547 9.3816C19.8756 10.412 20.0729 11.3861 20.4386 12.3396C21.2183 14.3953 22.2771 16.287 23.3744 18.1582C23.4802 18.3428 23.538 18.3428 23.6439 18.1633C24.6834 16.3998 25.6748 14.6107 26.4497 12.6933C26.6903 12.0833 26.9357 11.463 26.9791 10.7965C27.0657 9.52002 26.7095 8.39219 25.8144 7.50017C25.1599 6.84398 24.3802 6.48512 23.4273 6.51588Z" fill="#752FBF"/>
<path d="M7.26638 9.09965C6.79474 9.07401 6.35197 9.20218 5.92365 9.40211C5.68783 9.5149 5.51457 9.4585 5.44238 9.22781C5.37019 8.99712 5.50976 8.88946 5.6782 8.80231C7.30007 7.98719 9.25883 8.52035 10.3994 10.1455C10.9615 10.9416 11.2716 11.9074 11.285 12.9035C11.2946 13.5751 11.0973 14.2108 10.8711 14.8311C10.2454 16.5639 9.38877 18.1685 8.4888 19.7526C8.19522 20.2601 7.89684 20.7625 7.59364 21.2649C7.36745 21.634 7.16532 21.6391 6.93912 21.27C5.76964 19.3424 4.66273 17.379 3.82051 15.2617C3.551 14.5799 3.30555 13.8827 3.25743 13.1342C3.21316 12.3652 3.36622 11.5978 3.7002 10.9144C3.76757 10.776 3.88307 10.6479 4.06595 10.7504C4.24884 10.8529 4.34028 10.9913 4.23921 11.2066C3.95851 11.8229 3.83723 12.5078 3.88789 13.1906C3.92158 13.7545 4.10446 14.2826 4.30178 14.8055C5.05737 16.7843 6.08247 18.6093 7.15088 20.4139C7.22788 20.5523 7.28082 20.5984 7.37707 20.4293C8.36848 18.7375 9.33583 17.0304 10.077 15.1951C10.3272 14.5799 10.5679 13.9493 10.6401 13.2829C10.7156 12.5393 10.5833 11.7885 10.2599 11.1246C9.71603 10.0019 8.85456 9.32009 7.67546 9.10477C7.60361 9.09532 7.53105 9.0936 7.45889 9.09965H7.26638Z" fill="#752FBF"/>
<path d="M14.0089 12.5293C14.9907 10.8734 15.9051 9.18167 16.5981 7.36688C16.858 6.69531 17.0457 6.00323 17.0024 5.25988C16.911 3.69117 15.8762 2.07631 14.2496 1.74821C13.5565 1.6098 12.8876 1.67131 12.2475 1.99941C12.0357 2.10707 11.8865 2.04555 11.7951 1.83537C11.7037 1.62518 11.8384 1.50214 11.9924 1.42011C12.2891 1.25525 12.6095 1.14436 12.9405 1.09202C13.0849 1.0305 13.2533 1.1074 13.3929 1.00487C15.01 0.994615 16.2131 1.76359 17.0361 3.22978C17.4357 3.94135 17.6376 4.75906 17.6184 5.58798C17.6088 6.30056 17.3778 6.97214 17.1324 7.62321C16.2949 9.82761 15.1447 11.8475 13.9464 13.8417C13.7202 14.2108 13.5084 14.2159 13.2918 13.8571C12.1512 11.9859 11.078 10.0737 10.2406 8.02307C9.99517 7.42327 9.7786 6.80809 9.66309 6.16728C9.49946 5.23938 9.67272 4.36274 10.0433 3.52199C10.1059 3.37845 10.2165 3.26054 10.4042 3.34256C10.5919 3.42459 10.6497 3.60914 10.5727 3.80395C10.417 4.16725 10.31 4.5521 10.2551 4.94716C10.1925 5.45981 10.2021 5.96734 10.3417 6.46462C10.8422 8.23839 11.6988 9.82761 12.5699 11.4168C12.8683 11.9551 13.1908 12.4832 13.4988 13.0266C13.5854 13.1804 13.648 13.1804 13.725 13.0214C13.802 12.8625 13.8401 12.784 13.9127 12.6728C13.9897 12.5549 13.9072 12.6831 14.0089 12.5293Z" fill="#752FBF"/>
<path d="M20.3087 14.5748C20.3231 14.9746 19.9478 15.2207 19.6494 15.0515C18.5762 14.4466 17.5029 13.8417 16.4345 13.2265C16.3431 13.1701 16.2949 13.1752 16.2083 13.2316C15.9532 13.3854 15.6885 13.5187 15.4287 13.6674C15.1688 13.816 14.933 13.7443 14.803 13.5238C14.6731 13.3034 14.7549 13.0112 14.9763 12.8728C15.342 12.6421 15.7126 12.437 16.0832 12.2217C16.1598 12.1754 16.2467 12.152 16.3348 12.1538C16.4228 12.1556 16.5088 12.1826 16.5837 12.232L19.9814 14.1749C20.1451 14.2672 20.275 14.4005 20.3087 14.5748Z" fill="#752FBF"/>
<path d="M15.4094 20.8189C15.2362 20.8189 14.933 20.4908 14.9378 20.3062C14.9426 20.1217 15.2265 19.8192 15.4046 19.8141C15.5827 19.809 15.8666 20.1063 15.8762 20.3011C15.8859 20.4959 15.5923 20.8138 15.4094 20.8189Z" fill="#752FBF"/>
<path d="M20.66 7.85903C20.6552 8.00257 20.4483 8.20763 20.3183 8.19738C20.1884 8.18712 19.9766 7.9513 20.0055 7.82827C20.0344 7.70523 20.1499 7.52068 20.3376 7.5053C20.5253 7.48992 20.6697 7.71548 20.66 7.85903Z" fill="#752FBF"/>
<path d="M5.11031 10.0891C5.1006 10.1696 5.06516 10.2442 5.00995 10.3002C4.95474 10.3562 4.88311 10.3903 4.80711 10.3967C4.62423 10.4069 4.52316 10.2531 4.47985 10.0839C4.43653 9.91476 4.67235 9.71995 4.79748 9.72508C4.92261 9.73021 5.10549 9.91989 5.11031 10.0891Z" fill="#752FBF"/>
<path d="M11.4582 2.66073C11.4534 2.79402 11.2561 2.99396 11.1358 2.98883C11.0154 2.9837 10.8133 2.76839 10.8181 2.65048C10.8229 2.53257 11.0443 2.31213 11.1454 2.31725C11.2465 2.32238 11.4582 2.53257 11.4582 2.66073Z" fill="#752FBF"/>
<path d="M10.924 5.86481C10.9288 6.22367 10.9336 6.58765 10.9336 6.94651C10.9336 7.30536 10.9481 7.30024 11.2801 7.30536H12.5026L12.517 7.31561C12.5194 7.33089 12.5194 7.34648 12.517 7.36176L11.0732 7.37201C10.9914 7.37713 10.8903 7.36688 10.8951 7.2541C10.8999 6.79271 10.8422 6.3262 10.924 5.86481Z" fill="#752FBF"/>
<path d="M13.3929 1.00487C13.2678 1.17404 13.0945 1.08177 12.9405 1.09202C13.4122 0.968972 13.4603 1.00488 13.3929 1.00487Z" fill="#752FBF"/>
<path d="M13.8403 12.5488C13.8572 12.5235 13.8673 12.4937 13.8694 12.4626C13.7538 12.437 13.7539 12.5139 13.7732 12.6062C13.8001 12.594 13.8233 12.5742 13.8403 12.5488Z" fill="#752FBF"/>
<path d="M7.32895 14.4774C7.33376 14.544 7.33376 14.6209 7.26638 14.6517C7.19901 14.6824 7.22788 14.6107 7.23751 14.5748C7.24713 14.5389 7.29526 14.5081 7.32895 14.4774Z" fill="#752FBF"/>
<path fill-rule="evenodd" clip-rule="evenodd" d="M7.32895 14.4774C7.3383 14.4541 7.34957 14.4318 7.36263 14.4107C7.56476 14.0211 7.65621 13.6469 7.56958 13.1701C7.43482 12.4319 7.87759 11.9141 8.69093 11.6885C9.09038 11.5758 9.49946 11.5655 9.90853 11.5553C10.0048 11.5553 10.1155 11.5553 10.1155 11.7039C10.1155 11.7611 10.1157 11.8183 10.1159 11.8755C10.118 12.4128 10.1201 12.949 9.93741 13.4726C9.61977 14.3595 8.76793 14.5645 8.07491 14.1852C7.91128 14.0929 7.85834 14.139 7.79578 14.2877C7.52145 14.8875 7.42039 15.5334 7.39151 16.1948C7.39001 16.2147 7.38957 16.2355 7.38912 16.2563C7.38666 16.3697 7.38416 16.4854 7.21344 16.4767C7.03647 16.4677 7.04027 16.3487 7.04395 16.2332C7.04448 16.2168 7.045 16.2005 7.045 16.1845C7.04797 15.4573 6.95068 14.7336 6.75624 14.0365C6.66961 13.7238 6.63592 13.6981 6.35679 13.775C5.51938 13.9903 4.88411 13.5597 4.67716 12.6677C4.5667 12.2057 4.51809 11.7293 4.53279 11.2528C4.53279 11.1144 4.5761 11.0477 4.71085 11.0477C5.25469 11.0375 5.7937 11.0529 6.31828 11.263C7.20863 11.6219 7.29526 12.5549 7.0065 13.2265C6.93431 13.3905 6.91987 13.5136 6.99206 13.6725C7.122 13.9596 7.17976 14.2672 7.23751 14.5748C7.29653 14.5999 7.30126 14.5653 7.30608 14.53C7.30912 14.5078 7.31219 14.4853 7.32895 14.4774ZM6.72255 13.0778C6.46748 12.7036 6.21241 12.4165 5.88996 12.2012C5.8781 12.1928 5.8663 12.1839 5.85455 12.1751C5.76617 12.1088 5.68021 12.0443 5.58676 12.1756C5.48088 12.3242 5.59639 12.4319 5.69745 12.5037C5.95146 12.6821 6.17317 12.9079 6.35198 13.1701C6.44342 13.2983 6.4386 13.3598 6.27497 13.4111C5.69264 13.5956 5.221 13.3188 5.03331 12.6421C4.93224 12.2883 4.90336 11.9244 4.8793 11.5553C4.86967 11.4373 4.90336 11.3809 5.02368 11.3912L5.06902 11.3953C5.45333 11.4296 5.83678 11.4639 6.19797 11.6168C6.6648 11.8116 6.85249 12.1499 6.78511 12.678C6.77604 12.7456 6.76507 12.8132 6.75101 12.9C6.74269 12.9513 6.73328 13.0092 6.72255 13.0778ZM8.88344 12.0218C8.08935 12.1909 7.80059 12.6062 7.94978 13.3803C7.99909 13.3348 8.04502 13.2905 8.0895 13.2475C8.17529 13.1648 8.25568 13.0872 8.34442 13.0163C8.48084 12.9129 8.6222 12.8171 8.76793 12.7292C8.89306 12.6472 9.02782 12.5857 9.11926 12.76C9.19934 12.9126 9.0838 12.9748 8.98274 13.0293C8.9684 13.037 8.95435 13.0445 8.94119 13.0522C8.67167 13.2031 8.42637 13.3986 8.21448 13.6315C8.15192 13.7084 8.09898 13.775 8.21448 13.8571C8.65243 14.1595 9.35508 13.9493 9.57165 13.4367C9.75453 13.0009 9.78822 12.5344 9.8171 12.0628C9.82663 11.9308 9.76068 11.9345 9.67063 11.9396L9.6679 11.9397C9.40488 11.9465 9.14268 11.9739 8.88344 12.0218Z" fill="#752FBF"/>
<path d="M14.3939 3.01446C14.3758 3.05638 14.3532 3.09594 14.3266 3.13237L13.7635 3.72192C13.7057 3.78857 13.6432 3.83471 13.5662 3.74243C13.4892 3.65015 13.5228 3.58351 13.5854 3.51686C13.7683 3.32721 13.9512 3.13747 14.1292 2.94269C14.1774 2.89655 14.2351 2.86067 14.3025 2.89143C14.327 2.90081 14.3485 2.9173 14.3647 2.93905C14.3809 2.96079 14.391 2.98691 14.3939 3.01446Z" fill="#752FBF"/>
<path d="M13.6576 2.59921C13.7346 2.61972 13.7924 2.66586 13.7827 2.75301C13.7731 2.84016 13.7298 2.89655 13.6432 2.89143C13.6252 2.89084 13.6076 2.8863 13.5914 2.87809C13.5752 2.86988 13.5607 2.85818 13.549 2.84373C13.5372 2.82928 13.5284 2.81239 13.5231 2.79413C13.5177 2.77587 13.516 2.75663 13.518 2.73763C13.5205 2.7 13.5363 2.66477 13.5622 2.63907C13.5881 2.61337 13.6222 2.59912 13.6576 2.59921Z" fill="#752FBF"/>
<path d="M14.649 3.62965C14.6394 3.7168 14.5961 3.78344 14.5191 3.79369C14.4421 3.80395 14.3891 3.7373 14.3843 3.65015C14.3806 3.63336 14.3806 3.61589 14.3843 3.59909C14.3879 3.58229 14.3951 3.56661 14.4053 3.55324C14.4156 3.53987 14.4285 3.52918 14.4432 3.52199C14.4579 3.51479 14.474 3.51128 14.4902 3.51173C14.5079 3.50805 14.5262 3.5082 14.5438 3.51218C14.5615 3.51615 14.5782 3.52386 14.593 3.53486C14.6079 3.54586 14.6205 3.55992 14.6301 3.5762C14.6397 3.59248 14.6461 3.61066 14.649 3.62965Z" fill="#752FBF"/>
<path d="M14.2592 4.43451C14.1822 4.414 14.1244 4.36274 14.1292 4.27559C14.1291 4.25671 14.1328 4.23802 14.1399 4.22076C14.1471 4.2035 14.1576 4.18805 14.1708 4.17545C14.184 4.16285 14.1996 4.15338 14.2165 4.14766C14.2334 4.14195 14.2512 4.14012 14.2688 4.1423C14.341 4.15255 14.4084 4.20894 14.3988 4.29097C14.3891 4.37299 14.3362 4.41913 14.2592 4.43451Z" fill="#752FBF"/>
<path d="M12.7721 3.51173C12.8635 3.50661 12.9116 3.54762 12.9164 3.62452C12.9213 3.70142 12.8972 3.78344 12.8106 3.79882C12.7239 3.8142 12.6758 3.7373 12.6614 3.6604C12.6469 3.58351 12.7143 3.53224 12.7721 3.51173Z" fill="#752FBF"/>
<path d="M13.1956 4.29097C13.1715 4.36787 13.1234 4.42938 13.0464 4.42938C12.9694 4.42938 12.9213 4.36274 12.9213 4.28071C12.9205 4.26189 12.9236 4.24311 12.9301 4.22561C12.9367 4.20812 12.9467 4.19232 12.9594 4.17924C12.9722 4.16616 12.9874 4.1561 13.004 4.14973C13.0207 4.14337 13.0384 4.14083 13.056 4.1423C13.0927 4.14358 13.1275 4.15965 13.1534 4.18726C13.1793 4.21487 13.1944 4.25194 13.1956 4.29097Z" fill="#752FBF"/>
<path d="M13.6528 4.40887C13.6707 4.4072 13.6887 4.40981 13.7055 4.4165C13.7223 4.4232 13.7375 4.43382 13.75 4.44758C13.7624 4.46135 13.7718 4.47791 13.7775 4.49605C13.7832 4.51419 13.785 4.53345 13.7827 4.55242C13.7841 4.58694 13.7728 4.62066 13.7512 4.64648C13.7297 4.6723 13.6996 4.68821 13.6672 4.69083C13.6491 4.69295 13.6308 4.69115 13.6134 4.68553C13.596 4.67991 13.5798 4.67059 13.5659 4.65813C13.552 4.64568 13.5405 4.63034 13.5323 4.61306C13.5241 4.59577 13.5192 4.57689 13.518 4.55755C13.5167 4.53809 13.5192 4.51854 13.5254 4.50018C13.5316 4.48183 13.5414 4.46508 13.5541 4.45104C13.5669 4.437 13.5822 4.42598 13.5992 4.41872C13.6162 4.41145 13.6345 4.4081 13.6528 4.40887Z" fill="#752FBF"/>
<path d="M13.1908 3.01959C13.1619 3.09136 13.1186 3.15288 13.0368 3.14775C13.0191 3.14738 13.0018 3.14288 12.986 3.13457C12.9701 3.12627 12.9562 3.11435 12.9452 3.09968C12.9342 3.085 12.9263 3.06793 12.9222 3.04966C12.918 3.03139 12.9177 3.01237 12.9213 2.99396C12.9218 2.97685 12.9257 2.96006 12.9327 2.94465C12.9397 2.92924 12.9496 2.91555 12.9618 2.90445C12.974 2.89335 12.9883 2.8851 13.0037 2.88021C13.0191 2.87532 13.0353 2.8739 13.0512 2.87605C13.0874 2.87602 13.1222 2.89098 13.1482 2.91776C13.1743 2.94454 13.1895 2.98106 13.1908 3.01959Z" fill="#752FBF"/>
<path d="M13.7442 6.39797C13.7403 6.39797 13.7364 6.39797 13.7325 6.39798C13.6114 6.39813 13.494 6.39828 13.494 6.2493C13.494 6.10548 13.595 6.10063 13.6829 6.09642C13.6889 6.09613 13.695 6.09583 13.7009 6.0955C13.7924 6.09038 13.9367 6.10063 13.9464 6.23904C13.956 6.37746 13.8309 6.39797 13.7442 6.39797Z" fill="#752FBF"/>
<path fill-rule="evenodd" clip-rule="evenodd" d="M11.1519 5.79712C11.0704 5.79436 10.9887 5.7916 10.924 5.86481C10.9075 6.10198 10.9099 6.33914 10.9122 6.57726C10.914 6.75606 10.9158 6.9354 10.9096 7.11568C10.9048 7.30024 11.0058 7.33099 11.1406 7.33099C11.2418 7.33319 11.3483 7.33256 11.4541 7.33193C11.5947 7.3311 11.7341 7.33027 11.8577 7.33612C11.9297 7.33953 12.0028 7.33614 12.0762 7.33273C12.2236 7.32588 12.3724 7.31897 12.517 7.36688C12.6662 7.66422 12.8972 7.75137 13.21 7.72574C13.5625 7.7001 13.9163 7.7001 14.2688 7.72574C14.4613 7.73599 14.6346 7.6027 14.6923 7.50017C14.7501 7.39764 14.8223 7.37713 14.9281 7.37713H16.1987C16.3575 7.37713 16.4297 7.32587 16.4249 7.14132C16.4104 6.77221 16.4104 6.40822 16.4249 6.03911C16.4297 5.85456 16.3575 5.79817 16.2035 5.79817H15.2939C15.2478 5.79727 15.2012 5.79887 15.1546 5.80046C14.9336 5.80801 14.7143 5.81549 14.5672 5.55722C14.5531 5.53671 14.5326 5.52219 14.5094 5.51621C14.2784 5.38804 14.264 5.10096 14.4806 4.93691C14.7835 4.7217 15.0012 4.39492 15.0918 4.01926C15.2795 3.26054 14.7982 2.43517 14.1485 2.16859C13.4988 1.90201 12.7047 2.22498 12.3582 2.89655C12.1806 3.23062 12.128 3.62383 12.211 3.99742C12.294 4.37101 12.5064 4.69742 12.8058 4.91128C12.9389 5.0101 12.9469 5.11251 12.9573 5.24569C12.9594 5.27142 12.9615 5.2983 12.9646 5.32652C12.9787 5.45479 12.9121 5.47756 12.8433 5.50107C12.8186 5.50951 12.7937 5.51805 12.7721 5.53159C12.7241 5.56056 12.6817 5.59881 12.6469 5.64437C12.5748 5.78279 12.4641 5.80329 12.3245 5.79817C12.0742 5.79475 11.824 5.79589 11.5737 5.79703C11.4486 5.7976 11.3235 5.79817 11.1983 5.79817C11.1829 5.79817 11.1674 5.79764 11.1519 5.79712ZM14.8608 3.6604C14.8656 2.93756 14.341 2.38903 13.6576 2.3839C12.9838 2.3839 12.4496 2.92731 12.4448 3.62452C12.4423 3.7932 12.4712 3.96073 12.5301 4.11735C12.5889 4.27398 12.6764 4.41656 12.7875 4.5368C12.8986 4.65704 13.031 4.75253 13.1771 4.8177C13.3232 4.88287 13.48 4.91643 13.6384 4.9164C14.3169 4.92153 14.856 4.38324 14.8608 3.6604ZM14.3939 3.01446C14.3758 3.05638 14.3532 3.09594 14.3266 3.13237L13.7635 3.72192C13.7057 3.78857 13.6432 3.83471 13.5662 3.74243C13.4892 3.65015 13.5228 3.58351 13.5854 3.51686C13.7683 3.32721 13.9512 3.13747 14.1292 2.94269C14.1774 2.89655 14.2351 2.86067 14.3025 2.89143C14.327 2.90081 14.3485 2.9173 14.3647 2.93905C14.3809 2.96079 14.391 2.98691 14.3939 3.01446ZM13.6576 2.59921C13.7346 2.61972 13.7924 2.66586 13.7827 2.75301C13.7731 2.84016 13.7298 2.89655 13.6432 2.89143C13.6252 2.89084 13.6076 2.8863 13.5914 2.87809C13.5752 2.86988 13.5607 2.85818 13.549 2.84373C13.5372 2.82928 13.5284 2.81239 13.5231 2.79413C13.5177 2.77587 13.516 2.75663 13.518 2.73763C13.5205 2.7 13.5363 2.66477 13.5622 2.63907C13.5881 2.61337 13.6222 2.59912 13.6576 2.59921ZM14.649 3.62965C14.6394 3.7168 14.5961 3.78344 14.5191 3.79369C14.4421 3.80395 14.3891 3.7373 14.3843 3.65015C14.3806 3.63336 14.3806 3.61589 14.3843 3.59909C14.3879 3.58229 14.3951 3.56661 14.4053 3.55324C14.4156 3.53987 14.4285 3.52918 14.4432 3.52199C14.4579 3.51479 14.474 3.51128 14.4902 3.51173C14.5079 3.50805 14.5262 3.5082 14.5438 3.51218C14.5615 3.51615 14.5782 3.52386 14.593 3.53486C14.6079 3.54586 14.6205 3.55992 14.6301 3.5762C14.6397 3.59248 14.6461 3.61066 14.649 3.62965ZM14.2592 4.43451C14.1822 4.414 14.1244 4.36274 14.1292 4.27559C14.1291 4.25671 14.1328 4.23802 14.1399 4.22076C14.1471 4.2035 14.1576 4.18805 14.1708 4.17545C14.184 4.16285 14.1996 4.15338 14.2165 4.14766C14.2334 4.14195 14.2512 4.14012 14.2688 4.1423C14.341 4.15255 14.4084 4.20894 14.3988 4.29097C14.3891 4.37299 14.3362 4.41913 14.2592 4.43451ZM12.7721 3.51173C12.8635 3.50661 12.9116 3.54762 12.9164 3.62452C12.9213 3.70142 12.8972 3.78344 12.8106 3.79882C12.7239 3.8142 12.6758 3.7373 12.6614 3.6604C12.6469 3.58351 12.7143 3.53224 12.7721 3.51173ZM13.1956 4.29097C13.1715 4.36787 13.1234 4.42938 13.0464 4.42938C12.9694 4.42938 12.9213 4.36274 12.9213 4.28071C12.9205 4.26189 12.9236 4.24311 12.9301 4.22561C12.9367 4.20812 12.9467 4.19232 12.9594 4.17924C12.9722 4.16616 12.9874 4.1561 13.004 4.14973C13.0207 4.14337 13.0384 4.14083 13.056 4.1423C13.0927 4.14358 13.1275 4.15965 13.1534 4.18726C13.1793 4.21487 13.1944 4.25194 13.1956 4.29097ZM13.6528 4.40887C13.6707 4.4072 13.6887 4.40981 13.7055 4.4165C13.7223 4.4232 13.7375 4.43382 13.75 4.44758C13.7624 4.46135 13.7718 4.47791 13.7775 4.49605C13.7832 4.51419 13.785 4.53345 13.7827 4.55242C13.7841 4.58694 13.7728 4.62066 13.7512 4.64648C13.7297 4.6723 13.6996 4.68821 13.6672 4.69083C13.6491 4.69295 13.6308 4.69115 13.6134 4.68553C13.596 4.67991 13.5798 4.67059 13.5659 4.65813C13.552 4.64568 13.5405 4.63034 13.5323 4.61306C13.5241 4.59577 13.5192 4.57689 13.518 4.55755C13.5167 4.53809 13.5192 4.51854 13.5254 4.50018C13.5316 4.48183 13.5414 4.46508 13.5541 4.45104C13.5669 4.437 13.5822 4.42598 13.5992 4.41872C13.6162 4.41145 13.6345 4.4081 13.6528 4.40887ZM13.1908 3.01959C13.1619 3.09136 13.1186 3.15288 13.0368 3.14775C13.0191 3.14738 13.0018 3.14288 12.986 3.13457C12.9701 3.12627 12.9562 3.11435 12.9452 3.09968C12.9342 3.085 12.9263 3.06793 12.9222 3.04966C12.918 3.03139 12.9177 3.01237 12.9213 2.99396C12.9218 2.97685 12.9257 2.96006 12.9327 2.94465C12.9397 2.92924 12.9496 2.91555 12.9618 2.90445C12.974 2.89335 12.9883 2.8851 13.0037 2.88021C13.0191 2.87532 13.0353 2.8739 13.0512 2.87605C13.0874 2.87602 13.1222 2.89098 13.1482 2.91776C13.1743 2.94454 13.1895 2.98106 13.1908 3.01959ZM13.6672 5.20349L13.9079 5.18811C13.9176 5.18701 13.9273 5.18569 13.9367 5.18439C14.0158 5.17351 14.0806 5.16459 14.0763 5.31115C14.0715 5.47519 14.0282 5.49057 13.9031 5.48032C13.7363 5.47177 13.5691 5.47348 13.4025 5.48544C13.263 5.4957 13.2437 5.42393 13.2437 5.30089C13.2437 5.17785 13.3207 5.17785 13.4025 5.18811C13.4568 5.1949 13.5174 5.19719 13.5773 5.19946C13.6077 5.20061 13.638 5.20176 13.6672 5.20349ZM14.2592 5.77766C14.1278 5.78107 13.9943 5.77994 13.8601 5.7788C13.7927 5.77823 13.7252 5.77766 13.6576 5.77766L12.9838 5.78279C12.8731 5.78279 12.8058 5.83405 12.8058 5.97246C12.8058 6.11088 12.878 6.11601 12.9838 6.11088C12.9916 6.11051 12.9994 6.11005 13.0074 6.10959C13.108 6.10374 13.22 6.09724 13.2245 6.2493C13.2293 6.41335 13.0945 6.40822 12.9694 6.39797C12.96 6.3972 12.9511 6.39638 12.9427 6.39559C12.8381 6.38591 12.8017 6.38254 12.8106 6.57227C12.8202 6.77733 12.8154 7.03366 12.8106 7.18745C12.8058 7.34125 12.8731 7.41814 13.0031 7.41814H14.3025C14.3096 7.41814 14.3169 7.41829 14.3244 7.41844C14.3935 7.41983 14.4758 7.42148 14.4758 7.31049C14.4758 7.23288 14.4604 7.23482 14.4165 7.2404C14.3908 7.24367 14.3553 7.24818 14.3073 7.23872C14.2735 7.23204 14.2341 7.23197 14.1944 7.2319C14.0815 7.23169 13.9656 7.23148 13.9656 7.0798C13.9656 6.91865 14.0845 6.93163 14.2031 6.94458C14.2355 6.94811 14.2678 6.95163 14.2977 6.95163C14.4373 6.95163 14.4998 6.926 14.4902 6.75683C14.4782 6.50921 14.4782 6.2611 14.4902 6.01348C14.495 5.83405 14.4565 5.77253 14.2592 5.77766ZM13.7325 6.39798C13.6114 6.39813 13.494 6.39828 13.494 6.2493C13.494 6.10548 13.595 6.10063 13.6829 6.09642C13.6889 6.09613 13.695 6.09583 13.7009 6.0955C13.7924 6.09038 13.9367 6.10063 13.9464 6.23904C13.956 6.37746 13.8309 6.39797 13.7442 6.39797L13.7325 6.39798ZM11.901 6.08012C11.9642 6.08923 12.039 6.08023 12.1154 6.07103C12.2541 6.05434 12.3981 6.037 12.4881 6.12626C12.5763 6.21374 12.5607 6.36469 12.5446 6.52088C12.5352 6.61184 12.5256 6.70457 12.5362 6.78758C12.5651 7.01315 12.4881 7.11568 12.2523 7.1003C12.0165 7.08492 11.6507 7.09005 11.3475 7.09517C11.2031 7.1003 11.1406 7.06442 11.1502 6.89524C11.1622 6.68354 11.1622 6.47126 11.1502 6.25955C11.1454 6.12626 11.1887 6.075 11.3138 6.08012C11.3955 6.08347 11.5264 6.08245 11.669 6.08133C11.7449 6.08074 11.8241 6.08012 11.901 6.08012ZM15.2932 7.09404C15.3515 7.09461 15.4096 7.09517 15.4672 7.09517C15.5233 7.09517 15.5837 7.09403 15.6442 7.0929C15.765 7.09062 15.8859 7.08834 15.9725 7.09517C16.1024 7.10543 16.165 7.06442 16.1554 6.91062C16.1434 6.69721 16.1434 6.48322 16.1554 6.26981C16.1602 6.12626 16.1121 6.075 15.9773 6.08012C15.6308 6.09038 15.2843 6.08525 14.9426 6.08012C14.8175 6.08012 14.7693 6.11601 14.7741 6.25442C14.779 6.47486 14.779 6.6953 14.7741 6.92087C14.7693 7.05416 14.7693 7.1003 14.9426 7.09517C15.0583 7.09175 15.1761 7.0929 15.2932 7.09404Z" fill="#752FBF"/>
<path d="M25.3235 11.3656C25.3962 11.3578 25.4697 11.3663 25.5392 11.3905C25.6087 11.4147 25.6727 11.4541 25.727 11.5062C25.7814 11.5584 25.8249 11.622 25.8548 11.6931C25.8847 11.7641 25.9003 11.8411 25.9006 11.919C25.9009 11.9969 25.886 12.074 25.8567 12.1453C25.8274 12.2167 25.7845 12.2807 25.7306 12.3334C25.6767 12.386 25.6131 12.4261 25.5438 12.451C25.4745 12.4759 25.4011 12.4851 25.3283 12.478C25.2556 12.4858 25.1821 12.4773 25.1126 12.4531C25.0431 12.4289 24.9791 12.3895 24.9248 12.3373C24.8705 12.2852 24.8269 12.2216 24.797 12.1505C24.7672 12.0794 24.7515 12.0025 24.7512 11.9246C24.7509 11.8467 24.7658 11.7696 24.7951 11.6983C24.8244 11.6269 24.8673 11.5628 24.9212 11.5102C24.9751 11.4576 25.0387 11.4175 25.108 11.3926C25.1773 11.3677 25.2507 11.3585 25.3235 11.3656Z" fill="#752FBF"/>
<path d="M25.5112 11.9192C25.4968 12.0423 25.4342 12.114 25.3283 12.114C25.2224 12.114 25.1358 12.0371 25.1358 11.9295C25.1351 11.9019 25.1398 11.8745 25.1495 11.8489C25.1592 11.8234 25.1738 11.8002 25.1924 11.781C25.2109 11.7617 25.233 11.7468 25.2572 11.737C25.2814 11.7273 25.3073 11.723 25.3331 11.7244C25.4342 11.7244 25.5016 11.8065 25.5112 11.9192Z" fill="#752FBF"/>
<path fill-rule="evenodd" clip-rule="evenodd" d="M24.49 12.5361C24.6873 12.8745 24.9747 13.006 25.3524 12.9958C25.9299 12.9753 26.3582 12.5242 26.3245 11.9551C26.3104 11.7168 26.2828 11.4793 26.2551 11.2413C26.2167 10.911 26.1781 10.5795 26.1753 10.2429C26.1736 10.1564 26.1554 10.0713 26.1219 9.99256C26.0884 9.91382 26.0404 9.84311 25.9806 9.78468C25.9208 9.72625 25.8505 9.68131 25.774 9.65257C25.6974 9.62383 25.6162 9.61187 25.5353 9.61742C25.2754 9.6328 25.2465 9.51489 25.2657 9.29445C25.2695 9.22272 25.2965 9.16647 25.3242 9.10885C25.3321 9.09236 25.3401 9.07575 25.3476 9.05863C25.4438 8.83819 25.4005 8.57674 25.2417 8.4537C25.0829 8.33067 24.6834 8.34605 24.539 8.48959C24.3947 8.63313 24.3898 8.9356 24.4909 9.09964C24.5768 9.2391 24.5619 9.37855 24.5466 9.52116C24.5439 9.54629 24.5412 9.57158 24.539 9.59692C24.4571 9.5886 24.4479 9.53649 24.4397 9.48974C24.4378 9.47882 24.4359 9.4682 24.4332 9.4585C24.4047 9.35688 24.3774 9.25464 24.3501 9.15221C24.2988 8.96011 24.2474 8.76733 24.1877 8.57674C24.1492 8.44858 24.1348 8.33067 24.2262 8.23326C24.3176 8.13586 24.3128 8.0077 24.2551 7.87441C24.1973 7.74112 24.13 7.69498 23.9567 7.70523C23.8985 7.70868 23.8397 7.71444 23.7812 7.72018C23.6654 7.73152 23.5504 7.7428 23.4417 7.73599C23.0192 7.69904 22.5945 7.70391 22.1705 7.70877C21.9474 7.71133 21.7245 7.71389 21.5022 7.71036C21.252 7.71036 21.1413 8.05896 21.2857 8.22301C21.4255 8.38188 21.4254 8.51671 21.4252 8.71597L21.4252 8.73566C21.4252 8.78766 21.425 8.84155 21.4247 8.896C21.4237 9.06162 21.4228 9.23246 21.4301 9.37135C21.4397 9.55591 21.3964 9.66356 21.2231 9.74559C20.9151 9.88913 20.8525 10.0583 20.9007 10.4274C20.9113 10.4715 20.9134 10.5174 20.9068 10.5624C20.9002 10.6074 20.885 10.6504 20.8622 10.6889C20.7285 10.8954 20.6735 11.1482 20.7082 11.3963V11.4015C20.7078 11.4113 20.7074 11.4212 20.707 11.4311C20.6976 11.6771 20.6884 11.9185 20.7948 12.1551C21.2279 13.1086 22.4551 13.2983 23.0856 12.5959C23.3214 12.3294 23.5524 12.2576 23.8556 12.2883C23.9036 12.2935 23.952 12.2935 24 12.2883C24.2166 12.2473 24.385 12.314 24.4861 12.5344L24.49 12.5361ZM23.4013 7.92919L23.4029 7.92708L23.4032 7.9308L23.405 7.93197C23.4779 7.9455 23.5495 7.96875 23.6209 7.99284C23.6616 8.00658 23.7024 8.02034 23.7436 8.03219C23.796 8.04727 23.8492 8.05924 23.9038 8.06409H21.6033V8.0077H21.7336C21.6822 8.00148 21.644 7.99464 21.6226 7.98719H23.0327C23.0589 7.98719 23.0852 7.98841 23.1113 7.98963C23.205 7.99398 23.2975 7.99828 23.384 7.94618C23.3904 7.94131 23.3962 7.9356 23.4013 7.92919ZM22.1486 8.03628C22.3925 8.0379 22.65 8.0358 22.915 8.03333H23.1819C23.1964 8.03333 23.2117 8.03448 23.2273 8.03565C23.2636 8.03839 23.3012 8.04121 23.3324 8.02967C23.2154 8.0305 23.0993 8.0316 22.9845 8.03268L22.915 8.03333H22.0826H21.9113C21.9888 8.0348 22.068 8.03575 22.1486 8.03628ZM23.2204 11.4732C23.2191 11.7878 23.1019 12.0894 22.894 12.3128C22.686 12.5362 22.404 12.6637 22.1086 12.6677C21.5022 12.6728 20.9825 12.1243 20.9825 11.4835C20.9873 11.0118 21.4637 10.3044 21.7814 10.3095C22.7054 10.3146 23.2107 10.7248 23.2204 11.4732ZM21.3579 11.4835C21.3579 11.9397 21.6659 12.273 22.0942 12.2781C22.292 12.2815 22.483 12.201 22.6252 12.0544C22.7673 11.9078 22.849 11.707 22.8522 11.4963C22.8554 11.2855 22.7799 11.0821 22.6422 10.9307C22.5046 10.7792 22.3161 10.6923 22.1183 10.6889C21.6755 10.6837 21.3579 11.0272 21.3579 11.4835ZM24.616 11.9192C24.616 12.314 24.9577 12.6677 25.3331 12.6677C25.7085 12.6626 26.0406 12.3037 26.031 11.909C26.0236 11.7158 25.9473 11.5328 25.8176 11.3975C25.6879 11.2622 25.5146 11.1848 25.3331 11.181C24.9529 11.1759 24.616 11.5245 24.616 11.9192ZM25.3235 11.3656C25.3962 11.3578 25.4697 11.3663 25.5392 11.3905C25.6087 11.4147 25.6727 11.4541 25.727 11.5062C25.7814 11.5584 25.8249 11.622 25.8548 11.6931C25.8847 11.7641 25.9003 11.8411 25.9006 11.919C25.9009 11.9969 25.886 12.074 25.8567 12.1453C25.8274 12.2167 25.7845 12.2807 25.7306 12.3334C25.6767 12.386 25.6131 12.4261 25.5438 12.451C25.4745 12.4759 25.4011 12.4851 25.3283 12.478C25.2556 12.4858 25.1821 12.4773 25.1126 12.4531C25.0431 12.4289 24.9791 12.3895 24.9248 12.3373C24.8705 12.2852 24.8269 12.2216 24.797 12.1505C24.7672 12.0794 24.7515 12.0025 24.7512 11.9246C24.7509 11.8467 24.7658 11.7696 24.7951 11.6983C24.8244 11.6269 24.8673 11.5628 24.9212 11.5102C24.9751 11.4576 25.0387 11.4175 25.108 11.3926C25.1773 11.3677 25.2507 11.3585 25.3235 11.3656ZM22.5225 11.4784C22.5273 11.7039 22.3204 11.9192 22.1086 11.9244C21.8969 11.9295 21.6851 11.709 21.6851 11.4886C21.6851 11.2682 21.8873 11.0426 22.099 11.0426C22.3108 11.0426 22.5177 11.2528 22.5225 11.4784ZM23.8825 9.96025C23.7005 9.96057 23.5168 9.9609 23.3311 9.9609C23.3763 10.0198 23.4187 10.0719 23.4581 10.1204C23.5319 10.2112 23.5954 10.2893 23.6487 10.3761C23.7931 10.612 23.9278 10.9042 23.9134 11.1554C23.8989 11.4066 23.7449 11.5245 23.5717 11.6475C23.4754 11.7193 23.5043 11.9449 23.6006 11.95C23.7979 11.9602 24 11.9551 24.2021 11.95C24.2739 11.95 24.2829 11.8937 24.2921 11.8366C24.294 11.8247 24.2959 11.8128 24.2984 11.8013C24.438 11.0836 24.8663 10.7606 25.5353 10.8375C25.5749 10.8428 25.619 10.8613 25.6622 10.8795C25.7451 10.9143 25.8246 10.9477 25.8625 10.8837C25.9046 10.8126 25.893 10.7034 25.8817 10.5978C25.8776 10.5586 25.8735 10.5199 25.8721 10.4838C25.8625 10.1916 25.7133 9.97115 25.4679 9.96603C24.9461 9.95836 24.4217 9.95929 23.8825 9.96025ZM23.0471 8.97148C23.0471 8.38702 23.0471 8.38702 23.5817 8.38706H23.5957C23.7305 8.38706 23.7979 8.42295 23.8364 8.56649C23.8877 8.77497 23.9476 8.97889 24.0075 9.1828C24.0374 9.28477 24.0674 9.38673 24.0963 9.48926C24.1251 9.58154 24.0963 9.61742 24.0096 9.61742C23.7305 9.61059 23.4514 9.61059 23.1722 9.61742C23.076 9.61742 23.0471 9.57129 23.0471 9.47901V8.97148ZM22.6423 9.58427C22.6633 9.58851 22.6844 9.59274 22.7054 9.59692C22.7408 9.48809 22.7344 9.38267 22.7283 9.28067C22.7269 9.25775 22.7255 9.235 22.7247 9.21243C22.7199 9.12515 22.7302 9.02633 22.7403 8.9282C22.7612 8.72662 22.7818 8.52797 22.6717 8.43833C22.5574 8.34519 22.3632 8.36219 22.1695 8.37913C22.086 8.38643 22.0026 8.39373 21.9257 8.39219H21.8776C21.7862 8.38193 21.7477 8.42807 21.7477 8.52548C21.7477 8.82794 21.7477 9.13553 21.7525 9.44312C21.7525 9.50977 21.7717 9.55078 21.8536 9.5354C22.1165 9.47844 22.3794 9.53135 22.6423 9.58427ZM24.9144 8.72541L24.9165 8.72556C24.9883 8.73064 25.0732 8.73666 25.0684 8.83819C25.0636 8.94072 24.9722 8.94072 24.9048 8.9356C24.8982 8.9351 24.8914 8.93469 24.8844 8.93428C24.8204 8.93049 24.7455 8.92607 24.7412 8.83819C24.7368 8.74878 24.8256 8.73712 24.8961 8.72788C24.9024 8.72706 24.9085 8.72625 24.9144 8.72541ZM24.9048 9.27395C24.9722 9.3816 24.9529 9.47388 24.9096 9.64306C24.8663 9.47901 24.8567 9.38673 24.9048 9.27395ZM21.8006 9.93014C22.0124 9.98653 22.2241 10.007 22.4359 9.91476C22.4319 10.0035 22.4836 10.0121 22.5369 10.021C22.5482 10.0229 22.5597 10.0248 22.5707 10.0275L22.5717 10.0265C22.5712 10.0285 22.5709 10.0305 22.5707 10.0327C22.5796 10.038 22.5885 10.0435 22.5974 10.049C22.6657 10.091 22.7358 10.134 22.8209 10.1249C22.8164 9.99613 22.7328 9.98276 22.6475 9.96913C22.6411 9.96812 22.6347 9.96709 22.6284 9.96603C22.6232 9.96345 22.6179 9.96084 22.6127 9.95822C22.5553 9.92962 22.4972 9.90067 22.4311 9.91476C22.2193 9.82761 22.0124 9.7866 21.8054 9.93014H21.8006ZM22.6284 9.96603C22.6224 9.97242 22.615 9.97732 22.6075 9.98228C22.5922 9.99239 22.5766 10.0027 22.5717 10.0265L22.6284 9.96603ZM21.8054 9.93527H21.8006C21.7473 10.132 21.6099 10.1349 21.4692 10.1378C21.4449 10.1383 21.4205 10.1388 21.3964 10.1403C21.393 10.1418 21.3898 10.143 21.3867 10.144C21.39 10.1408 21.3932 10.1378 21.3964 10.1352L21.3369 10.0865C21.4702 9.9762 21.637 9.9223 21.8054 9.93527ZM21.3369 10.0865L21.3338 10.0839C21.3262 10.088 21.3176 10.092 21.3086 10.0962C21.2605 10.1186 21.2026 10.1457 21.2472 10.2018C21.2876 10.2527 21.328 10.208 21.3641 10.168C21.3719 10.1595 21.3794 10.1511 21.3867 10.144C21.3463 10.1571 21.3338 10.132 21.3338 10.0891L21.3369 10.0865ZM23.016 10.2952C22.9398 10.2514 22.8642 10.2079 22.8209 10.1198C22.9328 10.0621 22.9933 10.1314 23.0531 10.1999C23.073 10.2227 23.0928 10.2454 23.1145 10.2634C23.125 10.2721 23.1328 10.2796 23.1383 10.2862C23.1304 10.2802 23.1225 10.2743 23.1145 10.2685L23.0664 10.3249C23.0498 10.3146 23.0329 10.3049 23.016 10.2952ZM23.2492 10.5351L23.0664 10.3249C23.1002 10.3294 23.1786 10.3339 23.1383 10.2862C23.207 10.338 23.272 10.3965 23.3022 10.4838C23.2892 10.4848 23.277 10.4904 23.2674 10.4997C23.2578 10.509 23.2514 10.5214 23.2492 10.5351ZM23.4369 10.8632L23.2492 10.5351L23.3022 10.4838C23.3884 10.5676 23.453 10.6735 23.4899 10.7914C23.4795 10.7904 23.4701 10.7884 23.4618 10.7867C23.4279 10.7795 23.4137 10.7766 23.4369 10.8632ZM23.4369 10.8632C23.4658 10.9708 23.4947 11.0785 23.538 11.2579C23.617 11.0631 23.5631 10.9486 23.5129 10.8417C23.5049 10.8248 23.4971 10.8082 23.4899 10.7914C23.4708 10.814 23.4531 10.838 23.4369 10.8632ZM23.5852 8.02837C23.624 8.02826 23.6628 8.0282 23.7016 8.0282C23.6601 8.03926 23.6217 8.03773 23.5852 8.02837Z" fill="#752FBF"/>
<path d="M20.198 28.5789C20.2125 28.179 19.8371 27.9329 19.5387 28.1021C18.4655 28.707 17.3922 29.312 16.3238 29.9272C16.2324 29.9836 16.1842 29.9784 16.0976 29.922C15.8425 29.7682 13.9861 28.6408 13.7262 28.4921C13.4663 28.3435 12.9533 28.2717 12.8234 28.4921C12.6934 28.7126 12.9303 29.1294 13.1517 29.2678C13.5174 29.4985 15.6019 30.7166 15.9725 30.932C16.0491 30.9782 16.136 31.0017 16.2241 30.9999C16.3121 30.9981 16.3981 30.9711 16.473 30.9217L19.8708 28.9788C20.0344 28.8865 20.1643 28.7532 20.198 28.5789Z" fill="#752FBF"/>
<path d="M25.9143 23.2759L27.8694 21.9621L29.4287 20.9419C29.5827 20.8394 29.5731 20.7471 29.4046 20.6497L26.262 18.8605C26.1789 18.8107 26.0986 18.7559 26.0213 18.6965C25.9381 18.6282 25.8823 18.5288 25.8654 18.4184C25.8484 18.308 25.8714 18.1948 25.9299 18.1018C26.0839 17.8609 26.2908 17.7994 26.5026 17.9173L30.6463 20.2908C30.7176 20.3273 30.784 20.3738 30.8436 20.4293C31.065 20.6651 31.0506 20.9112 30.8051 21.1213C29.4287 21.9621 28.1253 23.0491 26.7135 23.9717C26.0213 24.1306 25.7218 23.5454 25.9143 23.2759Z" fill="#752FBF"/>
<path d="M5.92608 24.0102L3.97102 22.6964L2.41172 21.6763C2.25771 21.5737 2.26734 21.4815 2.43578 21.3841L3.79512 20.5634C3.87815 20.5135 4.78483 19.9333 4.86209 19.8739C5.08304 19.6927 5.02766 19.4035 4.94417 19.2706C4.79016 19.0297 4.33518 19.1527 4.12342 19.2706L1.66121 20.8219C1.41498 20.9943 1.20059 21.0991 1.08663 21.339C0.972667 21.5789 0.922426 21.8561 1.25083 22.2008C2.62726 23.0416 3.7151 23.7835 5.12692 24.706C5.81909 24.865 6.11861 24.2797 5.92608 24.0102Z" fill="#752FBF"/>
</svg>
