<svg width="32" height="32" viewBox="0 0 32 32" fill="none" xmlns="http://www.w3.org/2000/svg">
<path d="M15.0319 23.7819L15.7661 20.8326C15.78 20.7716 15.7924 20.7106 15.811 20.6496C15.8436 20.5499 15.8637 20.4458 16.0186 20.4502C16.1735 20.4547 16.1828 20.5529 16.2075 20.6452C16.2726 20.8877 16.3284 21.1317 16.3888 21.3743C16.6025 22.2284 16.8147 23.081 17.0347 23.959L18.7895 18.9548C18.8933 18.6572 18.9894 18.3596 19.1102 18.062C19.1239 18.0395 19.1323 18.0145 19.1349 17.9887C19.1375 17.9628 19.1342 17.9367 19.1252 17.9122C19.1162 17.8876 19.1017 17.8653 19.0828 17.8467C19.0639 17.8281 19.041 17.8137 19.0157 17.8045C18.8794 17.7227 18.7477 17.6334 18.6145 17.5486C18.5011 17.4819 18.4157 17.3791 18.3732 17.258C18.3308 17.137 18.3339 17.0055 18.3822 16.8864C18.5138 16.5888 18.7198 16.4966 19.0467 16.5576C20.165 16.7614 21.2864 16.946 22.4 17.1692C22.9344 17.2748 23.4842 17.309 23.9923 17.5471C24.2569 17.6659 24.4889 17.8425 24.6697 18.0629C24.8504 18.2834 24.9749 18.5414 25.0331 18.8164C25.2892 19.8937 25.5474 20.9705 25.8076 22.0469C25.8231 22.1123 25.8153 22.1704 25.7534 22.1957C25.5681 22.2771 25.3921 22.3769 25.2283 22.4933C25.0827 22.5796 25.0533 22.4933 25.0285 22.398C24.7714 21.2939 24.5112 20.1883 24.2649 19.0813C24.207 18.8545 24.0856 18.6472 23.9139 18.482C23.7421 18.3168 23.5266 18.1998 23.2906 18.1438C22.4031 17.9801 21.5172 17.8075 20.6296 17.6409C20.5568 17.6275 20.4747 17.6304 20.4097 17.6185C20.2873 17.5992 20.1448 17.5233 20.0519 17.562C19.9342 17.6096 20.0643 17.7525 20.0395 17.8596C19.9788 18.083 19.9054 18.3031 19.8196 18.5188C19.358 19.8312 18.8969 21.1446 18.4364 22.459C18.4028 22.5551 18.3691 22.6512 18.3355 22.7473C16.3115 28.5282 15.4901 27.625 13.7349 22.7473C13.5947 22.3576 13.4544 21.9678 13.3142 21.5781C12.8945 20.419 12.4654 19.2628 12.0472 18.1021C11.9767 17.9635 11.9602 17.8051 12.0007 17.6557C12.0488 17.5367 11.9574 17.556 11.9001 17.5665C11.3549 17.6657 10.8112 17.7678 10.2691 17.873C9.76724 17.9667 9.2685 18.0709 8.76511 18.1572C8.52252 18.2022 8.29849 18.3132 8.11972 18.477C7.94094 18.6408 7.81496 18.8506 7.75678 19.0813C7.62667 19.6765 7.4914 20.2717 7.35097 20.8669C7.22241 21.4189 7.08611 21.968 6.9529 22.5186C6.94579 22.5381 6.93698 22.557 6.92657 22.5751C6.66791 22.5111 6.49133 22.3102 6.25125 22.2224C6.17381 22.1942 6.19549 22.1272 6.20788 22.0736C6.43247 21.1258 6.67255 20.1794 6.8863 19.2315C6.96994 18.8729 7.04119 18.5099 7.25339 18.2003C7.61428 17.6855 8.14555 17.4474 8.76511 17.3418C9.49154 17.2183 10.2118 17.068 10.9336 16.9326C11.6553 16.7972 12.3492 16.6662 13.0586 16.5382C13.1837 16.5307 13.3078 16.5625 13.4124 16.6288C13.5169 16.6951 13.5961 16.7923 13.6379 16.9058C13.6792 17.0195 13.6818 17.143 13.6453 17.2582C13.6089 17.3735 13.5352 17.4747 13.435 17.5471C13.3017 17.645 13.1609 17.733 13.0137 17.8105C12.8681 17.8789 12.8743 17.9593 12.9161 18.0828C13.4324 19.5311 13.9518 20.9795 14.4743 22.4278C14.6385 22.8861 14.8135 23.3414 14.9839 23.7983L15.0319 23.7819Z" fill="#005AC7"/>
<path d="M7.13617 10.4596C5.91719 10.4596 5.37507 11.1753 5.18766 12.1485C5.12593 12.469 5.09431 12.7942 5.09318 13.1201C5.09626 13.1809 5.08676 13.2417 5.06522 13.2989C5.04368 13.3561 5.01054 13.4086 4.96772 13.4534C4.9448 13.4688 4.92588 13.4889 4.91243 13.5124C4.89897 13.5359 4.89135 13.5621 4.89015 13.5889C4.88895 13.6157 4.89421 13.6424 4.90551 13.6669C4.91682 13.6914 4.93387 13.7131 4.95532 13.7302C5.40605 14.193 5.5501 14.8358 5.9745 15.3135C6.09841 15.4533 6.21458 15.6006 6.34468 15.7361C6.46954 15.8516 6.56017 15.997 6.60725 16.1573C6.65434 16.3176 6.6562 16.487 6.61264 16.6482C6.51041 17.05 6.21922 17.2434 5.82735 17.3312C5.08543 17.4949 4.34351 17.6541 3.60159 17.8163C3.26703 17.8892 2.93557 17.983 2.59791 18.0365C2.39345 18.0693 2.33305 18.1853 2.28813 18.3445C2.15647 18.9189 2.02172 19.4933 1.88851 20.0677C1.85289 20.2165 1.86373 20.4129 1.7677 20.5036C1.67167 20.5944 1.46567 20.4783 1.31542 20.4456C1.00565 20.3787 0.945238 20.4754 1.04282 20.0632C1.20855 19.3594 1.36499 18.654 1.54311 17.9532C1.58797 17.7837 1.68366 17.6306 1.81831 17.5128C1.95296 17.3951 2.12064 17.318 2.30052 17.291C3.38475 17.0425 4.48136 16.8059 5.57179 16.5619C5.81806 16.5068 5.84439 16.4533 5.68176 16.2643C5.32589 15.8712 5.02111 15.438 4.7741 14.9742C4.66617 14.7506 4.53155 14.5399 4.37294 14.3462C4.12976 14.0486 3.89123 13.6543 4.09104 13.3046C4.38068 12.8106 4.26607 12.2749 4.41786 11.775C4.56965 11.275 4.76481 10.7884 5.13964 10.4015C5.52382 10.011 6.03748 9.76112 6.59251 9.69472C7.1542 9.60677 7.72997 9.65798 8.26531 9.84352C8.55643 9.94735 8.82293 10.1062 9.04907 10.3107C9.2752 10.5151 9.45637 10.7611 9.58187 11.0339C9.859 11.6061 9.99571 12.2318 9.98149 12.8627C9.98149 12.9267 9.97064 12.9966 10.0326 13.0413C10.3269 13.254 10.2665 13.5412 10.1875 13.815C10.13 14.0606 9.99727 14.2839 9.80646 14.4564C9.72205 14.5348 9.65788 14.6311 9.61904 14.7376C9.40507 15.2211 9.11285 15.6691 8.75321 16.0649C8.68971 16.1348 8.6355 16.2137 8.57199 16.2792C8.43104 16.4369 8.45428 16.5098 8.67112 16.5604C8.81207 16.5946 8.95612 16.6214 9.09862 16.6482C9.14668 16.6527 9.19127 16.6742 9.22366 16.7086C9.25604 16.743 9.27386 16.7878 9.27364 16.8342C9.28758 16.9637 9.19929 16.983 9.10171 17.0113C8.88022 17.0559 8.65408 17.0857 8.43569 17.1422C7.47692 17.3877 6.90228 17.98 6.69318 18.9159C6.47014 19.9084 6.21612 20.895 5.99308 21.892C5.95901 22.0408 5.88621 22.0259 5.79947 21.9887C5.64897 21.9187 5.49373 21.8585 5.3348 21.8086C5.31375 21.8036 5.29404 21.7944 5.27692 21.7816C5.25981 21.7688 5.24569 21.7527 5.23547 21.7343C5.22525 21.716 5.21916 21.6957 5.21759 21.6749C5.21603 21.6542 5.21902 21.6333 5.22638 21.6137C5.32241 21.2179 5.4045 20.8206 5.49899 20.4233C5.65388 19.7537 5.80877 19.0841 5.98534 18.416C6.08383 18.0443 6.26293 17.6969 6.5109 17.3963C6.75886 17.0958 7.07011 16.849 7.42426 16.672C7.48768 16.6496 7.54243 16.609 7.58119 16.5558C7.61995 16.5026 7.64085 16.4393 7.64111 16.3744C7.65081 16.1378 7.75511 15.914 7.9323 15.7494C8.34766 15.3435 8.67696 14.8639 8.90191 14.3373C8.96756 14.1957 9.05999 14.0671 9.17451 13.9579C9.38516 13.751 9.40839 13.6246 9.27984 13.3731C9.21322 13.2159 9.18055 13.0473 9.18381 12.8776C9.14508 12.2973 9.07848 11.7214 8.73617 11.2155C8.35205 10.659 7.7929 10.4566 7.13617 10.4596Z" fill="#005AC7"/>
<path d="M24.8688 10.4626C23.7567 10.4447 23.1263 11.1054 22.9311 12.1336C22.8687 12.4314 22.8386 12.7346 22.8413 13.0383C22.8494 13.1601 22.8127 13.2807 22.7375 13.3791C22.5501 13.5993 22.6833 13.769 22.8242 13.9163C22.969 14.0661 23.0868 14.2381 23.1727 14.4252C23.4042 14.9332 23.7314 15.3958 24.1377 15.7897C24.3058 15.9627 24.398 16.1914 24.3948 16.428C24.3912 16.4699 24.4016 16.5118 24.4244 16.5477C24.4472 16.5835 24.4813 16.6115 24.5218 16.6274C25.4744 17.0932 25.9654 17.8729 26.176 18.8594C26.3046 19.4636 26.4517 20.0647 26.5927 20.6659C26.6577 20.9456 26.7305 21.2239 26.794 21.5036C26.808 21.5379 26.8137 21.5747 26.8106 21.6114C26.8075 21.648 26.7957 21.6835 26.7761 21.7151C26.7565 21.7467 26.7296 21.7735 26.6976 21.7936C26.6655 21.8137 26.6291 21.8265 26.5911 21.831C26.4559 21.8648 26.3242 21.9107 26.1977 21.9679C26.0846 22.0185 26.0583 21.9991 26.0304 21.8771C25.8167 20.9471 25.589 20.0216 25.3722 19.0916C25.256 18.5901 25.0995 18.1139 24.6984 17.739C24.3067 17.3805 23.8067 17.1507 23.2703 17.0828C23.1479 17.0649 23.0287 17.0337 22.9063 17.0113C22.8087 16.995 22.7421 16.9607 22.7514 16.8476C22.7487 16.801 22.7647 16.7551 22.7961 16.7194C22.8275 16.6837 22.8719 16.6609 22.9203 16.6557C23.0751 16.6259 23.23 16.6006 23.3849 16.559C23.5398 16.5173 23.5801 16.4355 23.4655 16.306C23.0049 15.8176 22.6312 15.2595 22.3596 14.6543C22.2651 14.4267 22.008 14.2957 21.9135 14.0591C21.8472 13.8877 21.7995 13.7102 21.771 13.5294C21.7543 13.4705 21.7537 13.4086 21.7691 13.3494C21.7846 13.2902 21.8156 13.2359 21.8593 13.1916C22.0668 13.0428 22.0219 12.8479 22.0374 12.6529C22.1024 11.7988 22.2945 10.9819 22.9481 10.348C23.367 9.96073 23.9166 9.73055 24.497 9.69924C25.0465 9.63272 25.6045 9.70557 26.1156 9.91054C26.5806 10.0999 26.9668 10.4322 27.2138 10.8554C27.5544 11.4554 27.7308 12.1287 27.7265 12.8122C27.7199 12.9321 27.7627 13.0497 27.8457 13.1395C27.907 13.2051 27.9502 13.2845 27.9713 13.3702C27.9924 13.456 27.9908 13.5455 27.9666 13.6306C27.9127 13.9694 27.7465 14.2825 27.4926 14.5234C27.4543 14.5574 27.4242 14.5991 27.4043 14.6454C27.1367 15.2434 26.7706 15.7961 26.3201 16.2822C26.1652 16.4563 26.1977 16.5188 26.4301 16.5709L29.7013 17.297C29.9113 17.3385 30.1028 17.4412 30.2498 17.5911C30.3967 17.7411 30.4918 17.9309 30.5222 18.1348C30.6771 18.8059 30.8212 19.474 30.9869 20.1451C31.0318 20.3281 30.959 20.3921 30.8026 20.4174C30.6105 20.4486 30.355 20.6123 30.2512 20.5111C30.1195 20.3847 30.1242 20.1243 30.0777 19.9159C29.9662 19.4308 29.8299 18.9472 29.7571 18.4562C29.7029 18.0976 29.4473 18.041 29.1716 17.98C28.2299 17.7762 27.2897 17.5664 26.348 17.3655C26.0196 17.2941 25.7052 17.2167 25.5147 16.9191C25.4047 16.7501 25.3544 16.5516 25.3712 16.353C25.3879 16.1544 25.4708 15.9662 25.6076 15.8165C26.06 15.3765 26.4151 14.8531 26.6515 14.2779C26.729 14.0844 26.9257 13.9802 27.0295 13.8076C27.1054 13.6782 27.1549 13.574 27.045 13.4267C26.8359 13.1499 26.9241 12.8092 26.8823 12.4982C26.808 11.9491 26.6856 11.4209 26.2876 10.9968C25.9514 10.6233 25.4821 10.4626 24.8688 10.4626Z" fill="#005AC7"/>
<path d="M15.8717 17.331C15.4473 17.3161 14.9718 17.0914 14.5474 16.7774C13.5018 15.987 12.69 14.947 12.1931 13.7612C12.0955 13.538 11.8942 13.3952 11.7532 13.2062C11.4001 12.7271 11.1693 12.2137 11.2731 11.6096C11.28 11.5455 11.3006 11.4834 11.3336 11.4273C11.3667 11.3713 11.4115 11.3224 11.4651 11.2837C11.5258 11.2439 11.5735 11.1884 11.6026 11.1236C11.6316 11.0588 11.6409 10.9873 11.6293 10.9176C11.6417 9.87603 11.8214 8.86567 12.3434 7.94162C12.5945 7.4617 12.9601 7.0456 13.4104 6.72727C13.8607 6.40893 14.383 6.19738 14.9347 6.10987C15.8501 5.92354 16.8007 5.9749 17.6886 6.25868C18.7248 6.6158 19.411 7.32707 19.8571 8.27345C20.1086 8.84408 20.2709 9.44729 20.3388 10.0635C20.3904 10.3584 20.4085 10.6577 20.393 10.9563C20.3855 11.0153 20.3941 11.0751 20.418 11.1299C20.4419 11.1847 20.4803 11.2326 20.5293 11.2688C20.839 11.5337 20.8205 11.8789 20.7368 12.2301C20.629 12.7109 20.3757 13.1504 20.0088 13.4934C19.9063 13.6135 19.8275 13.7507 19.7765 13.8981C19.4168 14.6488 18.9474 15.3462 18.3825 15.9694C17.9539 16.4587 17.4271 16.86 16.8336 17.1494C16.5342 17.2873 16.2032 17.3497 15.8717 17.331ZM16.0158 16.523C16.171 16.5334 16.3259 16.4987 16.4603 16.4233C16.9963 16.1454 17.47 15.7687 17.8543 15.3147C18.3891 14.7113 18.8219 14.0309 19.1368 13.2985C19.1945 13.1514 19.2879 13.0198 19.4094 12.9146C19.6609 12.6929 19.8391 12.4052 19.9221 12.0872C19.9497 12.0291 19.9565 11.9638 19.9413 11.9016C19.9262 11.8394 19.89 11.7838 19.8385 11.7435C19.6938 11.6173 19.607 11.4414 19.5968 11.2539C19.5767 11.0352 19.569 10.8075 19.5566 10.5977C19.5323 9.95529 19.3935 9.32163 19.1461 8.72431C18.8363 8.02644 18.3918 7.44909 17.6576 7.11875C16.8813 6.78086 16.0125 6.69165 15.1794 6.8643C14.7154 6.93922 14.2771 7.12047 13.9015 7.39271C13.5259 7.66494 13.2241 8.02014 13.0218 8.4282C12.568 9.27041 12.4657 10.187 12.4363 11.1066C12.4411 11.2238 12.4202 11.3405 12.3751 11.4495C12.3301 11.5584 12.2617 11.657 12.1745 11.739C12.1311 11.7726 12.0993 11.818 12.0832 11.8692C12.0672 11.9205 12.0677 11.9752 12.0847 12.0262C12.1599 12.3389 12.3259 12.6248 12.5633 12.8506C12.708 12.9733 12.8219 13.1259 12.8963 13.297C13.361 14.3386 13.9805 15.2686 14.9099 15.9947C15.2274 16.2656 15.5651 16.5111 16.0158 16.523Z" fill="#005AC7"/>
<path d="M15.9782 17.9234C16.114 17.9491 16.2457 17.9916 16.3701 18.0499C16.5637 18.1258 16.7697 18.1764 16.9618 18.2523C16.996 18.2639 17.0268 18.2834 17.0514 18.309C17.0761 18.3347 17.0938 18.3657 17.1031 18.3994C17.1125 18.4332 17.1131 18.4686 17.1049 18.5026C17.0967 18.5366 17.08 18.5681 17.0563 18.5945C16.7744 18.9844 16.493 19.3752 16.2121 19.7671C16.0774 19.9561 15.9441 19.9546 15.8063 19.7671C15.5259 19.3757 15.2378 18.9888 14.9652 18.5916C14.8878 18.4785 14.8537 18.3341 15.0442 18.2642C15.3602 18.1437 15.6793 18.0306 15.9782 17.9234Z" fill="#005AC7"/>
</svg>
