<svg width="500" height="500" viewBox="0 0 500 500" fill="none" xmlns="http://www.w3.org/2000/svg">
<g style="mix-blend-mode:soft-light" opacity="0.35">
<path d="M224.048 72.0582C239.002 59.3139 260.998 59.3139 275.952 72.0582L301.389 93.7352C307.797 99.1964 315.765 102.497 324.158 103.167L357.473 105.825C377.059 107.388 392.612 122.941 394.175 142.527L396.833 175.842C397.503 184.235 400.804 192.203 406.265 198.611L427.942 224.048C440.686 239.002 440.686 260.998 427.942 275.952L406.265 301.389C400.804 307.797 397.503 315.765 396.833 324.158L394.175 357.473C392.612 377.059 377.059 392.612 357.473 394.175L324.158 396.833C315.765 397.503 307.797 400.804 301.389 406.265L275.952 427.942C260.998 440.686 239.002 440.686 224.048 427.942L198.611 406.265C192.203 400.804 184.235 397.503 175.842 396.833L142.527 394.175C122.941 392.612 107.388 377.059 105.825 357.473L103.167 324.158C102.497 315.765 99.1964 307.797 93.7352 301.389L72.0582 275.952C59.3139 260.998 59.3139 239.002 72.0582 224.048L93.7352 198.611C99.1964 192.203 102.497 184.235 103.167 175.842L105.825 142.527C107.388 122.941 122.941 107.388 142.527 105.825L175.842 103.167C184.235 102.497 192.203 99.1964 198.611 93.7352L224.048 72.0582Z" stroke="white" stroke-width="25" stroke-linecap="round" stroke-linejoin="round"/>
<path d="M320 320L248.719 250M248.719 250L180 320M248.719 250L320 180M248.719 250L180 180" stroke="white" stroke-width="25" stroke-linecap="round" stroke-linejoin="round"/>
</g>
</svg>
